M48
;DRILL file {KiCad 4.0.4+e1-6308~48~ubuntu16.04.1-stable} date Fri Dec 16 12:07:21 2016
;FORMAT={-:-/ absolute / metric / decimal}
FMAT,2
METRIC,TZ
T1C0.508
T2C0.600
T3C0.800
T4C0.800
T5C0.900
T6C1.001
T7C1.016
T8C1.200
T9C1.270
T10C1.295
T11C1.524
T12C1.700
T13C2.200
T14C3.000
T15C3.200
T16C1.295
%
G90
G05
M71
T1
X66.802Y-69.596
X68.58Y-64.516
X75.692Y-92.71
X80.264Y-82.042
X80.264Y-94.488
X84.328Y-87.122
X84.328Y-91.948
X86.868Y-86.614
X89.916Y-86.614
T2
X62.484Y-55.118
X63.754Y-55.118
X65.024Y-55.118
X82.042Y-86.868
X82.042Y-88.138
X82.042Y-89.408
X82.042Y-93.218
X82.042Y-94.488
X82.042Y-95.758
T3
X61.722Y-73.152
X71.12Y-60.706
X71.12Y-63.246
X71.12Y-65.786
X71.12Y-68.326
X78.74Y-60.706
X78.74Y-63.246
X78.74Y-65.786
X78.74Y-68.326
X80.264Y-76.24
X85.344Y-74.168
X85.344Y-76.708
X85.344Y-79.248
X85.344Y-81.788
X90.932Y-88.392
X90.932Y-98.258
X92.924Y-62.992
X92.964Y-74.168
X92.964Y-76.708
X92.964Y-79.248
X92.964Y-81.788
X98.044Y-66.548
X104.14Y-72.136
T4
X64.222Y-73.152
X80.264Y-78.74
X90.424Y-62.992
X90.932Y-90.892
X90.932Y-95.758
X100.544Y-66.548
X101.64Y-72.136
T5
X60.532Y-88.138
X61.468Y-48.26
X62.738Y-62.056
X62.738Y-67.056
X63.246Y-77.804
X63.246Y-82.804
X65.532Y-88.138
X66.468Y-48.26
X69.342Y-92.964
X69.342Y-97.964
X77.296Y-101.346
X82.296Y-101.346
X99.568Y-57.404
X99.568Y-62.404
X103.124Y-76.534
X103.124Y-81.534
T6
X69.596Y-75.438
X69.596Y-83.058
X71.12Y-40.894
X71.12Y-44.704
X71.12Y-48.514
X71.12Y-52.578
X73.914Y-88.392
X73.914Y-96.012
X74.422Y-75.692
X74.422Y-83.312
X77.216Y-108.712
X77.47Y-88.392
X77.47Y-96.012
X78.74Y-40.894
X78.74Y-44.704
X78.74Y-48.514
X78.74Y-52.578
X79.756Y-108.712
X82.296Y-50.038
X83.82Y-106.68
X85.09Y-54.61
X85.09Y-58.928
X85.09Y-67.818
X86.106Y-90.424
X86.106Y-98.044
X89.408Y-104.14
X89.916Y-50.038
X91.948Y-104.14
X92.71Y-54.61
X92.71Y-58.928
X92.71Y-67.818
X94.488Y-104.14
X95.753Y-97.536
X97.536Y-72.644
X97.536Y-80.264
X101.653Y-43.746
X101.653Y-46.246
X101.679Y-91.481
X101.679Y-93.98
X101.679Y-108.499
X101.679Y-110.998
T7
X61.976Y-94.742
X61.976Y-97.282
X75.184Y-116.078
X77.724Y-116.078
X93.98Y-47.752
X96.52Y-47.752
T8
X86.36Y-42.926
T9
X83.82Y-116.84
X95.753Y-87.376
T10
X106.934Y-62.23
X112.014Y-57.15
X112.014Y-59.69
X112.014Y-64.77
X112.014Y-67.31
T11
X111.76Y-72.39
X111.76Y-77.47
X111.76Y-82.55
T12
X83.82Y-40.386
X83.82Y-45.466
X88.9Y-40.386
X88.9Y-45.466
T13
X105.918Y-41.148
X105.918Y-51.346
X105.943Y-88.882
X105.943Y-99.08
X105.943Y-105.9
X105.943Y-116.098
T14
X66.391Y-105.41
X69.39Y-110.109
X72.39Y-105.41
X91.313Y-109.522
X91.313Y-115.522
X96.012Y-112.522
T15
X63.5Y-41.91
X63.5Y-114.3
X95.25Y-41.91
T16
X104.394Y-57.15
X104.394Y-67.31
X106.934Y-57.15
X106.934Y-67.31
X112.014Y-62.23
T0
M30
