%TF.GenerationSoftware,KiCad,Pcbnew,4.0.5-e0-6337~49~ubuntu16.04.1*%
%TF.CreationDate,2017-04-01T19:42:10-07:00*%
%TF.ProjectId,throwie-layers,7468726F7769652D6C61796572732E6B,1.0*%
%TF.FileFunction,Legend,Top*%
%FSLAX46Y46*%
G04 Gerber Fmt 4.6, Leading zero omitted, Abs format (unit mm)*
G04 Created by KiCad (PCBNEW 4.0.5-e0-6337~49~ubuntu16.04.1) date Sat Apr  1 19:42:10 2017*
%MOMM*%
%LPD*%
G01*
G04 APERTURE LIST*
%ADD10C,0.350000*%
%ADD11C,0.250000*%
%ADD12C,0.150000*%
%ADD13C,0.152400*%
%ADD14R,2.652400X5.252400*%
%ADD15C,10.352400*%
G04 APERTURE END LIST*
D10*
D11*
X54459999Y-22728333D02*
X55259999Y-22728333D01*
X54859999Y-24128333D02*
X54859999Y-22728333D01*
X55726666Y-24128333D02*
X55726666Y-22728333D01*
X56326666Y-24128333D02*
X56326666Y-23395000D01*
X56260000Y-23261667D01*
X56126666Y-23195000D01*
X55926666Y-23195000D01*
X55793333Y-23261667D01*
X55726666Y-23328333D01*
X56993333Y-24128333D02*
X56993333Y-23195000D01*
X56993333Y-23461667D02*
X57060000Y-23328333D01*
X57126667Y-23261667D01*
X57260000Y-23195000D01*
X57393333Y-23195000D01*
X58060000Y-24128333D02*
X57926667Y-24061667D01*
X57860000Y-23995000D01*
X57793334Y-23861667D01*
X57793334Y-23461667D01*
X57860000Y-23328333D01*
X57926667Y-23261667D01*
X58060000Y-23195000D01*
X58260000Y-23195000D01*
X58393334Y-23261667D01*
X58460000Y-23328333D01*
X58526667Y-23461667D01*
X58526667Y-23861667D01*
X58460000Y-23995000D01*
X58393334Y-24061667D01*
X58260000Y-24128333D01*
X58060000Y-24128333D01*
X58993334Y-23195000D02*
X59260001Y-24128333D01*
X59526667Y-23461667D01*
X59793334Y-24128333D01*
X60060001Y-23195000D01*
X60593334Y-24128333D02*
X60593334Y-23195000D01*
X60593334Y-22728333D02*
X60526668Y-22795000D01*
X60593334Y-22861667D01*
X60660001Y-22795000D01*
X60593334Y-22728333D01*
X60593334Y-22861667D01*
X61793335Y-24061667D02*
X61660001Y-24128333D01*
X61393335Y-24128333D01*
X61260001Y-24061667D01*
X61193335Y-23928333D01*
X61193335Y-23395000D01*
X61260001Y-23261667D01*
X61393335Y-23195000D01*
X61660001Y-23195000D01*
X61793335Y-23261667D01*
X61860001Y-23395000D01*
X61860001Y-23528333D01*
X61193335Y-23661667D01*
X63393335Y-23195000D02*
X63726668Y-24128333D01*
X64060002Y-23195000D01*
X65326669Y-24128333D02*
X64526669Y-24128333D01*
X64926669Y-24128333D02*
X64926669Y-22728333D01*
X64793335Y-22928333D01*
X64660002Y-23061667D01*
X64526669Y-23128333D01*
X65926668Y-23995000D02*
X65993335Y-24061667D01*
X65926668Y-24128333D01*
X65860002Y-24061667D01*
X65926668Y-23995000D01*
X65926668Y-24128333D01*
X66860002Y-22728333D02*
X66993335Y-22728333D01*
X67126669Y-22795000D01*
X67193335Y-22861667D01*
X67260002Y-22995000D01*
X67326669Y-23261667D01*
X67326669Y-23595000D01*
X67260002Y-23861667D01*
X67193335Y-23995000D01*
X67126669Y-24061667D01*
X66993335Y-24128333D01*
X66860002Y-24128333D01*
X66726669Y-24061667D01*
X66660002Y-23995000D01*
X66593335Y-23861667D01*
X66526669Y-23595000D01*
X66526669Y-23261667D01*
X66593335Y-22995000D01*
X66660002Y-22861667D01*
X66726669Y-22795000D01*
X66860002Y-22728333D01*
D12*
X59488436Y-40377612D02*
G75*
G03X62513340Y-40362500I1524904J-2484888D01*
G01*
X59513340Y-40362500D02*
X62513340Y-40362500D01*
X63531276Y-42862500D02*
G75*
G03X63531276Y-42862500I-2517936J0D01*
G01*
D13*
X53283660Y-27021400D02*
X53283660Y-28521400D01*
X56533660Y-27021400D02*
X53283660Y-27021400D01*
X69033660Y-27021400D02*
X69033660Y-28521400D01*
X68783660Y-27021400D02*
X69033660Y-27021400D01*
X65533660Y-27021400D02*
X68783660Y-27021400D01*
X65498154Y-26988013D02*
G75*
G03X56533660Y-27021400I-4464494J-4783387D01*
G01*
X56819166Y-36054787D02*
G75*
G03X65783660Y-36021400I4464494J4783387D01*
G01*
X56783660Y-36021400D02*
X53533660Y-36021400D01*
X53533660Y-36021400D02*
X53283660Y-36021400D01*
X53283660Y-36021400D02*
X53283660Y-34521400D01*
X65783660Y-36021400D02*
X69033660Y-36021400D01*
X69033660Y-36021400D02*
X69033660Y-34521400D01*
D12*
X59840953Y-39822381D02*
X59364762Y-39822381D01*
X59364762Y-38822381D01*
X60174286Y-39298571D02*
X60507620Y-39298571D01*
X60650477Y-39822381D02*
X60174286Y-39822381D01*
X60174286Y-38822381D01*
X60650477Y-38822381D01*
X61079048Y-39822381D02*
X61079048Y-38822381D01*
X61317143Y-38822381D01*
X61460001Y-38870000D01*
X61555239Y-38965238D01*
X61602858Y-39060476D01*
X61650477Y-39250952D01*
X61650477Y-39393810D01*
X61602858Y-39584286D01*
X61555239Y-39679524D01*
X61460001Y-39774762D01*
X61317143Y-39822381D01*
X61079048Y-39822381D01*
X62602858Y-39822381D02*
X62031429Y-39822381D01*
X62317143Y-39822381D02*
X62317143Y-38822381D01*
X62221905Y-38965238D01*
X62126667Y-39060476D01*
X62031429Y-39108095D01*
X66095715Y-36758571D02*
X66238572Y-36806190D01*
X66286191Y-36853810D01*
X66333810Y-36949048D01*
X66333810Y-37091905D01*
X66286191Y-37187143D01*
X66238572Y-37234762D01*
X66143334Y-37282381D01*
X65762381Y-37282381D01*
X65762381Y-36282381D01*
X66095715Y-36282381D01*
X66190953Y-36330000D01*
X66238572Y-36377619D01*
X66286191Y-36472857D01*
X66286191Y-36568095D01*
X66238572Y-36663333D01*
X66190953Y-36710952D01*
X66095715Y-36758571D01*
X65762381Y-36758571D01*
X66714762Y-36996667D02*
X67190953Y-36996667D01*
X66619524Y-37282381D02*
X66952857Y-36282381D01*
X67286191Y-37282381D01*
X67476667Y-36282381D02*
X68048096Y-36282381D01*
X67762381Y-37282381D02*
X67762381Y-36282381D01*
X68905239Y-37282381D02*
X68333810Y-37282381D01*
X68619524Y-37282381D02*
X68619524Y-36282381D01*
X68524286Y-36425238D01*
X68429048Y-36520476D01*
X68333810Y-36568095D01*
%LPC*%
D14*
X68683660Y-31521400D03*
X53383660Y-31521400D03*
D15*
X61033660Y-31521400D03*
M02*
