%TF.GenerationSoftware,KiCad,Pcbnew,4.0.5-e0-6337~49~ubuntu16.04.1*%
%TF.CreationDate,2017-04-01T19:42:10-07:00*%
%TF.ProjectId,throwie-layers,7468726F7769652D6C61796572732E6B,1.0*%
%TF.FileFunction,Legend,Bot*%
%FSLAX46Y46*%
G04 Gerber Fmt 4.6, Leading zero omitted, Abs format (unit mm)*
G04 Created by KiCad (PCBNEW 4.0.5-e0-6337~49~ubuntu16.04.1) date Sat Apr  1 19:42:10 2017*
%MOMM*%
%LPD*%
G01*
G04 APERTURE LIST*
%ADD10C,0.350000*%
%ADD11C,0.500000*%
%ADD12C,0.750000*%
%ADD13R,2.152400X2.052400*%
%ADD14C,2.052400*%
G04 APERTURE END LIST*
D10*
%LPC*%
D11*
X68896430Y-38369762D02*
X68896430Y-36369762D01*
X67753572Y-38369762D01*
X67753572Y-36369762D01*
X66515477Y-38369762D02*
X66705953Y-38274524D01*
X66801192Y-38179286D01*
X66896430Y-37988810D01*
X66896430Y-37417381D01*
X66801192Y-37226905D01*
X66705953Y-37131667D01*
X66515477Y-37036429D01*
X66229763Y-37036429D01*
X66039287Y-37131667D01*
X65944049Y-37226905D01*
X65848811Y-37417381D01*
X65848811Y-37988810D01*
X65944049Y-38179286D01*
X66039287Y-38274524D01*
X66229763Y-38369762D01*
X66515477Y-38369762D01*
X62515477Y-38369762D02*
X63467858Y-38369762D01*
X63467858Y-36369762D01*
X61848810Y-38369762D02*
X61848810Y-37036429D01*
X61848810Y-36369762D02*
X61944048Y-36465000D01*
X61848810Y-36560238D01*
X61753571Y-36465000D01*
X61848810Y-36369762D01*
X61848810Y-36560238D01*
X60039286Y-37036429D02*
X60039286Y-38655476D01*
X60134524Y-38845952D01*
X60229762Y-38941190D01*
X60420238Y-39036429D01*
X60705952Y-39036429D01*
X60896429Y-38941190D01*
X60039286Y-38274524D02*
X60229762Y-38369762D01*
X60610714Y-38369762D01*
X60801190Y-38274524D01*
X60896429Y-38179286D01*
X60991667Y-37988810D01*
X60991667Y-37417381D01*
X60896429Y-37226905D01*
X60801190Y-37131667D01*
X60610714Y-37036429D01*
X60229762Y-37036429D01*
X60039286Y-37131667D01*
X59086905Y-38369762D02*
X59086905Y-36369762D01*
X58229762Y-38369762D02*
X58229762Y-37322143D01*
X58325000Y-37131667D01*
X58515476Y-37036429D01*
X58801190Y-37036429D01*
X58991666Y-37131667D01*
X59086905Y-37226905D01*
X57563095Y-37036429D02*
X56801190Y-37036429D01*
X57277381Y-36369762D02*
X57277381Y-38084048D01*
X57182142Y-38274524D01*
X56991666Y-38369762D01*
X56801190Y-38369762D01*
X54610714Y-38179286D02*
X54515475Y-38274524D01*
X54610714Y-38369762D01*
X54705952Y-38274524D01*
X54610714Y-38179286D01*
X54610714Y-38369762D01*
X54610714Y-37131667D02*
X54515475Y-37226905D01*
X54610714Y-37322143D01*
X54705952Y-37226905D01*
X54610714Y-37131667D01*
X54610714Y-37322143D01*
X53086904Y-39131667D02*
X53182142Y-39036429D01*
X53372618Y-38750714D01*
X53467856Y-38560238D01*
X53563094Y-38274524D01*
X53658333Y-37798333D01*
X53658333Y-37417381D01*
X53563094Y-36941190D01*
X53467856Y-36655476D01*
X53372618Y-36465000D01*
X53182142Y-36179286D01*
X53086904Y-36084048D01*
D12*
X65031428Y-29932143D02*
X66459999Y-29932143D01*
X66459999Y-26932143D01*
X64031428Y-29932143D02*
X64031428Y-27932143D01*
X64031428Y-26932143D02*
X64174285Y-27075000D01*
X64031428Y-27217857D01*
X63888571Y-27075000D01*
X64031428Y-26932143D01*
X64031428Y-27217857D01*
X61317143Y-27932143D02*
X61317143Y-30360714D01*
X61460000Y-30646429D01*
X61602857Y-30789286D01*
X61888572Y-30932143D01*
X62317143Y-30932143D01*
X62602857Y-30789286D01*
X61317143Y-29789286D02*
X61602857Y-29932143D01*
X62174286Y-29932143D01*
X62460000Y-29789286D01*
X62602857Y-29646429D01*
X62745714Y-29360714D01*
X62745714Y-28503571D01*
X62602857Y-28217857D01*
X62460000Y-28075000D01*
X62174286Y-27932143D01*
X61602857Y-27932143D01*
X61317143Y-28075000D01*
X59888571Y-29932143D02*
X59888571Y-26932143D01*
X58602857Y-29932143D02*
X58602857Y-28360714D01*
X58745714Y-28075000D01*
X59031428Y-27932143D01*
X59460000Y-27932143D01*
X59745714Y-28075000D01*
X59888571Y-28217857D01*
X57602857Y-27932143D02*
X56460000Y-27932143D01*
X57174285Y-26932143D02*
X57174285Y-29503571D01*
X57031428Y-29789286D01*
X56745714Y-29932143D01*
X56460000Y-29932143D01*
X55459999Y-29646429D02*
X55317142Y-29789286D01*
X55459999Y-29932143D01*
X55602856Y-29789286D01*
X55459999Y-29646429D01*
X55459999Y-29932143D01*
X55459999Y-28789286D02*
X55602856Y-27075000D01*
X55459999Y-26932143D01*
X55317142Y-27075000D01*
X55459999Y-28789286D01*
X55459999Y-26932143D01*
D13*
X61013340Y-41592500D03*
D14*
X61013340Y-44132500D03*
M02*
