%TF.GenerationSoftware,KiCad,Pcbnew,4.0.5-e0-6337~49~ubuntu16.04.1*%
%TF.CreationDate,2017-04-01T19:42:10-07:00*%
%TF.ProjectId,throwie-layers,7468726F7769652D6C61796572732E6B,1.0*%
%TF.FileFunction,Soldermask,Top*%
%FSLAX46Y46*%
G04 Gerber Fmt 4.6, Leading zero omitted, Abs format (unit mm)*
G04 Created by KiCad (PCBNEW 4.0.5-e0-6337~49~ubuntu16.04.1) date Sat Apr  1 19:42:10 2017*
%MOMM*%
%LPD*%
G01*
G04 APERTURE LIST*
%ADD10C,0.350000*%
G04 APERTURE END LIST*
D10*
G36*
X61577342Y-26348646D02*
X62571707Y-26552760D01*
X63507502Y-26946132D01*
X64349061Y-27513771D01*
X65064339Y-28234059D01*
X65626088Y-29079561D01*
X66012915Y-30018072D01*
X66210014Y-31013498D01*
X66210014Y-31013503D01*
X66210082Y-31013847D01*
X66193892Y-32173289D01*
X66193815Y-32173627D01*
X66193815Y-32173636D01*
X65968998Y-33163172D01*
X65556119Y-34090512D01*
X64970978Y-34920002D01*
X64235867Y-35620039D01*
X63378786Y-36163959D01*
X62432376Y-36531047D01*
X61432697Y-36707318D01*
X60417812Y-36686059D01*
X59426385Y-36468080D01*
X58496179Y-36061683D01*
X57662630Y-35482351D01*
X56957478Y-34752145D01*
X56407586Y-33898879D01*
X56033899Y-32955054D01*
X55850655Y-31956631D01*
X55864827Y-30941624D01*
X56075880Y-29948698D01*
X56475771Y-29015681D01*
X57049274Y-28178102D01*
X57774537Y-27467871D01*
X58623943Y-26912036D01*
X59565134Y-26531770D01*
X60562255Y-26341559D01*
X61577342Y-26348646D01*
X61577342Y-26348646D01*
G37*
G36*
X70009860Y-34147600D02*
X67357460Y-34147600D01*
X67357460Y-28895200D01*
X70009860Y-28895200D01*
X70009860Y-34147600D01*
X70009860Y-34147600D01*
G37*
G36*
X54709860Y-34147600D02*
X52057460Y-34147600D01*
X52057460Y-28895200D01*
X54709860Y-28895200D01*
X54709860Y-34147600D01*
X54709860Y-34147600D01*
G37*
M02*
