G04 #@! TF.FileFunction,Legend,Top*
%FSLAX46Y46*%
G04 Gerber Fmt 4.6, Leading zero omitted, Abs format (unit mm)*
G04 Created by KiCad (PCBNEW 4.0.1-3.201512221402+6198~38~ubuntu14.04.1-stable) date Mon 23 May 2016 08:12:34 PM PDT*
%MOMM*%
G01*
G04 APERTURE LIST*
%ADD10C,0.100000*%
%ADD11C,0.203200*%
%ADD12C,0.150000*%
G04 APERTURE END LIST*
D10*
D11*
X124774476Y-110568619D02*
X124290667Y-110568619D01*
X124242286Y-111052429D01*
X124290667Y-111004048D01*
X124387429Y-110955667D01*
X124629333Y-110955667D01*
X124726095Y-111004048D01*
X124774476Y-111052429D01*
X124822857Y-111149190D01*
X124822857Y-111391095D01*
X124774476Y-111487857D01*
X124726095Y-111536238D01*
X124629333Y-111584619D01*
X124387429Y-111584619D01*
X124290667Y-111536238D01*
X124242286Y-111487857D01*
X125113143Y-110568619D02*
X125451810Y-111584619D01*
X125790476Y-110568619D01*
X132080000Y-110935105D02*
X132031619Y-111031867D01*
X132031619Y-111177010D01*
X132080000Y-111322152D01*
X132176762Y-111418914D01*
X132273524Y-111467295D01*
X132467048Y-111515676D01*
X132612190Y-111515676D01*
X132805714Y-111467295D01*
X132902476Y-111418914D01*
X132999238Y-111322152D01*
X133047619Y-111177010D01*
X133047619Y-111080248D01*
X132999238Y-110935105D01*
X132950857Y-110886724D01*
X132612190Y-110886724D01*
X132612190Y-111080248D01*
X133047619Y-110451295D02*
X132031619Y-110451295D01*
X133047619Y-109870724D01*
X132031619Y-109870724D01*
X133047619Y-109386914D02*
X132031619Y-109386914D01*
X132031619Y-109145009D01*
X132080000Y-108999867D01*
X132176762Y-108903105D01*
X132273524Y-108854724D01*
X132467048Y-108806343D01*
X132612190Y-108806343D01*
X132805714Y-108854724D01*
X132902476Y-108903105D01*
X132999238Y-108999867D01*
X133047619Y-109145009D01*
X133047619Y-109386914D01*
X134136191Y-110441619D02*
X134765143Y-110441619D01*
X134426477Y-110828667D01*
X134571619Y-110828667D01*
X134668381Y-110877048D01*
X134716762Y-110925429D01*
X134765143Y-111022190D01*
X134765143Y-111264095D01*
X134716762Y-111360857D01*
X134668381Y-111409238D01*
X134571619Y-111457619D01*
X134281334Y-111457619D01*
X134184572Y-111409238D01*
X134136191Y-111360857D01*
X135200572Y-111360857D02*
X135248953Y-111409238D01*
X135200572Y-111457619D01*
X135152191Y-111409238D01*
X135200572Y-111360857D01*
X135200572Y-111457619D01*
X135587620Y-110441619D02*
X136216572Y-110441619D01*
X135877906Y-110828667D01*
X136023048Y-110828667D01*
X136119810Y-110877048D01*
X136168191Y-110925429D01*
X136216572Y-111022190D01*
X136216572Y-111264095D01*
X136168191Y-111360857D01*
X136119810Y-111409238D01*
X136023048Y-111457619D01*
X135732763Y-111457619D01*
X135636001Y-111409238D01*
X135587620Y-111360857D01*
X136506858Y-110441619D02*
X136845525Y-111457619D01*
X137184191Y-110441619D01*
X121920000Y-111062105D02*
X121871619Y-111158867D01*
X121871619Y-111304010D01*
X121920000Y-111449152D01*
X122016762Y-111545914D01*
X122113524Y-111594295D01*
X122307048Y-111642676D01*
X122452190Y-111642676D01*
X122645714Y-111594295D01*
X122742476Y-111545914D01*
X122839238Y-111449152D01*
X122887619Y-111304010D01*
X122887619Y-111207248D01*
X122839238Y-111062105D01*
X122790857Y-111013724D01*
X122452190Y-111013724D01*
X122452190Y-111207248D01*
X122887619Y-110578295D02*
X121871619Y-110578295D01*
X122887619Y-109997724D01*
X121871619Y-109997724D01*
X122887619Y-109513914D02*
X121871619Y-109513914D01*
X121871619Y-109272009D01*
X121920000Y-109126867D01*
X122016762Y-109030105D01*
X122113524Y-108981724D01*
X122307048Y-108933343D01*
X122452190Y-108933343D01*
X122645714Y-108981724D01*
X122742476Y-109030105D01*
X122839238Y-109126867D01*
X122887619Y-109272009D01*
X122887619Y-109513914D01*
X114306048Y-111584619D02*
X114499572Y-111584619D01*
X114596333Y-111536238D01*
X114644714Y-111487857D01*
X114741476Y-111342714D01*
X114789857Y-111149190D01*
X114789857Y-110762143D01*
X114741476Y-110665381D01*
X114693095Y-110617000D01*
X114596333Y-110568619D01*
X114402810Y-110568619D01*
X114306048Y-110617000D01*
X114257667Y-110665381D01*
X114209286Y-110762143D01*
X114209286Y-111004048D01*
X114257667Y-111100810D01*
X114306048Y-111149190D01*
X114402810Y-111197571D01*
X114596333Y-111197571D01*
X114693095Y-111149190D01*
X114741476Y-111100810D01*
X114789857Y-111004048D01*
X115080143Y-110568619D02*
X115418810Y-111584619D01*
X115757476Y-110568619D01*
X111760000Y-111062105D02*
X111711619Y-111158867D01*
X111711619Y-111304010D01*
X111760000Y-111449152D01*
X111856762Y-111545914D01*
X111953524Y-111594295D01*
X112147048Y-111642676D01*
X112292190Y-111642676D01*
X112485714Y-111594295D01*
X112582476Y-111545914D01*
X112679238Y-111449152D01*
X112727619Y-111304010D01*
X112727619Y-111207248D01*
X112679238Y-111062105D01*
X112630857Y-111013724D01*
X112292190Y-111013724D01*
X112292190Y-111207248D01*
X112727619Y-110578295D02*
X111711619Y-110578295D01*
X112727619Y-109997724D01*
X111711619Y-109997724D01*
X112727619Y-109513914D02*
X111711619Y-109513914D01*
X111711619Y-109272009D01*
X111760000Y-109126867D01*
X111856762Y-109030105D01*
X111953524Y-108981724D01*
X112147048Y-108933343D01*
X112292190Y-108933343D01*
X112485714Y-108981724D01*
X112582476Y-109030105D01*
X112679238Y-109126867D01*
X112727619Y-109272009D01*
X112727619Y-109513914D01*
X101600000Y-111062105D02*
X101551619Y-111158867D01*
X101551619Y-111304010D01*
X101600000Y-111449152D01*
X101696762Y-111545914D01*
X101793524Y-111594295D01*
X101987048Y-111642676D01*
X102132190Y-111642676D01*
X102325714Y-111594295D01*
X102422476Y-111545914D01*
X102519238Y-111449152D01*
X102567619Y-111304010D01*
X102567619Y-111207248D01*
X102519238Y-111062105D01*
X102470857Y-111013724D01*
X102132190Y-111013724D01*
X102132190Y-111207248D01*
X102567619Y-110578295D02*
X101551619Y-110578295D01*
X102567619Y-109997724D01*
X101551619Y-109997724D01*
X102567619Y-109513914D02*
X101551619Y-109513914D01*
X101551619Y-109272009D01*
X101600000Y-109126867D01*
X101696762Y-109030105D01*
X101793524Y-108981724D01*
X101987048Y-108933343D01*
X102132190Y-108933343D01*
X102325714Y-108981724D01*
X102422476Y-109030105D01*
X102519238Y-109126867D01*
X102567619Y-109272009D01*
X102567619Y-109513914D01*
X104019048Y-111584619D02*
X104212572Y-111584619D01*
X104309333Y-111536238D01*
X104357714Y-111487857D01*
X104454476Y-111342714D01*
X104502857Y-111149190D01*
X104502857Y-110762143D01*
X104454476Y-110665381D01*
X104406095Y-110617000D01*
X104309333Y-110568619D01*
X104115810Y-110568619D01*
X104019048Y-110617000D01*
X103970667Y-110665381D01*
X103922286Y-110762143D01*
X103922286Y-111004048D01*
X103970667Y-111100810D01*
X104019048Y-111149190D01*
X104115810Y-111197571D01*
X104309333Y-111197571D01*
X104406095Y-111149190D01*
X104454476Y-111100810D01*
X104502857Y-111004048D01*
X104793143Y-110568619D02*
X105131810Y-111584619D01*
X105470476Y-110568619D01*
D12*
X103441500Y-102933500D02*
X100901500Y-102933500D01*
X106261500Y-103213500D02*
X104711500Y-103213500D01*
X103441500Y-102933500D02*
X103441500Y-100393500D01*
X104711500Y-100113500D02*
X106261500Y-100113500D01*
X106261500Y-100113500D02*
X106261500Y-103213500D01*
X103441500Y-100393500D02*
X100901500Y-100393500D01*
X100901500Y-100393500D02*
X100901500Y-102933500D01*
X130075000Y-96992000D02*
X122575000Y-96992000D01*
X122575000Y-96992000D02*
X122575000Y-92492000D01*
X122575000Y-92492000D02*
X130075000Y-92492000D01*
X130075000Y-92492000D02*
X130075000Y-96992000D01*
X134937500Y-97345500D02*
X134937500Y-95440500D01*
X134937500Y-92900500D02*
X134937500Y-93662500D01*
X134937500Y-90487500D02*
X134937500Y-90360500D01*
X134937500Y-90487500D02*
X134937500Y-91122500D01*
X134937500Y-86677500D02*
X134937500Y-88455500D01*
X131254500Y-86677500D02*
X131254500Y-88328500D01*
X131127500Y-90995500D02*
X131127500Y-90360500D01*
X131127500Y-93535500D02*
X131127500Y-92900500D01*
X131254500Y-97345500D02*
X131254500Y-95694500D01*
X136080500Y-90487500D02*
X134937500Y-90487500D01*
X136080500Y-93535500D02*
X134937500Y-93535500D01*
X134937500Y-97345500D02*
X131254500Y-97345500D01*
X131254500Y-86677500D02*
X134937500Y-86677500D01*
X136080500Y-97345500D02*
X134937500Y-97345500D01*
X134937500Y-86677500D02*
X136080500Y-86677500D01*
X136080500Y-92011500D02*
X136080500Y-86677500D01*
X136080500Y-92011500D02*
X136080500Y-97345500D01*
X103441500Y-108140500D02*
X100901500Y-108140500D01*
X106261500Y-108420500D02*
X104711500Y-108420500D01*
X103441500Y-108140500D02*
X103441500Y-105600500D01*
X104711500Y-105320500D02*
X106261500Y-105320500D01*
X106261500Y-105320500D02*
X106261500Y-108420500D01*
X103441500Y-105600500D02*
X100901500Y-105600500D01*
X100901500Y-105600500D02*
X100901500Y-108140500D01*
X113601500Y-108140500D02*
X111061500Y-108140500D01*
X116421500Y-108420500D02*
X114871500Y-108420500D01*
X113601500Y-108140500D02*
X113601500Y-105600500D01*
X114871500Y-105320500D02*
X116421500Y-105320500D01*
X116421500Y-105320500D02*
X116421500Y-108420500D01*
X113601500Y-105600500D02*
X111061500Y-105600500D01*
X111061500Y-105600500D02*
X111061500Y-108140500D01*
X123761500Y-108267500D02*
X121221500Y-108267500D01*
X126581500Y-108547500D02*
X125031500Y-108547500D01*
X123761500Y-108267500D02*
X123761500Y-105727500D01*
X125031500Y-105447500D02*
X126581500Y-105447500D01*
X126581500Y-105447500D02*
X126581500Y-108547500D01*
X123761500Y-105727500D02*
X121221500Y-105727500D01*
X121221500Y-105727500D02*
X121221500Y-108267500D01*
X133921500Y-108140500D02*
X131381500Y-108140500D01*
X136741500Y-108420500D02*
X135191500Y-108420500D01*
X133921500Y-108140500D02*
X133921500Y-105600500D01*
X135191500Y-105320500D02*
X136741500Y-105320500D01*
X136741500Y-105320500D02*
X136741500Y-108420500D01*
X133921500Y-105600500D02*
X131381500Y-105600500D01*
X131381500Y-105600500D02*
X131381500Y-108140500D01*
X120269000Y-97282000D02*
X120269000Y-95377000D01*
X120269000Y-92837000D02*
X120269000Y-93599000D01*
X120269000Y-90424000D02*
X120269000Y-90297000D01*
X120269000Y-90424000D02*
X120269000Y-91059000D01*
X120269000Y-86614000D02*
X120269000Y-88392000D01*
X116586000Y-86614000D02*
X116586000Y-88265000D01*
X116459000Y-90932000D02*
X116459000Y-90297000D01*
X116459000Y-93472000D02*
X116459000Y-92837000D01*
X116586000Y-97282000D02*
X116586000Y-95631000D01*
X121412000Y-90424000D02*
X120269000Y-90424000D01*
X121412000Y-93472000D02*
X120269000Y-93472000D01*
X120269000Y-97282000D02*
X116586000Y-97282000D01*
X116586000Y-86614000D02*
X120269000Y-86614000D01*
X121412000Y-97282000D02*
X120269000Y-97282000D01*
X120269000Y-86614000D02*
X121412000Y-86614000D01*
X121412000Y-91948000D02*
X121412000Y-86614000D01*
X121412000Y-91948000D02*
X121412000Y-97282000D01*
X127885000Y-90404000D02*
X124885000Y-90404000D01*
X124885000Y-87904000D02*
X127885000Y-87904000D01*
X113601500Y-102933500D02*
X111061500Y-102933500D01*
X116421500Y-103213500D02*
X114871500Y-103213500D01*
X113601500Y-102933500D02*
X113601500Y-100393500D01*
X114871500Y-100113500D02*
X116421500Y-100113500D01*
X116421500Y-100113500D02*
X116421500Y-103213500D01*
X113601500Y-100393500D02*
X111061500Y-100393500D01*
X111061500Y-100393500D02*
X111061500Y-102933500D01*
X123761500Y-102997000D02*
X121221500Y-102997000D01*
X126581500Y-103277000D02*
X125031500Y-103277000D01*
X123761500Y-102997000D02*
X123761500Y-100457000D01*
X125031500Y-100177000D02*
X126581500Y-100177000D01*
X126581500Y-100177000D02*
X126581500Y-103277000D01*
X123761500Y-100457000D02*
X121221500Y-100457000D01*
X121221500Y-100457000D02*
X121221500Y-102997000D01*
X133921500Y-102933500D02*
X131381500Y-102933500D01*
X136741500Y-103213500D02*
X135191500Y-103213500D01*
X133921500Y-102933500D02*
X133921500Y-100393500D01*
X135191500Y-100113500D02*
X136741500Y-100113500D01*
X136741500Y-100113500D02*
X136741500Y-103213500D01*
X133921500Y-100393500D02*
X131381500Y-100393500D01*
X131381500Y-100393500D02*
X131381500Y-102933500D01*
X101462840Y-86685120D02*
X101462840Y-95686880D01*
X97962720Y-86685120D02*
X97962720Y-95686880D01*
X97962720Y-95686880D02*
X112463580Y-95686880D01*
X112463580Y-95686880D02*
X112463580Y-86685120D01*
X112463580Y-86685120D02*
X97962720Y-86685120D01*
X126468381Y-98496381D02*
X125896952Y-98496381D01*
X126182666Y-98496381D02*
X126182666Y-97496381D01*
X126087428Y-97639238D01*
X125992190Y-97734476D01*
X125896952Y-97782095D01*
X127087428Y-97496381D02*
X127182667Y-97496381D01*
X127277905Y-97544000D01*
X127325524Y-97591619D01*
X127373143Y-97686857D01*
X127420762Y-97877333D01*
X127420762Y-98115429D01*
X127373143Y-98305905D01*
X127325524Y-98401143D01*
X127277905Y-98448762D01*
X127182667Y-98496381D01*
X127087428Y-98496381D01*
X126992190Y-98448762D01*
X126944571Y-98401143D01*
X126896952Y-98305905D01*
X126849333Y-98115429D01*
X126849333Y-97877333D01*
X126896952Y-97686857D01*
X126944571Y-97591619D01*
X126992190Y-97544000D01*
X127087428Y-97496381D01*
X128039809Y-97496381D02*
X128135048Y-97496381D01*
X128230286Y-97544000D01*
X128277905Y-97591619D01*
X128325524Y-97686857D01*
X128373143Y-97877333D01*
X128373143Y-98115429D01*
X128325524Y-98305905D01*
X128277905Y-98401143D01*
X128230286Y-98448762D01*
X128135048Y-98496381D01*
X128039809Y-98496381D01*
X127944571Y-98448762D01*
X127896952Y-98401143D01*
X127849333Y-98305905D01*
X127801714Y-98115429D01*
X127801714Y-97877333D01*
X127849333Y-97686857D01*
X127896952Y-97591619D01*
X127944571Y-97544000D01*
X128039809Y-97496381D01*
X129230286Y-97829714D02*
X129230286Y-98496381D01*
X128801714Y-97829714D02*
X128801714Y-98353524D01*
X128849333Y-98448762D01*
X128944571Y-98496381D01*
X129087429Y-98496381D01*
X129182667Y-98448762D01*
X129230286Y-98401143D01*
X130039810Y-97972571D02*
X129706476Y-97972571D01*
X129706476Y-98496381D02*
X129706476Y-97496381D01*
X130182667Y-97496381D01*
X137612381Y-96281333D02*
X137612381Y-96757524D01*
X136612381Y-96757524D01*
X137612381Y-95948000D02*
X136612381Y-95948000D01*
X136612381Y-95709905D01*
X136660000Y-95567047D01*
X136755238Y-95471809D01*
X136850476Y-95424190D01*
X137040952Y-95376571D01*
X137183810Y-95376571D01*
X137374286Y-95424190D01*
X137469524Y-95471809D01*
X137564762Y-95567047D01*
X137612381Y-95709905D01*
X137612381Y-95948000D01*
X137612381Y-94424190D02*
X137612381Y-94995619D01*
X137612381Y-94709905D02*
X136612381Y-94709905D01*
X136755238Y-94805143D01*
X136850476Y-94900381D01*
X136898095Y-94995619D01*
X137612381Y-93471809D02*
X137612381Y-94043238D01*
X137612381Y-93757524D02*
X136612381Y-93757524D01*
X136755238Y-93852762D01*
X136850476Y-93948000D01*
X136898095Y-94043238D01*
X137612381Y-92519428D02*
X137612381Y-93090857D01*
X137612381Y-92805143D02*
X136612381Y-92805143D01*
X136755238Y-92900381D01*
X136850476Y-92995619D01*
X136898095Y-93090857D01*
X136612381Y-92186095D02*
X136612381Y-91519428D01*
X137612381Y-91948000D01*
X137231429Y-91138476D02*
X137231429Y-90376571D01*
X136612381Y-89995619D02*
X136612381Y-89376571D01*
X136993333Y-89709905D01*
X136993333Y-89567047D01*
X137040952Y-89471809D01*
X137088571Y-89424190D01*
X137183810Y-89376571D01*
X137421905Y-89376571D01*
X137517143Y-89424190D01*
X137564762Y-89471809D01*
X137612381Y-89567047D01*
X137612381Y-89852762D01*
X137564762Y-89948000D01*
X137517143Y-89995619D01*
X137517143Y-88948000D02*
X137564762Y-88900381D01*
X137612381Y-88948000D01*
X137564762Y-88995619D01*
X137517143Y-88948000D01*
X137612381Y-88948000D01*
X136612381Y-88567048D02*
X136612381Y-87948000D01*
X136993333Y-88281334D01*
X136993333Y-88138476D01*
X137040952Y-88043238D01*
X137088571Y-87995619D01*
X137183810Y-87948000D01*
X137421905Y-87948000D01*
X137517143Y-87995619D01*
X137564762Y-88043238D01*
X137612381Y-88138476D01*
X137612381Y-88424191D01*
X137564762Y-88519429D01*
X137517143Y-88567048D01*
X136612381Y-87662286D02*
X137612381Y-87328953D01*
X136612381Y-86995619D01*
X115768381Y-96662286D02*
X114768381Y-96662286D01*
X115768381Y-96090857D01*
X114768381Y-96090857D01*
X115673143Y-95043238D02*
X115720762Y-95090857D01*
X115768381Y-95233714D01*
X115768381Y-95328952D01*
X115720762Y-95471810D01*
X115625524Y-95567048D01*
X115530286Y-95614667D01*
X115339810Y-95662286D01*
X115196952Y-95662286D01*
X115006476Y-95614667D01*
X114911238Y-95567048D01*
X114816000Y-95471810D01*
X114768381Y-95328952D01*
X114768381Y-95233714D01*
X114816000Y-95090857D01*
X114863619Y-95043238D01*
X115768381Y-94614667D02*
X114768381Y-94614667D01*
X114768381Y-94233714D01*
X114816000Y-94138476D01*
X114863619Y-94090857D01*
X114958857Y-94043238D01*
X115101714Y-94043238D01*
X115196952Y-94090857D01*
X115244571Y-94138476D01*
X115292190Y-94233714D01*
X115292190Y-94614667D01*
X114768381Y-93709905D02*
X114768381Y-93043238D01*
X115768381Y-93471810D01*
X115196952Y-92519429D02*
X115149333Y-92614667D01*
X115101714Y-92662286D01*
X115006476Y-92709905D01*
X114958857Y-92709905D01*
X114863619Y-92662286D01*
X114816000Y-92614667D01*
X114768381Y-92519429D01*
X114768381Y-92328952D01*
X114816000Y-92233714D01*
X114863619Y-92186095D01*
X114958857Y-92138476D01*
X115006476Y-92138476D01*
X115101714Y-92186095D01*
X115149333Y-92233714D01*
X115196952Y-92328952D01*
X115196952Y-92519429D01*
X115244571Y-92614667D01*
X115292190Y-92662286D01*
X115387429Y-92709905D01*
X115577905Y-92709905D01*
X115673143Y-92662286D01*
X115720762Y-92614667D01*
X115768381Y-92519429D01*
X115768381Y-92328952D01*
X115720762Y-92233714D01*
X115673143Y-92186095D01*
X115577905Y-92138476D01*
X115387429Y-92138476D01*
X115292190Y-92186095D01*
X115244571Y-92233714D01*
X115196952Y-92328952D01*
X114768381Y-91519429D02*
X114768381Y-91424190D01*
X114816000Y-91328952D01*
X114863619Y-91281333D01*
X114958857Y-91233714D01*
X115149333Y-91186095D01*
X115387429Y-91186095D01*
X115577905Y-91233714D01*
X115673143Y-91281333D01*
X115720762Y-91328952D01*
X115768381Y-91424190D01*
X115768381Y-91519429D01*
X115720762Y-91614667D01*
X115673143Y-91662286D01*
X115577905Y-91709905D01*
X115387429Y-91757524D01*
X115149333Y-91757524D01*
X114958857Y-91709905D01*
X114863619Y-91662286D01*
X114816000Y-91614667D01*
X114768381Y-91519429D01*
X114768381Y-90281333D02*
X114768381Y-90757524D01*
X115244571Y-90805143D01*
X115196952Y-90757524D01*
X115149333Y-90662286D01*
X115149333Y-90424190D01*
X115196952Y-90328952D01*
X115244571Y-90281333D01*
X115339810Y-90233714D01*
X115577905Y-90233714D01*
X115673143Y-90281333D01*
X115720762Y-90328952D01*
X115768381Y-90424190D01*
X115768381Y-90662286D01*
X115720762Y-90757524D01*
X115673143Y-90805143D01*
X115387429Y-89805143D02*
X115387429Y-89043238D01*
X114768381Y-88090857D02*
X114768381Y-88567048D01*
X115244571Y-88614667D01*
X115196952Y-88567048D01*
X115149333Y-88471810D01*
X115149333Y-88233714D01*
X115196952Y-88138476D01*
X115244571Y-88090857D01*
X115339810Y-88043238D01*
X115577905Y-88043238D01*
X115673143Y-88090857D01*
X115720762Y-88138476D01*
X115768381Y-88233714D01*
X115768381Y-88471810D01*
X115720762Y-88567048D01*
X115673143Y-88614667D01*
X114768381Y-87757524D02*
X115768381Y-87424191D01*
X114768381Y-87090857D01*
X123388381Y-89971428D02*
X123388381Y-90542857D01*
X123388381Y-90257143D02*
X122388381Y-90257143D01*
X122531238Y-90352381D01*
X122626476Y-90447619D01*
X122674095Y-90542857D01*
X122388381Y-89352381D02*
X122388381Y-89257142D01*
X122436000Y-89161904D01*
X122483619Y-89114285D01*
X122578857Y-89066666D01*
X122769333Y-89019047D01*
X123007429Y-89019047D01*
X123197905Y-89066666D01*
X123293143Y-89114285D01*
X123340762Y-89161904D01*
X123388381Y-89257142D01*
X123388381Y-89352381D01*
X123340762Y-89447619D01*
X123293143Y-89495238D01*
X123197905Y-89542857D01*
X123007429Y-89590476D01*
X122769333Y-89590476D01*
X122578857Y-89542857D01*
X122483619Y-89495238D01*
X122436000Y-89447619D01*
X122388381Y-89352381D01*
X122721714Y-88161904D02*
X123388381Y-88161904D01*
X122721714Y-88590476D02*
X123245524Y-88590476D01*
X123340762Y-88542857D01*
X123388381Y-88447619D01*
X123388381Y-88304761D01*
X123340762Y-88209523D01*
X123293143Y-88161904D01*
X122864571Y-87352380D02*
X122864571Y-87685714D01*
X123388381Y-87685714D02*
X122388381Y-87685714D01*
X122388381Y-87209523D01*
X99449333Y-97480381D02*
X99639809Y-97480381D01*
X99735048Y-97432762D01*
X99782667Y-97385143D01*
X99877905Y-97242286D01*
X99925524Y-97051810D01*
X99925524Y-96670857D01*
X99877905Y-96575619D01*
X99830286Y-96528000D01*
X99735048Y-96480381D01*
X99544571Y-96480381D01*
X99449333Y-96528000D01*
X99401714Y-96575619D01*
X99354095Y-96670857D01*
X99354095Y-96908952D01*
X99401714Y-97004190D01*
X99449333Y-97051810D01*
X99544571Y-97099429D01*
X99735048Y-97099429D01*
X99830286Y-97051810D01*
X99877905Y-97004190D01*
X99925524Y-96908952D01*
X100211238Y-96480381D02*
X100544571Y-97480381D01*
X100877905Y-96480381D01*
X101973143Y-97480381D02*
X101973143Y-96480381D01*
X102449333Y-97480381D02*
X102449333Y-96480381D01*
X103020762Y-97480381D01*
X103020762Y-96480381D01*
X103496952Y-97480381D02*
X103496952Y-96480381D01*
X103877905Y-96480381D01*
X103973143Y-96528000D01*
X104020762Y-96575619D01*
X104068381Y-96670857D01*
X104068381Y-96813714D01*
X104020762Y-96908952D01*
X103973143Y-96956571D01*
X103877905Y-97004190D01*
X103496952Y-97004190D01*
X104496952Y-96480381D02*
X104496952Y-97289905D01*
X104544571Y-97385143D01*
X104592190Y-97432762D01*
X104687428Y-97480381D01*
X104877905Y-97480381D01*
X104973143Y-97432762D01*
X105020762Y-97385143D01*
X105068381Y-97289905D01*
X105068381Y-96480381D01*
X105401714Y-96480381D02*
X105973143Y-96480381D01*
X105687428Y-97480381D02*
X105687428Y-96480381D01*
M02*
