M48
;DRILL file {KiCad 4.0.1-3.201512221402+6198~38~ubuntu14.04.1-stable} date Mon 23 May 2016 08:12:36 PM PDT
;FORMAT={-:-/ absolute / inch / decimal}
FMAT,2
INCH,TZ
T1C0.031
T2C0.032
T3C0.035
T4C0.039
T5C0.040
T6C0.118
%
G90
G05
M72
T1
X5.025Y-3.51
T2
X4.9266Y-3.51
T3
X4.875Y-3.73
X5.0719Y-3.73
T4
X4.66Y-3.52
X4.66Y-3.62
X4.66Y-3.72
X5.2375Y-3.5225
X5.2375Y-3.6225
X5.2375Y-3.7225
T5
X4.0225Y-4.0025
X4.0225Y-4.2075
X4.1225Y-4.0025
X4.1225Y-4.2075
X4.4225Y-4.0025
X4.4225Y-4.2075
X4.5225Y-4.0025
X4.5225Y-4.2075
X4.8225Y-4.005
X4.8225Y-4.2125
X4.9225Y-4.005
X4.9225Y-4.2125
X5.2225Y-4.0025
X5.2225Y-4.2075
X5.3225Y-4.0025
X5.3225Y-4.2075
T6
X4.16Y-3.59
X4.2781Y-3.775
X4.3962Y-3.59
T0
M30
