G04 #@! TF.FileFunction,Copper,L2,Bot,Signal*
%FSLAX46Y46*%
G04 Gerber Fmt 4.6, Leading zero omitted, Abs format (unit mm)*
G04 Created by KiCad (PCBNEW 4.0.1-3.201512221402+6198~38~ubuntu14.04.1-stable) date Mon 23 May 2016 08:12:34 PM PDT*
%MOMM*%
G01*
G04 APERTURE LIST*
%ADD10C,0.100000*%
%ADD11R,2.032000X2.032000*%
%ADD12O,2.032000X2.032000*%
%ADD13R,1.400000X1.400000*%
%ADD14C,1.400000*%
%ADD15O,3.500120X1.699260*%
%ADD16R,1.300000X1.300000*%
%ADD17C,1.300000*%
%ADD18C,3.810000*%
%ADD19C,0.762000*%
%ADD20C,0.254000*%
G04 APERTURE END LIST*
D10*
D11*
X104711500Y-101663500D03*
D12*
X102171500Y-101663500D03*
D13*
X128825000Y-94742000D03*
D14*
X123825000Y-94742000D03*
D15*
X133032500Y-92011500D03*
X133032500Y-89471500D03*
X133032500Y-94551500D03*
D11*
X104711500Y-106870500D03*
D12*
X102171500Y-106870500D03*
D11*
X114871500Y-106870500D03*
D12*
X112331500Y-106870500D03*
D11*
X125031500Y-106997500D03*
D12*
X122491500Y-106997500D03*
D11*
X135191500Y-106870500D03*
D12*
X132651500Y-106870500D03*
D15*
X118364000Y-91948000D03*
X118364000Y-89408000D03*
X118364000Y-94488000D03*
D16*
X127635000Y-89154000D03*
D17*
X125135000Y-89154000D03*
D11*
X114871500Y-101663500D03*
D12*
X112331500Y-101663500D03*
D11*
X125031500Y-101727000D03*
D12*
X122491500Y-101727000D03*
D11*
X135191500Y-101663500D03*
D12*
X132651500Y-101663500D03*
D18*
X111663480Y-91186000D03*
X105664000Y-91186000D03*
X108663740Y-95885000D03*
D19*
X108663740Y-95963740D02*
X108663740Y-95885000D01*
D20*
G36*
X138990000Y-111558000D02*
X98754000Y-111558000D01*
X98754000Y-107253446D01*
X100565517Y-107253446D01*
X100834312Y-107838879D01*
X101306682Y-108276885D01*
X101788556Y-108476475D01*
X102044500Y-108357336D01*
X102044500Y-106997500D01*
X100684133Y-106997500D01*
X100565517Y-107253446D01*
X98754000Y-107253446D01*
X98754000Y-106487554D01*
X100565517Y-106487554D01*
X100684133Y-106743500D01*
X102044500Y-106743500D01*
X102044500Y-105383664D01*
X102298500Y-105383664D01*
X102298500Y-106743500D01*
X102318500Y-106743500D01*
X102318500Y-106997500D01*
X102298500Y-106997500D01*
X102298500Y-108357336D01*
X102554444Y-108476475D01*
X103036318Y-108276885D01*
X103133898Y-108186403D01*
X103231410Y-108337941D01*
X103443610Y-108482931D01*
X103695500Y-108533940D01*
X105727500Y-108533940D01*
X105962817Y-108489662D01*
X106178941Y-108350590D01*
X106323931Y-108138390D01*
X106374940Y-107886500D01*
X106374940Y-107253446D01*
X110725517Y-107253446D01*
X110994312Y-107838879D01*
X111466682Y-108276885D01*
X111948556Y-108476475D01*
X112204500Y-108357336D01*
X112204500Y-106997500D01*
X110844133Y-106997500D01*
X110725517Y-107253446D01*
X106374940Y-107253446D01*
X106374940Y-106487554D01*
X110725517Y-106487554D01*
X110844133Y-106743500D01*
X112204500Y-106743500D01*
X112204500Y-105383664D01*
X112458500Y-105383664D01*
X112458500Y-106743500D01*
X112478500Y-106743500D01*
X112478500Y-106997500D01*
X112458500Y-106997500D01*
X112458500Y-108357336D01*
X112714444Y-108476475D01*
X113196318Y-108276885D01*
X113293898Y-108186403D01*
X113391410Y-108337941D01*
X113603610Y-108482931D01*
X113855500Y-108533940D01*
X115887500Y-108533940D01*
X116122817Y-108489662D01*
X116338941Y-108350590D01*
X116483931Y-108138390D01*
X116534940Y-107886500D01*
X116534940Y-107380446D01*
X120885517Y-107380446D01*
X121154312Y-107965879D01*
X121626682Y-108403885D01*
X122108556Y-108603475D01*
X122364500Y-108484336D01*
X122364500Y-107124500D01*
X121004133Y-107124500D01*
X120885517Y-107380446D01*
X116534940Y-107380446D01*
X116534940Y-106614554D01*
X120885517Y-106614554D01*
X121004133Y-106870500D01*
X122364500Y-106870500D01*
X122364500Y-105510664D01*
X122618500Y-105510664D01*
X122618500Y-106870500D01*
X122638500Y-106870500D01*
X122638500Y-107124500D01*
X122618500Y-107124500D01*
X122618500Y-108484336D01*
X122874444Y-108603475D01*
X123356318Y-108403885D01*
X123453898Y-108313403D01*
X123551410Y-108464941D01*
X123763610Y-108609931D01*
X124015500Y-108660940D01*
X126047500Y-108660940D01*
X126282817Y-108616662D01*
X126498941Y-108477590D01*
X126643931Y-108265390D01*
X126694940Y-108013500D01*
X126694940Y-107253446D01*
X131045517Y-107253446D01*
X131314312Y-107838879D01*
X131786682Y-108276885D01*
X132268556Y-108476475D01*
X132524500Y-108357336D01*
X132524500Y-106997500D01*
X131164133Y-106997500D01*
X131045517Y-107253446D01*
X126694940Y-107253446D01*
X126694940Y-106487554D01*
X131045517Y-106487554D01*
X131164133Y-106743500D01*
X132524500Y-106743500D01*
X132524500Y-105383664D01*
X132778500Y-105383664D01*
X132778500Y-106743500D01*
X132798500Y-106743500D01*
X132798500Y-106997500D01*
X132778500Y-106997500D01*
X132778500Y-108357336D01*
X133034444Y-108476475D01*
X133516318Y-108276885D01*
X133613898Y-108186403D01*
X133711410Y-108337941D01*
X133923610Y-108482931D01*
X134175500Y-108533940D01*
X136207500Y-108533940D01*
X136442817Y-108489662D01*
X136658941Y-108350590D01*
X136803931Y-108138390D01*
X136854940Y-107886500D01*
X136854940Y-105854500D01*
X136810662Y-105619183D01*
X136671590Y-105403059D01*
X136459390Y-105258069D01*
X136207500Y-105207060D01*
X134175500Y-105207060D01*
X133940183Y-105251338D01*
X133724059Y-105390410D01*
X133612660Y-105553448D01*
X133516318Y-105464115D01*
X133034444Y-105264525D01*
X132778500Y-105383664D01*
X132524500Y-105383664D01*
X132268556Y-105264525D01*
X131786682Y-105464115D01*
X131314312Y-105902121D01*
X131045517Y-106487554D01*
X126694940Y-106487554D01*
X126694940Y-105981500D01*
X126650662Y-105746183D01*
X126511590Y-105530059D01*
X126299390Y-105385069D01*
X126047500Y-105334060D01*
X124015500Y-105334060D01*
X123780183Y-105378338D01*
X123564059Y-105517410D01*
X123452660Y-105680448D01*
X123356318Y-105591115D01*
X122874444Y-105391525D01*
X122618500Y-105510664D01*
X122364500Y-105510664D01*
X122108556Y-105391525D01*
X121626682Y-105591115D01*
X121154312Y-106029121D01*
X120885517Y-106614554D01*
X116534940Y-106614554D01*
X116534940Y-105854500D01*
X116490662Y-105619183D01*
X116351590Y-105403059D01*
X116139390Y-105258069D01*
X115887500Y-105207060D01*
X113855500Y-105207060D01*
X113620183Y-105251338D01*
X113404059Y-105390410D01*
X113292660Y-105553448D01*
X113196318Y-105464115D01*
X112714444Y-105264525D01*
X112458500Y-105383664D01*
X112204500Y-105383664D01*
X111948556Y-105264525D01*
X111466682Y-105464115D01*
X110994312Y-105902121D01*
X110725517Y-106487554D01*
X106374940Y-106487554D01*
X106374940Y-105854500D01*
X106330662Y-105619183D01*
X106191590Y-105403059D01*
X105979390Y-105258069D01*
X105727500Y-105207060D01*
X103695500Y-105207060D01*
X103460183Y-105251338D01*
X103244059Y-105390410D01*
X103132660Y-105553448D01*
X103036318Y-105464115D01*
X102554444Y-105264525D01*
X102298500Y-105383664D01*
X102044500Y-105383664D01*
X101788556Y-105264525D01*
X101306682Y-105464115D01*
X100834312Y-105902121D01*
X100565517Y-106487554D01*
X98754000Y-106487554D01*
X98754000Y-102046446D01*
X100565517Y-102046446D01*
X100834312Y-102631879D01*
X101306682Y-103069885D01*
X101788556Y-103269475D01*
X102044500Y-103150336D01*
X102044500Y-101790500D01*
X100684133Y-101790500D01*
X100565517Y-102046446D01*
X98754000Y-102046446D01*
X98754000Y-101280554D01*
X100565517Y-101280554D01*
X100684133Y-101536500D01*
X102044500Y-101536500D01*
X102044500Y-100176664D01*
X102298500Y-100176664D01*
X102298500Y-101536500D01*
X102318500Y-101536500D01*
X102318500Y-101790500D01*
X102298500Y-101790500D01*
X102298500Y-103150336D01*
X102554444Y-103269475D01*
X103036318Y-103069885D01*
X103133898Y-102979403D01*
X103231410Y-103130941D01*
X103443610Y-103275931D01*
X103695500Y-103326940D01*
X105727500Y-103326940D01*
X105962817Y-103282662D01*
X106178941Y-103143590D01*
X106323931Y-102931390D01*
X106374940Y-102679500D01*
X106374940Y-102046446D01*
X110725517Y-102046446D01*
X110994312Y-102631879D01*
X111466682Y-103069885D01*
X111948556Y-103269475D01*
X112204500Y-103150336D01*
X112204500Y-101790500D01*
X110844133Y-101790500D01*
X110725517Y-102046446D01*
X106374940Y-102046446D01*
X106374940Y-101280554D01*
X110725517Y-101280554D01*
X110844133Y-101536500D01*
X112204500Y-101536500D01*
X112204500Y-100176664D01*
X112458500Y-100176664D01*
X112458500Y-101536500D01*
X112478500Y-101536500D01*
X112478500Y-101790500D01*
X112458500Y-101790500D01*
X112458500Y-103150336D01*
X112714444Y-103269475D01*
X113196318Y-103069885D01*
X113293898Y-102979403D01*
X113391410Y-103130941D01*
X113603610Y-103275931D01*
X113855500Y-103326940D01*
X115887500Y-103326940D01*
X116122817Y-103282662D01*
X116338941Y-103143590D01*
X116483931Y-102931390D01*
X116534940Y-102679500D01*
X116534940Y-102109946D01*
X120885517Y-102109946D01*
X121154312Y-102695379D01*
X121626682Y-103133385D01*
X122108556Y-103332975D01*
X122364500Y-103213836D01*
X122364500Y-101854000D01*
X121004133Y-101854000D01*
X120885517Y-102109946D01*
X116534940Y-102109946D01*
X116534940Y-101344054D01*
X120885517Y-101344054D01*
X121004133Y-101600000D01*
X122364500Y-101600000D01*
X122364500Y-100240164D01*
X122618500Y-100240164D01*
X122618500Y-101600000D01*
X122638500Y-101600000D01*
X122638500Y-101854000D01*
X122618500Y-101854000D01*
X122618500Y-103213836D01*
X122874444Y-103332975D01*
X123356318Y-103133385D01*
X123453898Y-103042903D01*
X123551410Y-103194441D01*
X123763610Y-103339431D01*
X124015500Y-103390440D01*
X126047500Y-103390440D01*
X126282817Y-103346162D01*
X126498941Y-103207090D01*
X126643931Y-102994890D01*
X126694940Y-102743000D01*
X126694940Y-102046446D01*
X131045517Y-102046446D01*
X131314312Y-102631879D01*
X131786682Y-103069885D01*
X132268556Y-103269475D01*
X132524500Y-103150336D01*
X132524500Y-101790500D01*
X131164133Y-101790500D01*
X131045517Y-102046446D01*
X126694940Y-102046446D01*
X126694940Y-101280554D01*
X131045517Y-101280554D01*
X131164133Y-101536500D01*
X132524500Y-101536500D01*
X132524500Y-100176664D01*
X132778500Y-100176664D01*
X132778500Y-101536500D01*
X132798500Y-101536500D01*
X132798500Y-101790500D01*
X132778500Y-101790500D01*
X132778500Y-103150336D01*
X133034444Y-103269475D01*
X133516318Y-103069885D01*
X133613898Y-102979403D01*
X133711410Y-103130941D01*
X133923610Y-103275931D01*
X134175500Y-103326940D01*
X136207500Y-103326940D01*
X136442817Y-103282662D01*
X136658941Y-103143590D01*
X136803931Y-102931390D01*
X136854940Y-102679500D01*
X136854940Y-100647500D01*
X136810662Y-100412183D01*
X136671590Y-100196059D01*
X136459390Y-100051069D01*
X136207500Y-100000060D01*
X134175500Y-100000060D01*
X133940183Y-100044338D01*
X133724059Y-100183410D01*
X133612660Y-100346448D01*
X133516318Y-100257115D01*
X133034444Y-100057525D01*
X132778500Y-100176664D01*
X132524500Y-100176664D01*
X132268556Y-100057525D01*
X131786682Y-100257115D01*
X131314312Y-100695121D01*
X131045517Y-101280554D01*
X126694940Y-101280554D01*
X126694940Y-100711000D01*
X126650662Y-100475683D01*
X126511590Y-100259559D01*
X126299390Y-100114569D01*
X126047500Y-100063560D01*
X124015500Y-100063560D01*
X123780183Y-100107838D01*
X123564059Y-100246910D01*
X123452660Y-100409948D01*
X123356318Y-100320615D01*
X122874444Y-100121025D01*
X122618500Y-100240164D01*
X122364500Y-100240164D01*
X122108556Y-100121025D01*
X121626682Y-100320615D01*
X121154312Y-100758621D01*
X120885517Y-101344054D01*
X116534940Y-101344054D01*
X116534940Y-100647500D01*
X116490662Y-100412183D01*
X116351590Y-100196059D01*
X116139390Y-100051069D01*
X115887500Y-100000060D01*
X113855500Y-100000060D01*
X113620183Y-100044338D01*
X113404059Y-100183410D01*
X113292660Y-100346448D01*
X113196318Y-100257115D01*
X112714444Y-100057525D01*
X112458500Y-100176664D01*
X112204500Y-100176664D01*
X111948556Y-100057525D01*
X111466682Y-100257115D01*
X110994312Y-100695121D01*
X110725517Y-101280554D01*
X106374940Y-101280554D01*
X106374940Y-100647500D01*
X106330662Y-100412183D01*
X106191590Y-100196059D01*
X105979390Y-100051069D01*
X105727500Y-100000060D01*
X103695500Y-100000060D01*
X103460183Y-100044338D01*
X103244059Y-100183410D01*
X103132660Y-100346448D01*
X103036318Y-100257115D01*
X102554444Y-100057525D01*
X102298500Y-100176664D01*
X102044500Y-100176664D01*
X101788556Y-100057525D01*
X101306682Y-100257115D01*
X100834312Y-100695121D01*
X100565517Y-101280554D01*
X98754000Y-101280554D01*
X98754000Y-97691440D01*
X107036905Y-97691440D01*
X107246093Y-98052289D01*
X108183390Y-98429824D01*
X109193817Y-98419933D01*
X110081387Y-98052289D01*
X110290575Y-97691440D01*
X108663740Y-96064605D01*
X107036905Y-97691440D01*
X98754000Y-97691440D01*
X98754000Y-95404650D01*
X106118916Y-95404650D01*
X106128807Y-96415077D01*
X106496451Y-97302647D01*
X106857300Y-97511835D01*
X108484135Y-95885000D01*
X108843345Y-95885000D01*
X110470180Y-97511835D01*
X110831029Y-97302647D01*
X111208564Y-96365350D01*
X111198673Y-95354923D01*
X110839582Y-94488000D01*
X115932214Y-94488000D01*
X116045225Y-95056143D01*
X116367052Y-95537792D01*
X116848701Y-95859619D01*
X117416844Y-95972630D01*
X119311156Y-95972630D01*
X119879299Y-95859619D01*
X120152196Y-95677275D01*
X123069331Y-95677275D01*
X123131169Y-95913042D01*
X123632122Y-96089419D01*
X124162440Y-96060664D01*
X124518831Y-95913042D01*
X124580669Y-95677275D01*
X123825000Y-94921605D01*
X123069331Y-95677275D01*
X120152196Y-95677275D01*
X120360948Y-95537792D01*
X120682775Y-95056143D01*
X120783628Y-94549122D01*
X122477581Y-94549122D01*
X122506336Y-95079440D01*
X122653958Y-95435831D01*
X122889725Y-95497669D01*
X123645395Y-94742000D01*
X124004605Y-94742000D01*
X124760275Y-95497669D01*
X124996042Y-95435831D01*
X125172419Y-94934878D01*
X125143664Y-94404560D01*
X124996042Y-94048169D01*
X124972522Y-94042000D01*
X127477560Y-94042000D01*
X127477560Y-95442000D01*
X127521838Y-95677317D01*
X127660910Y-95893441D01*
X127873110Y-96038431D01*
X128125000Y-96089440D01*
X129525000Y-96089440D01*
X129760317Y-96045162D01*
X129976441Y-95906090D01*
X130121431Y-95693890D01*
X130172440Y-95442000D01*
X130172440Y-94042000D01*
X130128162Y-93806683D01*
X129989090Y-93590559D01*
X129776890Y-93445569D01*
X129525000Y-93394560D01*
X128125000Y-93394560D01*
X127889683Y-93438838D01*
X127673559Y-93577910D01*
X127528569Y-93790110D01*
X127477560Y-94042000D01*
X124972522Y-94042000D01*
X124760275Y-93986331D01*
X124004605Y-94742000D01*
X123645395Y-94742000D01*
X122889725Y-93986331D01*
X122653958Y-94048169D01*
X122477581Y-94549122D01*
X120783628Y-94549122D01*
X120795786Y-94488000D01*
X120682775Y-93919857D01*
X120607183Y-93806725D01*
X123069331Y-93806725D01*
X123825000Y-94562395D01*
X124580669Y-93806725D01*
X124518831Y-93570958D01*
X124017878Y-93394581D01*
X123487560Y-93423336D01*
X123131169Y-93570958D01*
X123069331Y-93806725D01*
X120607183Y-93806725D01*
X120360948Y-93438208D01*
X120023127Y-93212484D01*
X120404024Y-92907989D01*
X120684649Y-92398810D01*
X120705540Y-92304832D01*
X120584214Y-92075000D01*
X118491000Y-92075000D01*
X118491000Y-92095000D01*
X118237000Y-92095000D01*
X118237000Y-92075000D01*
X116143786Y-92075000D01*
X116022460Y-92304832D01*
X116043351Y-92398810D01*
X116323976Y-92907989D01*
X116704873Y-93212484D01*
X116367052Y-93438208D01*
X116045225Y-93919857D01*
X115932214Y-94488000D01*
X110839582Y-94488000D01*
X110831029Y-94467353D01*
X110470180Y-94258165D01*
X108843345Y-95885000D01*
X108484135Y-95885000D01*
X106857300Y-94258165D01*
X106496451Y-94467353D01*
X106118916Y-95404650D01*
X98754000Y-95404650D01*
X98754000Y-94078560D01*
X107036905Y-94078560D01*
X108663740Y-95705395D01*
X110290575Y-94078560D01*
X110081387Y-93717711D01*
X109144090Y-93340176D01*
X108133663Y-93350067D01*
X107246093Y-93717711D01*
X107036905Y-94078560D01*
X98754000Y-94078560D01*
X98754000Y-92992440D01*
X104037165Y-92992440D01*
X104246353Y-93353289D01*
X105183650Y-93730824D01*
X106194077Y-93720933D01*
X107081647Y-93353289D01*
X107290835Y-92992440D01*
X105664000Y-91365605D01*
X104037165Y-92992440D01*
X98754000Y-92992440D01*
X98754000Y-90705650D01*
X103119176Y-90705650D01*
X103129067Y-91716077D01*
X103496711Y-92603647D01*
X103857560Y-92812835D01*
X105484395Y-91186000D01*
X105843605Y-91186000D01*
X107470440Y-92812835D01*
X107831289Y-92603647D01*
X108199692Y-91689021D01*
X109123040Y-91689021D01*
X109508917Y-92622915D01*
X110222807Y-93338052D01*
X111156026Y-93725559D01*
X112166501Y-93726440D01*
X113100395Y-93340563D01*
X113815532Y-92626673D01*
X114070974Y-92011500D01*
X130600714Y-92011500D01*
X130713725Y-92579643D01*
X131035552Y-93061292D01*
X131365117Y-93281500D01*
X131035552Y-93501708D01*
X130713725Y-93983357D01*
X130600714Y-94551500D01*
X130713725Y-95119643D01*
X131035552Y-95601292D01*
X131517201Y-95923119D01*
X132085344Y-96036130D01*
X133979656Y-96036130D01*
X134547799Y-95923119D01*
X135029448Y-95601292D01*
X135351275Y-95119643D01*
X135464286Y-94551500D01*
X135351275Y-93983357D01*
X135029448Y-93501708D01*
X134699883Y-93281500D01*
X135029448Y-93061292D01*
X135351275Y-92579643D01*
X135464286Y-92011500D01*
X135351275Y-91443357D01*
X135029448Y-90961708D01*
X134691627Y-90735984D01*
X135072524Y-90431489D01*
X135353149Y-89922310D01*
X135374040Y-89828332D01*
X135252714Y-89598500D01*
X133159500Y-89598500D01*
X133159500Y-89618500D01*
X132905500Y-89618500D01*
X132905500Y-89598500D01*
X130812286Y-89598500D01*
X130690960Y-89828332D01*
X130711851Y-89922310D01*
X130992476Y-90431489D01*
X131373373Y-90735984D01*
X131035552Y-90961708D01*
X130713725Y-91443357D01*
X130600714Y-92011500D01*
X114070974Y-92011500D01*
X114203039Y-91693454D01*
X114203920Y-90682979D01*
X113818043Y-89749085D01*
X113477553Y-89408000D01*
X115932214Y-89408000D01*
X116045225Y-89976143D01*
X116367052Y-90457792D01*
X116704873Y-90683516D01*
X116323976Y-90988011D01*
X116043351Y-91497190D01*
X116022460Y-91591168D01*
X116143786Y-91821000D01*
X118237000Y-91821000D01*
X118237000Y-91801000D01*
X118491000Y-91801000D01*
X118491000Y-91821000D01*
X120584214Y-91821000D01*
X120705540Y-91591168D01*
X120684649Y-91497190D01*
X120404024Y-90988011D01*
X120023127Y-90683516D01*
X120360948Y-90457792D01*
X120631410Y-90053016D01*
X124415590Y-90053016D01*
X124471271Y-90283611D01*
X124954078Y-90451622D01*
X125464428Y-90422083D01*
X125798729Y-90283611D01*
X125854410Y-90053016D01*
X125135000Y-89333605D01*
X124415590Y-90053016D01*
X120631410Y-90053016D01*
X120682775Y-89976143D01*
X120795786Y-89408000D01*
X120709275Y-88973078D01*
X123837378Y-88973078D01*
X123866917Y-89483428D01*
X124005389Y-89817729D01*
X124235984Y-89873410D01*
X124955395Y-89154000D01*
X125314605Y-89154000D01*
X126034016Y-89873410D01*
X126264611Y-89817729D01*
X126337560Y-89608098D01*
X126337560Y-89804000D01*
X126381838Y-90039317D01*
X126520910Y-90255441D01*
X126733110Y-90400431D01*
X126985000Y-90451440D01*
X128285000Y-90451440D01*
X128520317Y-90407162D01*
X128736441Y-90268090D01*
X128881431Y-90055890D01*
X128932440Y-89804000D01*
X128932440Y-89114668D01*
X130690960Y-89114668D01*
X130812286Y-89344500D01*
X132905500Y-89344500D01*
X132905500Y-87986870D01*
X133159500Y-87986870D01*
X133159500Y-89344500D01*
X135252714Y-89344500D01*
X135374040Y-89114668D01*
X135353149Y-89020690D01*
X135072524Y-88511511D01*
X134618406Y-88148482D01*
X134059930Y-87986870D01*
X133159500Y-87986870D01*
X132905500Y-87986870D01*
X132005070Y-87986870D01*
X131446594Y-88148482D01*
X130992476Y-88511511D01*
X130711851Y-89020690D01*
X130690960Y-89114668D01*
X128932440Y-89114668D01*
X128932440Y-88504000D01*
X128888162Y-88268683D01*
X128749090Y-88052559D01*
X128536890Y-87907569D01*
X128285000Y-87856560D01*
X126985000Y-87856560D01*
X126749683Y-87900838D01*
X126533559Y-88039910D01*
X126388569Y-88252110D01*
X126337560Y-88504000D01*
X126337560Y-88666385D01*
X126264611Y-88490271D01*
X126034016Y-88434590D01*
X125314605Y-89154000D01*
X124955395Y-89154000D01*
X124235984Y-88434590D01*
X124005389Y-88490271D01*
X123837378Y-88973078D01*
X120709275Y-88973078D01*
X120682775Y-88839857D01*
X120360948Y-88358208D01*
X120206463Y-88254984D01*
X124415590Y-88254984D01*
X125135000Y-88974395D01*
X125854410Y-88254984D01*
X125798729Y-88024389D01*
X125315922Y-87856378D01*
X124805572Y-87885917D01*
X124471271Y-88024389D01*
X124415590Y-88254984D01*
X120206463Y-88254984D01*
X119879299Y-88036381D01*
X119311156Y-87923370D01*
X117416844Y-87923370D01*
X116848701Y-88036381D01*
X116367052Y-88358208D01*
X116045225Y-88839857D01*
X115932214Y-89408000D01*
X113477553Y-89408000D01*
X113104153Y-89033948D01*
X112170934Y-88646441D01*
X111160459Y-88645560D01*
X110226565Y-89031437D01*
X109511428Y-89745327D01*
X109123921Y-90678546D01*
X109123040Y-91689021D01*
X108199692Y-91689021D01*
X108208824Y-91666350D01*
X108198933Y-90655923D01*
X107831289Y-89768353D01*
X107470440Y-89559165D01*
X105843605Y-91186000D01*
X105484395Y-91186000D01*
X103857560Y-89559165D01*
X103496711Y-89768353D01*
X103119176Y-90705650D01*
X98754000Y-90705650D01*
X98754000Y-89379560D01*
X104037165Y-89379560D01*
X105664000Y-91006395D01*
X107290835Y-89379560D01*
X107081647Y-89018711D01*
X106144350Y-88641176D01*
X105133923Y-88651067D01*
X104246353Y-89018711D01*
X104037165Y-89379560D01*
X98754000Y-89379560D01*
X98754000Y-87070000D01*
X138990000Y-87070000D01*
X138990000Y-111558000D01*
X138990000Y-111558000D01*
G37*
X138990000Y-111558000D02*
X98754000Y-111558000D01*
X98754000Y-107253446D01*
X100565517Y-107253446D01*
X100834312Y-107838879D01*
X101306682Y-108276885D01*
X101788556Y-108476475D01*
X102044500Y-108357336D01*
X102044500Y-106997500D01*
X100684133Y-106997500D01*
X100565517Y-107253446D01*
X98754000Y-107253446D01*
X98754000Y-106487554D01*
X100565517Y-106487554D01*
X100684133Y-106743500D01*
X102044500Y-106743500D01*
X102044500Y-105383664D01*
X102298500Y-105383664D01*
X102298500Y-106743500D01*
X102318500Y-106743500D01*
X102318500Y-106997500D01*
X102298500Y-106997500D01*
X102298500Y-108357336D01*
X102554444Y-108476475D01*
X103036318Y-108276885D01*
X103133898Y-108186403D01*
X103231410Y-108337941D01*
X103443610Y-108482931D01*
X103695500Y-108533940D01*
X105727500Y-108533940D01*
X105962817Y-108489662D01*
X106178941Y-108350590D01*
X106323931Y-108138390D01*
X106374940Y-107886500D01*
X106374940Y-107253446D01*
X110725517Y-107253446D01*
X110994312Y-107838879D01*
X111466682Y-108276885D01*
X111948556Y-108476475D01*
X112204500Y-108357336D01*
X112204500Y-106997500D01*
X110844133Y-106997500D01*
X110725517Y-107253446D01*
X106374940Y-107253446D01*
X106374940Y-106487554D01*
X110725517Y-106487554D01*
X110844133Y-106743500D01*
X112204500Y-106743500D01*
X112204500Y-105383664D01*
X112458500Y-105383664D01*
X112458500Y-106743500D01*
X112478500Y-106743500D01*
X112478500Y-106997500D01*
X112458500Y-106997500D01*
X112458500Y-108357336D01*
X112714444Y-108476475D01*
X113196318Y-108276885D01*
X113293898Y-108186403D01*
X113391410Y-108337941D01*
X113603610Y-108482931D01*
X113855500Y-108533940D01*
X115887500Y-108533940D01*
X116122817Y-108489662D01*
X116338941Y-108350590D01*
X116483931Y-108138390D01*
X116534940Y-107886500D01*
X116534940Y-107380446D01*
X120885517Y-107380446D01*
X121154312Y-107965879D01*
X121626682Y-108403885D01*
X122108556Y-108603475D01*
X122364500Y-108484336D01*
X122364500Y-107124500D01*
X121004133Y-107124500D01*
X120885517Y-107380446D01*
X116534940Y-107380446D01*
X116534940Y-106614554D01*
X120885517Y-106614554D01*
X121004133Y-106870500D01*
X122364500Y-106870500D01*
X122364500Y-105510664D01*
X122618500Y-105510664D01*
X122618500Y-106870500D01*
X122638500Y-106870500D01*
X122638500Y-107124500D01*
X122618500Y-107124500D01*
X122618500Y-108484336D01*
X122874444Y-108603475D01*
X123356318Y-108403885D01*
X123453898Y-108313403D01*
X123551410Y-108464941D01*
X123763610Y-108609931D01*
X124015500Y-108660940D01*
X126047500Y-108660940D01*
X126282817Y-108616662D01*
X126498941Y-108477590D01*
X126643931Y-108265390D01*
X126694940Y-108013500D01*
X126694940Y-107253446D01*
X131045517Y-107253446D01*
X131314312Y-107838879D01*
X131786682Y-108276885D01*
X132268556Y-108476475D01*
X132524500Y-108357336D01*
X132524500Y-106997500D01*
X131164133Y-106997500D01*
X131045517Y-107253446D01*
X126694940Y-107253446D01*
X126694940Y-106487554D01*
X131045517Y-106487554D01*
X131164133Y-106743500D01*
X132524500Y-106743500D01*
X132524500Y-105383664D01*
X132778500Y-105383664D01*
X132778500Y-106743500D01*
X132798500Y-106743500D01*
X132798500Y-106997500D01*
X132778500Y-106997500D01*
X132778500Y-108357336D01*
X133034444Y-108476475D01*
X133516318Y-108276885D01*
X133613898Y-108186403D01*
X133711410Y-108337941D01*
X133923610Y-108482931D01*
X134175500Y-108533940D01*
X136207500Y-108533940D01*
X136442817Y-108489662D01*
X136658941Y-108350590D01*
X136803931Y-108138390D01*
X136854940Y-107886500D01*
X136854940Y-105854500D01*
X136810662Y-105619183D01*
X136671590Y-105403059D01*
X136459390Y-105258069D01*
X136207500Y-105207060D01*
X134175500Y-105207060D01*
X133940183Y-105251338D01*
X133724059Y-105390410D01*
X133612660Y-105553448D01*
X133516318Y-105464115D01*
X133034444Y-105264525D01*
X132778500Y-105383664D01*
X132524500Y-105383664D01*
X132268556Y-105264525D01*
X131786682Y-105464115D01*
X131314312Y-105902121D01*
X131045517Y-106487554D01*
X126694940Y-106487554D01*
X126694940Y-105981500D01*
X126650662Y-105746183D01*
X126511590Y-105530059D01*
X126299390Y-105385069D01*
X126047500Y-105334060D01*
X124015500Y-105334060D01*
X123780183Y-105378338D01*
X123564059Y-105517410D01*
X123452660Y-105680448D01*
X123356318Y-105591115D01*
X122874444Y-105391525D01*
X122618500Y-105510664D01*
X122364500Y-105510664D01*
X122108556Y-105391525D01*
X121626682Y-105591115D01*
X121154312Y-106029121D01*
X120885517Y-106614554D01*
X116534940Y-106614554D01*
X116534940Y-105854500D01*
X116490662Y-105619183D01*
X116351590Y-105403059D01*
X116139390Y-105258069D01*
X115887500Y-105207060D01*
X113855500Y-105207060D01*
X113620183Y-105251338D01*
X113404059Y-105390410D01*
X113292660Y-105553448D01*
X113196318Y-105464115D01*
X112714444Y-105264525D01*
X112458500Y-105383664D01*
X112204500Y-105383664D01*
X111948556Y-105264525D01*
X111466682Y-105464115D01*
X110994312Y-105902121D01*
X110725517Y-106487554D01*
X106374940Y-106487554D01*
X106374940Y-105854500D01*
X106330662Y-105619183D01*
X106191590Y-105403059D01*
X105979390Y-105258069D01*
X105727500Y-105207060D01*
X103695500Y-105207060D01*
X103460183Y-105251338D01*
X103244059Y-105390410D01*
X103132660Y-105553448D01*
X103036318Y-105464115D01*
X102554444Y-105264525D01*
X102298500Y-105383664D01*
X102044500Y-105383664D01*
X101788556Y-105264525D01*
X101306682Y-105464115D01*
X100834312Y-105902121D01*
X100565517Y-106487554D01*
X98754000Y-106487554D01*
X98754000Y-102046446D01*
X100565517Y-102046446D01*
X100834312Y-102631879D01*
X101306682Y-103069885D01*
X101788556Y-103269475D01*
X102044500Y-103150336D01*
X102044500Y-101790500D01*
X100684133Y-101790500D01*
X100565517Y-102046446D01*
X98754000Y-102046446D01*
X98754000Y-101280554D01*
X100565517Y-101280554D01*
X100684133Y-101536500D01*
X102044500Y-101536500D01*
X102044500Y-100176664D01*
X102298500Y-100176664D01*
X102298500Y-101536500D01*
X102318500Y-101536500D01*
X102318500Y-101790500D01*
X102298500Y-101790500D01*
X102298500Y-103150336D01*
X102554444Y-103269475D01*
X103036318Y-103069885D01*
X103133898Y-102979403D01*
X103231410Y-103130941D01*
X103443610Y-103275931D01*
X103695500Y-103326940D01*
X105727500Y-103326940D01*
X105962817Y-103282662D01*
X106178941Y-103143590D01*
X106323931Y-102931390D01*
X106374940Y-102679500D01*
X106374940Y-102046446D01*
X110725517Y-102046446D01*
X110994312Y-102631879D01*
X111466682Y-103069885D01*
X111948556Y-103269475D01*
X112204500Y-103150336D01*
X112204500Y-101790500D01*
X110844133Y-101790500D01*
X110725517Y-102046446D01*
X106374940Y-102046446D01*
X106374940Y-101280554D01*
X110725517Y-101280554D01*
X110844133Y-101536500D01*
X112204500Y-101536500D01*
X112204500Y-100176664D01*
X112458500Y-100176664D01*
X112458500Y-101536500D01*
X112478500Y-101536500D01*
X112478500Y-101790500D01*
X112458500Y-101790500D01*
X112458500Y-103150336D01*
X112714444Y-103269475D01*
X113196318Y-103069885D01*
X113293898Y-102979403D01*
X113391410Y-103130941D01*
X113603610Y-103275931D01*
X113855500Y-103326940D01*
X115887500Y-103326940D01*
X116122817Y-103282662D01*
X116338941Y-103143590D01*
X116483931Y-102931390D01*
X116534940Y-102679500D01*
X116534940Y-102109946D01*
X120885517Y-102109946D01*
X121154312Y-102695379D01*
X121626682Y-103133385D01*
X122108556Y-103332975D01*
X122364500Y-103213836D01*
X122364500Y-101854000D01*
X121004133Y-101854000D01*
X120885517Y-102109946D01*
X116534940Y-102109946D01*
X116534940Y-101344054D01*
X120885517Y-101344054D01*
X121004133Y-101600000D01*
X122364500Y-101600000D01*
X122364500Y-100240164D01*
X122618500Y-100240164D01*
X122618500Y-101600000D01*
X122638500Y-101600000D01*
X122638500Y-101854000D01*
X122618500Y-101854000D01*
X122618500Y-103213836D01*
X122874444Y-103332975D01*
X123356318Y-103133385D01*
X123453898Y-103042903D01*
X123551410Y-103194441D01*
X123763610Y-103339431D01*
X124015500Y-103390440D01*
X126047500Y-103390440D01*
X126282817Y-103346162D01*
X126498941Y-103207090D01*
X126643931Y-102994890D01*
X126694940Y-102743000D01*
X126694940Y-102046446D01*
X131045517Y-102046446D01*
X131314312Y-102631879D01*
X131786682Y-103069885D01*
X132268556Y-103269475D01*
X132524500Y-103150336D01*
X132524500Y-101790500D01*
X131164133Y-101790500D01*
X131045517Y-102046446D01*
X126694940Y-102046446D01*
X126694940Y-101280554D01*
X131045517Y-101280554D01*
X131164133Y-101536500D01*
X132524500Y-101536500D01*
X132524500Y-100176664D01*
X132778500Y-100176664D01*
X132778500Y-101536500D01*
X132798500Y-101536500D01*
X132798500Y-101790500D01*
X132778500Y-101790500D01*
X132778500Y-103150336D01*
X133034444Y-103269475D01*
X133516318Y-103069885D01*
X133613898Y-102979403D01*
X133711410Y-103130941D01*
X133923610Y-103275931D01*
X134175500Y-103326940D01*
X136207500Y-103326940D01*
X136442817Y-103282662D01*
X136658941Y-103143590D01*
X136803931Y-102931390D01*
X136854940Y-102679500D01*
X136854940Y-100647500D01*
X136810662Y-100412183D01*
X136671590Y-100196059D01*
X136459390Y-100051069D01*
X136207500Y-100000060D01*
X134175500Y-100000060D01*
X133940183Y-100044338D01*
X133724059Y-100183410D01*
X133612660Y-100346448D01*
X133516318Y-100257115D01*
X133034444Y-100057525D01*
X132778500Y-100176664D01*
X132524500Y-100176664D01*
X132268556Y-100057525D01*
X131786682Y-100257115D01*
X131314312Y-100695121D01*
X131045517Y-101280554D01*
X126694940Y-101280554D01*
X126694940Y-100711000D01*
X126650662Y-100475683D01*
X126511590Y-100259559D01*
X126299390Y-100114569D01*
X126047500Y-100063560D01*
X124015500Y-100063560D01*
X123780183Y-100107838D01*
X123564059Y-100246910D01*
X123452660Y-100409948D01*
X123356318Y-100320615D01*
X122874444Y-100121025D01*
X122618500Y-100240164D01*
X122364500Y-100240164D01*
X122108556Y-100121025D01*
X121626682Y-100320615D01*
X121154312Y-100758621D01*
X120885517Y-101344054D01*
X116534940Y-101344054D01*
X116534940Y-100647500D01*
X116490662Y-100412183D01*
X116351590Y-100196059D01*
X116139390Y-100051069D01*
X115887500Y-100000060D01*
X113855500Y-100000060D01*
X113620183Y-100044338D01*
X113404059Y-100183410D01*
X113292660Y-100346448D01*
X113196318Y-100257115D01*
X112714444Y-100057525D01*
X112458500Y-100176664D01*
X112204500Y-100176664D01*
X111948556Y-100057525D01*
X111466682Y-100257115D01*
X110994312Y-100695121D01*
X110725517Y-101280554D01*
X106374940Y-101280554D01*
X106374940Y-100647500D01*
X106330662Y-100412183D01*
X106191590Y-100196059D01*
X105979390Y-100051069D01*
X105727500Y-100000060D01*
X103695500Y-100000060D01*
X103460183Y-100044338D01*
X103244059Y-100183410D01*
X103132660Y-100346448D01*
X103036318Y-100257115D01*
X102554444Y-100057525D01*
X102298500Y-100176664D01*
X102044500Y-100176664D01*
X101788556Y-100057525D01*
X101306682Y-100257115D01*
X100834312Y-100695121D01*
X100565517Y-101280554D01*
X98754000Y-101280554D01*
X98754000Y-97691440D01*
X107036905Y-97691440D01*
X107246093Y-98052289D01*
X108183390Y-98429824D01*
X109193817Y-98419933D01*
X110081387Y-98052289D01*
X110290575Y-97691440D01*
X108663740Y-96064605D01*
X107036905Y-97691440D01*
X98754000Y-97691440D01*
X98754000Y-95404650D01*
X106118916Y-95404650D01*
X106128807Y-96415077D01*
X106496451Y-97302647D01*
X106857300Y-97511835D01*
X108484135Y-95885000D01*
X108843345Y-95885000D01*
X110470180Y-97511835D01*
X110831029Y-97302647D01*
X111208564Y-96365350D01*
X111198673Y-95354923D01*
X110839582Y-94488000D01*
X115932214Y-94488000D01*
X116045225Y-95056143D01*
X116367052Y-95537792D01*
X116848701Y-95859619D01*
X117416844Y-95972630D01*
X119311156Y-95972630D01*
X119879299Y-95859619D01*
X120152196Y-95677275D01*
X123069331Y-95677275D01*
X123131169Y-95913042D01*
X123632122Y-96089419D01*
X124162440Y-96060664D01*
X124518831Y-95913042D01*
X124580669Y-95677275D01*
X123825000Y-94921605D01*
X123069331Y-95677275D01*
X120152196Y-95677275D01*
X120360948Y-95537792D01*
X120682775Y-95056143D01*
X120783628Y-94549122D01*
X122477581Y-94549122D01*
X122506336Y-95079440D01*
X122653958Y-95435831D01*
X122889725Y-95497669D01*
X123645395Y-94742000D01*
X124004605Y-94742000D01*
X124760275Y-95497669D01*
X124996042Y-95435831D01*
X125172419Y-94934878D01*
X125143664Y-94404560D01*
X124996042Y-94048169D01*
X124972522Y-94042000D01*
X127477560Y-94042000D01*
X127477560Y-95442000D01*
X127521838Y-95677317D01*
X127660910Y-95893441D01*
X127873110Y-96038431D01*
X128125000Y-96089440D01*
X129525000Y-96089440D01*
X129760317Y-96045162D01*
X129976441Y-95906090D01*
X130121431Y-95693890D01*
X130172440Y-95442000D01*
X130172440Y-94042000D01*
X130128162Y-93806683D01*
X129989090Y-93590559D01*
X129776890Y-93445569D01*
X129525000Y-93394560D01*
X128125000Y-93394560D01*
X127889683Y-93438838D01*
X127673559Y-93577910D01*
X127528569Y-93790110D01*
X127477560Y-94042000D01*
X124972522Y-94042000D01*
X124760275Y-93986331D01*
X124004605Y-94742000D01*
X123645395Y-94742000D01*
X122889725Y-93986331D01*
X122653958Y-94048169D01*
X122477581Y-94549122D01*
X120783628Y-94549122D01*
X120795786Y-94488000D01*
X120682775Y-93919857D01*
X120607183Y-93806725D01*
X123069331Y-93806725D01*
X123825000Y-94562395D01*
X124580669Y-93806725D01*
X124518831Y-93570958D01*
X124017878Y-93394581D01*
X123487560Y-93423336D01*
X123131169Y-93570958D01*
X123069331Y-93806725D01*
X120607183Y-93806725D01*
X120360948Y-93438208D01*
X120023127Y-93212484D01*
X120404024Y-92907989D01*
X120684649Y-92398810D01*
X120705540Y-92304832D01*
X120584214Y-92075000D01*
X118491000Y-92075000D01*
X118491000Y-92095000D01*
X118237000Y-92095000D01*
X118237000Y-92075000D01*
X116143786Y-92075000D01*
X116022460Y-92304832D01*
X116043351Y-92398810D01*
X116323976Y-92907989D01*
X116704873Y-93212484D01*
X116367052Y-93438208D01*
X116045225Y-93919857D01*
X115932214Y-94488000D01*
X110839582Y-94488000D01*
X110831029Y-94467353D01*
X110470180Y-94258165D01*
X108843345Y-95885000D01*
X108484135Y-95885000D01*
X106857300Y-94258165D01*
X106496451Y-94467353D01*
X106118916Y-95404650D01*
X98754000Y-95404650D01*
X98754000Y-94078560D01*
X107036905Y-94078560D01*
X108663740Y-95705395D01*
X110290575Y-94078560D01*
X110081387Y-93717711D01*
X109144090Y-93340176D01*
X108133663Y-93350067D01*
X107246093Y-93717711D01*
X107036905Y-94078560D01*
X98754000Y-94078560D01*
X98754000Y-92992440D01*
X104037165Y-92992440D01*
X104246353Y-93353289D01*
X105183650Y-93730824D01*
X106194077Y-93720933D01*
X107081647Y-93353289D01*
X107290835Y-92992440D01*
X105664000Y-91365605D01*
X104037165Y-92992440D01*
X98754000Y-92992440D01*
X98754000Y-90705650D01*
X103119176Y-90705650D01*
X103129067Y-91716077D01*
X103496711Y-92603647D01*
X103857560Y-92812835D01*
X105484395Y-91186000D01*
X105843605Y-91186000D01*
X107470440Y-92812835D01*
X107831289Y-92603647D01*
X108199692Y-91689021D01*
X109123040Y-91689021D01*
X109508917Y-92622915D01*
X110222807Y-93338052D01*
X111156026Y-93725559D01*
X112166501Y-93726440D01*
X113100395Y-93340563D01*
X113815532Y-92626673D01*
X114070974Y-92011500D01*
X130600714Y-92011500D01*
X130713725Y-92579643D01*
X131035552Y-93061292D01*
X131365117Y-93281500D01*
X131035552Y-93501708D01*
X130713725Y-93983357D01*
X130600714Y-94551500D01*
X130713725Y-95119643D01*
X131035552Y-95601292D01*
X131517201Y-95923119D01*
X132085344Y-96036130D01*
X133979656Y-96036130D01*
X134547799Y-95923119D01*
X135029448Y-95601292D01*
X135351275Y-95119643D01*
X135464286Y-94551500D01*
X135351275Y-93983357D01*
X135029448Y-93501708D01*
X134699883Y-93281500D01*
X135029448Y-93061292D01*
X135351275Y-92579643D01*
X135464286Y-92011500D01*
X135351275Y-91443357D01*
X135029448Y-90961708D01*
X134691627Y-90735984D01*
X135072524Y-90431489D01*
X135353149Y-89922310D01*
X135374040Y-89828332D01*
X135252714Y-89598500D01*
X133159500Y-89598500D01*
X133159500Y-89618500D01*
X132905500Y-89618500D01*
X132905500Y-89598500D01*
X130812286Y-89598500D01*
X130690960Y-89828332D01*
X130711851Y-89922310D01*
X130992476Y-90431489D01*
X131373373Y-90735984D01*
X131035552Y-90961708D01*
X130713725Y-91443357D01*
X130600714Y-92011500D01*
X114070974Y-92011500D01*
X114203039Y-91693454D01*
X114203920Y-90682979D01*
X113818043Y-89749085D01*
X113477553Y-89408000D01*
X115932214Y-89408000D01*
X116045225Y-89976143D01*
X116367052Y-90457792D01*
X116704873Y-90683516D01*
X116323976Y-90988011D01*
X116043351Y-91497190D01*
X116022460Y-91591168D01*
X116143786Y-91821000D01*
X118237000Y-91821000D01*
X118237000Y-91801000D01*
X118491000Y-91801000D01*
X118491000Y-91821000D01*
X120584214Y-91821000D01*
X120705540Y-91591168D01*
X120684649Y-91497190D01*
X120404024Y-90988011D01*
X120023127Y-90683516D01*
X120360948Y-90457792D01*
X120631410Y-90053016D01*
X124415590Y-90053016D01*
X124471271Y-90283611D01*
X124954078Y-90451622D01*
X125464428Y-90422083D01*
X125798729Y-90283611D01*
X125854410Y-90053016D01*
X125135000Y-89333605D01*
X124415590Y-90053016D01*
X120631410Y-90053016D01*
X120682775Y-89976143D01*
X120795786Y-89408000D01*
X120709275Y-88973078D01*
X123837378Y-88973078D01*
X123866917Y-89483428D01*
X124005389Y-89817729D01*
X124235984Y-89873410D01*
X124955395Y-89154000D01*
X125314605Y-89154000D01*
X126034016Y-89873410D01*
X126264611Y-89817729D01*
X126337560Y-89608098D01*
X126337560Y-89804000D01*
X126381838Y-90039317D01*
X126520910Y-90255441D01*
X126733110Y-90400431D01*
X126985000Y-90451440D01*
X128285000Y-90451440D01*
X128520317Y-90407162D01*
X128736441Y-90268090D01*
X128881431Y-90055890D01*
X128932440Y-89804000D01*
X128932440Y-89114668D01*
X130690960Y-89114668D01*
X130812286Y-89344500D01*
X132905500Y-89344500D01*
X132905500Y-87986870D01*
X133159500Y-87986870D01*
X133159500Y-89344500D01*
X135252714Y-89344500D01*
X135374040Y-89114668D01*
X135353149Y-89020690D01*
X135072524Y-88511511D01*
X134618406Y-88148482D01*
X134059930Y-87986870D01*
X133159500Y-87986870D01*
X132905500Y-87986870D01*
X132005070Y-87986870D01*
X131446594Y-88148482D01*
X130992476Y-88511511D01*
X130711851Y-89020690D01*
X130690960Y-89114668D01*
X128932440Y-89114668D01*
X128932440Y-88504000D01*
X128888162Y-88268683D01*
X128749090Y-88052559D01*
X128536890Y-87907569D01*
X128285000Y-87856560D01*
X126985000Y-87856560D01*
X126749683Y-87900838D01*
X126533559Y-88039910D01*
X126388569Y-88252110D01*
X126337560Y-88504000D01*
X126337560Y-88666385D01*
X126264611Y-88490271D01*
X126034016Y-88434590D01*
X125314605Y-89154000D01*
X124955395Y-89154000D01*
X124235984Y-88434590D01*
X124005389Y-88490271D01*
X123837378Y-88973078D01*
X120709275Y-88973078D01*
X120682775Y-88839857D01*
X120360948Y-88358208D01*
X120206463Y-88254984D01*
X124415590Y-88254984D01*
X125135000Y-88974395D01*
X125854410Y-88254984D01*
X125798729Y-88024389D01*
X125315922Y-87856378D01*
X124805572Y-87885917D01*
X124471271Y-88024389D01*
X124415590Y-88254984D01*
X120206463Y-88254984D01*
X119879299Y-88036381D01*
X119311156Y-87923370D01*
X117416844Y-87923370D01*
X116848701Y-88036381D01*
X116367052Y-88358208D01*
X116045225Y-88839857D01*
X115932214Y-89408000D01*
X113477553Y-89408000D01*
X113104153Y-89033948D01*
X112170934Y-88646441D01*
X111160459Y-88645560D01*
X110226565Y-89031437D01*
X109511428Y-89745327D01*
X109123921Y-90678546D01*
X109123040Y-91689021D01*
X108199692Y-91689021D01*
X108208824Y-91666350D01*
X108198933Y-90655923D01*
X107831289Y-89768353D01*
X107470440Y-89559165D01*
X105843605Y-91186000D01*
X105484395Y-91186000D01*
X103857560Y-89559165D01*
X103496711Y-89768353D01*
X103119176Y-90705650D01*
X98754000Y-90705650D01*
X98754000Y-89379560D01*
X104037165Y-89379560D01*
X105664000Y-91006395D01*
X107290835Y-89379560D01*
X107081647Y-89018711D01*
X106144350Y-88641176D01*
X105133923Y-88651067D01*
X104246353Y-89018711D01*
X104037165Y-89379560D01*
X98754000Y-89379560D01*
X98754000Y-87070000D01*
X138990000Y-87070000D01*
X138990000Y-111558000D01*
M02*
