M48
;DRILL file {KiCad 4.0.1-3.201512221402+6198~38~ubuntu14.04.1-stable} date Sat 07 May 2016 10:23:56 PM PDT
;FORMAT={-:-/ absolute / inch / decimal}
FMAT,2
INCH,TZ
T1C0.040
%
G90
G05
M72
T1
X4.92Y-2.8
X4.92Y-2.9
X4.92Y-3.
X4.92Y-3.1
X4.92Y-3.2
X4.92Y-3.3
X4.92Y-3.4
X4.92Y-3.5
X4.92Y-3.6
X4.92Y-3.7
X4.92Y-3.8
X4.92Y-3.9
X4.92Y-4.
X4.92Y-4.1
X4.92Y-4.2
X4.92Y-4.3
X4.92Y-4.4
X4.92Y-4.5
X4.92Y-4.6
X4.92Y-4.7
X5.02Y-2.8
X5.02Y-2.9
X5.02Y-3.
X5.02Y-3.1
X5.02Y-3.2
X5.02Y-3.3
X5.02Y-3.4
X5.02Y-3.5
X5.02Y-3.6
X5.02Y-3.7
X5.02Y-3.8
X5.02Y-3.9
X5.02Y-4.
X5.02Y-4.1
X5.02Y-4.2
X5.02Y-4.3
X5.02Y-4.4
X5.02Y-4.5
X5.02Y-4.6
X5.02Y-4.7
X5.22Y-2.9
X5.22Y-3.
X5.22Y-3.1
X5.22Y-3.2
X5.22Y-3.3
X5.22Y-3.4
X5.22Y-3.5
X5.22Y-3.6
X5.22Y-3.7
X5.22Y-3.8
X5.22Y-3.9
X5.22Y-4.
X5.22Y-4.1
X5.22Y-4.2
X5.22Y-4.3
X5.22Y-4.4
X5.22Y-4.5
X5.22Y-4.6
X5.32Y-2.9
X5.32Y-3.
X5.32Y-3.1
X5.32Y-3.2
X5.32Y-3.3
X5.32Y-3.4
X5.32Y-3.5
X5.32Y-3.6
X5.32Y-3.7
X5.32Y-3.8
X5.32Y-3.9
X5.32Y-4.
X5.32Y-4.1
X5.32Y-4.2
X5.32Y-4.3
X5.32Y-4.4
X5.32Y-4.5
X5.32Y-4.6
X5.42Y-3.
X5.42Y-3.1
X5.42Y-3.2
X5.42Y-3.3
X5.42Y-3.4
X5.42Y-3.5
X5.42Y-3.6
X5.42Y-3.7
X5.42Y-3.8
X5.42Y-3.9
X5.42Y-4.
X5.42Y-4.1
X5.42Y-4.2
X5.42Y-4.3
X5.42Y-4.4
X5.42Y-4.5
X5.42Y-4.6
X5.52Y-3.1
X5.52Y-3.2
X5.52Y-3.3
X5.52Y-3.4
X5.52Y-3.5
X5.52Y-3.6
X5.52Y-3.7
X5.52Y-3.8
X5.52Y-3.9
X5.52Y-4.
X5.52Y-4.1
X5.52Y-4.2
X5.52Y-4.3
X5.52Y-4.4
X5.52Y-4.5
X5.52Y-4.6
X5.62Y-3.1
X5.62Y-3.2
X5.62Y-3.3
X5.62Y-3.4
X5.62Y-3.5
X5.62Y-3.6
X5.62Y-3.7
X5.62Y-3.8
X5.62Y-3.9
X5.62Y-4.
X5.62Y-4.1
X5.62Y-4.2
X5.62Y-4.3
X5.62Y-4.4
X5.62Y-4.5
X5.62Y-4.6
X5.72Y-3.1
X5.72Y-3.2
X5.72Y-3.3
X5.72Y-3.4
X5.72Y-3.5
X5.72Y-3.6
X5.72Y-3.7
X5.72Y-3.8
X5.72Y-3.9
X5.72Y-4.
X5.72Y-4.1
X5.72Y-4.2
X5.72Y-4.3
X5.72Y-4.4
X5.72Y-4.5
X5.72Y-4.6
X5.82Y-3.1
X5.82Y-3.2
X5.82Y-3.3
X5.82Y-3.4
X5.82Y-3.5
X5.82Y-3.6
X5.82Y-3.7
X5.82Y-3.8
X5.82Y-3.9
X5.82Y-4.
X5.82Y-4.1
X5.82Y-4.2
X5.82Y-4.3
X5.82Y-4.4
X5.82Y-4.5
X5.82Y-4.6
X5.92Y-3.
X5.92Y-3.1
X5.92Y-3.2
X5.92Y-3.3
X5.92Y-3.4
X5.92Y-3.5
X5.92Y-3.6
X5.92Y-3.7
X5.92Y-3.8
X5.92Y-3.9
X5.92Y-4.
X5.92Y-4.1
X5.92Y-4.2
X5.92Y-4.3
X5.92Y-4.4
X5.92Y-4.5
X5.92Y-4.6
X6.02Y-2.9
X6.02Y-3.
X6.02Y-3.1
X6.02Y-3.2
X6.02Y-3.3
X6.02Y-3.4
X6.02Y-3.5
X6.02Y-3.6
X6.02Y-3.7
X6.02Y-3.8
X6.02Y-3.9
X6.02Y-4.
X6.02Y-4.1
X6.02Y-4.2
X6.02Y-4.3
X6.02Y-4.4
X6.02Y-4.5
X6.02Y-4.6
X6.12Y-2.9
X6.12Y-3.
X6.12Y-3.1
X6.12Y-3.2
X6.12Y-3.3
X6.12Y-3.4
X6.12Y-3.5
X6.12Y-3.6
X6.12Y-3.7
X6.12Y-3.8
X6.12Y-3.9
X6.12Y-4.
X6.12Y-4.1
X6.12Y-4.2
X6.12Y-4.3
X6.12Y-4.4
X6.12Y-4.5
X6.12Y-4.6
X6.32Y-2.8
X6.32Y-2.9
X6.32Y-3.
X6.32Y-3.1
X6.32Y-3.2
X6.32Y-3.3
X6.32Y-3.4
X6.32Y-3.5
X6.32Y-3.6
X6.32Y-3.7
X6.32Y-3.8
X6.32Y-3.9
X6.32Y-4.
X6.32Y-4.1
X6.32Y-4.2
X6.32Y-4.3
X6.32Y-4.4
X6.32Y-4.5
X6.32Y-4.6
X6.32Y-4.7
X6.42Y-2.8
X6.42Y-2.9
X6.42Y-3.
X6.42Y-3.1
X6.42Y-3.2
X6.42Y-3.3
X6.42Y-3.4
X6.42Y-3.5
X6.42Y-3.6
X6.42Y-3.7
X6.42Y-3.8
X6.42Y-3.9
X6.42Y-4.
X6.42Y-4.1
X6.42Y-4.2
X6.42Y-4.3
X6.42Y-4.4
X6.42Y-4.5
X6.42Y-4.6
X6.42Y-4.7
T0
M30
