G04 This is an RS-274x file exported by *
G04 gerbv version 2.6.0 *
G04 More information is available about gerbv at *
G04 http://gerbv.gpleda.org/ *
G04 --End of header info--*
%MOIN*%
%FSLAX34Y34*%
%IPPOS*%
G04 --Define apertures--*
%ADD10C,0.0138*%
G04 --Start main section--*
G54D10*
G36*
G01X0042415Y-044989D02*
G01X0042415Y-044989D01*
G01X0042416Y-044989D01*
G01X0042555Y-045005D01*
G01X0042689Y-045047D01*
G01X0042812Y-045115D01*
G01X0042920Y-045205D01*
G01X0043007Y-045314D01*
G01X0043072Y-045439D01*
G01X0043112Y-045573D01*
G01X0043112Y-045573D01*
G01X0043112Y-045573D01*
G01X0043125Y-045713D01*
G01X0043110Y-045853D01*
G01X0043110Y-045853D01*
G01X0043110Y-045853D01*
G01X0043069Y-045987D01*
G01X0043002Y-046110D01*
G01X0042912Y-046218D01*
G01X0042804Y-046307D01*
G01X0042680Y-046373D01*
G01X0042545Y-046413D01*
G01X0042406Y-046427D01*
G01X0041014Y-046427D01*
G01X0041005Y-046427D01*
G01X0041005Y-046427D01*
G01X0041004Y-046427D01*
G01X0040865Y-046411D01*
G01X0040731Y-046369D01*
G01X0040608Y-046301D01*
G01X0040500Y-046211D01*
G01X0040413Y-046102D01*
G01X0040348Y-045977D01*
G01X0040308Y-045843D01*
G01X0040308Y-045843D01*
G01X0040308Y-045843D01*
G01X0040295Y-045703D01*
G01X0040310Y-045563D01*
G01X0040310Y-045563D01*
G01X0040310Y-045563D01*
G01X0040351Y-045429D01*
G01X0040418Y-045306D01*
G01X0040508Y-045198D01*
G01X0040616Y-045109D01*
G01X0040740Y-045043D01*
G01X0040875Y-045003D01*
G01X0041014Y-044989D01*
G01X0042406Y-044989D01*
G01X0042415Y-044989D01*
G01X0042415Y-044989D01*
G37*
G36*
G01X0033044Y-045577D02*
G01X0033126Y-045593D01*
G01X0033202Y-045626D01*
G01X0033271Y-045672D01*
G01X0033330Y-045731D01*
G01X0033376Y-045800D01*
G01X0033407Y-045877D01*
G01X0033423Y-045958D01*
G01X0033423Y-045958D01*
G01X0033424Y-045958D01*
G01X0033422Y-046053D01*
G01X0033422Y-046053D01*
G01X0033422Y-046053D01*
G01X0033404Y-046134D01*
G01X0033370Y-046210D01*
G01X0033322Y-046278D01*
G01X0033262Y-046335D01*
G01X0033192Y-046380D01*
G01X0033114Y-046410D01*
G01X0033033Y-046424D01*
G01X0032950Y-046423D01*
G01X0032868Y-046405D01*
G01X0032792Y-046371D01*
G01X0032724Y-046324D01*
G01X0032666Y-046264D01*
G01X0032622Y-046195D01*
G01X0032591Y-046117D01*
G01X0032576Y-046036D01*
G01X0032577Y-045953D01*
G01X0032594Y-045871D01*
G01X0032627Y-045795D01*
G01X0032674Y-045726D01*
G01X0032733Y-045668D01*
G01X0032803Y-045623D01*
G01X0032880Y-045592D01*
G01X0032961Y-045576D01*
G01X0033044Y-045577D01*
G01X0033044Y-045577D01*
G37*
G36*
G01X0036036Y-044664D02*
G01X0036193Y-044696D01*
G01X0036341Y-044758D01*
G01X0036474Y-044848D01*
G01X0036587Y-044962D01*
G01X0036675Y-045095D01*
G01X0036736Y-045244D01*
G01X0036767Y-045401D01*
G01X0036767Y-045401D01*
G01X0036767Y-045401D01*
G01X0036765Y-045584D01*
G01X0036765Y-045584D01*
G01X0036765Y-045584D01*
G01X0036729Y-045740D01*
G01X0036664Y-045887D01*
G01X0036572Y-046018D01*
G01X0036456Y-046128D01*
G01X0036320Y-046214D01*
G01X0036171Y-046272D01*
G01X0036013Y-046300D01*
G01X0035853Y-046297D01*
G01X0035696Y-046262D01*
G01X0035549Y-046198D01*
G01X0035418Y-046106D01*
G01X0035306Y-045991D01*
G01X0035219Y-045856D01*
G01X0035160Y-045707D01*
G01X0035132Y-045550D01*
G01X0035134Y-045389D01*
G01X0035167Y-045233D01*
G01X0035230Y-045085D01*
G01X0035321Y-044953D01*
G01X0035435Y-044841D01*
G01X0035569Y-044753D01*
G01X0035718Y-044693D01*
G01X0035876Y-044663D01*
G01X0036036Y-044664D01*
G01X0036036Y-044664D01*
G37*
G36*
G01X0029686Y-045277D02*
G01X0029686Y-045277D01*
G01X0029686Y-045277D01*
G01X0029767Y-045302D01*
G01X0029840Y-045341D01*
G01X0029905Y-045395D01*
G01X0029958Y-045460D01*
G01X0029998Y-045534D01*
G01X0030022Y-045614D01*
G01X0030030Y-045698D01*
G01X0030030Y-045702D01*
G01X0030030Y-045708D01*
G01X0030021Y-045791D01*
G01X0029995Y-045871D01*
G01X0029955Y-045945D01*
G01X0029901Y-046009D01*
G01X0029835Y-046062D01*
G01X0029761Y-046101D01*
G01X0029681Y-046124D01*
G01X0029681Y-046124D01*
G01X0029681Y-046124D01*
G01X0029597Y-046132D01*
G01X0029514Y-046123D01*
G01X0029514Y-046123D01*
G01X0029514Y-046123D01*
G01X0029433Y-046098D01*
G01X0029360Y-046059D01*
G01X0029295Y-046005D01*
G01X0029242Y-045940D01*
G01X0029202Y-045866D01*
G01X0029178Y-045786D01*
G01X0029170Y-045702D01*
G01X0029170Y-045698D01*
G01X0029170Y-045692D01*
G01X0029179Y-045609D01*
G01X0029205Y-045529D01*
G01X0029245Y-045455D01*
G01X0029299Y-045391D01*
G01X0029365Y-045338D01*
G01X0029439Y-045299D01*
G01X0029519Y-045276D01*
G01X0029519Y-045276D01*
G01X0029519Y-045276D01*
G01X0029603Y-045268D01*
G01X0029686Y-045277D01*
G01X0029686Y-045277D01*
G37*
G36*
G01X0031030Y-046130D02*
G01X0030170Y-046130D01*
G01X0030170Y-045270D01*
G01X0031030Y-045270D01*
G01X0031030Y-046130D01*
G01X0031030Y-046130D01*
G37*
G36*
G01X0025107Y-043986D02*
G01X0025301Y-044026D01*
G01X0025485Y-044103D01*
G01X0025650Y-044215D01*
G01X0025790Y-044356D01*
G01X0025900Y-044522D01*
G01X0025976Y-044705D01*
G01X0026014Y-044900D01*
G01X0026014Y-044900D01*
G01X0026014Y-044901D01*
G01X0026011Y-045128D01*
G01X0026011Y-045128D01*
G01X0026011Y-045128D01*
G01X0025967Y-045322D01*
G01X0025886Y-045503D01*
G01X0025771Y-045666D01*
G01X0025627Y-045803D01*
G01X0025460Y-045910D01*
G01X0025274Y-045982D01*
G01X0025078Y-046016D01*
G01X0024879Y-046012D01*
G01X0024685Y-045969D01*
G01X0024503Y-045890D01*
G01X0024339Y-045776D01*
G01X0024201Y-045633D01*
G01X0024094Y-045466D01*
G01X0024020Y-045281D01*
G01X0023984Y-045085D01*
G01X0023987Y-044886D01*
G01X0024029Y-044692D01*
G01X0024107Y-044509D01*
G01X0024219Y-044345D01*
G01X0024361Y-044206D01*
G01X0024528Y-044097D01*
G01X0024712Y-044022D01*
G01X0024908Y-043985D01*
G01X0025107Y-043986D01*
G01X0025107Y-043986D01*
G37*
G36*
G01X0037886Y-043483D02*
G01X0038043Y-043515D01*
G01X0038191Y-043577D01*
G01X0038324Y-043667D01*
G01X0038437Y-043781D01*
G01X0038525Y-043914D01*
G01X0038586Y-044063D01*
G01X0038617Y-044220D01*
G01X0038617Y-044220D01*
G01X0038617Y-044220D01*
G01X0038615Y-044403D01*
G01X0038615Y-044403D01*
G01X0038615Y-044403D01*
G01X0038579Y-044559D01*
G01X0038514Y-044706D01*
G01X0038422Y-044837D01*
G01X0038306Y-044947D01*
G01X0038170Y-045033D01*
G01X0038021Y-045091D01*
G01X0037863Y-045119D01*
G01X0037703Y-045116D01*
G01X0037546Y-045081D01*
G01X0037399Y-045017D01*
G01X0037268Y-044925D01*
G01X0037156Y-044810D01*
G01X0037069Y-044675D01*
G01X0037010Y-044526D01*
G01X0036982Y-044369D01*
G01X0036984Y-044208D01*
G01X0037017Y-044052D01*
G01X0037080Y-043904D01*
G01X0037171Y-043772D01*
G01X0037285Y-043660D01*
G01X0037419Y-043572D01*
G01X0037568Y-043512D01*
G01X0037726Y-043482D01*
G01X0037886Y-043483D01*
G01X0037886Y-043483D01*
G37*
G36*
G01X0027405Y-042533D02*
G01X0027562Y-042565D01*
G01X0027710Y-042627D01*
G01X0027843Y-042717D01*
G01X0027956Y-042831D01*
G01X0028044Y-042964D01*
G01X0028105Y-043113D01*
G01X0028136Y-043270D01*
G01X0028136Y-043270D01*
G01X0028136Y-043270D01*
G01X0028134Y-043453D01*
G01X0028134Y-043453D01*
G01X0028134Y-043453D01*
G01X0028098Y-043609D01*
G01X0028033Y-043756D01*
G01X0027941Y-043887D01*
G01X0027825Y-043997D01*
G01X0027689Y-044083D01*
G01X0027540Y-044141D01*
G01X0027382Y-044169D01*
G01X0027222Y-044166D01*
G01X0027065Y-044131D01*
G01X0026918Y-044067D01*
G01X0026787Y-043975D01*
G01X0026675Y-043860D01*
G01X0026588Y-043725D01*
G01X0026529Y-043576D01*
G01X0026501Y-043419D01*
G01X0026503Y-043258D01*
G01X0026536Y-043102D01*
G01X0026599Y-042954D01*
G01X0026690Y-042822D01*
G01X0026804Y-042710D01*
G01X0026938Y-042622D01*
G01X0027087Y-042562D01*
G01X0027245Y-042532D01*
G01X0027405Y-042533D01*
G01X0027405Y-042533D01*
G37*
G36*
G01X0040212Y-043355D02*
G01X0040215Y-043355D01*
G01X0040282Y-043363D01*
G01X0040346Y-043383D01*
G01X0040405Y-043415D01*
G01X0040457Y-043459D01*
G01X0040499Y-043511D01*
G01X0040530Y-043571D01*
G01X0040549Y-043635D01*
G01X0040549Y-043635D01*
G01X0040549Y-043635D01*
G01X0040556Y-043702D01*
G01X0040548Y-043769D01*
G01X0040548Y-043769D01*
G01X0040548Y-043769D01*
G01X0040529Y-043834D01*
G01X0040497Y-043893D01*
G01X0040454Y-043945D01*
G01X0040401Y-043987D01*
G01X0040342Y-044019D01*
G01X0040278Y-044038D01*
G01X0040211Y-044045D01*
G01X0039851Y-044045D01*
G01X0039850Y-044045D01*
G01X0039847Y-044045D01*
G01X0039780Y-044037D01*
G01X0039716Y-044017D01*
G01X0039657Y-043985D01*
G01X0039605Y-043941D01*
G01X0039563Y-043889D01*
G01X0039532Y-043829D01*
G01X0039513Y-043765D01*
G01X0039513Y-043765D01*
G01X0039513Y-043765D01*
G01X0039506Y-043698D01*
G01X0039514Y-043631D01*
G01X0039514Y-043631D01*
G01X0039514Y-043631D01*
G01X0039533Y-043566D01*
G01X0039565Y-043507D01*
G01X0039608Y-043455D01*
G01X0039661Y-043413D01*
G01X0039720Y-043381D01*
G01X0039784Y-043362D01*
G01X0039851Y-043355D01*
G01X0040211Y-043355D01*
G01X0040212Y-043355D01*
G01X0040212Y-043355D01*
G37*
G36*
G01X0036036Y-042302D02*
G01X0036193Y-042334D01*
G01X0036341Y-042396D01*
G01X0036474Y-042486D01*
G01X0036587Y-042600D01*
G01X0036675Y-042733D01*
G01X0036736Y-042882D01*
G01X0036767Y-043039D01*
G01X0036767Y-043039D01*
G01X0036767Y-043039D01*
G01X0036765Y-043222D01*
G01X0036765Y-043222D01*
G01X0036765Y-043222D01*
G01X0036729Y-043378D01*
G01X0036664Y-043525D01*
G01X0036572Y-043656D01*
G01X0036456Y-043766D01*
G01X0036320Y-043852D01*
G01X0036171Y-043910D01*
G01X0036013Y-043938D01*
G01X0035853Y-043935D01*
G01X0035696Y-043900D01*
G01X0035549Y-043836D01*
G01X0035418Y-043744D01*
G01X0035306Y-043629D01*
G01X0035219Y-043494D01*
G01X0035160Y-043345D01*
G01X0035132Y-043188D01*
G01X0035134Y-043027D01*
G01X0035167Y-042871D01*
G01X0035230Y-042723D01*
G01X0035321Y-042591D01*
G01X0035435Y-042479D01*
G01X0035569Y-042391D01*
G01X0035718Y-042331D01*
G01X0035876Y-042301D01*
G01X0036036Y-042302D01*
G01X0036036Y-042302D01*
G37*
G36*
G01X0031804Y-043224D02*
G01X0030996Y-043224D01*
G01X0030996Y-042376D01*
G01X0031804Y-042376D01*
G01X0031804Y-043224D01*
G01X0031804Y-043224D01*
G37*
G36*
G01X0030442Y-042396D02*
G01X0030520Y-042412D01*
G01X0030593Y-042443D01*
G01X0030659Y-042487D01*
G01X0030715Y-042543D01*
G01X0030758Y-042609D01*
G01X0030789Y-042683D01*
G01X0030804Y-042760D01*
G01X0030804Y-042760D01*
G01X0030804Y-042760D01*
G01X0030803Y-042851D01*
G01X0030803Y-042851D01*
G01X0030803Y-042851D01*
G01X0030785Y-042928D01*
G01X0030753Y-043001D01*
G01X0030707Y-043065D01*
G01X0030650Y-043120D01*
G01X0030583Y-043162D01*
G01X0030509Y-043191D01*
G01X0030431Y-043205D01*
G01X0030352Y-043203D01*
G01X0030275Y-043186D01*
G01X0030202Y-043154D01*
G01X0030137Y-043109D01*
G01X0030082Y-043052D01*
G01X0030039Y-042986D01*
G01X0030010Y-042912D01*
G01X0029995Y-042834D01*
G01X0029997Y-042755D01*
G01X0030013Y-042677D01*
G01X0030044Y-042604D01*
G01X0030089Y-042539D01*
G01X0030146Y-042484D01*
G01X0030212Y-042440D01*
G01X0030285Y-042411D01*
G01X0030363Y-042396D01*
G01X0030442Y-042396D01*
G01X0030442Y-042396D01*
G37*
G36*
G01X0040212Y-042371D02*
G01X0040215Y-042371D01*
G01X0040282Y-042379D01*
G01X0040346Y-042399D01*
G01X0040405Y-042431D01*
G01X0040457Y-042475D01*
G01X0040499Y-042527D01*
G01X0040530Y-042587D01*
G01X0040549Y-042651D01*
G01X0040549Y-042651D01*
G01X0040549Y-042651D01*
G01X0040556Y-042718D01*
G01X0040548Y-042785D01*
G01X0040548Y-042785D01*
G01X0040548Y-042785D01*
G01X0040529Y-042850D01*
G01X0040497Y-042909D01*
G01X0040454Y-042961D01*
G01X0040401Y-043003D01*
G01X0040342Y-043035D01*
G01X0040278Y-043054D01*
G01X0040211Y-043061D01*
G01X0039851Y-043061D01*
G01X0039850Y-043061D01*
G01X0039847Y-043061D01*
G01X0039780Y-043053D01*
G01X0039716Y-043033D01*
G01X0039657Y-043001D01*
G01X0039605Y-042957D01*
G01X0039563Y-042905D01*
G01X0039532Y-042845D01*
G01X0039513Y-042781D01*
G01X0039513Y-042781D01*
G01X0039513Y-042781D01*
G01X0039506Y-042714D01*
G01X0039514Y-042647D01*
G01X0039514Y-042647D01*
G01X0039514Y-042647D01*
G01X0039533Y-042582D01*
G01X0039565Y-042523D01*
G01X0039608Y-042471D01*
G01X0039661Y-042429D01*
G01X0039720Y-042397D01*
G01X0039784Y-042378D01*
G01X0039851Y-042371D01*
G01X0040211Y-042371D01*
G01X0040212Y-042371D01*
G01X0040212Y-042371D01*
G37*
G36*
G01X0033424Y-042423D02*
G01X0032577Y-042423D01*
G01X0032577Y-041576D01*
G01X0033424Y-041576D01*
G01X0033424Y-042423D01*
G01X0033424Y-042423D01*
G37*
G36*
G01X0042415Y-040974D02*
G01X0042415Y-040974D01*
G01X0042416Y-040974D01*
G01X0042555Y-040990D01*
G01X0042689Y-041032D01*
G01X0042812Y-041100D01*
G01X0042920Y-041190D01*
G01X0043007Y-041299D01*
G01X0043072Y-041424D01*
G01X0043112Y-041558D01*
G01X0043112Y-041558D01*
G01X0043112Y-041558D01*
G01X0043125Y-041698D01*
G01X0043110Y-041838D01*
G01X0043110Y-041838D01*
G01X0043110Y-041838D01*
G01X0043069Y-041972D01*
G01X0043002Y-042095D01*
G01X0042912Y-042203D01*
G01X0042804Y-042292D01*
G01X0042680Y-042358D01*
G01X0042545Y-042398D01*
G01X0042406Y-042412D01*
G01X0041014Y-042412D01*
G01X0041005Y-042412D01*
G01X0041005Y-042412D01*
G01X0041004Y-042412D01*
G01X0040865Y-042396D01*
G01X0040731Y-042354D01*
G01X0040608Y-042286D01*
G01X0040500Y-042196D01*
G01X0040413Y-042087D01*
G01X0040348Y-041962D01*
G01X0040308Y-041828D01*
G01X0040308Y-041828D01*
G01X0040308Y-041828D01*
G01X0040295Y-041688D01*
G01X0040310Y-041548D01*
G01X0040310Y-041548D01*
G01X0040310Y-041548D01*
G01X0040351Y-041414D01*
G01X0040418Y-041291D01*
G01X0040508Y-041183D01*
G01X0040616Y-041094D01*
G01X0040740Y-041028D01*
G01X0040875Y-040988D01*
G01X0041014Y-040974D01*
G01X0042406Y-040974D01*
G01X0042415Y-040974D01*
G01X0042415Y-040974D01*
G37*
G36*
G01X0028586Y-040683D02*
G01X0028743Y-040715D01*
G01X0028891Y-040777D01*
G01X0029024Y-040867D01*
G01X0029137Y-040981D01*
G01X0029225Y-041114D01*
G01X0029286Y-041263D01*
G01X0029317Y-041420D01*
G01X0029317Y-041420D01*
G01X0029317Y-041420D01*
G01X0029315Y-041603D01*
G01X0029315Y-041603D01*
G01X0029315Y-041603D01*
G01X0029279Y-041759D01*
G01X0029214Y-041906D01*
G01X0029122Y-042037D01*
G01X0029006Y-042147D01*
G01X0028870Y-042233D01*
G01X0028721Y-042291D01*
G01X0028563Y-042319D01*
G01X0028403Y-042316D01*
G01X0028246Y-042281D01*
G01X0028099Y-042217D01*
G01X0027968Y-042125D01*
G01X0027856Y-042010D01*
G01X0027769Y-041875D01*
G01X0027710Y-041726D01*
G01X0027682Y-041569D01*
G01X0027684Y-041408D01*
G01X0027717Y-041252D01*
G01X0027780Y-041104D01*
G01X0027871Y-040972D01*
G01X0027985Y-040860D01*
G01X0028119Y-040772D01*
G01X0028268Y-040712D01*
G01X0028426Y-040682D01*
G01X0028586Y-040683D01*
G01X0028586Y-040683D01*
G37*
G36*
G01X0026224Y-040683D02*
G01X0026381Y-040715D01*
G01X0026529Y-040777D01*
G01X0026662Y-040867D01*
G01X0026775Y-040981D01*
G01X0026863Y-041114D01*
G01X0026924Y-041263D01*
G01X0026955Y-041420D01*
G01X0026955Y-041420D01*
G01X0026955Y-041420D01*
G01X0026953Y-041603D01*
G01X0026953Y-041603D01*
G01X0026953Y-041603D01*
G01X0026917Y-041759D01*
G01X0026852Y-041906D01*
G01X0026760Y-042037D01*
G01X0026644Y-042147D01*
G01X0026508Y-042233D01*
G01X0026359Y-042291D01*
G01X0026201Y-042319D01*
G01X0026041Y-042316D01*
G01X0025884Y-042281D01*
G01X0025737Y-042217D01*
G01X0025606Y-042125D01*
G01X0025494Y-042010D01*
G01X0025407Y-041875D01*
G01X0025348Y-041726D01*
G01X0025320Y-041569D01*
G01X0025322Y-041408D01*
G01X0025355Y-041252D01*
G01X0025418Y-041104D01*
G01X0025509Y-040972D01*
G01X0025623Y-040860D01*
G01X0025757Y-040772D01*
G01X0025906Y-040712D01*
G01X0026064Y-040682D01*
G01X0026224Y-040683D01*
G01X0026224Y-040683D01*
G37*
G36*
G01X0036273Y-040285D02*
G01X0036273Y-040285D01*
G01X0036273Y-040285D01*
G01X0036341Y-040306D01*
G01X0036404Y-040340D01*
G01X0036459Y-040385D01*
G01X0036504Y-040440D01*
G01X0036537Y-040503D01*
G01X0036558Y-040571D01*
G01X0036565Y-040642D01*
G01X0036565Y-041358D01*
G01X0036564Y-041362D01*
G01X0036564Y-041362D01*
G01X0036564Y-041363D01*
G01X0036557Y-041434D01*
G01X0036535Y-041502D01*
G01X0036501Y-041564D01*
G01X0036455Y-041618D01*
G01X0036400Y-041663D01*
G01X0036337Y-041696D01*
G01X0036268Y-041716D01*
G01X0036268Y-041716D01*
G01X0036268Y-041716D01*
G01X0036197Y-041722D01*
G01X0036127Y-041715D01*
G01X0036127Y-041715D01*
G01X0036127Y-041715D01*
G01X0036059Y-041694D01*
G01X0035996Y-041660D01*
G01X0035941Y-041615D01*
G01X0035896Y-041560D01*
G01X0035863Y-041497D01*
G01X0035842Y-041429D01*
G01X0035836Y-041358D01*
G01X0035836Y-040642D01*
G01X0035836Y-040638D01*
G01X0035836Y-040638D01*
G01X0035836Y-040637D01*
G01X0035843Y-040566D01*
G01X0035865Y-040498D01*
G01X0035899Y-040436D01*
G01X0035945Y-040382D01*
G01X0036000Y-040337D01*
G01X0036063Y-040304D01*
G01X0036132Y-040284D01*
G01X0036132Y-040284D01*
G01X0036132Y-040284D01*
G01X0036203Y-040278D01*
G01X0036273Y-040285D01*
G01X0036273Y-040285D01*
G37*
G36*
G01X0037273Y-040285D02*
G01X0037273Y-040285D01*
G01X0037273Y-040285D01*
G01X0037341Y-040306D01*
G01X0037404Y-040340D01*
G01X0037459Y-040385D01*
G01X0037504Y-040440D01*
G01X0037537Y-040503D01*
G01X0037558Y-040571D01*
G01X0037565Y-040642D01*
G01X0037565Y-041358D01*
G01X0037564Y-041362D01*
G01X0037564Y-041362D01*
G01X0037564Y-041363D01*
G01X0037557Y-041434D01*
G01X0037535Y-041502D01*
G01X0037501Y-041564D01*
G01X0037455Y-041618D01*
G01X0037400Y-041663D01*
G01X0037337Y-041696D01*
G01X0037268Y-041716D01*
G01X0037268Y-041716D01*
G01X0037268Y-041716D01*
G01X0037197Y-041722D01*
G01X0037127Y-041715D01*
G01X0037127Y-041715D01*
G01X0037127Y-041715D01*
G01X0037059Y-041694D01*
G01X0036996Y-041660D01*
G01X0036941Y-041615D01*
G01X0036896Y-041560D01*
G01X0036863Y-041497D01*
G01X0036842Y-041429D01*
G01X0036836Y-041358D01*
G01X0036836Y-040642D01*
G01X0036836Y-040638D01*
G01X0036836Y-040638D01*
G01X0036836Y-040637D01*
G01X0036843Y-040566D01*
G01X0036865Y-040498D01*
G01X0036899Y-040436D01*
G01X0036945Y-040382D01*
G01X0037000Y-040337D01*
G01X0037063Y-040304D01*
G01X0037132Y-040284D01*
G01X0037132Y-040284D01*
G01X0037132Y-040284D01*
G01X0037203Y-040278D01*
G01X0037273Y-040285D01*
G01X0037273Y-040285D01*
G37*
G36*
G01X0035273Y-040285D02*
G01X0035273Y-040285D01*
G01X0035273Y-040285D01*
G01X0035341Y-040306D01*
G01X0035404Y-040340D01*
G01X0035459Y-040385D01*
G01X0035504Y-040440D01*
G01X0035537Y-040503D01*
G01X0035558Y-040571D01*
G01X0035565Y-040642D01*
G01X0035565Y-041358D01*
G01X0035564Y-041362D01*
G01X0035564Y-041362D01*
G01X0035564Y-041363D01*
G01X0035557Y-041434D01*
G01X0035535Y-041502D01*
G01X0035501Y-041564D01*
G01X0035455Y-041618D01*
G01X0035400Y-041663D01*
G01X0035337Y-041696D01*
G01X0035268Y-041716D01*
G01X0035268Y-041716D01*
G01X0035268Y-041716D01*
G01X0035197Y-041722D01*
G01X0035127Y-041715D01*
G01X0035127Y-041715D01*
G01X0035127Y-041715D01*
G01X0035059Y-041694D01*
G01X0034996Y-041660D01*
G01X0034941Y-041615D01*
G01X0034896Y-041560D01*
G01X0034863Y-041497D01*
G01X0034842Y-041429D01*
G01X0034836Y-041358D01*
G01X0034836Y-040642D01*
G01X0034836Y-040638D01*
G01X0034836Y-040638D01*
G01X0034836Y-040637D01*
G01X0034843Y-040566D01*
G01X0034865Y-040498D01*
G01X0034899Y-040436D01*
G01X0034945Y-040382D01*
G01X0035000Y-040337D01*
G01X0035063Y-040304D01*
G01X0035132Y-040284D01*
G01X0035132Y-040284D01*
G01X0035132Y-040284D01*
G01X0035203Y-040278D01*
G01X0035273Y-040285D01*
G01X0035273Y-040285D01*
G37*
G36*
G01X0032432Y-039595D02*
G01X0032491Y-039607D01*
G01X0032546Y-039630D01*
G01X0032596Y-039663D01*
G01X0032638Y-039706D01*
G01X0032671Y-039756D01*
G01X0032694Y-039811D01*
G01X0032705Y-039866D01*
G01X0032706Y-039870D01*
G01X0032705Y-039938D01*
G01X0032705Y-039939D01*
G01X0032705Y-039939D01*
G01X0032691Y-039997D01*
G01X0032667Y-040052D01*
G01X0032632Y-040101D01*
G01X0032589Y-040142D01*
G01X0032538Y-040174D01*
G01X0032483Y-040196D01*
G01X0032424Y-040206D01*
G01X0032364Y-040205D01*
G01X0032305Y-040192D01*
G01X0032250Y-040168D01*
G01X0032201Y-040134D01*
G01X0032159Y-040091D01*
G01X0032127Y-040040D01*
G01X0032105Y-039985D01*
G01X0032094Y-039926D01*
G01X0032095Y-039866D01*
G01X0032107Y-039807D01*
G01X0032131Y-039752D01*
G01X0032165Y-039703D01*
G01X0032208Y-039661D01*
G01X0032258Y-039628D01*
G01X0032313Y-039605D01*
G01X0032372Y-039594D01*
G01X0032432Y-039595D01*
G01X0032432Y-039595D01*
G37*
G36*
G01X0030737Y-040206D02*
G01X0030126Y-040206D01*
G01X0030126Y-039594D01*
G01X0030737Y-039594D01*
G01X0030737Y-040206D01*
G01X0030737Y-040206D01*
G37*
G36*
G01X0042415Y-038289D02*
G01X0042415Y-038289D01*
G01X0042416Y-038289D01*
G01X0042555Y-038305D01*
G01X0042689Y-038347D01*
G01X0042812Y-038415D01*
G01X0042920Y-038505D01*
G01X0043007Y-038614D01*
G01X0043072Y-038739D01*
G01X0043112Y-038873D01*
G01X0043112Y-038873D01*
G01X0043112Y-038873D01*
G01X0043125Y-039013D01*
G01X0043110Y-039153D01*
G01X0043110Y-039153D01*
G01X0043110Y-039153D01*
G01X0043069Y-039287D01*
G01X0043002Y-039410D01*
G01X0042912Y-039518D01*
G01X0042804Y-039607D01*
G01X0042680Y-039673D01*
G01X0042545Y-039713D01*
G01X0042406Y-039727D01*
G01X0041014Y-039727D01*
G01X0041005Y-039727D01*
G01X0041005Y-039727D01*
G01X0041004Y-039727D01*
G01X0040865Y-039711D01*
G01X0040731Y-039669D01*
G01X0040608Y-039601D01*
G01X0040500Y-039511D01*
G01X0040413Y-039402D01*
G01X0040348Y-039277D01*
G01X0040308Y-039143D01*
G01X0040308Y-039143D01*
G01X0040308Y-039143D01*
G01X0040295Y-039003D01*
G01X0040310Y-038863D01*
G01X0040310Y-038863D01*
G01X0040310Y-038863D01*
G01X0040351Y-038729D01*
G01X0040418Y-038606D01*
G01X0040508Y-038498D01*
G01X0040616Y-038409D01*
G01X0040740Y-038343D01*
G01X0040875Y-038303D01*
G01X0041014Y-038289D01*
G01X0042406Y-038289D01*
G01X0042415Y-038289D01*
G01X0042415Y-038289D01*
G37*
G36*
G01X0033944Y-038177D02*
G01X0034026Y-038193D01*
G01X0034102Y-038226D01*
G01X0034171Y-038272D01*
G01X0034230Y-038331D01*
G01X0034276Y-038400D01*
G01X0034307Y-038477D01*
G01X0034323Y-038558D01*
G01X0034323Y-038558D01*
G01X0034324Y-038558D01*
G01X0034322Y-038653D01*
G01X0034322Y-038653D01*
G01X0034322Y-038653D01*
G01X0034304Y-038734D01*
G01X0034270Y-038810D01*
G01X0034222Y-038878D01*
G01X0034162Y-038935D01*
G01X0034092Y-038980D01*
G01X0034014Y-039010D01*
G01X0033933Y-039024D01*
G01X0033850Y-039023D01*
G01X0033768Y-039005D01*
G01X0033692Y-038971D01*
G01X0033624Y-038924D01*
G01X0033566Y-038864D01*
G01X0033522Y-038795D01*
G01X0033491Y-038717D01*
G01X0033476Y-038636D01*
G01X0033477Y-038553D01*
G01X0033494Y-038471D01*
G01X0033527Y-038395D01*
G01X0033574Y-038326D01*
G01X0033633Y-038268D01*
G01X0033703Y-038223D01*
G01X0033780Y-038192D01*
G01X0033861Y-038176D01*
G01X0033944Y-038177D01*
G01X0033944Y-038177D01*
G37*
G36*
G01X0036086Y-038970D02*
G01X0035514Y-038970D01*
G01X0035514Y-038398D01*
G01X0036086Y-038398D01*
G01X0036086Y-038970D01*
G01X0036086Y-038970D01*
G37*
G36*
G01X0027606Y-038874D02*
G01X0026994Y-038874D01*
G01X0026994Y-038263D01*
G01X0027606Y-038263D01*
G01X0027606Y-038874D01*
G01X0027606Y-038874D01*
G37*
G36*
G01X0038122Y-038823D02*
G01X0037275Y-038823D01*
G01X0037275Y-037976D01*
G01X0038122Y-037976D01*
G01X0038122Y-038823D01*
G01X0038122Y-038823D01*
G37*
G36*
G01X0024830Y-038730D02*
G01X0023970Y-038730D01*
G01X0023970Y-037870D01*
G01X0024830Y-037870D01*
G01X0024830Y-038730D01*
G01X0024830Y-038730D01*
G37*
G36*
G01X0029144Y-037377D02*
G01X0029226Y-037393D01*
G01X0029302Y-037426D01*
G01X0029371Y-037472D01*
G01X0029430Y-037531D01*
G01X0029476Y-037600D01*
G01X0029507Y-037677D01*
G01X0029523Y-037758D01*
G01X0029523Y-037758D01*
G01X0029524Y-037758D01*
G01X0029522Y-037853D01*
G01X0029522Y-037853D01*
G01X0029522Y-037853D01*
G01X0029504Y-037934D01*
G01X0029470Y-038010D01*
G01X0029422Y-038078D01*
G01X0029362Y-038135D01*
G01X0029292Y-038180D01*
G01X0029214Y-038210D01*
G01X0029133Y-038224D01*
G01X0029050Y-038223D01*
G01X0028968Y-038205D01*
G01X0028892Y-038171D01*
G01X0028824Y-038124D01*
G01X0028766Y-038064D01*
G01X0028722Y-037995D01*
G01X0028691Y-037917D01*
G01X0028676Y-037836D01*
G01X0028677Y-037753D01*
G01X0028694Y-037671D01*
G01X0028727Y-037595D01*
G01X0028774Y-037526D01*
G01X0028833Y-037468D01*
G01X0028903Y-037423D01*
G01X0028980Y-037392D01*
G01X0029061Y-037376D01*
G01X0029144Y-037377D01*
G01X0029144Y-037377D01*
G37*
G36*
G01X0030544Y-037377D02*
G01X0030626Y-037393D01*
G01X0030702Y-037426D01*
G01X0030771Y-037472D01*
G01X0030830Y-037531D01*
G01X0030876Y-037600D01*
G01X0030907Y-037677D01*
G01X0030923Y-037758D01*
G01X0030923Y-037758D01*
G01X0030924Y-037758D01*
G01X0030922Y-037853D01*
G01X0030922Y-037853D01*
G01X0030922Y-037853D01*
G01X0030904Y-037934D01*
G01X0030870Y-038010D01*
G01X0030822Y-038078D01*
G01X0030762Y-038135D01*
G01X0030692Y-038180D01*
G01X0030614Y-038210D01*
G01X0030533Y-038224D01*
G01X0030450Y-038223D01*
G01X0030368Y-038205D01*
G01X0030292Y-038171D01*
G01X0030224Y-038124D01*
G01X0030166Y-038064D01*
G01X0030122Y-037995D01*
G01X0030091Y-037917D01*
G01X0030076Y-037836D01*
G01X0030077Y-037753D01*
G01X0030094Y-037671D01*
G01X0030127Y-037595D01*
G01X0030174Y-037526D01*
G01X0030233Y-037468D01*
G01X0030303Y-037423D01*
G01X0030380Y-037392D01*
G01X0030461Y-037376D01*
G01X0030544Y-037377D01*
G01X0030544Y-037377D01*
G37*
G36*
G01X0035830Y-037414D02*
G01X0035885Y-037426D01*
G01X0035937Y-037447D01*
G01X0035983Y-037479D01*
G01X0036023Y-037518D01*
G01X0036054Y-037565D01*
G01X0036075Y-037617D01*
G01X0036086Y-037672D01*
G01X0036086Y-037672D01*
G01X0036086Y-037672D01*
G01X0036085Y-037736D01*
G01X0036085Y-037736D01*
G01X0036085Y-037736D01*
G01X0036073Y-037791D01*
G01X0036050Y-037842D01*
G01X0036017Y-037888D01*
G01X0035977Y-037926D01*
G01X0035930Y-037956D01*
G01X0035877Y-037977D01*
G01X0035822Y-037986D01*
G01X0035766Y-037985D01*
G01X0035711Y-037973D01*
G01X0035660Y-037951D01*
G01X0035614Y-037919D01*
G01X0035575Y-037878D01*
G01X0035544Y-037831D01*
G01X0035524Y-037779D01*
G01X0035514Y-037724D01*
G01X0035515Y-037668D01*
G01X0035526Y-037613D01*
G01X0035548Y-037562D01*
G01X0035580Y-037515D01*
G01X0035620Y-037476D01*
G01X0035667Y-037445D01*
G01X0035719Y-037424D01*
G01X0035774Y-037414D01*
G01X0035830Y-037414D01*
G01X0035830Y-037414D01*
G37*
G36*
G01X0032421Y-037493D02*
G01X0032423Y-037493D01*
G01X0032463Y-037498D01*
G01X0032502Y-037510D01*
G01X0032537Y-037529D01*
G01X0032568Y-037555D01*
G01X0032593Y-037587D01*
G01X0032612Y-037622D01*
G01X0032623Y-037661D01*
G01X0032623Y-037661D01*
G01X0032623Y-037661D01*
G01X0032627Y-037701D01*
G01X0032623Y-037742D01*
G01X0032623Y-037742D01*
G01X0032623Y-037742D01*
G01X0032611Y-037780D01*
G01X0032592Y-037816D01*
G01X0032566Y-037847D01*
G01X0032535Y-037872D01*
G01X0032499Y-037891D01*
G01X0032460Y-037903D01*
G01X0032420Y-037907D01*
G01X0032180Y-037907D01*
G01X0032179Y-037907D01*
G01X0032177Y-037907D01*
G01X0032137Y-037902D01*
G01X0032098Y-037890D01*
G01X0032063Y-037871D01*
G01X0032032Y-037845D01*
G01X0032007Y-037813D01*
G01X0031988Y-037778D01*
G01X0031977Y-037739D01*
G01X0031977Y-037739D01*
G01X0031977Y-037739D01*
G01X0031973Y-037699D01*
G01X0031977Y-037658D01*
G01X0031977Y-037658D01*
G01X0031977Y-037658D01*
G01X0031989Y-037620D01*
G01X0032008Y-037584D01*
G01X0032034Y-037553D01*
G01X0032065Y-037528D01*
G01X0032101Y-037509D01*
G01X0032140Y-037497D01*
G01X0032180Y-037493D01*
G01X0032420Y-037493D01*
G01X0032421Y-037493D01*
G01X0032421Y-037493D01*
G37*
G36*
G01X0024404Y-036870D02*
G01X0024408Y-036870D01*
G01X0024491Y-036879D01*
G01X0024571Y-036905D01*
G01X0024645Y-036945D01*
G01X0024709Y-036999D01*
G01X0024762Y-037065D01*
G01X0024801Y-037139D01*
G01X0024824Y-037219D01*
G01X0024824Y-037219D01*
G01X0024824Y-037219D01*
G01X0024832Y-037303D01*
G01X0024823Y-037386D01*
G01X0024823Y-037386D01*
G01X0024823Y-037386D01*
G01X0024798Y-037467D01*
G01X0024759Y-037540D01*
G01X0024705Y-037605D01*
G01X0024640Y-037658D01*
G01X0024566Y-037698D01*
G01X0024486Y-037722D01*
G01X0024402Y-037730D01*
G01X0024398Y-037730D01*
G01X0024396Y-037730D01*
G01X0024392Y-037730D01*
G01X0024309Y-037721D01*
G01X0024229Y-037695D01*
G01X0024155Y-037655D01*
G01X0024091Y-037601D01*
G01X0024038Y-037535D01*
G01X0023999Y-037461D01*
G01X0023976Y-037381D01*
G01X0023976Y-037381D01*
G01X0023976Y-037381D01*
G01X0023968Y-037297D01*
G01X0023977Y-037214D01*
G01X0023977Y-037214D01*
G01X0023977Y-037214D01*
G01X0024002Y-037133D01*
G01X0024041Y-037060D01*
G01X0024095Y-036995D01*
G01X0024160Y-036942D01*
G01X0024234Y-036902D01*
G01X0024314Y-036878D01*
G01X0024398Y-036870D01*
G01X0024402Y-036870D01*
G01X0024404Y-036870D01*
G01X0024404Y-036870D01*
G37*
G36*
G01X0032421Y-036993D02*
G01X0032423Y-036993D01*
G01X0032463Y-036998D01*
G01X0032502Y-037010D01*
G01X0032537Y-037029D01*
G01X0032568Y-037055D01*
G01X0032593Y-037087D01*
G01X0032612Y-037122D01*
G01X0032623Y-037161D01*
G01X0032623Y-037161D01*
G01X0032623Y-037161D01*
G01X0032627Y-037201D01*
G01X0032623Y-037242D01*
G01X0032623Y-037242D01*
G01X0032623Y-037242D01*
G01X0032611Y-037280D01*
G01X0032592Y-037316D01*
G01X0032566Y-037347D01*
G01X0032535Y-037372D01*
G01X0032499Y-037391D01*
G01X0032460Y-037403D01*
G01X0032420Y-037407D01*
G01X0032180Y-037407D01*
G01X0032179Y-037407D01*
G01X0032177Y-037407D01*
G01X0032137Y-037402D01*
G01X0032098Y-037390D01*
G01X0032063Y-037371D01*
G01X0032032Y-037345D01*
G01X0032007Y-037313D01*
G01X0031988Y-037278D01*
G01X0031977Y-037239D01*
G01X0031977Y-037239D01*
G01X0031977Y-037239D01*
G01X0031973Y-037199D01*
G01X0031977Y-037158D01*
G01X0031977Y-037158D01*
G01X0031977Y-037158D01*
G01X0031989Y-037120D01*
G01X0032008Y-037084D01*
G01X0032034Y-037053D01*
G01X0032065Y-037028D01*
G01X0032101Y-037009D01*
G01X0032140Y-036997D01*
G01X0032180Y-036993D01*
G01X0032420Y-036993D01*
G01X0032421Y-036993D01*
G01X0032421Y-036993D01*
G37*
G36*
G01X0040212Y-036655D02*
G01X0040215Y-036655D01*
G01X0040282Y-036663D01*
G01X0040346Y-036683D01*
G01X0040405Y-036715D01*
G01X0040457Y-036759D01*
G01X0040499Y-036811D01*
G01X0040530Y-036871D01*
G01X0040549Y-036935D01*
G01X0040549Y-036935D01*
G01X0040549Y-036935D01*
G01X0040556Y-037002D01*
G01X0040548Y-037069D01*
G01X0040548Y-037069D01*
G01X0040548Y-037069D01*
G01X0040529Y-037134D01*
G01X0040497Y-037193D01*
G01X0040454Y-037245D01*
G01X0040401Y-037287D01*
G01X0040342Y-037319D01*
G01X0040278Y-037338D01*
G01X0040211Y-037345D01*
G01X0039851Y-037345D01*
G01X0039850Y-037345D01*
G01X0039847Y-037345D01*
G01X0039780Y-037337D01*
G01X0039716Y-037317D01*
G01X0039657Y-037285D01*
G01X0039605Y-037241D01*
G01X0039563Y-037189D01*
G01X0039532Y-037129D01*
G01X0039513Y-037065D01*
G01X0039513Y-037065D01*
G01X0039513Y-037065D01*
G01X0039506Y-036998D01*
G01X0039514Y-036931D01*
G01X0039514Y-036931D01*
G01X0039514Y-036931D01*
G01X0039533Y-036866D01*
G01X0039565Y-036807D01*
G01X0039608Y-036755D01*
G01X0039661Y-036713D01*
G01X0039720Y-036681D01*
G01X0039784Y-036662D01*
G01X0039851Y-036655D01*
G01X0040211Y-036655D01*
G01X0040212Y-036655D01*
G01X0040212Y-036655D01*
G37*
G36*
G01X0032421Y-036493D02*
G01X0032423Y-036493D01*
G01X0032463Y-036498D01*
G01X0032502Y-036510D01*
G01X0032537Y-036529D01*
G01X0032568Y-036555D01*
G01X0032593Y-036587D01*
G01X0032612Y-036622D01*
G01X0032623Y-036661D01*
G01X0032623Y-036661D01*
G01X0032623Y-036661D01*
G01X0032627Y-036701D01*
G01X0032623Y-036742D01*
G01X0032623Y-036742D01*
G01X0032623Y-036742D01*
G01X0032611Y-036780D01*
G01X0032592Y-036816D01*
G01X0032566Y-036847D01*
G01X0032535Y-036872D01*
G01X0032499Y-036891D01*
G01X0032460Y-036903D01*
G01X0032420Y-036907D01*
G01X0032180Y-036907D01*
G01X0032179Y-036907D01*
G01X0032177Y-036907D01*
G01X0032137Y-036902D01*
G01X0032098Y-036890D01*
G01X0032063Y-036871D01*
G01X0032032Y-036845D01*
G01X0032007Y-036813D01*
G01X0031988Y-036778D01*
G01X0031977Y-036739D01*
G01X0031977Y-036739D01*
G01X0031977Y-036739D01*
G01X0031973Y-036699D01*
G01X0031977Y-036658D01*
G01X0031977Y-036658D01*
G01X0031977Y-036658D01*
G01X0031989Y-036620D01*
G01X0032008Y-036584D01*
G01X0032034Y-036553D01*
G01X0032065Y-036528D01*
G01X0032101Y-036509D01*
G01X0032140Y-036497D01*
G01X0032180Y-036493D01*
G01X0032420Y-036493D01*
G01X0032421Y-036493D01*
G01X0032421Y-036493D01*
G37*
G36*
G01X0027332Y-036295D02*
G01X0027391Y-036307D01*
G01X0027446Y-036330D01*
G01X0027496Y-036363D01*
G01X0027538Y-036406D01*
G01X0027571Y-036456D01*
G01X0027594Y-036511D01*
G01X0027605Y-036566D01*
G01X0027606Y-036570D01*
G01X0027605Y-036638D01*
G01X0027605Y-036639D01*
G01X0027605Y-036639D01*
G01X0027591Y-036697D01*
G01X0027567Y-036752D01*
G01X0027532Y-036801D01*
G01X0027489Y-036842D01*
G01X0027438Y-036874D01*
G01X0027383Y-036896D01*
G01X0027324Y-036906D01*
G01X0027264Y-036905D01*
G01X0027205Y-036892D01*
G01X0027150Y-036868D01*
G01X0027101Y-036834D01*
G01X0027059Y-036791D01*
G01X0027027Y-036740D01*
G01X0027005Y-036685D01*
G01X0026994Y-036626D01*
G01X0026995Y-036566D01*
G01X0027007Y-036507D01*
G01X0027031Y-036452D01*
G01X0027065Y-036403D01*
G01X0027108Y-036361D01*
G01X0027158Y-036328D01*
G01X0027213Y-036305D01*
G01X0027272Y-036294D01*
G01X0027332Y-036295D01*
G01X0027332Y-036295D01*
G37*
G36*
G01X0040212Y-035671D02*
G01X0040215Y-035671D01*
G01X0040282Y-035679D01*
G01X0040346Y-035699D01*
G01X0040405Y-035731D01*
G01X0040457Y-035775D01*
G01X0040499Y-035827D01*
G01X0040530Y-035887D01*
G01X0040549Y-035951D01*
G01X0040549Y-035951D01*
G01X0040549Y-035951D01*
G01X0040556Y-036018D01*
G01X0040548Y-036085D01*
G01X0040548Y-036085D01*
G01X0040548Y-036085D01*
G01X0040529Y-036150D01*
G01X0040497Y-036209D01*
G01X0040454Y-036261D01*
G01X0040401Y-036303D01*
G01X0040342Y-036335D01*
G01X0040278Y-036354D01*
G01X0040211Y-036361D01*
G01X0039851Y-036361D01*
G01X0039850Y-036361D01*
G01X0039847Y-036361D01*
G01X0039780Y-036353D01*
G01X0039716Y-036333D01*
G01X0039657Y-036301D01*
G01X0039605Y-036257D01*
G01X0039563Y-036205D01*
G01X0039532Y-036145D01*
G01X0039513Y-036081D01*
G01X0039513Y-036081D01*
G01X0039513Y-036081D01*
G01X0039506Y-036014D01*
G01X0039514Y-035947D01*
G01X0039514Y-035947D01*
G01X0039514Y-035947D01*
G01X0039533Y-035882D01*
G01X0039565Y-035823D01*
G01X0039608Y-035771D01*
G01X0039661Y-035729D01*
G01X0039720Y-035697D01*
G01X0039784Y-035678D01*
G01X0039851Y-035671D01*
G01X0040211Y-035671D01*
G01X0040212Y-035671D01*
G01X0040212Y-035671D01*
G37*
G36*
G01X0035830Y-035499D02*
G01X0035885Y-035510D01*
G01X0035937Y-035532D01*
G01X0035983Y-035563D01*
G01X0036023Y-035603D01*
G01X0036054Y-035649D01*
G01X0036075Y-035701D01*
G01X0036086Y-035756D01*
G01X0036086Y-035756D01*
G01X0036086Y-035756D01*
G01X0036085Y-035820D01*
G01X0036085Y-035820D01*
G01X0036085Y-035820D01*
G01X0036073Y-035875D01*
G01X0036050Y-035926D01*
G01X0036017Y-035972D01*
G01X0035977Y-036011D01*
G01X0035930Y-036041D01*
G01X0035877Y-036061D01*
G01X0035822Y-036071D01*
G01X0035766Y-036070D01*
G01X0035711Y-036057D01*
G01X0035660Y-036035D01*
G01X0035614Y-036003D01*
G01X0035575Y-035963D01*
G01X0035544Y-035916D01*
G01X0035524Y-035863D01*
G01X0035514Y-035808D01*
G01X0035515Y-035752D01*
G01X0035526Y-035697D01*
G01X0035548Y-035646D01*
G01X0035580Y-035600D01*
G01X0035620Y-035560D01*
G01X0035667Y-035530D01*
G01X0035719Y-035509D01*
G01X0035774Y-035498D01*
G01X0035830Y-035499D01*
G01X0035830Y-035499D01*
G37*
G36*
G01X0033944Y-035177D02*
G01X0034026Y-035193D01*
G01X0034102Y-035226D01*
G01X0034171Y-035272D01*
G01X0034230Y-035331D01*
G01X0034276Y-035400D01*
G01X0034307Y-035477D01*
G01X0034323Y-035558D01*
G01X0034323Y-035558D01*
G01X0034324Y-035558D01*
G01X0034322Y-035653D01*
G01X0034322Y-035653D01*
G01X0034322Y-035653D01*
G01X0034304Y-035734D01*
G01X0034270Y-035810D01*
G01X0034222Y-035878D01*
G01X0034162Y-035935D01*
G01X0034092Y-035980D01*
G01X0034014Y-036010D01*
G01X0033933Y-036024D01*
G01X0033850Y-036023D01*
G01X0033768Y-036005D01*
G01X0033692Y-035971D01*
G01X0033624Y-035924D01*
G01X0033566Y-035864D01*
G01X0033522Y-035795D01*
G01X0033491Y-035717D01*
G01X0033476Y-035636D01*
G01X0033477Y-035553D01*
G01X0033494Y-035471D01*
G01X0033527Y-035395D01*
G01X0033574Y-035326D01*
G01X0033633Y-035268D01*
G01X0033703Y-035223D01*
G01X0033780Y-035192D01*
G01X0033861Y-035176D01*
G01X0033944Y-035177D01*
G01X0033944Y-035177D01*
G37*
G36*
G01X0042415Y-034274D02*
G01X0042415Y-034274D01*
G01X0042416Y-034274D01*
G01X0042555Y-034290D01*
G01X0042689Y-034332D01*
G01X0042812Y-034400D01*
G01X0042920Y-034490D01*
G01X0043007Y-034599D01*
G01X0043072Y-034724D01*
G01X0043112Y-034858D01*
G01X0043112Y-034858D01*
G01X0043112Y-034858D01*
G01X0043125Y-034998D01*
G01X0043110Y-035138D01*
G01X0043110Y-035138D01*
G01X0043110Y-035138D01*
G01X0043069Y-035272D01*
G01X0043002Y-035395D01*
G01X0042912Y-035503D01*
G01X0042804Y-035592D01*
G01X0042680Y-035658D01*
G01X0042545Y-035698D01*
G01X0042406Y-035712D01*
G01X0041014Y-035712D01*
G01X0041005Y-035712D01*
G01X0041005Y-035712D01*
G01X0041004Y-035712D01*
G01X0040865Y-035696D01*
G01X0040731Y-035654D01*
G01X0040608Y-035586D01*
G01X0040500Y-035496D01*
G01X0040413Y-035387D01*
G01X0040348Y-035262D01*
G01X0040308Y-035128D01*
G01X0040308Y-035128D01*
G01X0040308Y-035128D01*
G01X0040295Y-034988D01*
G01X0040310Y-034848D01*
G01X0040310Y-034848D01*
G01X0040310Y-034848D01*
G01X0040351Y-034714D01*
G01X0040418Y-034591D01*
G01X0040508Y-034483D01*
G01X0040616Y-034394D01*
G01X0040740Y-034328D01*
G01X0040875Y-034288D01*
G01X0041014Y-034274D01*
G01X0042406Y-034274D01*
G01X0042415Y-034274D01*
G01X0042415Y-034274D01*
G37*
G36*
G01X0032421Y-034993D02*
G01X0032423Y-034993D01*
G01X0032463Y-034998D01*
G01X0032502Y-035010D01*
G01X0032537Y-035029D01*
G01X0032568Y-035055D01*
G01X0032593Y-035087D01*
G01X0032612Y-035122D01*
G01X0032623Y-035161D01*
G01X0032623Y-035161D01*
G01X0032623Y-035161D01*
G01X0032627Y-035201D01*
G01X0032623Y-035242D01*
G01X0032623Y-035242D01*
G01X0032623Y-035242D01*
G01X0032611Y-035280D01*
G01X0032592Y-035316D01*
G01X0032566Y-035347D01*
G01X0032535Y-035372D01*
G01X0032499Y-035391D01*
G01X0032460Y-035403D01*
G01X0032420Y-035407D01*
G01X0032180Y-035407D01*
G01X0032179Y-035407D01*
G01X0032177Y-035407D01*
G01X0032137Y-035402D01*
G01X0032098Y-035390D01*
G01X0032063Y-035371D01*
G01X0032032Y-035345D01*
G01X0032007Y-035313D01*
G01X0031988Y-035278D01*
G01X0031977Y-035239D01*
G01X0031977Y-035239D01*
G01X0031977Y-035239D01*
G01X0031973Y-035199D01*
G01X0031977Y-035158D01*
G01X0031977Y-035158D01*
G01X0031977Y-035158D01*
G01X0031989Y-035120D01*
G01X0032008Y-035084D01*
G01X0032034Y-035053D01*
G01X0032065Y-035028D01*
G01X0032101Y-035009D01*
G01X0032140Y-034997D01*
G01X0032180Y-034993D01*
G01X0032420Y-034993D01*
G01X0032421Y-034993D01*
G01X0032421Y-034993D01*
G37*
G36*
G01X0029144Y-034377D02*
G01X0029226Y-034393D01*
G01X0029302Y-034426D01*
G01X0029371Y-034472D01*
G01X0029430Y-034531D01*
G01X0029476Y-034600D01*
G01X0029507Y-034677D01*
G01X0029523Y-034758D01*
G01X0029523Y-034758D01*
G01X0029524Y-034758D01*
G01X0029522Y-034853D01*
G01X0029522Y-034853D01*
G01X0029522Y-034853D01*
G01X0029504Y-034934D01*
G01X0029470Y-035010D01*
G01X0029422Y-035078D01*
G01X0029362Y-035135D01*
G01X0029292Y-035180D01*
G01X0029214Y-035210D01*
G01X0029133Y-035224D01*
G01X0029050Y-035223D01*
G01X0028968Y-035205D01*
G01X0028892Y-035171D01*
G01X0028824Y-035124D01*
G01X0028766Y-035064D01*
G01X0028722Y-034995D01*
G01X0028691Y-034917D01*
G01X0028676Y-034836D01*
G01X0028677Y-034753D01*
G01X0028694Y-034671D01*
G01X0028727Y-034595D01*
G01X0028774Y-034526D01*
G01X0028833Y-034468D01*
G01X0028903Y-034423D01*
G01X0028980Y-034392D01*
G01X0029061Y-034376D01*
G01X0029144Y-034377D01*
G01X0029144Y-034377D01*
G37*
G36*
G01X0030544Y-034377D02*
G01X0030626Y-034393D01*
G01X0030702Y-034426D01*
G01X0030771Y-034472D01*
G01X0030830Y-034531D01*
G01X0030876Y-034600D01*
G01X0030907Y-034677D01*
G01X0030923Y-034758D01*
G01X0030923Y-034758D01*
G01X0030924Y-034758D01*
G01X0030922Y-034853D01*
G01X0030922Y-034853D01*
G01X0030922Y-034853D01*
G01X0030904Y-034934D01*
G01X0030870Y-035010D01*
G01X0030822Y-035078D01*
G01X0030762Y-035135D01*
G01X0030692Y-035180D01*
G01X0030614Y-035210D01*
G01X0030533Y-035224D01*
G01X0030450Y-035223D01*
G01X0030368Y-035205D01*
G01X0030292Y-035171D01*
G01X0030224Y-035124D01*
G01X0030166Y-035064D01*
G01X0030122Y-034995D01*
G01X0030091Y-034917D01*
G01X0030076Y-034836D01*
G01X0030077Y-034753D01*
G01X0030094Y-034671D01*
G01X0030127Y-034595D01*
G01X0030174Y-034526D01*
G01X0030233Y-034468D01*
G01X0030303Y-034423D01*
G01X0030380Y-034392D01*
G01X0030461Y-034376D01*
G01X0030544Y-034377D01*
G01X0030544Y-034377D01*
G37*
G36*
G01X0036086Y-035086D02*
G01X0035514Y-035086D01*
G01X0035514Y-034514D01*
G01X0036086Y-034514D01*
G01X0036086Y-035086D01*
G01X0036086Y-035086D01*
G37*
G36*
G01X0025832Y-034395D02*
G01X0025891Y-034407D01*
G01X0025946Y-034430D01*
G01X0025996Y-034463D01*
G01X0026038Y-034506D01*
G01X0026071Y-034556D01*
G01X0026094Y-034611D01*
G01X0026105Y-034666D01*
G01X0026106Y-034670D01*
G01X0026105Y-034738D01*
G01X0026105Y-034739D01*
G01X0026105Y-034739D01*
G01X0026091Y-034797D01*
G01X0026067Y-034852D01*
G01X0026032Y-034901D01*
G01X0025989Y-034942D01*
G01X0025938Y-034974D01*
G01X0025883Y-034996D01*
G01X0025824Y-035006D01*
G01X0025764Y-035005D01*
G01X0025705Y-034992D01*
G01X0025650Y-034968D01*
G01X0025601Y-034934D01*
G01X0025559Y-034891D01*
G01X0025527Y-034840D01*
G01X0025505Y-034785D01*
G01X0025494Y-034726D01*
G01X0025495Y-034666D01*
G01X0025507Y-034607D01*
G01X0025531Y-034552D01*
G01X0025565Y-034503D01*
G01X0025608Y-034461D01*
G01X0025658Y-034428D01*
G01X0025713Y-034405D01*
G01X0025772Y-034394D01*
G01X0025832Y-034395D01*
G01X0025832Y-034395D01*
G37*
G36*
G01X0024137Y-035006D02*
G01X0023526Y-035006D01*
G01X0023526Y-034394D01*
G01X0024137Y-034394D01*
G01X0024137Y-035006D01*
G01X0024137Y-035006D01*
G37*
G36*
G01X0032421Y-034493D02*
G01X0032423Y-034493D01*
G01X0032463Y-034498D01*
G01X0032502Y-034510D01*
G01X0032537Y-034529D01*
G01X0032568Y-034555D01*
G01X0032593Y-034587D01*
G01X0032612Y-034622D01*
G01X0032623Y-034661D01*
G01X0032623Y-034661D01*
G01X0032623Y-034661D01*
G01X0032627Y-034701D01*
G01X0032623Y-034742D01*
G01X0032623Y-034742D01*
G01X0032623Y-034742D01*
G01X0032611Y-034780D01*
G01X0032592Y-034816D01*
G01X0032566Y-034847D01*
G01X0032535Y-034872D01*
G01X0032499Y-034891D01*
G01X0032460Y-034903D01*
G01X0032420Y-034907D01*
G01X0032180Y-034907D01*
G01X0032179Y-034907D01*
G01X0032177Y-034907D01*
G01X0032137Y-034902D01*
G01X0032098Y-034890D01*
G01X0032063Y-034871D01*
G01X0032032Y-034845D01*
G01X0032007Y-034813D01*
G01X0031988Y-034778D01*
G01X0031977Y-034739D01*
G01X0031977Y-034739D01*
G01X0031977Y-034739D01*
G01X0031973Y-034699D01*
G01X0031977Y-034658D01*
G01X0031977Y-034658D01*
G01X0031977Y-034658D01*
G01X0031989Y-034620D01*
G01X0032008Y-034584D01*
G01X0032034Y-034553D01*
G01X0032065Y-034528D01*
G01X0032101Y-034509D01*
G01X0032140Y-034497D01*
G01X0032180Y-034493D01*
G01X0032420Y-034493D01*
G01X0032421Y-034493D01*
G01X0032421Y-034493D01*
G37*
G36*
G01X0037742Y-033977D02*
G01X0037824Y-033993D01*
G01X0037900Y-034026D01*
G01X0037969Y-034072D01*
G01X0038028Y-034131D01*
G01X0038074Y-034200D01*
G01X0038105Y-034277D01*
G01X0038121Y-034358D01*
G01X0038121Y-034358D01*
G01X0038122Y-034358D01*
G01X0038120Y-034453D01*
G01X0038120Y-034453D01*
G01X0038120Y-034453D01*
G01X0038102Y-034534D01*
G01X0038068Y-034610D01*
G01X0038020Y-034678D01*
G01X0037960Y-034735D01*
G01X0037890Y-034780D01*
G01X0037812Y-034810D01*
G01X0037731Y-034824D01*
G01X0037648Y-034823D01*
G01X0037566Y-034805D01*
G01X0037490Y-034771D01*
G01X0037422Y-034724D01*
G01X0037364Y-034664D01*
G01X0037320Y-034595D01*
G01X0037289Y-034517D01*
G01X0037274Y-034436D01*
G01X0037275Y-034353D01*
G01X0037292Y-034271D01*
G01X0037325Y-034195D01*
G01X0037372Y-034126D01*
G01X0037431Y-034068D01*
G01X0037501Y-034023D01*
G01X0037578Y-033992D01*
G01X0037659Y-033976D01*
G01X0037742Y-033977D01*
G01X0037742Y-033977D01*
G37*
G36*
G01X0032421Y-033993D02*
G01X0032423Y-033993D01*
G01X0032463Y-033998D01*
G01X0032502Y-034010D01*
G01X0032537Y-034029D01*
G01X0032568Y-034055D01*
G01X0032593Y-034087D01*
G01X0032612Y-034122D01*
G01X0032623Y-034161D01*
G01X0032623Y-034161D01*
G01X0032623Y-034161D01*
G01X0032627Y-034201D01*
G01X0032623Y-034242D01*
G01X0032623Y-034242D01*
G01X0032623Y-034242D01*
G01X0032611Y-034280D01*
G01X0032592Y-034316D01*
G01X0032566Y-034347D01*
G01X0032535Y-034372D01*
G01X0032499Y-034391D01*
G01X0032460Y-034403D01*
G01X0032420Y-034407D01*
G01X0032180Y-034407D01*
G01X0032179Y-034407D01*
G01X0032177Y-034407D01*
G01X0032137Y-034402D01*
G01X0032098Y-034390D01*
G01X0032063Y-034371D01*
G01X0032032Y-034345D01*
G01X0032007Y-034313D01*
G01X0031988Y-034278D01*
G01X0031977Y-034239D01*
G01X0031977Y-034239D01*
G01X0031977Y-034239D01*
G01X0031973Y-034199D01*
G01X0031977Y-034158D01*
G01X0031977Y-034158D01*
G01X0031977Y-034158D01*
G01X0031989Y-034120D01*
G01X0032008Y-034084D01*
G01X0032034Y-034053D01*
G01X0032065Y-034028D01*
G01X0032101Y-034009D01*
G01X0032140Y-033997D01*
G01X0032180Y-033993D01*
G01X0032420Y-033993D01*
G01X0032421Y-033993D01*
G01X0032421Y-033993D01*
G37*
G36*
G01X0029344Y-032377D02*
G01X0029426Y-032393D01*
G01X0029502Y-032426D01*
G01X0029571Y-032472D01*
G01X0029630Y-032531D01*
G01X0029676Y-032600D01*
G01X0029707Y-032677D01*
G01X0029723Y-032758D01*
G01X0029723Y-032758D01*
G01X0029724Y-032758D01*
G01X0029722Y-032853D01*
G01X0029722Y-032853D01*
G01X0029722Y-032853D01*
G01X0029704Y-032934D01*
G01X0029670Y-033010D01*
G01X0029622Y-033078D01*
G01X0029562Y-033135D01*
G01X0029492Y-033180D01*
G01X0029414Y-033210D01*
G01X0029333Y-033224D01*
G01X0029250Y-033223D01*
G01X0029168Y-033205D01*
G01X0029092Y-033171D01*
G01X0029024Y-033124D01*
G01X0028966Y-033064D01*
G01X0028922Y-032995D01*
G01X0028891Y-032917D01*
G01X0028876Y-032836D01*
G01X0028877Y-032753D01*
G01X0028894Y-032671D01*
G01X0028927Y-032595D01*
G01X0028974Y-032526D01*
G01X0029033Y-032468D01*
G01X0029103Y-032423D01*
G01X0029180Y-032392D01*
G01X0029261Y-032376D01*
G01X0029344Y-032377D01*
G01X0029344Y-032377D01*
G37*
G36*
G01X0027444Y-032277D02*
G01X0027526Y-032293D01*
G01X0027602Y-032326D01*
G01X0027671Y-032372D01*
G01X0027730Y-032431D01*
G01X0027776Y-032500D01*
G01X0027807Y-032577D01*
G01X0027823Y-032658D01*
G01X0027823Y-032658D01*
G01X0027824Y-032658D01*
G01X0027822Y-032753D01*
G01X0027822Y-032753D01*
G01X0027822Y-032753D01*
G01X0027804Y-032834D01*
G01X0027770Y-032910D01*
G01X0027722Y-032978D01*
G01X0027662Y-033035D01*
G01X0027592Y-033080D01*
G01X0027514Y-033110D01*
G01X0027433Y-033124D01*
G01X0027350Y-033123D01*
G01X0027268Y-033105D01*
G01X0027192Y-033071D01*
G01X0027124Y-033024D01*
G01X0027066Y-032964D01*
G01X0027022Y-032895D01*
G01X0026991Y-032817D01*
G01X0026976Y-032736D01*
G01X0026977Y-032653D01*
G01X0026994Y-032571D01*
G01X0027027Y-032495D01*
G01X0027074Y-032426D01*
G01X0027133Y-032368D01*
G01X0027203Y-032323D01*
G01X0027280Y-032292D01*
G01X0027361Y-032276D01*
G01X0027444Y-032277D01*
G01X0027444Y-032277D01*
G37*
G36*
G01X0044045Y-032070D02*
G01X0044128Y-032087D01*
G01X0044206Y-032120D01*
G01X0044275Y-032167D01*
G01X0044335Y-032227D01*
G01X0044382Y-032297D01*
G01X0044414Y-032375D01*
G01X0044430Y-032458D01*
G01X0044430Y-032458D01*
G01X0044430Y-032458D01*
G01X0044429Y-032554D01*
G01X0044429Y-032554D01*
G01X0044429Y-032554D01*
G01X0044410Y-032636D01*
G01X0044376Y-032713D01*
G01X0044327Y-032782D01*
G01X0044266Y-032840D01*
G01X0044195Y-032886D01*
G01X0044116Y-032916D01*
G01X0044033Y-032931D01*
G01X0043949Y-032929D01*
G01X0043866Y-032911D01*
G01X0043789Y-032877D01*
G01X0043720Y-032829D01*
G01X0043661Y-032768D01*
G01X0043616Y-032698D01*
G01X0043585Y-032619D01*
G01X0043569Y-032536D01*
G01X0043571Y-032452D01*
G01X0043588Y-032369D01*
G01X0043621Y-032292D01*
G01X0043669Y-032222D01*
G01X0043729Y-032163D01*
G01X0043800Y-032117D01*
G01X0043878Y-032085D01*
G01X0043961Y-032070D01*
G01X0044045Y-032070D01*
G01X0044045Y-032070D01*
G37*
G36*
G01X0024932Y-032295D02*
G01X0024991Y-032307D01*
G01X0025046Y-032330D01*
G01X0025096Y-032363D01*
G01X0025138Y-032406D01*
G01X0025171Y-032456D01*
G01X0025194Y-032511D01*
G01X0025205Y-032566D01*
G01X0025206Y-032570D01*
G01X0025205Y-032638D01*
G01X0025205Y-032639D01*
G01X0025205Y-032639D01*
G01X0025191Y-032697D01*
G01X0025167Y-032752D01*
G01X0025132Y-032801D01*
G01X0025089Y-032842D01*
G01X0025038Y-032874D01*
G01X0024983Y-032896D01*
G01X0024924Y-032906D01*
G01X0024864Y-032905D01*
G01X0024805Y-032892D01*
G01X0024750Y-032868D01*
G01X0024701Y-032834D01*
G01X0024659Y-032791D01*
G01X0024627Y-032740D01*
G01X0024605Y-032685D01*
G01X0024594Y-032626D01*
G01X0024595Y-032566D01*
G01X0024607Y-032507D01*
G01X0024631Y-032452D01*
G01X0024665Y-032403D01*
G01X0024708Y-032361D01*
G01X0024758Y-032328D01*
G01X0024813Y-032305D01*
G01X0024872Y-032294D01*
G01X0024932Y-032295D01*
G01X0024932Y-032295D01*
G37*
G36*
G01X0033742Y-031855D02*
G01X0033745Y-031855D01*
G01X0033812Y-031863D01*
G01X0033876Y-031883D01*
G01X0033935Y-031915D01*
G01X0033987Y-031959D01*
G01X0034029Y-032011D01*
G01X0034060Y-032071D01*
G01X0034079Y-032135D01*
G01X0034079Y-032135D01*
G01X0034079Y-032135D01*
G01X0034085Y-032202D01*
G01X0034078Y-032269D01*
G01X0034078Y-032269D01*
G01X0034078Y-032269D01*
G01X0034058Y-032334D01*
G01X0034026Y-032393D01*
G01X0033983Y-032445D01*
G01X0033931Y-032487D01*
G01X0033872Y-032519D01*
G01X0033807Y-032538D01*
G01X0033740Y-032545D01*
G01X0033460Y-032545D01*
G01X0033458Y-032545D01*
G01X0033455Y-032545D01*
G01X0033388Y-032537D01*
G01X0033324Y-032517D01*
G01X0033265Y-032485D01*
G01X0033213Y-032441D01*
G01X0033171Y-032389D01*
G01X0033140Y-032329D01*
G01X0033121Y-032265D01*
G01X0033121Y-032265D01*
G01X0033121Y-032265D01*
G01X0033115Y-032198D01*
G01X0033122Y-032131D01*
G01X0033122Y-032131D01*
G01X0033122Y-032131D01*
G01X0033142Y-032066D01*
G01X0033174Y-032007D01*
G01X0033217Y-031955D01*
G01X0033269Y-031913D01*
G01X0033328Y-031881D01*
G01X0033393Y-031862D01*
G01X0033460Y-031855D01*
G01X0033740Y-031855D01*
G01X0033742Y-031855D01*
G01X0033742Y-031855D01*
G37*
G36*
G01X0036742Y-031855D02*
G01X0036745Y-031855D01*
G01X0036812Y-031863D01*
G01X0036876Y-031883D01*
G01X0036935Y-031915D01*
G01X0036987Y-031959D01*
G01X0037029Y-032011D01*
G01X0037060Y-032071D01*
G01X0037079Y-032135D01*
G01X0037079Y-032135D01*
G01X0037079Y-032135D01*
G01X0037085Y-032202D01*
G01X0037078Y-032269D01*
G01X0037078Y-032269D01*
G01X0037078Y-032269D01*
G01X0037058Y-032334D01*
G01X0037026Y-032393D01*
G01X0036983Y-032445D01*
G01X0036931Y-032487D01*
G01X0036872Y-032519D01*
G01X0036807Y-032538D01*
G01X0036740Y-032545D01*
G01X0036460Y-032545D01*
G01X0036458Y-032545D01*
G01X0036455Y-032545D01*
G01X0036388Y-032537D01*
G01X0036324Y-032517D01*
G01X0036265Y-032485D01*
G01X0036213Y-032441D01*
G01X0036171Y-032389D01*
G01X0036140Y-032329D01*
G01X0036121Y-032265D01*
G01X0036121Y-032265D01*
G01X0036121Y-032265D01*
G01X0036115Y-032198D01*
G01X0036122Y-032131D01*
G01X0036122Y-032131D01*
G01X0036122Y-032131D01*
G01X0036142Y-032066D01*
G01X0036174Y-032007D01*
G01X0036217Y-031955D01*
G01X0036269Y-031913D01*
G01X0036328Y-031881D01*
G01X0036393Y-031862D01*
G01X0036460Y-031855D01*
G01X0036740Y-031855D01*
G01X0036742Y-031855D01*
G01X0036742Y-031855D01*
G37*
G36*
G01X0040632Y-031795D02*
G01X0040691Y-031807D01*
G01X0040746Y-031830D01*
G01X0040796Y-031863D01*
G01X0040838Y-031906D01*
G01X0040871Y-031956D01*
G01X0040894Y-032011D01*
G01X0040906Y-032070D01*
G01X0040906Y-032070D01*
G01X0040905Y-032138D01*
G01X0040905Y-032139D01*
G01X0040905Y-032139D01*
G01X0040891Y-032197D01*
G01X0040867Y-032252D01*
G01X0040832Y-032301D01*
G01X0040789Y-032342D01*
G01X0040738Y-032374D01*
G01X0040683Y-032396D01*
G01X0040624Y-032406D01*
G01X0040564Y-032405D01*
G01X0040505Y-032392D01*
G01X0040450Y-032368D01*
G01X0040401Y-032334D01*
G01X0040359Y-032291D01*
G01X0040327Y-032240D01*
G01X0040305Y-032185D01*
G01X0040294Y-032126D01*
G01X0040295Y-032066D01*
G01X0040307Y-032007D01*
G01X0040331Y-031952D01*
G01X0040365Y-031903D01*
G01X0040408Y-031861D01*
G01X0040458Y-031828D01*
G01X0040513Y-031805D01*
G01X0040572Y-031794D01*
G01X0040632Y-031795D01*
G01X0040632Y-031795D01*
G37*
G36*
G01X0038444Y-031177D02*
G01X0038526Y-031193D01*
G01X0038602Y-031226D01*
G01X0038671Y-031272D01*
G01X0038730Y-031331D01*
G01X0038776Y-031400D01*
G01X0038807Y-031477D01*
G01X0038823Y-031558D01*
G01X0038823Y-031558D01*
G01X0038824Y-031558D01*
G01X0038822Y-031653D01*
G01X0038822Y-031653D01*
G01X0038822Y-031653D01*
G01X0038804Y-031734D01*
G01X0038770Y-031810D01*
G01X0038722Y-031878D01*
G01X0038662Y-031935D01*
G01X0038592Y-031980D01*
G01X0038514Y-032010D01*
G01X0038433Y-032024D01*
G01X0038350Y-032023D01*
G01X0038268Y-032005D01*
G01X0038192Y-031971D01*
G01X0038124Y-031924D01*
G01X0038066Y-031864D01*
G01X0038022Y-031795D01*
G01X0037991Y-031717D01*
G01X0037976Y-031636D01*
G01X0037977Y-031553D01*
G01X0037994Y-031471D01*
G01X0038027Y-031395D01*
G01X0038074Y-031326D01*
G01X0038133Y-031268D01*
G01X0038203Y-031223D01*
G01X0038280Y-031192D01*
G01X0038361Y-031176D01*
G01X0038444Y-031177D01*
G01X0038444Y-031177D01*
G37*
G36*
G01X0033742Y-030855D02*
G01X0033745Y-030855D01*
G01X0033812Y-030863D01*
G01X0033876Y-030883D01*
G01X0033935Y-030915D01*
G01X0033987Y-030959D01*
G01X0034029Y-031011D01*
G01X0034060Y-031071D01*
G01X0034079Y-031135D01*
G01X0034079Y-031135D01*
G01X0034079Y-031135D01*
G01X0034085Y-031202D01*
G01X0034078Y-031269D01*
G01X0034078Y-031269D01*
G01X0034078Y-031269D01*
G01X0034058Y-031334D01*
G01X0034026Y-031393D01*
G01X0033983Y-031445D01*
G01X0033931Y-031487D01*
G01X0033872Y-031519D01*
G01X0033807Y-031538D01*
G01X0033740Y-031545D01*
G01X0033460Y-031545D01*
G01X0033458Y-031545D01*
G01X0033455Y-031545D01*
G01X0033388Y-031537D01*
G01X0033324Y-031517D01*
G01X0033265Y-031485D01*
G01X0033213Y-031441D01*
G01X0033171Y-031389D01*
G01X0033140Y-031329D01*
G01X0033121Y-031265D01*
G01X0033121Y-031265D01*
G01X0033121Y-031265D01*
G01X0033115Y-031198D01*
G01X0033122Y-031131D01*
G01X0033122Y-031131D01*
G01X0033122Y-031131D01*
G01X0033142Y-031066D01*
G01X0033174Y-031007D01*
G01X0033217Y-030955D01*
G01X0033269Y-030913D01*
G01X0033328Y-030881D01*
G01X0033393Y-030862D01*
G01X0033460Y-030855D01*
G01X0033740Y-030855D01*
G01X0033742Y-030855D01*
G01X0033742Y-030855D01*
G37*
G36*
G01X0036742Y-030855D02*
G01X0036745Y-030855D01*
G01X0036812Y-030863D01*
G01X0036876Y-030883D01*
G01X0036935Y-030915D01*
G01X0036987Y-030959D01*
G01X0037029Y-031011D01*
G01X0037060Y-031071D01*
G01X0037079Y-031135D01*
G01X0037079Y-031135D01*
G01X0037079Y-031135D01*
G01X0037085Y-031202D01*
G01X0037078Y-031269D01*
G01X0037078Y-031269D01*
G01X0037078Y-031269D01*
G01X0037058Y-031334D01*
G01X0037026Y-031393D01*
G01X0036983Y-031445D01*
G01X0036931Y-031487D01*
G01X0036872Y-031519D01*
G01X0036807Y-031538D01*
G01X0036740Y-031545D01*
G01X0036460Y-031545D01*
G01X0036458Y-031545D01*
G01X0036455Y-031545D01*
G01X0036388Y-031537D01*
G01X0036324Y-031517D01*
G01X0036265Y-031485D01*
G01X0036213Y-031441D01*
G01X0036171Y-031389D01*
G01X0036140Y-031329D01*
G01X0036121Y-031265D01*
G01X0036121Y-031265D01*
G01X0036121Y-031265D01*
G01X0036115Y-031198D01*
G01X0036122Y-031131D01*
G01X0036122Y-031131D01*
G01X0036122Y-031131D01*
G01X0036142Y-031066D01*
G01X0036174Y-031007D01*
G01X0036217Y-030955D01*
G01X0036269Y-030913D01*
G01X0036328Y-030881D01*
G01X0036393Y-030862D01*
G01X0036460Y-030855D01*
G01X0036740Y-030855D01*
G01X0036742Y-030855D01*
G01X0036742Y-030855D01*
G37*
G36*
G01X0031630Y-030714D02*
G01X0031685Y-030726D01*
G01X0031737Y-030747D01*
G01X0031783Y-030779D01*
G01X0031823Y-030818D01*
G01X0031854Y-030865D01*
G01X0031875Y-030917D01*
G01X0031886Y-030972D01*
G01X0031886Y-030972D01*
G01X0031886Y-030972D01*
G01X0031885Y-031036D01*
G01X0031885Y-031036D01*
G01X0031885Y-031036D01*
G01X0031873Y-031091D01*
G01X0031850Y-031142D01*
G01X0031817Y-031188D01*
G01X0031777Y-031226D01*
G01X0031730Y-031256D01*
G01X0031677Y-031277D01*
G01X0031622Y-031286D01*
G01X0031566Y-031285D01*
G01X0031511Y-031273D01*
G01X0031460Y-031251D01*
G01X0031414Y-031219D01*
G01X0031375Y-031178D01*
G01X0031344Y-031131D01*
G01X0031324Y-031079D01*
G01X0031314Y-031024D01*
G01X0031315Y-030968D01*
G01X0031326Y-030913D01*
G01X0031348Y-030862D01*
G01X0031380Y-030815D01*
G01X0031420Y-030776D01*
G01X0031467Y-030745D01*
G01X0031519Y-030724D01*
G01X0031574Y-030714D01*
G01X0031630Y-030714D01*
G01X0031630Y-030714D01*
G37*
G36*
G01X0025206Y-030937D02*
G01X0024594Y-030937D01*
G01X0024594Y-030326D01*
G01X0025206Y-030326D01*
G01X0025206Y-030937D01*
G01X0025206Y-030937D01*
G37*
G36*
G01X0044045Y-030070D02*
G01X0044128Y-030087D01*
G01X0044206Y-030120D01*
G01X0044275Y-030167D01*
G01X0044335Y-030227D01*
G01X0044382Y-030297D01*
G01X0044414Y-030375D01*
G01X0044430Y-030458D01*
G01X0044430Y-030458D01*
G01X0044430Y-030458D01*
G01X0044429Y-030554D01*
G01X0044429Y-030554D01*
G01X0044429Y-030554D01*
G01X0044410Y-030636D01*
G01X0044376Y-030713D01*
G01X0044327Y-030782D01*
G01X0044266Y-030840D01*
G01X0044195Y-030886D01*
G01X0044116Y-030916D01*
G01X0044033Y-030931D01*
G01X0043949Y-030929D01*
G01X0043866Y-030911D01*
G01X0043789Y-030877D01*
G01X0043720Y-030829D01*
G01X0043661Y-030768D01*
G01X0043616Y-030698D01*
G01X0043585Y-030619D01*
G01X0043569Y-030536D01*
G01X0043571Y-030452D01*
G01X0043588Y-030369D01*
G01X0043621Y-030292D01*
G01X0043669Y-030222D01*
G01X0043729Y-030163D01*
G01X0043800Y-030117D01*
G01X0043878Y-030085D01*
G01X0043961Y-030070D01*
G01X0044045Y-030070D01*
G01X0044045Y-030070D01*
G37*
G36*
G01X0033742Y-029855D02*
G01X0033745Y-029855D01*
G01X0033812Y-029863D01*
G01X0033876Y-029883D01*
G01X0033935Y-029915D01*
G01X0033987Y-029959D01*
G01X0034029Y-030011D01*
G01X0034060Y-030071D01*
G01X0034079Y-030135D01*
G01X0034079Y-030135D01*
G01X0034079Y-030135D01*
G01X0034085Y-030202D01*
G01X0034078Y-030269D01*
G01X0034078Y-030269D01*
G01X0034078Y-030269D01*
G01X0034058Y-030334D01*
G01X0034026Y-030393D01*
G01X0033983Y-030445D01*
G01X0033931Y-030487D01*
G01X0033872Y-030519D01*
G01X0033807Y-030538D01*
G01X0033740Y-030545D01*
G01X0033460Y-030545D01*
G01X0033458Y-030545D01*
G01X0033455Y-030545D01*
G01X0033388Y-030537D01*
G01X0033324Y-030517D01*
G01X0033265Y-030485D01*
G01X0033213Y-030441D01*
G01X0033171Y-030389D01*
G01X0033140Y-030329D01*
G01X0033121Y-030265D01*
G01X0033121Y-030265D01*
G01X0033121Y-030265D01*
G01X0033115Y-030198D01*
G01X0033122Y-030131D01*
G01X0033122Y-030131D01*
G01X0033122Y-030131D01*
G01X0033142Y-030066D01*
G01X0033174Y-030007D01*
G01X0033217Y-029955D01*
G01X0033269Y-029913D01*
G01X0033328Y-029881D01*
G01X0033393Y-029862D01*
G01X0033460Y-029855D01*
G01X0033740Y-029855D01*
G01X0033742Y-029855D01*
G01X0033742Y-029855D01*
G37*
G36*
G01X0036742Y-029855D02*
G01X0036745Y-029855D01*
G01X0036812Y-029863D01*
G01X0036876Y-029883D01*
G01X0036935Y-029915D01*
G01X0036987Y-029959D01*
G01X0037029Y-030011D01*
G01X0037060Y-030071D01*
G01X0037079Y-030135D01*
G01X0037079Y-030135D01*
G01X0037079Y-030135D01*
G01X0037085Y-030202D01*
G01X0037078Y-030269D01*
G01X0037078Y-030269D01*
G01X0037078Y-030269D01*
G01X0037058Y-030334D01*
G01X0037026Y-030393D01*
G01X0036983Y-030445D01*
G01X0036931Y-030487D01*
G01X0036872Y-030519D01*
G01X0036807Y-030538D01*
G01X0036740Y-030545D01*
G01X0036460Y-030545D01*
G01X0036458Y-030545D01*
G01X0036455Y-030545D01*
G01X0036388Y-030537D01*
G01X0036324Y-030517D01*
G01X0036265Y-030485D01*
G01X0036213Y-030441D01*
G01X0036171Y-030389D01*
G01X0036140Y-030329D01*
G01X0036121Y-030265D01*
G01X0036121Y-030265D01*
G01X0036121Y-030265D01*
G01X0036115Y-030198D01*
G01X0036122Y-030131D01*
G01X0036122Y-030131D01*
G01X0036122Y-030131D01*
G01X0036142Y-030066D01*
G01X0036174Y-030007D01*
G01X0036217Y-029955D01*
G01X0036269Y-029913D01*
G01X0036328Y-029881D01*
G01X0036393Y-029862D01*
G01X0036460Y-029855D01*
G01X0036740Y-029855D01*
G01X0036742Y-029855D01*
G01X0036742Y-029855D01*
G37*
G36*
G01X0040906Y-030437D02*
G01X0040294Y-030437D01*
G01X0040294Y-029826D01*
G01X0040906Y-029826D01*
G01X0040906Y-030437D01*
G01X0040906Y-030437D01*
G37*
G36*
G01X0031886Y-030302D02*
G01X0031314Y-030302D01*
G01X0031314Y-029730D01*
G01X0031886Y-029730D01*
G01X0031886Y-030302D01*
G01X0031886Y-030302D01*
G37*
G36*
G01X0029344Y-029377D02*
G01X0029426Y-029393D01*
G01X0029502Y-029426D01*
G01X0029571Y-029472D01*
G01X0029630Y-029531D01*
G01X0029676Y-029600D01*
G01X0029707Y-029677D01*
G01X0029723Y-029758D01*
G01X0029723Y-029758D01*
G01X0029724Y-029758D01*
G01X0029722Y-029853D01*
G01X0029722Y-029853D01*
G01X0029722Y-029853D01*
G01X0029704Y-029934D01*
G01X0029670Y-030010D01*
G01X0029622Y-030078D01*
G01X0029562Y-030135D01*
G01X0029492Y-030180D01*
G01X0029414Y-030210D01*
G01X0029333Y-030224D01*
G01X0029250Y-030223D01*
G01X0029168Y-030205D01*
G01X0029092Y-030171D01*
G01X0029024Y-030124D01*
G01X0028966Y-030064D01*
G01X0028922Y-029995D01*
G01X0028891Y-029917D01*
G01X0028876Y-029836D01*
G01X0028877Y-029753D01*
G01X0028894Y-029671D01*
G01X0028927Y-029595D01*
G01X0028974Y-029526D01*
G01X0029033Y-029468D01*
G01X0029103Y-029423D01*
G01X0029180Y-029392D01*
G01X0029261Y-029376D01*
G01X0029344Y-029377D01*
G01X0029344Y-029377D01*
G37*
G36*
G01X0027444Y-029277D02*
G01X0027526Y-029293D01*
G01X0027602Y-029326D01*
G01X0027671Y-029372D01*
G01X0027730Y-029431D01*
G01X0027776Y-029500D01*
G01X0027807Y-029577D01*
G01X0027823Y-029658D01*
G01X0027823Y-029658D01*
G01X0027824Y-029658D01*
G01X0027822Y-029753D01*
G01X0027822Y-029753D01*
G01X0027822Y-029753D01*
G01X0027804Y-029834D01*
G01X0027770Y-029910D01*
G01X0027722Y-029978D01*
G01X0027662Y-030035D01*
G01X0027592Y-030080D01*
G01X0027514Y-030110D01*
G01X0027433Y-030124D01*
G01X0027350Y-030123D01*
G01X0027268Y-030105D01*
G01X0027192Y-030071D01*
G01X0027124Y-030024D01*
G01X0027066Y-029964D01*
G01X0027022Y-029895D01*
G01X0026991Y-029817D01*
G01X0026976Y-029736D01*
G01X0026977Y-029653D01*
G01X0026994Y-029571D01*
G01X0027027Y-029495D01*
G01X0027074Y-029426D01*
G01X0027133Y-029368D01*
G01X0027203Y-029323D01*
G01X0027280Y-029292D01*
G01X0027361Y-029276D01*
G01X0027444Y-029277D01*
G01X0027444Y-029277D01*
G37*
G36*
G01X0036742Y-028855D02*
G01X0036745Y-028855D01*
G01X0036812Y-028863D01*
G01X0036876Y-028883D01*
G01X0036935Y-028915D01*
G01X0036987Y-028959D01*
G01X0037029Y-029011D01*
G01X0037060Y-029071D01*
G01X0037079Y-029135D01*
G01X0037079Y-029135D01*
G01X0037079Y-029135D01*
G01X0037085Y-029202D01*
G01X0037078Y-029269D01*
G01X0037078Y-029269D01*
G01X0037078Y-029269D01*
G01X0037058Y-029334D01*
G01X0037026Y-029393D01*
G01X0036983Y-029445D01*
G01X0036931Y-029487D01*
G01X0036872Y-029519D01*
G01X0036807Y-029538D01*
G01X0036740Y-029545D01*
G01X0036460Y-029545D01*
G01X0036458Y-029545D01*
G01X0036455Y-029545D01*
G01X0036388Y-029537D01*
G01X0036324Y-029517D01*
G01X0036265Y-029485D01*
G01X0036213Y-029441D01*
G01X0036171Y-029389D01*
G01X0036140Y-029329D01*
G01X0036121Y-029265D01*
G01X0036121Y-029265D01*
G01X0036121Y-029265D01*
G01X0036115Y-029198D01*
G01X0036122Y-029131D01*
G01X0036122Y-029131D01*
G01X0036122Y-029131D01*
G01X0036142Y-029066D01*
G01X0036174Y-029007D01*
G01X0036217Y-028955D01*
G01X0036269Y-028913D01*
G01X0036328Y-028881D01*
G01X0036393Y-028862D01*
G01X0036460Y-028855D01*
G01X0036740Y-028855D01*
G01X0036742Y-028855D01*
G01X0036742Y-028855D01*
G37*
G36*
G01X0033742Y-028855D02*
G01X0033745Y-028855D01*
G01X0033812Y-028863D01*
G01X0033876Y-028883D01*
G01X0033935Y-028915D01*
G01X0033987Y-028959D01*
G01X0034029Y-029011D01*
G01X0034060Y-029071D01*
G01X0034079Y-029135D01*
G01X0034079Y-029135D01*
G01X0034079Y-029135D01*
G01X0034085Y-029202D01*
G01X0034078Y-029269D01*
G01X0034078Y-029269D01*
G01X0034078Y-029269D01*
G01X0034058Y-029334D01*
G01X0034026Y-029393D01*
G01X0033983Y-029445D01*
G01X0033931Y-029487D01*
G01X0033872Y-029519D01*
G01X0033807Y-029538D01*
G01X0033740Y-029545D01*
G01X0033460Y-029545D01*
G01X0033458Y-029545D01*
G01X0033455Y-029545D01*
G01X0033388Y-029537D01*
G01X0033324Y-029517D01*
G01X0033265Y-029485D01*
G01X0033213Y-029441D01*
G01X0033171Y-029389D01*
G01X0033140Y-029329D01*
G01X0033121Y-029265D01*
G01X0033121Y-029265D01*
G01X0033121Y-029265D01*
G01X0033115Y-029198D01*
G01X0033122Y-029131D01*
G01X0033122Y-029131D01*
G01X0033122Y-029131D01*
G01X0033142Y-029066D01*
G01X0033174Y-029007D01*
G01X0033217Y-028955D01*
G01X0033269Y-028913D01*
G01X0033328Y-028881D01*
G01X0033393Y-028862D01*
G01X0033460Y-028855D01*
G01X0033740Y-028855D01*
G01X0033742Y-028855D01*
G01X0033742Y-028855D01*
G37*
G36*
G01X0025314Y-028514D02*
G01X0025369Y-028526D01*
G01X0025421Y-028547D01*
G01X0025467Y-028579D01*
G01X0025507Y-028618D01*
G01X0025538Y-028665D01*
G01X0025559Y-028717D01*
G01X0025570Y-028772D01*
G01X0025570Y-028772D01*
G01X0025570Y-028772D01*
G01X0025569Y-028836D01*
G01X0025569Y-028836D01*
G01X0025569Y-028836D01*
G01X0025557Y-028891D01*
G01X0025534Y-028942D01*
G01X0025502Y-028988D01*
G01X0025461Y-029026D01*
G01X0025414Y-029056D01*
G01X0025362Y-029077D01*
G01X0025306Y-029086D01*
G01X0025250Y-029085D01*
G01X0025195Y-029073D01*
G01X0025144Y-029051D01*
G01X0025098Y-029019D01*
G01X0025059Y-028978D01*
G01X0025029Y-028931D01*
G01X0025008Y-028879D01*
G01X0024998Y-028824D01*
G01X0024999Y-028768D01*
G01X0025010Y-028713D01*
G01X0025032Y-028662D01*
G01X0025064Y-028615D01*
G01X0025104Y-028576D01*
G01X0025151Y-028545D01*
G01X0025203Y-028524D01*
G01X0025258Y-028514D01*
G01X0025314Y-028514D01*
G01X0025314Y-028514D01*
G37*
G36*
G01X0024586Y-029086D02*
G01X0024014Y-029086D01*
G01X0024014Y-028514D01*
G01X0024586Y-028514D01*
G01X0024586Y-029086D01*
G01X0024586Y-029086D01*
G37*
G36*
G01X0038444Y-028177D02*
G01X0038526Y-028193D01*
G01X0038602Y-028226D01*
G01X0038671Y-028272D01*
G01X0038730Y-028331D01*
G01X0038776Y-028400D01*
G01X0038807Y-028477D01*
G01X0038823Y-028558D01*
G01X0038823Y-028558D01*
G01X0038824Y-028558D01*
G01X0038822Y-028653D01*
G01X0038822Y-028653D01*
G01X0038822Y-028653D01*
G01X0038804Y-028734D01*
G01X0038770Y-028810D01*
G01X0038722Y-028878D01*
G01X0038662Y-028935D01*
G01X0038592Y-028980D01*
G01X0038514Y-029010D01*
G01X0038433Y-029024D01*
G01X0038350Y-029023D01*
G01X0038268Y-029005D01*
G01X0038192Y-028971D01*
G01X0038124Y-028924D01*
G01X0038066Y-028864D01*
G01X0038022Y-028795D01*
G01X0037991Y-028717D01*
G01X0037976Y-028636D01*
G01X0037977Y-028553D01*
G01X0037994Y-028471D01*
G01X0038027Y-028395D01*
G01X0038074Y-028326D01*
G01X0038133Y-028268D01*
G01X0038203Y-028223D01*
G01X0038280Y-028192D01*
G01X0038361Y-028176D01*
G01X0038444Y-028177D01*
G01X0038444Y-028177D01*
G37*
G36*
G01X0044045Y-028070D02*
G01X0044128Y-028087D01*
G01X0044206Y-028120D01*
G01X0044275Y-028167D01*
G01X0044335Y-028227D01*
G01X0044382Y-028297D01*
G01X0044414Y-028375D01*
G01X0044430Y-028458D01*
G01X0044430Y-028458D01*
G01X0044430Y-028458D01*
G01X0044429Y-028554D01*
G01X0044429Y-028554D01*
G01X0044429Y-028554D01*
G01X0044410Y-028636D01*
G01X0044376Y-028713D01*
G01X0044327Y-028782D01*
G01X0044266Y-028840D01*
G01X0044195Y-028886D01*
G01X0044116Y-028916D01*
G01X0044033Y-028931D01*
G01X0043949Y-028929D01*
G01X0043866Y-028911D01*
G01X0043789Y-028877D01*
G01X0043720Y-028829D01*
G01X0043661Y-028768D01*
G01X0043616Y-028698D01*
G01X0043585Y-028619D01*
G01X0043569Y-028536D01*
G01X0043571Y-028452D01*
G01X0043588Y-028369D01*
G01X0043621Y-028292D01*
G01X0043669Y-028222D01*
G01X0043729Y-028163D01*
G01X0043800Y-028117D01*
G01X0043878Y-028085D01*
G01X0043961Y-028070D01*
G01X0044045Y-028070D01*
G01X0044045Y-028070D01*
G37*
G36*
G01X0040046Y-028114D02*
G01X0040101Y-028126D01*
G01X0040152Y-028147D01*
G01X0040199Y-028179D01*
G01X0040238Y-028218D01*
G01X0040269Y-028265D01*
G01X0040291Y-028317D01*
G01X0040302Y-028372D01*
G01X0040302Y-028372D01*
G01X0040302Y-028372D01*
G01X0040301Y-028436D01*
G01X0040301Y-028436D01*
G01X0040301Y-028436D01*
G01X0040288Y-028491D01*
G01X0040266Y-028542D01*
G01X0040233Y-028588D01*
G01X0040193Y-028626D01*
G01X0040145Y-028656D01*
G01X0040093Y-028677D01*
G01X0040038Y-028686D01*
G01X0039982Y-028685D01*
G01X0039927Y-028673D01*
G01X0039876Y-028651D01*
G01X0039830Y-028619D01*
G01X0039791Y-028578D01*
G01X0039760Y-028531D01*
G01X0039740Y-028479D01*
G01X0039729Y-028424D01*
G01X0039730Y-028368D01*
G01X0039742Y-028313D01*
G01X0039764Y-028262D01*
G01X0039796Y-028215D01*
G01X0039836Y-028176D01*
G01X0039883Y-028145D01*
G01X0039935Y-028124D01*
G01X0039990Y-028114D01*
G01X0040046Y-028114D01*
G01X0040046Y-028114D01*
G37*
G36*
G01X0041286Y-028686D02*
G01X0040714Y-028686D01*
G01X0040714Y-028114D01*
G01X0041286Y-028114D01*
G01X0041286Y-028686D01*
G01X0041286Y-028686D01*
G37*
G36*
G01X0031142Y-026555D02*
G01X0031145Y-026555D01*
G01X0031212Y-026563D01*
G01X0031276Y-026583D01*
G01X0031335Y-026615D01*
G01X0031387Y-026659D01*
G01X0031429Y-026711D01*
G01X0031460Y-026771D01*
G01X0031479Y-026835D01*
G01X0031479Y-026835D01*
G01X0031479Y-026835D01*
G01X0031485Y-026902D01*
G01X0031478Y-026969D01*
G01X0031478Y-026969D01*
G01X0031478Y-026969D01*
G01X0031458Y-027034D01*
G01X0031426Y-027093D01*
G01X0031383Y-027145D01*
G01X0031331Y-027187D01*
G01X0031272Y-027219D01*
G01X0031207Y-027238D01*
G01X0031140Y-027245D01*
G01X0030860Y-027245D01*
G01X0030858Y-027245D01*
G01X0030855Y-027245D01*
G01X0030788Y-027237D01*
G01X0030724Y-027217D01*
G01X0030665Y-027185D01*
G01X0030613Y-027141D01*
G01X0030571Y-027089D01*
G01X0030540Y-027029D01*
G01X0030521Y-026965D01*
G01X0030521Y-026965D01*
G01X0030521Y-026965D01*
G01X0030515Y-026898D01*
G01X0030522Y-026831D01*
G01X0030522Y-026831D01*
G01X0030522Y-026831D01*
G01X0030542Y-026766D01*
G01X0030574Y-026707D01*
G01X0030617Y-026655D01*
G01X0030669Y-026613D01*
G01X0030728Y-026581D01*
G01X0030793Y-026562D01*
G01X0030860Y-026555D01*
G01X0031140Y-026555D01*
G01X0031142Y-026555D01*
G01X0031142Y-026555D01*
G37*
G36*
G01X0028142Y-026555D02*
G01X0028145Y-026555D01*
G01X0028212Y-026563D01*
G01X0028276Y-026583D01*
G01X0028335Y-026615D01*
G01X0028387Y-026659D01*
G01X0028429Y-026711D01*
G01X0028460Y-026771D01*
G01X0028479Y-026835D01*
G01X0028479Y-026835D01*
G01X0028479Y-026835D01*
G01X0028485Y-026902D01*
G01X0028478Y-026969D01*
G01X0028478Y-026969D01*
G01X0028478Y-026969D01*
G01X0028458Y-027034D01*
G01X0028426Y-027093D01*
G01X0028383Y-027145D01*
G01X0028331Y-027187D01*
G01X0028272Y-027219D01*
G01X0028207Y-027238D01*
G01X0028140Y-027245D01*
G01X0027860Y-027245D01*
G01X0027858Y-027245D01*
G01X0027855Y-027245D01*
G01X0027788Y-027237D01*
G01X0027724Y-027217D01*
G01X0027665Y-027185D01*
G01X0027613Y-027141D01*
G01X0027571Y-027089D01*
G01X0027540Y-027029D01*
G01X0027521Y-026965D01*
G01X0027521Y-026965D01*
G01X0027521Y-026965D01*
G01X0027515Y-026898D01*
G01X0027522Y-026831D01*
G01X0027522Y-026831D01*
G01X0027522Y-026831D01*
G01X0027542Y-026766D01*
G01X0027574Y-026707D01*
G01X0027617Y-026655D01*
G01X0027669Y-026613D01*
G01X0027728Y-026581D01*
G01X0027793Y-026562D01*
G01X0027860Y-026555D01*
G01X0028140Y-026555D01*
G01X0028142Y-026555D01*
G01X0028142Y-026555D01*
G37*
G36*
G01X0033544Y-026277D02*
G01X0033626Y-026293D01*
G01X0033702Y-026326D01*
G01X0033771Y-026372D01*
G01X0033830Y-026431D01*
G01X0033876Y-026500D01*
G01X0033907Y-026577D01*
G01X0033923Y-026658D01*
G01X0033923Y-026658D01*
G01X0033924Y-026658D01*
G01X0033922Y-026753D01*
G01X0033922Y-026753D01*
G01X0033922Y-026753D01*
G01X0033904Y-026834D01*
G01X0033870Y-026910D01*
G01X0033822Y-026978D01*
G01X0033762Y-027035D01*
G01X0033692Y-027080D01*
G01X0033614Y-027110D01*
G01X0033533Y-027124D01*
G01X0033450Y-027123D01*
G01X0033368Y-027105D01*
G01X0033292Y-027071D01*
G01X0033224Y-027024D01*
G01X0033166Y-026964D01*
G01X0033122Y-026895D01*
G01X0033091Y-026817D01*
G01X0033076Y-026736D01*
G01X0033077Y-026653D01*
G01X0033094Y-026571D01*
G01X0033127Y-026495D01*
G01X0033174Y-026426D01*
G01X0033233Y-026368D01*
G01X0033303Y-026323D01*
G01X0033380Y-026292D01*
G01X0033461Y-026276D01*
G01X0033544Y-026277D01*
G01X0033544Y-026277D01*
G37*
G36*
G01X0036544Y-026277D02*
G01X0036626Y-026293D01*
G01X0036702Y-026326D01*
G01X0036771Y-026372D01*
G01X0036830Y-026431D01*
G01X0036876Y-026500D01*
G01X0036907Y-026577D01*
G01X0036923Y-026658D01*
G01X0036923Y-026658D01*
G01X0036924Y-026658D01*
G01X0036922Y-026753D01*
G01X0036922Y-026753D01*
G01X0036922Y-026753D01*
G01X0036904Y-026834D01*
G01X0036870Y-026910D01*
G01X0036822Y-026978D01*
G01X0036762Y-027035D01*
G01X0036692Y-027080D01*
G01X0036614Y-027110D01*
G01X0036533Y-027124D01*
G01X0036450Y-027123D01*
G01X0036368Y-027105D01*
G01X0036292Y-027071D01*
G01X0036224Y-027024D01*
G01X0036166Y-026964D01*
G01X0036122Y-026895D01*
G01X0036091Y-026817D01*
G01X0036076Y-026736D01*
G01X0036077Y-026653D01*
G01X0036094Y-026571D01*
G01X0036127Y-026495D01*
G01X0036174Y-026426D01*
G01X0036233Y-026368D01*
G01X0036303Y-026323D01*
G01X0036380Y-026292D01*
G01X0036461Y-026276D01*
G01X0036544Y-026277D01*
G01X0036544Y-026277D01*
G37*
G36*
G01X0044148Y-026040D02*
G01X0044237Y-026058D01*
G01X0044320Y-026093D01*
G01X0044395Y-026144D01*
G01X0044458Y-026208D01*
G01X0044508Y-026283D01*
G01X0044542Y-026366D01*
G01X0044560Y-026455D01*
G01X0044560Y-026455D01*
G01X0044560Y-026455D01*
G01X0044559Y-026558D01*
G01X0044559Y-026558D01*
G01X0044559Y-026558D01*
G01X0044539Y-026646D01*
G01X0044502Y-026728D01*
G01X0044450Y-026802D01*
G01X0044385Y-026864D01*
G01X0044308Y-026913D01*
G01X0044224Y-026945D01*
G01X0044135Y-026961D01*
G01X0044045Y-026959D01*
G01X0043957Y-026940D01*
G01X0043874Y-026903D01*
G01X0043800Y-026852D01*
G01X0043738Y-026787D01*
G01X0043689Y-026711D01*
G01X0043656Y-026627D01*
G01X0043639Y-026539D01*
G01X0043641Y-026448D01*
G01X0043659Y-026360D01*
G01X0043695Y-026277D01*
G01X0043746Y-026203D01*
G01X0043810Y-026140D01*
G01X0043886Y-026090D01*
G01X0043969Y-026057D01*
G01X0044058Y-026040D01*
G01X0044148Y-026040D01*
G01X0044148Y-026040D01*
G37*
G36*
G01X0025006Y-026706D02*
G01X0024394Y-026706D01*
G01X0024394Y-026094D01*
G01X0025006Y-026094D01*
G01X0025006Y-026706D01*
G01X0025006Y-026706D01*
G37*
G36*
G01X0039614Y-025914D02*
G01X0039669Y-025926D01*
G01X0039721Y-025947D01*
G01X0039767Y-025979D01*
G01X0039807Y-026018D01*
G01X0039838Y-026065D01*
G01X0039859Y-026117D01*
G01X0039870Y-026172D01*
G01X0039870Y-026172D01*
G01X0039870Y-026172D01*
G01X0039869Y-026236D01*
G01X0039869Y-026236D01*
G01X0039869Y-026236D01*
G01X0039857Y-026291D01*
G01X0039834Y-026342D01*
G01X0039802Y-026388D01*
G01X0039761Y-026426D01*
G01X0039714Y-026456D01*
G01X0039662Y-026477D01*
G01X0039606Y-026486D01*
G01X0039550Y-026485D01*
G01X0039495Y-026473D01*
G01X0039444Y-026451D01*
G01X0039398Y-026419D01*
G01X0039359Y-026378D01*
G01X0039329Y-026331D01*
G01X0039308Y-026279D01*
G01X0039298Y-026224D01*
G01X0039299Y-026168D01*
G01X0039310Y-026113D01*
G01X0039332Y-026062D01*
G01X0039364Y-026015D01*
G01X0039404Y-025976D01*
G01X0039451Y-025945D01*
G01X0039503Y-025924D01*
G01X0039558Y-025914D01*
G01X0039614Y-025914D01*
G01X0039614Y-025914D01*
G37*
G36*
G01X0038886Y-026486D02*
G01X0038314Y-026486D01*
G01X0038314Y-025914D01*
G01X0038886Y-025914D01*
G01X0038886Y-026486D01*
G01X0038886Y-026486D01*
G37*
G36*
G01X0031142Y-025555D02*
G01X0031145Y-025555D01*
G01X0031212Y-025563D01*
G01X0031276Y-025583D01*
G01X0031335Y-025615D01*
G01X0031387Y-025659D01*
G01X0031429Y-025711D01*
G01X0031460Y-025771D01*
G01X0031479Y-025835D01*
G01X0031479Y-025835D01*
G01X0031479Y-025835D01*
G01X0031485Y-025902D01*
G01X0031478Y-025969D01*
G01X0031478Y-025969D01*
G01X0031478Y-025969D01*
G01X0031458Y-026034D01*
G01X0031426Y-026093D01*
G01X0031383Y-026145D01*
G01X0031331Y-026187D01*
G01X0031272Y-026219D01*
G01X0031207Y-026238D01*
G01X0031140Y-026245D01*
G01X0030860Y-026245D01*
G01X0030858Y-026245D01*
G01X0030855Y-026245D01*
G01X0030788Y-026237D01*
G01X0030724Y-026217D01*
G01X0030665Y-026185D01*
G01X0030613Y-026141D01*
G01X0030571Y-026089D01*
G01X0030540Y-026029D01*
G01X0030521Y-025965D01*
G01X0030521Y-025965D01*
G01X0030521Y-025965D01*
G01X0030515Y-025898D01*
G01X0030522Y-025831D01*
G01X0030522Y-025831D01*
G01X0030522Y-025831D01*
G01X0030542Y-025766D01*
G01X0030574Y-025707D01*
G01X0030617Y-025655D01*
G01X0030669Y-025613D01*
G01X0030728Y-025581D01*
G01X0030793Y-025562D01*
G01X0030860Y-025555D01*
G01X0031140Y-025555D01*
G01X0031142Y-025555D01*
G01X0031142Y-025555D01*
G37*
G36*
G01X0028142Y-025555D02*
G01X0028145Y-025555D01*
G01X0028212Y-025563D01*
G01X0028276Y-025583D01*
G01X0028335Y-025615D01*
G01X0028387Y-025659D01*
G01X0028429Y-025711D01*
G01X0028460Y-025771D01*
G01X0028479Y-025835D01*
G01X0028479Y-025835D01*
G01X0028479Y-025835D01*
G01X0028485Y-025902D01*
G01X0028478Y-025969D01*
G01X0028478Y-025969D01*
G01X0028478Y-025969D01*
G01X0028458Y-026034D01*
G01X0028426Y-026093D01*
G01X0028383Y-026145D01*
G01X0028331Y-026187D01*
G01X0028272Y-026219D01*
G01X0028207Y-026238D01*
G01X0028140Y-026245D01*
G01X0027860Y-026245D01*
G01X0027858Y-026245D01*
G01X0027855Y-026245D01*
G01X0027788Y-026237D01*
G01X0027724Y-026217D01*
G01X0027665Y-026185D01*
G01X0027613Y-026141D01*
G01X0027571Y-026089D01*
G01X0027540Y-026029D01*
G01X0027521Y-025965D01*
G01X0027521Y-025965D01*
G01X0027521Y-025965D01*
G01X0027515Y-025898D01*
G01X0027522Y-025831D01*
G01X0027522Y-025831D01*
G01X0027522Y-025831D01*
G01X0027542Y-025766D01*
G01X0027574Y-025707D01*
G01X0027617Y-025655D01*
G01X0027669Y-025613D01*
G01X0027728Y-025581D01*
G01X0027793Y-025562D01*
G01X0027860Y-025555D01*
G01X0028140Y-025555D01*
G01X0028142Y-025555D01*
G01X0028142Y-025555D01*
G37*
G36*
G01X0044148Y-025040D02*
G01X0044237Y-025058D01*
G01X0044320Y-025093D01*
G01X0044395Y-025144D01*
G01X0044458Y-025208D01*
G01X0044508Y-025283D01*
G01X0044542Y-025366D01*
G01X0044560Y-025455D01*
G01X0044560Y-025455D01*
G01X0044560Y-025455D01*
G01X0044559Y-025558D01*
G01X0044559Y-025558D01*
G01X0044559Y-025558D01*
G01X0044539Y-025646D01*
G01X0044502Y-025728D01*
G01X0044450Y-025802D01*
G01X0044385Y-025864D01*
G01X0044308Y-025913D01*
G01X0044224Y-025945D01*
G01X0044135Y-025961D01*
G01X0044045Y-025959D01*
G01X0043957Y-025940D01*
G01X0043874Y-025903D01*
G01X0043800Y-025852D01*
G01X0043738Y-025787D01*
G01X0043689Y-025711D01*
G01X0043656Y-025627D01*
G01X0043639Y-025539D01*
G01X0043641Y-025448D01*
G01X0043659Y-025360D01*
G01X0043695Y-025277D01*
G01X0043746Y-025203D01*
G01X0043810Y-025140D01*
G01X0043886Y-025090D01*
G01X0043969Y-025057D01*
G01X0044058Y-025040D01*
G01X0044148Y-025040D01*
G01X0044148Y-025040D01*
G37*
G36*
G01X0031142Y-024555D02*
G01X0031145Y-024555D01*
G01X0031212Y-024563D01*
G01X0031276Y-024583D01*
G01X0031335Y-024615D01*
G01X0031387Y-024659D01*
G01X0031429Y-024711D01*
G01X0031460Y-024771D01*
G01X0031479Y-024835D01*
G01X0031479Y-024835D01*
G01X0031479Y-024835D01*
G01X0031485Y-024902D01*
G01X0031478Y-024969D01*
G01X0031478Y-024969D01*
G01X0031478Y-024969D01*
G01X0031458Y-025034D01*
G01X0031426Y-025093D01*
G01X0031383Y-025145D01*
G01X0031331Y-025187D01*
G01X0031272Y-025219D01*
G01X0031207Y-025238D01*
G01X0031140Y-025245D01*
G01X0030860Y-025245D01*
G01X0030858Y-025245D01*
G01X0030855Y-025245D01*
G01X0030788Y-025237D01*
G01X0030724Y-025217D01*
G01X0030665Y-025185D01*
G01X0030613Y-025141D01*
G01X0030571Y-025089D01*
G01X0030540Y-025029D01*
G01X0030521Y-024965D01*
G01X0030521Y-024965D01*
G01X0030521Y-024965D01*
G01X0030515Y-024898D01*
G01X0030522Y-024831D01*
G01X0030522Y-024831D01*
G01X0030522Y-024831D01*
G01X0030542Y-024766D01*
G01X0030574Y-024707D01*
G01X0030617Y-024655D01*
G01X0030669Y-024613D01*
G01X0030728Y-024581D01*
G01X0030793Y-024562D01*
G01X0030860Y-024555D01*
G01X0031140Y-024555D01*
G01X0031142Y-024555D01*
G01X0031142Y-024555D01*
G37*
G36*
G01X0028142Y-024555D02*
G01X0028145Y-024555D01*
G01X0028212Y-024563D01*
G01X0028276Y-024583D01*
G01X0028335Y-024615D01*
G01X0028387Y-024659D01*
G01X0028429Y-024711D01*
G01X0028460Y-024771D01*
G01X0028479Y-024835D01*
G01X0028479Y-024835D01*
G01X0028479Y-024835D01*
G01X0028485Y-024902D01*
G01X0028478Y-024969D01*
G01X0028478Y-024969D01*
G01X0028478Y-024969D01*
G01X0028458Y-025034D01*
G01X0028426Y-025093D01*
G01X0028383Y-025145D01*
G01X0028331Y-025187D01*
G01X0028272Y-025219D01*
G01X0028207Y-025238D01*
G01X0028140Y-025245D01*
G01X0027860Y-025245D01*
G01X0027858Y-025245D01*
G01X0027855Y-025245D01*
G01X0027788Y-025237D01*
G01X0027724Y-025217D01*
G01X0027665Y-025185D01*
G01X0027613Y-025141D01*
G01X0027571Y-025089D01*
G01X0027540Y-025029D01*
G01X0027521Y-024965D01*
G01X0027521Y-024965D01*
G01X0027521Y-024965D01*
G01X0027515Y-024898D01*
G01X0027522Y-024831D01*
G01X0027522Y-024831D01*
G01X0027522Y-024831D01*
G01X0027542Y-024766D01*
G01X0027574Y-024707D01*
G01X0027617Y-024655D01*
G01X0027669Y-024613D01*
G01X0027728Y-024581D01*
G01X0027793Y-024562D01*
G01X0027860Y-024555D01*
G01X0028140Y-024555D01*
G01X0028142Y-024555D01*
G01X0028142Y-024555D01*
G37*
G36*
G01X0035630Y-024514D02*
G01X0035685Y-024526D01*
G01X0035737Y-024547D01*
G01X0035783Y-024579D01*
G01X0035823Y-024618D01*
G01X0035854Y-024665D01*
G01X0035875Y-024717D01*
G01X0035886Y-024772D01*
G01X0035886Y-024772D01*
G01X0035886Y-024772D01*
G01X0035885Y-024836D01*
G01X0035885Y-024836D01*
G01X0035885Y-024836D01*
G01X0035873Y-024891D01*
G01X0035850Y-024942D01*
G01X0035817Y-024988D01*
G01X0035777Y-025026D01*
G01X0035730Y-025056D01*
G01X0035677Y-025077D01*
G01X0035622Y-025086D01*
G01X0035566Y-025085D01*
G01X0035511Y-025073D01*
G01X0035460Y-025051D01*
G01X0035414Y-025019D01*
G01X0035375Y-024978D01*
G01X0035344Y-024931D01*
G01X0035324Y-024879D01*
G01X0035314Y-024824D01*
G01X0035315Y-024768D01*
G01X0035326Y-024713D01*
G01X0035348Y-024662D01*
G01X0035380Y-024615D01*
G01X0035420Y-024576D01*
G01X0035467Y-024545D01*
G01X0035519Y-024524D01*
G01X0035574Y-024514D01*
G01X0035630Y-024514D01*
G01X0035630Y-024514D01*
G37*
G36*
G01X0036870Y-025086D02*
G01X0036298Y-025086D01*
G01X0036298Y-024514D01*
G01X0036870Y-024514D01*
G01X0036870Y-025086D01*
G01X0036870Y-025086D01*
G37*
G36*
G01X0042148Y-024040D02*
G01X0042237Y-024058D01*
G01X0042320Y-024093D01*
G01X0042395Y-024144D01*
G01X0042458Y-024208D01*
G01X0042508Y-024283D01*
G01X0042542Y-024366D01*
G01X0042560Y-024455D01*
G01X0042560Y-024455D01*
G01X0042560Y-024455D01*
G01X0042559Y-024558D01*
G01X0042559Y-024558D01*
G01X0042559Y-024558D01*
G01X0042539Y-024646D01*
G01X0042502Y-024728D01*
G01X0042450Y-024802D01*
G01X0042385Y-024864D01*
G01X0042308Y-024913D01*
G01X0042224Y-024945D01*
G01X0042135Y-024961D01*
G01X0042045Y-024959D01*
G01X0041957Y-024940D01*
G01X0041874Y-024903D01*
G01X0041800Y-024852D01*
G01X0041738Y-024787D01*
G01X0041689Y-024711D01*
G01X0041656Y-024627D01*
G01X0041639Y-024539D01*
G01X0041641Y-024448D01*
G01X0041659Y-024360D01*
G01X0041695Y-024277D01*
G01X0041746Y-024203D01*
G01X0041810Y-024140D01*
G01X0041886Y-024090D01*
G01X0041969Y-024057D01*
G01X0042058Y-024040D01*
G01X0042148Y-024040D01*
G01X0042148Y-024040D01*
G37*
G36*
G01X0039506Y-024874D02*
G01X0038894Y-024874D01*
G01X0038894Y-024263D01*
G01X0039506Y-024263D01*
G01X0039506Y-024874D01*
G01X0039506Y-024874D01*
G37*
G36*
G01X0024732Y-024126D02*
G01X0024791Y-024138D01*
G01X0024846Y-024161D01*
G01X0024896Y-024195D01*
G01X0024938Y-024237D01*
G01X0024971Y-024287D01*
G01X0024994Y-024343D01*
G01X0025005Y-024397D01*
G01X0025006Y-024402D01*
G01X0025005Y-024470D01*
G01X0025005Y-024470D01*
G01X0025005Y-024470D01*
G01X0024991Y-024528D01*
G01X0024967Y-024583D01*
G01X0024932Y-024632D01*
G01X0024889Y-024673D01*
G01X0024838Y-024706D01*
G01X0024783Y-024727D01*
G01X0024724Y-024738D01*
G01X0024664Y-024736D01*
G01X0024605Y-024724D01*
G01X0024550Y-024700D01*
G01X0024501Y-024665D01*
G01X0024459Y-024622D01*
G01X0024427Y-024572D01*
G01X0024405Y-024516D01*
G01X0024394Y-024457D01*
G01X0024395Y-024397D01*
G01X0024407Y-024339D01*
G01X0024431Y-024284D01*
G01X0024465Y-024234D01*
G01X0024508Y-024192D01*
G01X0024558Y-024159D01*
G01X0024613Y-024137D01*
G01X0024672Y-024126D01*
G01X0024732Y-024126D01*
G01X0024732Y-024126D01*
G37*
G36*
G01X0028142Y-023555D02*
G01X0028145Y-023555D01*
G01X0028212Y-023563D01*
G01X0028276Y-023583D01*
G01X0028335Y-023615D01*
G01X0028387Y-023659D01*
G01X0028429Y-023711D01*
G01X0028460Y-023771D01*
G01X0028479Y-023835D01*
G01X0028479Y-023835D01*
G01X0028479Y-023835D01*
G01X0028485Y-023902D01*
G01X0028478Y-023969D01*
G01X0028478Y-023969D01*
G01X0028478Y-023969D01*
G01X0028458Y-024034D01*
G01X0028426Y-024093D01*
G01X0028383Y-024145D01*
G01X0028331Y-024187D01*
G01X0028272Y-024219D01*
G01X0028207Y-024238D01*
G01X0028140Y-024245D01*
G01X0027860Y-024245D01*
G01X0027858Y-024245D01*
G01X0027855Y-024245D01*
G01X0027788Y-024237D01*
G01X0027724Y-024217D01*
G01X0027665Y-024185D01*
G01X0027613Y-024141D01*
G01X0027571Y-024089D01*
G01X0027540Y-024029D01*
G01X0027521Y-023965D01*
G01X0027521Y-023965D01*
G01X0027521Y-023965D01*
G01X0027515Y-023898D01*
G01X0027522Y-023831D01*
G01X0027522Y-023831D01*
G01X0027522Y-023831D01*
G01X0027542Y-023766D01*
G01X0027574Y-023707D01*
G01X0027617Y-023655D01*
G01X0027669Y-023613D01*
G01X0027728Y-023581D01*
G01X0027793Y-023562D01*
G01X0027860Y-023555D01*
G01X0028140Y-023555D01*
G01X0028142Y-023555D01*
G01X0028142Y-023555D01*
G37*
G36*
G01X0031142Y-023555D02*
G01X0031145Y-023555D01*
G01X0031212Y-023563D01*
G01X0031276Y-023583D01*
G01X0031335Y-023615D01*
G01X0031387Y-023659D01*
G01X0031429Y-023711D01*
G01X0031460Y-023771D01*
G01X0031479Y-023835D01*
G01X0031479Y-023835D01*
G01X0031479Y-023835D01*
G01X0031485Y-023902D01*
G01X0031478Y-023969D01*
G01X0031478Y-023969D01*
G01X0031478Y-023969D01*
G01X0031458Y-024034D01*
G01X0031426Y-024093D01*
G01X0031383Y-024145D01*
G01X0031331Y-024187D01*
G01X0031272Y-024219D01*
G01X0031207Y-024238D01*
G01X0031140Y-024245D01*
G01X0030860Y-024245D01*
G01X0030858Y-024245D01*
G01X0030855Y-024245D01*
G01X0030788Y-024237D01*
G01X0030724Y-024217D01*
G01X0030665Y-024185D01*
G01X0030613Y-024141D01*
G01X0030571Y-024089D01*
G01X0030540Y-024029D01*
G01X0030521Y-023965D01*
G01X0030521Y-023965D01*
G01X0030521Y-023965D01*
G01X0030515Y-023898D01*
G01X0030522Y-023831D01*
G01X0030522Y-023831D01*
G01X0030522Y-023831D01*
G01X0030542Y-023766D01*
G01X0030574Y-023707D01*
G01X0030617Y-023655D01*
G01X0030669Y-023613D01*
G01X0030728Y-023581D01*
G01X0030793Y-023562D01*
G01X0030860Y-023555D01*
G01X0031140Y-023555D01*
G01X0031142Y-023555D01*
G01X0031142Y-023555D01*
G37*
G36*
G01X0044148Y-023040D02*
G01X0044237Y-023058D01*
G01X0044320Y-023093D01*
G01X0044395Y-023144D01*
G01X0044458Y-023208D01*
G01X0044508Y-023283D01*
G01X0044542Y-023366D01*
G01X0044560Y-023455D01*
G01X0044560Y-023455D01*
G01X0044560Y-023455D01*
G01X0044559Y-023558D01*
G01X0044559Y-023558D01*
G01X0044559Y-023558D01*
G01X0044539Y-023646D01*
G01X0044502Y-023728D01*
G01X0044450Y-023802D01*
G01X0044385Y-023864D01*
G01X0044308Y-023913D01*
G01X0044224Y-023945D01*
G01X0044135Y-023961D01*
G01X0044045Y-023959D01*
G01X0043957Y-023940D01*
G01X0043874Y-023903D01*
G01X0043800Y-023852D01*
G01X0043738Y-023787D01*
G01X0043689Y-023711D01*
G01X0043656Y-023627D01*
G01X0043639Y-023539D01*
G01X0043641Y-023448D01*
G01X0043659Y-023360D01*
G01X0043695Y-023277D01*
G01X0043746Y-023203D01*
G01X0043810Y-023140D01*
G01X0043886Y-023090D01*
G01X0043969Y-023057D01*
G01X0044058Y-023040D01*
G01X0044148Y-023040D01*
G01X0044148Y-023040D01*
G37*
G36*
G01X0036544Y-022777D02*
G01X0036626Y-022793D01*
G01X0036702Y-022826D01*
G01X0036771Y-022872D01*
G01X0036830Y-022931D01*
G01X0036876Y-023000D01*
G01X0036907Y-023077D01*
G01X0036923Y-023158D01*
G01X0036923Y-023158D01*
G01X0036924Y-023158D01*
G01X0036922Y-023253D01*
G01X0036922Y-023253D01*
G01X0036922Y-023253D01*
G01X0036904Y-023334D01*
G01X0036870Y-023410D01*
G01X0036822Y-023478D01*
G01X0036762Y-023535D01*
G01X0036692Y-023580D01*
G01X0036614Y-023610D01*
G01X0036533Y-023624D01*
G01X0036450Y-023623D01*
G01X0036368Y-023605D01*
G01X0036292Y-023571D01*
G01X0036224Y-023524D01*
G01X0036166Y-023464D01*
G01X0036122Y-023395D01*
G01X0036091Y-023317D01*
G01X0036076Y-023236D01*
G01X0036077Y-023153D01*
G01X0036094Y-023071D01*
G01X0036127Y-022995D01*
G01X0036174Y-022926D01*
G01X0036233Y-022868D01*
G01X0036303Y-022823D01*
G01X0036380Y-022792D01*
G01X0036461Y-022776D01*
G01X0036544Y-022777D01*
G01X0036544Y-022777D01*
G37*
G36*
G01X0033544Y-022777D02*
G01X0033626Y-022793D01*
G01X0033702Y-022826D01*
G01X0033771Y-022872D01*
G01X0033830Y-022931D01*
G01X0033876Y-023000D01*
G01X0033907Y-023077D01*
G01X0033923Y-023158D01*
G01X0033923Y-023158D01*
G01X0033924Y-023158D01*
G01X0033922Y-023253D01*
G01X0033922Y-023253D01*
G01X0033922Y-023253D01*
G01X0033904Y-023334D01*
G01X0033870Y-023410D01*
G01X0033822Y-023478D01*
G01X0033762Y-023535D01*
G01X0033692Y-023580D01*
G01X0033614Y-023610D01*
G01X0033533Y-023624D01*
G01X0033450Y-023623D01*
G01X0033368Y-023605D01*
G01X0033292Y-023571D01*
G01X0033224Y-023524D01*
G01X0033166Y-023464D01*
G01X0033122Y-023395D01*
G01X0033091Y-023317D01*
G01X0033076Y-023236D01*
G01X0033077Y-023153D01*
G01X0033094Y-023071D01*
G01X0033127Y-022995D01*
G01X0033174Y-022926D01*
G01X0033233Y-022868D01*
G01X0033303Y-022823D01*
G01X0033380Y-022792D01*
G01X0033461Y-022776D01*
G01X0033544Y-022777D01*
G01X0033544Y-022777D01*
G37*
G36*
G01X0044148Y-022040D02*
G01X0044237Y-022058D01*
G01X0044320Y-022093D01*
G01X0044395Y-022144D01*
G01X0044458Y-022208D01*
G01X0044508Y-022283D01*
G01X0044542Y-022366D01*
G01X0044560Y-022455D01*
G01X0044560Y-022455D01*
G01X0044560Y-022455D01*
G01X0044559Y-022558D01*
G01X0044559Y-022558D01*
G01X0044559Y-022558D01*
G01X0044539Y-022646D01*
G01X0044502Y-022728D01*
G01X0044450Y-022802D01*
G01X0044385Y-022864D01*
G01X0044308Y-022913D01*
G01X0044224Y-022945D01*
G01X0044135Y-022961D01*
G01X0044045Y-022959D01*
G01X0043957Y-022940D01*
G01X0043874Y-022903D01*
G01X0043800Y-022852D01*
G01X0043738Y-022787D01*
G01X0043689Y-022711D01*
G01X0043656Y-022627D01*
G01X0043639Y-022539D01*
G01X0043641Y-022448D01*
G01X0043659Y-022360D01*
G01X0043695Y-022277D01*
G01X0043746Y-022203D01*
G01X0043810Y-022140D01*
G01X0043886Y-022090D01*
G01X0043969Y-022057D01*
G01X0044058Y-022040D01*
G01X0044148Y-022040D01*
G01X0044148Y-022040D01*
G37*
G36*
G01X0039232Y-022295D02*
G01X0039291Y-022307D01*
G01X0039346Y-022330D01*
G01X0039396Y-022363D01*
G01X0039438Y-022406D01*
G01X0039471Y-022456D01*
G01X0039494Y-022511D01*
G01X0039505Y-022566D01*
G01X0039506Y-022570D01*
G01X0039505Y-022638D01*
G01X0039505Y-022639D01*
G01X0039505Y-022639D01*
G01X0039491Y-022697D01*
G01X0039467Y-022752D01*
G01X0039432Y-022801D01*
G01X0039389Y-022842D01*
G01X0039338Y-022874D01*
G01X0039283Y-022896D01*
G01X0039224Y-022906D01*
G01X0039164Y-022905D01*
G01X0039105Y-022892D01*
G01X0039050Y-022868D01*
G01X0039001Y-022834D01*
G01X0038959Y-022791D01*
G01X0038927Y-022740D01*
G01X0038905Y-022685D01*
G01X0038894Y-022626D01*
G01X0038895Y-022566D01*
G01X0038907Y-022507D01*
G01X0038931Y-022452D01*
G01X0038965Y-022403D01*
G01X0039008Y-022361D01*
G01X0039058Y-022328D01*
G01X0039113Y-022305D01*
G01X0039172Y-022294D01*
G01X0039232Y-022295D01*
G01X0039232Y-022295D01*
G37*
G36*
G01X0025142Y-021377D02*
G01X0025142Y-021377D01*
G01X0025142Y-021377D01*
G01X0025180Y-021389D01*
G01X0025216Y-021408D01*
G01X0025247Y-021434D01*
G01X0025272Y-021465D01*
G01X0025291Y-021501D01*
G01X0025303Y-021540D01*
G01X0025307Y-021580D01*
G01X0025307Y-021820D01*
G01X0025307Y-021823D01*
G01X0025302Y-021863D01*
G01X0025290Y-021902D01*
G01X0025271Y-021937D01*
G01X0025245Y-021968D01*
G01X0025213Y-021993D01*
G01X0025178Y-022012D01*
G01X0025139Y-022023D01*
G01X0025139Y-022023D01*
G01X0025139Y-022023D01*
G01X0025099Y-022027D01*
G01X0025058Y-022023D01*
G01X0025058Y-022023D01*
G01X0025058Y-022023D01*
G01X0025020Y-022011D01*
G01X0024984Y-021992D01*
G01X0024953Y-021966D01*
G01X0024928Y-021935D01*
G01X0024909Y-021899D01*
G01X0024897Y-021860D01*
G01X0024893Y-021820D01*
G01X0024893Y-021580D01*
G01X0024893Y-021577D01*
G01X0024898Y-021537D01*
G01X0024910Y-021498D01*
G01X0024929Y-021463D01*
G01X0024955Y-021432D01*
G01X0024987Y-021407D01*
G01X0025022Y-021388D01*
G01X0025061Y-021377D01*
G01X0025061Y-021377D01*
G01X0025061Y-021377D01*
G01X0025101Y-021373D01*
G01X0025142Y-021377D01*
G01X0025142Y-021377D01*
G37*
G36*
G01X0025642Y-021377D02*
G01X0025642Y-021377D01*
G01X0025642Y-021377D01*
G01X0025680Y-021389D01*
G01X0025716Y-021408D01*
G01X0025747Y-021434D01*
G01X0025772Y-021465D01*
G01X0025791Y-021501D01*
G01X0025803Y-021540D01*
G01X0025807Y-021580D01*
G01X0025807Y-021820D01*
G01X0025807Y-021823D01*
G01X0025802Y-021863D01*
G01X0025790Y-021902D01*
G01X0025771Y-021937D01*
G01X0025745Y-021968D01*
G01X0025713Y-021993D01*
G01X0025678Y-022012D01*
G01X0025639Y-022023D01*
G01X0025639Y-022023D01*
G01X0025639Y-022023D01*
G01X0025599Y-022027D01*
G01X0025558Y-022023D01*
G01X0025558Y-022023D01*
G01X0025558Y-022023D01*
G01X0025520Y-022011D01*
G01X0025484Y-021992D01*
G01X0025453Y-021966D01*
G01X0025428Y-021935D01*
G01X0025409Y-021899D01*
G01X0025397Y-021860D01*
G01X0025393Y-021820D01*
G01X0025393Y-021580D01*
G01X0025393Y-021577D01*
G01X0025398Y-021537D01*
G01X0025410Y-021498D01*
G01X0025429Y-021463D01*
G01X0025455Y-021432D01*
G01X0025487Y-021407D01*
G01X0025522Y-021388D01*
G01X0025561Y-021377D01*
G01X0025561Y-021377D01*
G01X0025561Y-021377D01*
G01X0025601Y-021373D01*
G01X0025642Y-021377D01*
G01X0025642Y-021377D01*
G37*
G36*
G01X0024642Y-021377D02*
G01X0024642Y-021377D01*
G01X0024642Y-021377D01*
G01X0024680Y-021389D01*
G01X0024716Y-021408D01*
G01X0024747Y-021434D01*
G01X0024772Y-021465D01*
G01X0024791Y-021501D01*
G01X0024803Y-021540D01*
G01X0024807Y-021580D01*
G01X0024807Y-021820D01*
G01X0024807Y-021823D01*
G01X0024802Y-021863D01*
G01X0024790Y-021902D01*
G01X0024771Y-021937D01*
G01X0024745Y-021968D01*
G01X0024713Y-021993D01*
G01X0024678Y-022012D01*
G01X0024639Y-022023D01*
G01X0024639Y-022023D01*
G01X0024639Y-022023D01*
G01X0024599Y-022027D01*
G01X0024558Y-022023D01*
G01X0024558Y-022023D01*
G01X0024558Y-022023D01*
G01X0024520Y-022011D01*
G01X0024484Y-021992D01*
G01X0024453Y-021966D01*
G01X0024428Y-021935D01*
G01X0024409Y-021899D01*
G01X0024397Y-021860D01*
G01X0024393Y-021820D01*
G01X0024393Y-021580D01*
G01X0024393Y-021577D01*
G01X0024398Y-021537D01*
G01X0024410Y-021498D01*
G01X0024429Y-021463D01*
G01X0024455Y-021432D01*
G01X0024487Y-021407D01*
G01X0024522Y-021388D01*
G01X0024561Y-021377D01*
G01X0024561Y-021377D01*
G01X0024561Y-021377D01*
G01X0024601Y-021373D01*
G01X0024642Y-021377D01*
G01X0024642Y-021377D01*
G37*
G36*
G01X0036544Y-021077D02*
G01X0036626Y-021093D01*
G01X0036702Y-021126D01*
G01X0036771Y-021172D01*
G01X0036830Y-021231D01*
G01X0036876Y-021300D01*
G01X0036907Y-021377D01*
G01X0036923Y-021458D01*
G01X0036923Y-021458D01*
G01X0036924Y-021458D01*
G01X0036922Y-021553D01*
G01X0036922Y-021553D01*
G01X0036922Y-021553D01*
G01X0036904Y-021634D01*
G01X0036870Y-021710D01*
G01X0036822Y-021778D01*
G01X0036762Y-021835D01*
G01X0036692Y-021880D01*
G01X0036614Y-021910D01*
G01X0036533Y-021924D01*
G01X0036450Y-021923D01*
G01X0036368Y-021905D01*
G01X0036292Y-021871D01*
G01X0036224Y-021824D01*
G01X0036166Y-021764D01*
G01X0036122Y-021695D01*
G01X0036091Y-021617D01*
G01X0036076Y-021536D01*
G01X0036077Y-021453D01*
G01X0036094Y-021371D01*
G01X0036127Y-021295D01*
G01X0036174Y-021226D01*
G01X0036233Y-021168D01*
G01X0036303Y-021123D01*
G01X0036380Y-021092D01*
G01X0036461Y-021076D01*
G01X0036544Y-021077D01*
G01X0036544Y-021077D01*
G37*
G36*
G01X0033544Y-021077D02*
G01X0033626Y-021093D01*
G01X0033702Y-021126D01*
G01X0033771Y-021172D01*
G01X0033830Y-021231D01*
G01X0033876Y-021300D01*
G01X0033907Y-021377D01*
G01X0033923Y-021458D01*
G01X0033923Y-021458D01*
G01X0033924Y-021458D01*
G01X0033922Y-021553D01*
G01X0033922Y-021553D01*
G01X0033922Y-021553D01*
G01X0033904Y-021634D01*
G01X0033870Y-021710D01*
G01X0033822Y-021778D01*
G01X0033762Y-021835D01*
G01X0033692Y-021880D01*
G01X0033614Y-021910D01*
G01X0033533Y-021924D01*
G01X0033450Y-021923D01*
G01X0033368Y-021905D01*
G01X0033292Y-021871D01*
G01X0033224Y-021824D01*
G01X0033166Y-021764D01*
G01X0033122Y-021695D01*
G01X0033091Y-021617D01*
G01X0033076Y-021536D01*
G01X0033077Y-021453D01*
G01X0033094Y-021371D01*
G01X0033127Y-021295D01*
G01X0033174Y-021226D01*
G01X0033233Y-021168D01*
G01X0033303Y-021123D01*
G01X0033380Y-021092D01*
G01X0033461Y-021076D01*
G01X0033544Y-021077D01*
G01X0033544Y-021077D01*
G37*
G36*
G01X0028044Y-020277D02*
G01X0028126Y-020293D01*
G01X0028202Y-020326D01*
G01X0028271Y-020372D01*
G01X0028330Y-020431D01*
G01X0028376Y-020500D01*
G01X0028407Y-020577D01*
G01X0028423Y-020658D01*
G01X0028423Y-020658D01*
G01X0028424Y-020658D01*
G01X0028422Y-020753D01*
G01X0028422Y-020753D01*
G01X0028422Y-020753D01*
G01X0028404Y-020834D01*
G01X0028370Y-020910D01*
G01X0028322Y-020978D01*
G01X0028262Y-021035D01*
G01X0028192Y-021080D01*
G01X0028114Y-021110D01*
G01X0028033Y-021124D01*
G01X0027950Y-021123D01*
G01X0027868Y-021105D01*
G01X0027792Y-021071D01*
G01X0027724Y-021024D01*
G01X0027666Y-020964D01*
G01X0027622Y-020895D01*
G01X0027591Y-020817D01*
G01X0027576Y-020736D01*
G01X0027577Y-020653D01*
G01X0027594Y-020571D01*
G01X0027627Y-020495D01*
G01X0027674Y-020426D01*
G01X0027733Y-020368D01*
G01X0027803Y-020323D01*
G01X0027880Y-020292D01*
G01X0027961Y-020276D01*
G01X0028044Y-020277D01*
G01X0028044Y-020277D01*
G37*
G36*
G01X0031044Y-020277D02*
G01X0031126Y-020293D01*
G01X0031202Y-020326D01*
G01X0031271Y-020372D01*
G01X0031330Y-020431D01*
G01X0031376Y-020500D01*
G01X0031407Y-020577D01*
G01X0031423Y-020658D01*
G01X0031423Y-020658D01*
G01X0031424Y-020658D01*
G01X0031422Y-020753D01*
G01X0031422Y-020753D01*
G01X0031422Y-020753D01*
G01X0031404Y-020834D01*
G01X0031370Y-020910D01*
G01X0031322Y-020978D01*
G01X0031262Y-021035D01*
G01X0031192Y-021080D01*
G01X0031114Y-021110D01*
G01X0031033Y-021124D01*
G01X0030950Y-021123D01*
G01X0030868Y-021105D01*
G01X0030792Y-021071D01*
G01X0030724Y-021024D01*
G01X0030666Y-020964D01*
G01X0030622Y-020895D01*
G01X0030591Y-020817D01*
G01X0030576Y-020736D01*
G01X0030577Y-020653D01*
G01X0030594Y-020571D01*
G01X0030627Y-020495D01*
G01X0030674Y-020426D01*
G01X0030733Y-020368D01*
G01X0030803Y-020323D01*
G01X0030880Y-020292D01*
G01X0030961Y-020276D01*
G01X0031044Y-020277D01*
G01X0031044Y-020277D01*
G37*
G36*
G01X0042405Y-019496D02*
G01X0042405Y-019496D01*
G01X0042406Y-019496D01*
G01X0042545Y-019512D01*
G01X0042679Y-019554D01*
G01X0042802Y-019622D01*
G01X0042910Y-019712D01*
G01X0042997Y-019821D01*
G01X0043062Y-019946D01*
G01X0043102Y-020080D01*
G01X0043102Y-020080D01*
G01X0043102Y-020080D01*
G01X0043115Y-020220D01*
G01X0043100Y-020360D01*
G01X0043100Y-020360D01*
G01X0043100Y-020360D01*
G01X0043059Y-020494D01*
G01X0042992Y-020617D01*
G01X0042902Y-020725D01*
G01X0042794Y-020814D01*
G01X0042670Y-020880D01*
G01X0042535Y-020920D01*
G01X0042396Y-020934D01*
G01X0041004Y-020934D01*
G01X0040995Y-020934D01*
G01X0040995Y-020934D01*
G01X0040994Y-020934D01*
G01X0040855Y-020918D01*
G01X0040721Y-020876D01*
G01X0040598Y-020808D01*
G01X0040490Y-020718D01*
G01X0040403Y-020609D01*
G01X0040338Y-020484D01*
G01X0040298Y-020350D01*
G01X0040298Y-020350D01*
G01X0040298Y-020350D01*
G01X0040285Y-020210D01*
G01X0040300Y-020070D01*
G01X0040300Y-020070D01*
G01X0040300Y-020070D01*
G01X0040341Y-019936D01*
G01X0040408Y-019813D01*
G01X0040498Y-019705D01*
G01X0040606Y-019616D01*
G01X0040730Y-019550D01*
G01X0040865Y-019510D01*
G01X0041004Y-019496D01*
G01X0042396Y-019496D01*
G01X0042405Y-019496D01*
G01X0042405Y-019496D01*
G37*
G36*
G01X0032444Y-019277D02*
G01X0032526Y-019293D01*
G01X0032602Y-019326D01*
G01X0032671Y-019372D01*
G01X0032730Y-019431D01*
G01X0032776Y-019500D01*
G01X0032807Y-019577D01*
G01X0032823Y-019658D01*
G01X0032823Y-019658D01*
G01X0032824Y-019658D01*
G01X0032822Y-019753D01*
G01X0032822Y-019753D01*
G01X0032822Y-019753D01*
G01X0032804Y-019834D01*
G01X0032770Y-019910D01*
G01X0032722Y-019978D01*
G01X0032662Y-020035D01*
G01X0032592Y-020080D01*
G01X0032514Y-020110D01*
G01X0032433Y-020124D01*
G01X0032350Y-020123D01*
G01X0032268Y-020105D01*
G01X0032192Y-020071D01*
G01X0032124Y-020024D01*
G01X0032066Y-019964D01*
G01X0032022Y-019895D01*
G01X0031991Y-019817D01*
G01X0031976Y-019736D01*
G01X0031977Y-019653D01*
G01X0031994Y-019571D01*
G01X0032027Y-019495D01*
G01X0032074Y-019426D01*
G01X0032133Y-019368D01*
G01X0032203Y-019323D01*
G01X0032280Y-019292D01*
G01X0032361Y-019276D01*
G01X0032444Y-019277D01*
G01X0032444Y-019277D01*
G37*
G36*
G01X0035444Y-019277D02*
G01X0035526Y-019293D01*
G01X0035602Y-019326D01*
G01X0035671Y-019372D01*
G01X0035730Y-019431D01*
G01X0035776Y-019500D01*
G01X0035807Y-019577D01*
G01X0035823Y-019658D01*
G01X0035823Y-019658D01*
G01X0035824Y-019658D01*
G01X0035822Y-019753D01*
G01X0035822Y-019753D01*
G01X0035822Y-019753D01*
G01X0035804Y-019834D01*
G01X0035770Y-019910D01*
G01X0035722Y-019978D01*
G01X0035662Y-020035D01*
G01X0035592Y-020080D01*
G01X0035514Y-020110D01*
G01X0035433Y-020124D01*
G01X0035350Y-020123D01*
G01X0035268Y-020105D01*
G01X0035192Y-020071D01*
G01X0035124Y-020024D01*
G01X0035066Y-019964D01*
G01X0035022Y-019895D01*
G01X0034991Y-019817D01*
G01X0034976Y-019736D01*
G01X0034977Y-019653D01*
G01X0034994Y-019571D01*
G01X0035027Y-019495D01*
G01X0035074Y-019426D01*
G01X0035133Y-019368D01*
G01X0035203Y-019323D01*
G01X0035280Y-019292D01*
G01X0035361Y-019276D01*
G01X0035444Y-019277D01*
G01X0035444Y-019277D01*
G37*
G36*
G01X0028044Y-018677D02*
G01X0028126Y-018693D01*
G01X0028202Y-018726D01*
G01X0028271Y-018772D01*
G01X0028330Y-018831D01*
G01X0028376Y-018900D01*
G01X0028407Y-018977D01*
G01X0028423Y-019058D01*
G01X0028423Y-019058D01*
G01X0028424Y-019058D01*
G01X0028422Y-019153D01*
G01X0028422Y-019153D01*
G01X0028422Y-019153D01*
G01X0028404Y-019234D01*
G01X0028370Y-019310D01*
G01X0028322Y-019378D01*
G01X0028262Y-019435D01*
G01X0028192Y-019480D01*
G01X0028114Y-019510D01*
G01X0028033Y-019524D01*
G01X0027950Y-019523D01*
G01X0027868Y-019505D01*
G01X0027792Y-019471D01*
G01X0027724Y-019424D01*
G01X0027666Y-019364D01*
G01X0027622Y-019295D01*
G01X0027591Y-019217D01*
G01X0027576Y-019136D01*
G01X0027577Y-019053D01*
G01X0027594Y-018971D01*
G01X0027627Y-018895D01*
G01X0027674Y-018826D01*
G01X0027733Y-018768D01*
G01X0027803Y-018723D01*
G01X0027880Y-018692D01*
G01X0027961Y-018676D01*
G01X0028044Y-018677D01*
G01X0028044Y-018677D01*
G37*
G36*
G01X0031044Y-018677D02*
G01X0031126Y-018693D01*
G01X0031202Y-018726D01*
G01X0031271Y-018772D01*
G01X0031330Y-018831D01*
G01X0031376Y-018900D01*
G01X0031407Y-018977D01*
G01X0031423Y-019058D01*
G01X0031423Y-019058D01*
G01X0031424Y-019058D01*
G01X0031422Y-019153D01*
G01X0031422Y-019153D01*
G01X0031422Y-019153D01*
G01X0031404Y-019234D01*
G01X0031370Y-019310D01*
G01X0031322Y-019378D01*
G01X0031262Y-019435D01*
G01X0031192Y-019480D01*
G01X0031114Y-019510D01*
G01X0031033Y-019524D01*
G01X0030950Y-019523D01*
G01X0030868Y-019505D01*
G01X0030792Y-019471D01*
G01X0030724Y-019424D01*
G01X0030666Y-019364D01*
G01X0030622Y-019295D01*
G01X0030591Y-019217D01*
G01X0030576Y-019136D01*
G01X0030577Y-019053D01*
G01X0030594Y-018971D01*
G01X0030627Y-018895D01*
G01X0030674Y-018826D01*
G01X0030733Y-018768D01*
G01X0030803Y-018723D01*
G01X0030880Y-018692D01*
G01X0030961Y-018676D01*
G01X0031044Y-018677D01*
G01X0031044Y-018677D01*
G37*
G36*
G01X0024232Y-018695D02*
G01X0024291Y-018707D01*
G01X0024346Y-018730D01*
G01X0024396Y-018763D01*
G01X0024438Y-018806D01*
G01X0024471Y-018856D01*
G01X0024494Y-018911D01*
G01X0024505Y-018966D01*
G01X0024506Y-018970D01*
G01X0024505Y-019038D01*
G01X0024505Y-019039D01*
G01X0024505Y-019039D01*
G01X0024491Y-019097D01*
G01X0024467Y-019152D01*
G01X0024432Y-019201D01*
G01X0024389Y-019242D01*
G01X0024338Y-019274D01*
G01X0024283Y-019296D01*
G01X0024224Y-019306D01*
G01X0024164Y-019305D01*
G01X0024105Y-019292D01*
G01X0024050Y-019268D01*
G01X0024001Y-019234D01*
G01X0023959Y-019191D01*
G01X0023927Y-019140D01*
G01X0023905Y-019085D01*
G01X0023894Y-019026D01*
G01X0023895Y-018966D01*
G01X0023907Y-018907D01*
G01X0023931Y-018852D01*
G01X0023965Y-018803D01*
G01X0024008Y-018761D01*
G01X0024058Y-018728D01*
G01X0024113Y-018705D01*
G01X0024172Y-018694D01*
G01X0024232Y-018695D01*
G01X0024232Y-018695D01*
G37*
G36*
G01X0026474Y-019306D02*
G01X0025863Y-019306D01*
G01X0025863Y-018694D01*
G01X0026474Y-018694D01*
G01X0026474Y-019306D01*
G01X0026474Y-019306D01*
G37*
G36*
G01X0037086Y-018377D02*
G01X0037086Y-018377D01*
G01X0037086Y-018377D01*
G01X0037167Y-018402D01*
G01X0037240Y-018441D01*
G01X0037305Y-018495D01*
G01X0037358Y-018560D01*
G01X0037398Y-018634D01*
G01X0037422Y-018714D01*
G01X0037430Y-018798D01*
G01X0037430Y-018802D01*
G01X0037430Y-018804D01*
G01X0037430Y-018808D01*
G01X0037421Y-018891D01*
G01X0037395Y-018971D01*
G01X0037355Y-019045D01*
G01X0037301Y-019109D01*
G01X0037235Y-019162D01*
G01X0037161Y-019201D01*
G01X0037081Y-019224D01*
G01X0037081Y-019224D01*
G01X0037081Y-019224D01*
G01X0036997Y-019232D01*
G01X0036914Y-019223D01*
G01X0036914Y-019223D01*
G01X0036914Y-019223D01*
G01X0036833Y-019198D01*
G01X0036760Y-019159D01*
G01X0036695Y-019105D01*
G01X0036642Y-019040D01*
G01X0036602Y-018966D01*
G01X0036578Y-018886D01*
G01X0036570Y-018802D01*
G01X0036570Y-018798D01*
G01X0036570Y-018792D01*
G01X0036579Y-018709D01*
G01X0036605Y-018629D01*
G01X0036645Y-018555D01*
G01X0036699Y-018491D01*
G01X0036765Y-018438D01*
G01X0036839Y-018399D01*
G01X0036919Y-018376D01*
G01X0036919Y-018376D01*
G01X0036919Y-018376D01*
G01X0037003Y-018368D01*
G01X0037086Y-018377D01*
G01X0037086Y-018377D01*
G37*
G36*
G01X0038430Y-019230D02*
G01X0037570Y-019230D01*
G01X0037570Y-018370D01*
G01X0038430Y-018370D01*
G01X0038430Y-019230D01*
G01X0038430Y-019230D01*
G37*
G36*
G01X0040202Y-017862D02*
G01X0040205Y-017862D01*
G01X0040272Y-017870D01*
G01X0040336Y-017890D01*
G01X0040395Y-017922D01*
G01X0040447Y-017966D01*
G01X0040489Y-018018D01*
G01X0040520Y-018078D01*
G01X0040539Y-018142D01*
G01X0040539Y-018142D01*
G01X0040539Y-018142D01*
G01X0040546Y-018209D01*
G01X0040538Y-018276D01*
G01X0040538Y-018276D01*
G01X0040538Y-018276D01*
G01X0040519Y-018341D01*
G01X0040487Y-018400D01*
G01X0040444Y-018452D01*
G01X0040391Y-018494D01*
G01X0040332Y-018526D01*
G01X0040268Y-018545D01*
G01X0040201Y-018552D01*
G01X0039841Y-018552D01*
G01X0039840Y-018552D01*
G01X0039837Y-018552D01*
G01X0039770Y-018544D01*
G01X0039706Y-018524D01*
G01X0039647Y-018492D01*
G01X0039595Y-018448D01*
G01X0039553Y-018396D01*
G01X0039522Y-018336D01*
G01X0039503Y-018272D01*
G01X0039503Y-018272D01*
G01X0039503Y-018272D01*
G01X0039496Y-018205D01*
G01X0039504Y-018138D01*
G01X0039504Y-018138D01*
G01X0039504Y-018138D01*
G01X0039523Y-018073D01*
G01X0039555Y-018014D01*
G01X0039598Y-017962D01*
G01X0039651Y-017920D01*
G01X0039710Y-017888D01*
G01X0039774Y-017869D01*
G01X0039841Y-017862D01*
G01X0040201Y-017862D01*
G01X0040202Y-017862D01*
G01X0040202Y-017862D01*
G37*
G36*
G01X0033060Y-017331D02*
G01X0033169Y-017353D01*
G01X0033272Y-017397D01*
G01X0033365Y-017459D01*
G01X0033443Y-017538D01*
G01X0033505Y-017631D01*
G01X0033548Y-017735D01*
G01X0033569Y-017844D01*
G01X0033569Y-017844D01*
G01X0033569Y-017844D01*
G01X0033568Y-017972D01*
G01X0033568Y-017972D01*
G01X0033568Y-017972D01*
G01X0033543Y-018081D01*
G01X0033497Y-018183D01*
G01X0033433Y-018274D01*
G01X0033352Y-018351D01*
G01X0033258Y-018411D01*
G01X0033154Y-018451D01*
G01X0033044Y-018470D01*
G01X0032932Y-018468D01*
G01X0032823Y-018444D01*
G01X0032721Y-018399D01*
G01X0032629Y-018336D01*
G01X0032552Y-018255D01*
G01X0032491Y-018162D01*
G01X0032450Y-018058D01*
G01X0032430Y-017948D01*
G01X0032431Y-017836D01*
G01X0032455Y-017727D01*
G01X0032499Y-017624D01*
G01X0032562Y-017532D01*
G01X0032642Y-017454D01*
G01X0032735Y-017393D01*
G01X0032838Y-017351D01*
G01X0032948Y-017330D01*
G01X0033060Y-017331D01*
G01X0033060Y-017331D01*
G37*
G36*
G01X0035060Y-017331D02*
G01X0035169Y-017353D01*
G01X0035272Y-017397D01*
G01X0035365Y-017459D01*
G01X0035443Y-017538D01*
G01X0035505Y-017631D01*
G01X0035548Y-017735D01*
G01X0035569Y-017844D01*
G01X0035569Y-017844D01*
G01X0035569Y-017844D01*
G01X0035568Y-017972D01*
G01X0035568Y-017972D01*
G01X0035568Y-017972D01*
G01X0035543Y-018081D01*
G01X0035497Y-018183D01*
G01X0035433Y-018274D01*
G01X0035352Y-018351D01*
G01X0035258Y-018411D01*
G01X0035154Y-018451D01*
G01X0035044Y-018470D01*
G01X0034932Y-018468D01*
G01X0034823Y-018444D01*
G01X0034721Y-018399D01*
G01X0034629Y-018336D01*
G01X0034552Y-018255D01*
G01X0034491Y-018162D01*
G01X0034450Y-018058D01*
G01X0034430Y-017948D01*
G01X0034431Y-017836D01*
G01X0034455Y-017727D01*
G01X0034499Y-017624D01*
G01X0034562Y-017532D01*
G01X0034642Y-017454D01*
G01X0034735Y-017393D01*
G01X0034838Y-017351D01*
G01X0034948Y-017330D01*
G01X0035060Y-017331D01*
G01X0035060Y-017331D01*
G37*
G36*
G01X0028044Y-017177D02*
G01X0028126Y-017193D01*
G01X0028202Y-017226D01*
G01X0028271Y-017272D01*
G01X0028330Y-017331D01*
G01X0028376Y-017400D01*
G01X0028407Y-017477D01*
G01X0028423Y-017558D01*
G01X0028423Y-017558D01*
G01X0028424Y-017558D01*
G01X0028422Y-017653D01*
G01X0028422Y-017653D01*
G01X0028422Y-017653D01*
G01X0028404Y-017734D01*
G01X0028370Y-017810D01*
G01X0028322Y-017878D01*
G01X0028262Y-017935D01*
G01X0028192Y-017980D01*
G01X0028114Y-018010D01*
G01X0028033Y-018024D01*
G01X0027950Y-018023D01*
G01X0027868Y-018005D01*
G01X0027792Y-017971D01*
G01X0027724Y-017924D01*
G01X0027666Y-017864D01*
G01X0027622Y-017795D01*
G01X0027591Y-017717D01*
G01X0027576Y-017636D01*
G01X0027577Y-017553D01*
G01X0027594Y-017471D01*
G01X0027627Y-017395D01*
G01X0027674Y-017326D01*
G01X0027733Y-017268D01*
G01X0027803Y-017223D01*
G01X0027880Y-017192D01*
G01X0027961Y-017176D01*
G01X0028044Y-017177D01*
G01X0028044Y-017177D01*
G37*
G36*
G01X0031044Y-017177D02*
G01X0031126Y-017193D01*
G01X0031202Y-017226D01*
G01X0031271Y-017272D01*
G01X0031330Y-017331D01*
G01X0031376Y-017400D01*
G01X0031407Y-017477D01*
G01X0031423Y-017558D01*
G01X0031423Y-017558D01*
G01X0031424Y-017558D01*
G01X0031422Y-017653D01*
G01X0031422Y-017653D01*
G01X0031422Y-017653D01*
G01X0031404Y-017734D01*
G01X0031370Y-017810D01*
G01X0031322Y-017878D01*
G01X0031262Y-017935D01*
G01X0031192Y-017980D01*
G01X0031114Y-018010D01*
G01X0031033Y-018024D01*
G01X0030950Y-018023D01*
G01X0030868Y-018005D01*
G01X0030792Y-017971D01*
G01X0030724Y-017924D01*
G01X0030666Y-017864D01*
G01X0030622Y-017795D01*
G01X0030591Y-017717D01*
G01X0030576Y-017636D01*
G01X0030577Y-017553D01*
G01X0030594Y-017471D01*
G01X0030627Y-017395D01*
G01X0030674Y-017326D01*
G01X0030733Y-017268D01*
G01X0030803Y-017223D01*
G01X0030880Y-017192D01*
G01X0030961Y-017176D01*
G01X0031044Y-017177D01*
G01X0031044Y-017177D01*
G37*
G36*
G01X0040202Y-016878D02*
G01X0040205Y-016878D01*
G01X0040272Y-016886D01*
G01X0040336Y-016906D01*
G01X0040395Y-016938D01*
G01X0040447Y-016982D01*
G01X0040489Y-017034D01*
G01X0040520Y-017094D01*
G01X0040539Y-017158D01*
G01X0040539Y-017158D01*
G01X0040539Y-017158D01*
G01X0040546Y-017225D01*
G01X0040538Y-017292D01*
G01X0040538Y-017292D01*
G01X0040538Y-017292D01*
G01X0040519Y-017357D01*
G01X0040487Y-017416D01*
G01X0040444Y-017468D01*
G01X0040391Y-017510D01*
G01X0040332Y-017542D01*
G01X0040268Y-017561D01*
G01X0040201Y-017568D01*
G01X0039841Y-017568D01*
G01X0039840Y-017568D01*
G01X0039837Y-017568D01*
G01X0039770Y-017560D01*
G01X0039706Y-017540D01*
G01X0039647Y-017508D01*
G01X0039595Y-017464D01*
G01X0039553Y-017412D01*
G01X0039522Y-017352D01*
G01X0039503Y-017288D01*
G01X0039503Y-017288D01*
G01X0039503Y-017288D01*
G01X0039496Y-017221D01*
G01X0039504Y-017154D01*
G01X0039504Y-017154D01*
G01X0039504Y-017154D01*
G01X0039523Y-017089D01*
G01X0039555Y-017030D01*
G01X0039598Y-016978D01*
G01X0039651Y-016936D01*
G01X0039710Y-016904D01*
G01X0039774Y-016885D01*
G01X0039841Y-016878D01*
G01X0040201Y-016878D01*
G01X0040202Y-016878D01*
G01X0040202Y-016878D01*
G37*
G36*
G01X0037607Y-015486D02*
G01X0037801Y-015526D01*
G01X0037985Y-015603D01*
G01X0038150Y-015715D01*
G01X0038290Y-015856D01*
G01X0038400Y-016022D01*
G01X0038476Y-016205D01*
G01X0038514Y-016400D01*
G01X0038514Y-016400D01*
G01X0038514Y-016401D01*
G01X0038511Y-016628D01*
G01X0038511Y-016628D01*
G01X0038511Y-016628D01*
G01X0038467Y-016822D01*
G01X0038386Y-017003D01*
G01X0038271Y-017166D01*
G01X0038127Y-017303D01*
G01X0037960Y-017410D01*
G01X0037774Y-017482D01*
G01X0037578Y-017516D01*
G01X0037379Y-017512D01*
G01X0037185Y-017469D01*
G01X0037003Y-017390D01*
G01X0036839Y-017276D01*
G01X0036701Y-017133D01*
G01X0036594Y-016966D01*
G01X0036520Y-016781D01*
G01X0036484Y-016585D01*
G01X0036487Y-016386D01*
G01X0036529Y-016192D01*
G01X0036607Y-016009D01*
G01X0036719Y-015845D01*
G01X0036861Y-015706D01*
G01X0037028Y-015597D01*
G01X0037212Y-015522D01*
G01X0037408Y-015485D01*
G01X0037607Y-015486D01*
G01X0037607Y-015486D01*
G37*
G36*
G01X0025107Y-015486D02*
G01X0025301Y-015526D01*
G01X0025485Y-015603D01*
G01X0025650Y-015715D01*
G01X0025790Y-015856D01*
G01X0025900Y-016022D01*
G01X0025976Y-016205D01*
G01X0026014Y-016400D01*
G01X0026014Y-016400D01*
G01X0026014Y-016401D01*
G01X0026011Y-016628D01*
G01X0026011Y-016628D01*
G01X0026011Y-016628D01*
G01X0025967Y-016822D01*
G01X0025886Y-017003D01*
G01X0025771Y-017166D01*
G01X0025627Y-017303D01*
G01X0025460Y-017410D01*
G01X0025274Y-017482D01*
G01X0025078Y-017516D01*
G01X0024879Y-017512D01*
G01X0024685Y-017469D01*
G01X0024503Y-017390D01*
G01X0024339Y-017276D01*
G01X0024201Y-017133D01*
G01X0024094Y-016966D01*
G01X0024020Y-016781D01*
G01X0023984Y-016585D01*
G01X0023987Y-016386D01*
G01X0024029Y-016192D01*
G01X0024107Y-016009D01*
G01X0024219Y-015845D01*
G01X0024361Y-015706D01*
G01X0024528Y-015597D01*
G01X0024712Y-015522D01*
G01X0024908Y-015485D01*
G01X0025107Y-015486D01*
G01X0025107Y-015486D01*
G37*
G36*
G01X0034049Y-016429D02*
G01X0034140Y-016448D01*
G01X0034225Y-016484D01*
G01X0034302Y-016535D01*
G01X0034367Y-016601D01*
G01X0034418Y-016678D01*
G01X0034453Y-016763D01*
G01X0034471Y-016854D01*
G01X0034471Y-016854D01*
G01X0034471Y-016854D01*
G01X0034469Y-016959D01*
G01X0034469Y-016959D01*
G01X0034469Y-016959D01*
G01X0034449Y-017049D01*
G01X0034411Y-017134D01*
G01X0034358Y-017209D01*
G01X0034291Y-017273D01*
G01X0034213Y-017322D01*
G01X0034127Y-017356D01*
G01X0034036Y-017372D01*
G01X0033944Y-017370D01*
G01X0033854Y-017350D01*
G01X0033769Y-017313D01*
G01X0033693Y-017260D01*
G01X0033629Y-017194D01*
G01X0033579Y-017116D01*
G01X0033545Y-017030D01*
G01X0033528Y-016940D01*
G01X0033530Y-016847D01*
G01X0033549Y-016757D01*
G01X0033585Y-016672D01*
G01X0033637Y-016596D01*
G01X0033703Y-016531D01*
G01X0033781Y-016481D01*
G01X0033866Y-016446D01*
G01X0033957Y-016429D01*
G01X0034049Y-016429D01*
G01X0034049Y-016429D01*
G37*
G36*
G01X0042405Y-015481D02*
G01X0042405Y-015481D01*
G01X0042406Y-015481D01*
G01X0042545Y-015497D01*
G01X0042679Y-015539D01*
G01X0042802Y-015607D01*
G01X0042910Y-015697D01*
G01X0042997Y-015806D01*
G01X0043062Y-015931D01*
G01X0043102Y-016065D01*
G01X0043102Y-016065D01*
G01X0043102Y-016065D01*
G01X0043115Y-016205D01*
G01X0043100Y-016345D01*
G01X0043100Y-016345D01*
G01X0043100Y-016345D01*
G01X0043059Y-016479D01*
G01X0042992Y-016602D01*
G01X0042902Y-016710D01*
G01X0042794Y-016799D01*
G01X0042670Y-016865D01*
G01X0042535Y-016905D01*
G01X0042396Y-016919D01*
G01X0041004Y-016919D01*
G01X0040995Y-016919D01*
G01X0040995Y-016919D01*
G01X0040994Y-016919D01*
G01X0040855Y-016903D01*
G01X0040721Y-016861D01*
G01X0040598Y-016793D01*
G01X0040490Y-016703D01*
G01X0040403Y-016594D01*
G01X0040338Y-016469D01*
G01X0040298Y-016335D01*
G01X0040298Y-016335D01*
G01X0040298Y-016335D01*
G01X0040285Y-016195D01*
G01X0040300Y-016055D01*
G01X0040300Y-016055D01*
G01X0040300Y-016055D01*
G01X0040341Y-015921D01*
G01X0040408Y-015798D01*
G01X0040498Y-015690D01*
G01X0040606Y-015601D01*
G01X0040730Y-015535D01*
G01X0040865Y-015495D01*
G01X0041004Y-015481D01*
G01X0042396Y-015481D01*
G01X0042405Y-015481D01*
G01X0042405Y-015481D01*
G37*
G36*
G01X0028044Y-015677D02*
G01X0028126Y-015693D01*
G01X0028202Y-015726D01*
G01X0028271Y-015772D01*
G01X0028330Y-015831D01*
G01X0028376Y-015900D01*
G01X0028407Y-015977D01*
G01X0028423Y-016058D01*
G01X0028423Y-016058D01*
G01X0028424Y-016058D01*
G01X0028422Y-016153D01*
G01X0028422Y-016153D01*
G01X0028422Y-016153D01*
G01X0028404Y-016234D01*
G01X0028370Y-016310D01*
G01X0028322Y-016378D01*
G01X0028262Y-016435D01*
G01X0028192Y-016480D01*
G01X0028114Y-016510D01*
G01X0028033Y-016524D01*
G01X0027950Y-016523D01*
G01X0027868Y-016505D01*
G01X0027792Y-016471D01*
G01X0027724Y-016424D01*
G01X0027666Y-016364D01*
G01X0027622Y-016295D01*
G01X0027591Y-016217D01*
G01X0027576Y-016136D01*
G01X0027577Y-016053D01*
G01X0027594Y-015971D01*
G01X0027627Y-015895D01*
G01X0027674Y-015826D01*
G01X0027733Y-015768D01*
G01X0027803Y-015723D01*
G01X0027880Y-015692D01*
G01X0027961Y-015676D01*
G01X0028044Y-015677D01*
G01X0028044Y-015677D01*
G37*
G36*
G01X0031044Y-015677D02*
G01X0031126Y-015693D01*
G01X0031202Y-015726D01*
G01X0031271Y-015772D01*
G01X0031330Y-015831D01*
G01X0031376Y-015900D01*
G01X0031407Y-015977D01*
G01X0031423Y-016058D01*
G01X0031423Y-016058D01*
G01X0031424Y-016058D01*
G01X0031422Y-016153D01*
G01X0031422Y-016153D01*
G01X0031422Y-016153D01*
G01X0031404Y-016234D01*
G01X0031370Y-016310D01*
G01X0031322Y-016378D01*
G01X0031262Y-016435D01*
G01X0031192Y-016480D01*
G01X0031114Y-016510D01*
G01X0031033Y-016524D01*
G01X0030950Y-016523D01*
G01X0030868Y-016505D01*
G01X0030792Y-016471D01*
G01X0030724Y-016424D01*
G01X0030666Y-016364D01*
G01X0030622Y-016295D01*
G01X0030591Y-016217D01*
G01X0030576Y-016136D01*
G01X0030577Y-016053D01*
G01X0030594Y-015971D01*
G01X0030627Y-015895D01*
G01X0030674Y-015826D01*
G01X0030733Y-015768D01*
G01X0030803Y-015723D01*
G01X0030880Y-015692D01*
G01X0030961Y-015676D01*
G01X0031044Y-015677D01*
G01X0031044Y-015677D01*
G37*
G36*
G01X0033060Y-015331D02*
G01X0033169Y-015353D01*
G01X0033272Y-015397D01*
G01X0033365Y-015459D01*
G01X0033443Y-015538D01*
G01X0033505Y-015631D01*
G01X0033548Y-015735D01*
G01X0033569Y-015844D01*
G01X0033569Y-015844D01*
G01X0033569Y-015844D01*
G01X0033568Y-015972D01*
G01X0033568Y-015972D01*
G01X0033568Y-015972D01*
G01X0033543Y-016081D01*
G01X0033497Y-016183D01*
G01X0033433Y-016274D01*
G01X0033352Y-016351D01*
G01X0033258Y-016411D01*
G01X0033154Y-016451D01*
G01X0033044Y-016470D01*
G01X0032932Y-016468D01*
G01X0032823Y-016444D01*
G01X0032721Y-016399D01*
G01X0032629Y-016336D01*
G01X0032552Y-016255D01*
G01X0032491Y-016162D01*
G01X0032450Y-016058D01*
G01X0032430Y-015948D01*
G01X0032431Y-015836D01*
G01X0032455Y-015727D01*
G01X0032499Y-015624D01*
G01X0032562Y-015532D01*
G01X0032642Y-015454D01*
G01X0032735Y-015393D01*
G01X0032838Y-015351D01*
G01X0032948Y-015330D01*
G01X0033060Y-015331D01*
G01X0033060Y-015331D01*
G37*
G36*
G01X0035060Y-015331D02*
G01X0035169Y-015353D01*
G01X0035272Y-015397D01*
G01X0035365Y-015459D01*
G01X0035443Y-015538D01*
G01X0035505Y-015631D01*
G01X0035548Y-015735D01*
G01X0035569Y-015844D01*
G01X0035569Y-015844D01*
G01X0035569Y-015844D01*
G01X0035568Y-015972D01*
G01X0035568Y-015972D01*
G01X0035568Y-015972D01*
G01X0035543Y-016081D01*
G01X0035497Y-016183D01*
G01X0035433Y-016274D01*
G01X0035352Y-016351D01*
G01X0035258Y-016411D01*
G01X0035154Y-016451D01*
G01X0035044Y-016470D01*
G01X0034932Y-016468D01*
G01X0034823Y-016444D01*
G01X0034721Y-016399D01*
G01X0034629Y-016336D01*
G01X0034552Y-016255D01*
G01X0034491Y-016162D01*
G01X0034450Y-016058D01*
G01X0034430Y-015948D01*
G01X0034431Y-015836D01*
G01X0034455Y-015727D01*
G01X0034499Y-015624D01*
G01X0034562Y-015532D01*
G01X0034642Y-015454D01*
G01X0034735Y-015393D01*
G01X0034838Y-015351D01*
G01X0034948Y-015330D01*
G01X0035060Y-015331D01*
G01X0035060Y-015331D01*
G37*
M02*
