G04 This is an RS-274x file exported by *
G04 gerbv version 2.6.0 *
G04 More information is available about gerbv at *
G04 http://gerbv.gpleda.org/ *
G04 --End of header info--*
%MOIN*%
%FSLAX34Y34*%
%IPPOS*%
G04 --Define apertures--*
%ADD10C,0.0138*%
%ADD11C,0.0060*%
%ADD12C,0.0016*%
%ADD13C,0.0020*%
%ADD14C,0.0020*%
%ADD15C,0.0100*%
%ADD16C,0.0059*%
%ADD17C,0.0050*%
G04 --Start main section--*
G54D11*
G01X0038010Y-014314D02*
G01X0038105Y-014581D01*
G01X0038105Y-014581D02*
G01X0038200Y-014314D01*
G01X0038562Y-014581D02*
G01X0038333Y-014581D01*
G01X0038448Y-014581D02*
G01X0038448Y-014181D01*
G01X0038448Y-014181D02*
G01X0038410Y-014238D01*
G01X0038410Y-014238D02*
G01X0038371Y-014276D01*
G01X0038371Y-014276D02*
G01X0038333Y-014295D01*
G01X0038733Y-014543D02*
G01X0038752Y-014562D01*
G01X0038752Y-014562D02*
G01X0038733Y-014581D01*
G01X0038733Y-014581D02*
G01X0038714Y-014562D01*
G01X0038714Y-014562D02*
G01X0038733Y-014543D01*
G01X0038733Y-014543D02*
G01X0038733Y-014581D01*
G01X0038905Y-014219D02*
G01X0038924Y-014200D01*
G01X0038924Y-014200D02*
G01X0038962Y-014181D01*
G01X0038962Y-014181D02*
G01X0039057Y-014181D01*
G01X0039057Y-014181D02*
G01X0039095Y-014200D01*
G01X0039095Y-014200D02*
G01X0039114Y-014219D01*
G01X0039114Y-014219D02*
G01X0039133Y-014257D01*
G01X0039133Y-014257D02*
G01X0039133Y-014295D01*
G01X0039133Y-014295D02*
G01X0039114Y-014352D01*
G01X0039114Y-014352D02*
G01X0038886Y-014581D01*
G01X0038886Y-014581D02*
G01X0039133Y-014581D01*
G01X0041648Y-014581D02*
G01X0041419Y-014581D01*
G01X0041533Y-014581D02*
G01X0041533Y-014181D01*
G01X0041533Y-014181D02*
G01X0041495Y-014238D01*
G01X0041495Y-014238D02*
G01X0041457Y-014276D01*
G01X0041457Y-014276D02*
G01X0041419Y-014295D01*
G01X0041800Y-014219D02*
G01X0041819Y-014200D01*
G01X0041819Y-014200D02*
G01X0041857Y-014181D01*
G01X0041857Y-014181D02*
G01X0041952Y-014181D01*
G01X0041952Y-014181D02*
G01X0041990Y-014200D01*
G01X0041990Y-014200D02*
G01X0042010Y-014219D01*
G01X0042010Y-014219D02*
G01X0042029Y-014257D01*
G01X0042029Y-014257D02*
G01X0042029Y-014295D01*
G01X0042029Y-014295D02*
G01X0042010Y-014352D01*
G01X0042010Y-014352D02*
G01X0041781Y-014581D01*
G01X0041781Y-014581D02*
G01X0042029Y-014581D01*
G01X0042486Y-014162D02*
G01X0042143Y-014676D01*
G01X0042638Y-014581D02*
G01X0042714Y-014581D01*
G01X0042714Y-014581D02*
G01X0042752Y-014562D01*
G01X0042752Y-014562D02*
G01X0042771Y-014543D01*
G01X0042771Y-014543D02*
G01X0042810Y-014486D01*
G01X0042810Y-014486D02*
G01X0042829Y-014410D01*
G01X0042829Y-014410D02*
G01X0042829Y-014257D01*
G01X0042829Y-014257D02*
G01X0042810Y-014219D01*
G01X0042810Y-014219D02*
G01X0042790Y-014200D01*
G01X0042790Y-014200D02*
G01X0042752Y-014181D01*
G01X0042752Y-014181D02*
G01X0042676Y-014181D01*
G01X0042676Y-014181D02*
G01X0042638Y-014200D01*
G01X0042638Y-014200D02*
G01X0042619Y-014219D01*
G01X0042619Y-014219D02*
G01X0042600Y-014257D01*
G01X0042600Y-014257D02*
G01X0042600Y-014352D01*
G01X0042600Y-014352D02*
G01X0042619Y-014390D01*
G01X0042619Y-014390D02*
G01X0042638Y-014410D01*
G01X0042638Y-014410D02*
G01X0042676Y-014429D01*
G01X0042676Y-014429D02*
G01X0042752Y-014429D01*
G01X0042752Y-014429D02*
G01X0042790Y-014410D01*
G01X0042790Y-014410D02*
G01X0042810Y-014390D01*
G01X0042810Y-014390D02*
G01X0042829Y-014352D01*
G01X0043286Y-014162D02*
G01X0042943Y-014676D01*
G01X0043400Y-014219D02*
G01X0043419Y-014200D01*
G01X0043419Y-014200D02*
G01X0043457Y-014181D01*
G01X0043457Y-014181D02*
G01X0043552Y-014181D01*
G01X0043552Y-014181D02*
G01X0043590Y-014200D01*
G01X0043590Y-014200D02*
G01X0043610Y-014219D01*
G01X0043610Y-014219D02*
G01X0043629Y-014257D01*
G01X0043629Y-014257D02*
G01X0043629Y-014295D01*
G01X0043629Y-014295D02*
G01X0043610Y-014352D01*
G01X0043610Y-014352D02*
G01X0043381Y-014581D01*
G01X0043381Y-014581D02*
G01X0043629Y-014581D01*
G01X0043876Y-014181D02*
G01X0043914Y-014181D01*
G01X0043914Y-014181D02*
G01X0043952Y-014200D01*
G01X0043952Y-014200D02*
G01X0043971Y-014219D01*
G01X0043971Y-014219D02*
G01X0043990Y-014257D01*
G01X0043990Y-014257D02*
G01X0044010Y-014333D01*
G01X0044010Y-014333D02*
G01X0044010Y-014429D01*
G01X0044010Y-014429D02*
G01X0043990Y-014505D01*
G01X0043990Y-014505D02*
G01X0043971Y-014543D01*
G01X0043971Y-014543D02*
G01X0043952Y-014562D01*
G01X0043952Y-014562D02*
G01X0043914Y-014581D01*
G01X0043914Y-014581D02*
G01X0043876Y-014581D01*
G01X0043876Y-014581D02*
G01X0043838Y-014562D01*
G01X0043838Y-014562D02*
G01X0043819Y-014543D01*
G01X0043819Y-014543D02*
G01X0043800Y-014505D01*
G01X0043800Y-014505D02*
G01X0043781Y-014429D01*
G01X0043781Y-014429D02*
G01X0043781Y-014333D01*
G01X0043781Y-014333D02*
G01X0043800Y-014257D01*
G01X0043800Y-014257D02*
G01X0043819Y-014219D01*
G01X0043819Y-014219D02*
G01X0043838Y-014200D01*
G01X0043838Y-014200D02*
G01X0043876Y-014181D01*
G01X0044390Y-014581D02*
G01X0044162Y-014581D01*
G01X0044276Y-014581D02*
G01X0044276Y-014181D01*
G01X0044276Y-014181D02*
G01X0044238Y-014238D01*
G01X0044238Y-014238D02*
G01X0044200Y-014276D01*
G01X0044200Y-014276D02*
G01X0044162Y-014295D01*
G01X0044733Y-014181D02*
G01X0044657Y-014181D01*
G01X0044657Y-014181D02*
G01X0044619Y-014200D01*
G01X0044619Y-014200D02*
G01X0044600Y-014219D01*
G01X0044600Y-014219D02*
G01X0044562Y-014276D01*
G01X0044562Y-014276D02*
G01X0044543Y-014352D01*
G01X0044543Y-014352D02*
G01X0044543Y-014505D01*
G01X0044543Y-014505D02*
G01X0044562Y-014543D01*
G01X0044562Y-014543D02*
G01X0044581Y-014562D01*
G01X0044581Y-014562D02*
G01X0044619Y-014581D01*
G01X0044619Y-014581D02*
G01X0044695Y-014581D01*
G01X0044695Y-014581D02*
G01X0044733Y-014562D01*
G01X0044733Y-014562D02*
G01X0044752Y-014543D01*
G01X0044752Y-014543D02*
G01X0044771Y-014505D01*
G01X0044771Y-014505D02*
G01X0044771Y-014410D01*
G01X0044771Y-014410D02*
G01X0044752Y-014371D01*
G01X0044752Y-014371D02*
G01X0044733Y-014352D01*
G01X0044733Y-014352D02*
G01X0044695Y-014333D01*
G01X0044695Y-014333D02*
G01X0044619Y-014333D01*
G01X0044619Y-014333D02*
G01X0044581Y-014352D01*
G01X0044581Y-014352D02*
G01X0044562Y-014371D01*
G01X0044562Y-014371D02*
G01X0044543Y-014410D01*
G01X0033695Y-013471D02*
G01X0033829Y-013471D01*
G01X0033886Y-013681D02*
G01X0033695Y-013681D01*
G01X0033695Y-013681D02*
G01X0033695Y-013281D01*
G01X0033695Y-013281D02*
G01X0033886Y-013281D01*
G01X0034038Y-013319D02*
G01X0034057Y-013300D01*
G01X0034057Y-013300D02*
G01X0034095Y-013281D01*
G01X0034095Y-013281D02*
G01X0034190Y-013281D01*
G01X0034190Y-013281D02*
G01X0034229Y-013300D01*
G01X0034229Y-013300D02*
G01X0034248Y-013319D01*
G01X0034248Y-013319D02*
G01X0034267Y-013357D01*
G01X0034267Y-013357D02*
G01X0034267Y-013395D01*
G01X0034267Y-013395D02*
G01X0034248Y-013452D01*
G01X0034248Y-013452D02*
G01X0034019Y-013681D01*
G01X0034019Y-013681D02*
G01X0034267Y-013681D01*
G01X0034514Y-013281D02*
G01X0034552Y-013281D01*
G01X0034552Y-013281D02*
G01X0034590Y-013300D01*
G01X0034590Y-013300D02*
G01X0034610Y-013319D01*
G01X0034610Y-013319D02*
G01X0034629Y-013357D01*
G01X0034629Y-013357D02*
G01X0034648Y-013433D01*
G01X0034648Y-013433D02*
G01X0034648Y-013529D01*
G01X0034648Y-013529D02*
G01X0034629Y-013605D01*
G01X0034629Y-013605D02*
G01X0034610Y-013643D01*
G01X0034610Y-013643D02*
G01X0034590Y-013662D01*
G01X0034590Y-013662D02*
G01X0034552Y-013681D01*
G01X0034552Y-013681D02*
G01X0034514Y-013681D01*
G01X0034514Y-013681D02*
G01X0034476Y-013662D01*
G01X0034476Y-013662D02*
G01X0034457Y-013643D01*
G01X0034457Y-013643D02*
G01X0034438Y-013605D01*
G01X0034438Y-013605D02*
G01X0034419Y-013529D01*
G01X0034419Y-013529D02*
G01X0034419Y-013433D01*
G01X0034419Y-013433D02*
G01X0034438Y-013357D01*
G01X0034438Y-013357D02*
G01X0034457Y-013319D01*
G01X0034457Y-013319D02*
G01X0034476Y-013300D01*
G01X0034476Y-013300D02*
G01X0034514Y-013281D01*
G01X0034800Y-013319D02*
G01X0034819Y-013300D01*
G01X0034819Y-013300D02*
G01X0034857Y-013281D01*
G01X0034857Y-013281D02*
G01X0034952Y-013281D01*
G01X0034952Y-013281D02*
G01X0034990Y-013300D01*
G01X0034990Y-013300D02*
G01X0035010Y-013319D01*
G01X0035010Y-013319D02*
G01X0035029Y-013357D01*
G01X0035029Y-013357D02*
G01X0035029Y-013395D01*
G01X0035029Y-013395D02*
G01X0035010Y-013452D01*
G01X0035010Y-013452D02*
G01X0034781Y-013681D01*
G01X0034781Y-013681D02*
G01X0035029Y-013681D01*
G01X0035143Y-013281D02*
G01X0035276Y-013681D01*
G01X0035276Y-013681D02*
G01X0035410Y-013281D01*
G01X0035524Y-013567D02*
G01X0035714Y-013567D01*
G01X0035486Y-013681D02*
G01X0035619Y-013281D01*
G01X0035619Y-013281D02*
G01X0035752Y-013681D01*
G01X0036114Y-013681D02*
G01X0035981Y-013490D01*
G01X0035886Y-013681D02*
G01X0035886Y-013281D01*
G01X0035886Y-013281D02*
G01X0036038Y-013281D01*
G01X0036038Y-013281D02*
G01X0036076Y-013300D01*
G01X0036076Y-013300D02*
G01X0036095Y-013319D01*
G01X0036095Y-013319D02*
G01X0036114Y-013357D01*
G01X0036114Y-013357D02*
G01X0036114Y-013414D01*
G01X0036114Y-013414D02*
G01X0036095Y-013452D01*
G01X0036095Y-013452D02*
G01X0036076Y-013471D01*
G01X0036076Y-013471D02*
G01X0036038Y-013490D01*
G01X0036038Y-013490D02*
G01X0035886Y-013490D01*
G01X0036533Y-013281D02*
G01X0036667Y-013681D01*
G01X0036667Y-013681D02*
G01X0036800Y-013281D01*
G01X0037124Y-013681D02*
G01X0036933Y-013681D01*
G01X0036933Y-013681D02*
G01X0036933Y-013281D01*
G01X0037390Y-013471D02*
G01X0037257Y-013471D01*
G01X0037257Y-013681D02*
G01X0037257Y-013281D01*
G01X0037257Y-013281D02*
G01X0037448Y-013281D01*
G01X0037905Y-013681D02*
G01X0037905Y-013281D01*
G01X0037905Y-013281D02*
G01X0038133Y-013681D01*
G01X0038133Y-013681D02*
G01X0038133Y-013281D01*
G01X0038495Y-013681D02*
G01X0038495Y-013471D01*
G01X0038495Y-013471D02*
G01X0038476Y-013433D01*
G01X0038476Y-013433D02*
G01X0038438Y-013414D01*
G01X0038438Y-013414D02*
G01X0038362Y-013414D01*
G01X0038362Y-013414D02*
G01X0038324Y-013433D01*
G01X0038495Y-013662D02*
G01X0038457Y-013681D01*
G01X0038457Y-013681D02*
G01X0038362Y-013681D01*
G01X0038362Y-013681D02*
G01X0038324Y-013662D01*
G01X0038324Y-013662D02*
G01X0038305Y-013624D01*
G01X0038305Y-013624D02*
G01X0038305Y-013586D01*
G01X0038305Y-013586D02*
G01X0038324Y-013548D01*
G01X0038324Y-013548D02*
G01X0038362Y-013529D01*
G01X0038362Y-013529D02*
G01X0038457Y-013529D01*
G01X0038457Y-013529D02*
G01X0038495Y-013510D01*
G01X0038629Y-013414D02*
G01X0038781Y-013414D01*
G01X0038686Y-013281D02*
G01X0038686Y-013624D01*
G01X0038686Y-013624D02*
G01X0038705Y-013662D01*
G01X0038705Y-013662D02*
G01X0038743Y-013681D01*
G01X0038743Y-013681D02*
G01X0038781Y-013681D01*
G01X0039086Y-013414D02*
G01X0039086Y-013681D01*
G01X0038914Y-013414D02*
G01X0038914Y-013624D01*
G01X0038914Y-013624D02*
G01X0038933Y-013662D01*
G01X0038933Y-013662D02*
G01X0038971Y-013681D01*
G01X0038971Y-013681D02*
G01X0039029Y-013681D01*
G01X0039029Y-013681D02*
G01X0039067Y-013662D01*
G01X0039067Y-013662D02*
G01X0039086Y-013643D01*
G01X0039276Y-013681D02*
G01X0039276Y-013414D01*
G01X0039276Y-013490D02*
G01X0039295Y-013452D01*
G01X0039295Y-013452D02*
G01X0039314Y-013433D01*
G01X0039314Y-013433D02*
G01X0039352Y-013414D01*
G01X0039352Y-013414D02*
G01X0039390Y-013414D01*
G01X0039695Y-013681D02*
G01X0039695Y-013471D01*
G01X0039695Y-013471D02*
G01X0039676Y-013433D01*
G01X0039676Y-013433D02*
G01X0039638Y-013414D01*
G01X0039638Y-013414D02*
G01X0039562Y-013414D01*
G01X0039562Y-013414D02*
G01X0039524Y-013433D01*
G01X0039695Y-013662D02*
G01X0039657Y-013681D01*
G01X0039657Y-013681D02*
G01X0039562Y-013681D01*
G01X0039562Y-013681D02*
G01X0039524Y-013662D01*
G01X0039524Y-013662D02*
G01X0039505Y-013624D01*
G01X0039505Y-013624D02*
G01X0039505Y-013586D01*
G01X0039505Y-013586D02*
G01X0039524Y-013548D01*
G01X0039524Y-013548D02*
G01X0039562Y-013529D01*
G01X0039562Y-013529D02*
G01X0039657Y-013529D01*
G01X0039657Y-013529D02*
G01X0039695Y-013510D01*
G01X0039943Y-013681D02*
G01X0039905Y-013662D01*
G01X0039905Y-013662D02*
G01X0039886Y-013624D01*
G01X0039886Y-013624D02*
G01X0039886Y-013281D01*
G01X0040629Y-013681D02*
G01X0040495Y-013490D01*
G01X0040400Y-013681D02*
G01X0040400Y-013281D01*
G01X0040400Y-013281D02*
G01X0040552Y-013281D01*
G01X0040552Y-013281D02*
G01X0040590Y-013300D01*
G01X0040590Y-013300D02*
G01X0040610Y-013319D01*
G01X0040610Y-013319D02*
G01X0040629Y-013357D01*
G01X0040629Y-013357D02*
G01X0040629Y-013414D01*
G01X0040629Y-013414D02*
G01X0040610Y-013452D01*
G01X0040610Y-013452D02*
G01X0040590Y-013471D01*
G01X0040590Y-013471D02*
G01X0040552Y-013490D01*
G01X0040552Y-013490D02*
G01X0040400Y-013490D01*
G01X0040971Y-013681D02*
G01X0040971Y-013471D01*
G01X0040971Y-013471D02*
G01X0040952Y-013433D01*
G01X0040952Y-013433D02*
G01X0040914Y-013414D01*
G01X0040914Y-013414D02*
G01X0040838Y-013414D01*
G01X0040838Y-013414D02*
G01X0040800Y-013433D01*
G01X0040971Y-013662D02*
G01X0040933Y-013681D01*
G01X0040933Y-013681D02*
G01X0040838Y-013681D01*
G01X0040838Y-013681D02*
G01X0040800Y-013662D01*
G01X0040800Y-013662D02*
G01X0040781Y-013624D01*
G01X0040781Y-013624D02*
G01X0040781Y-013586D01*
G01X0040781Y-013586D02*
G01X0040800Y-013548D01*
G01X0040800Y-013548D02*
G01X0040838Y-013529D01*
G01X0040838Y-013529D02*
G01X0040933Y-013529D01*
G01X0040933Y-013529D02*
G01X0040971Y-013510D01*
G01X0041333Y-013681D02*
G01X0041333Y-013281D01*
G01X0041333Y-013662D02*
G01X0041295Y-013681D01*
G01X0041295Y-013681D02*
G01X0041219Y-013681D01*
G01X0041219Y-013681D02*
G01X0041181Y-013662D01*
G01X0041181Y-013662D02*
G01X0041162Y-013643D01*
G01X0041162Y-013643D02*
G01X0041143Y-013605D01*
G01X0041143Y-013605D02*
G01X0041143Y-013490D01*
G01X0041143Y-013490D02*
G01X0041162Y-013452D01*
G01X0041162Y-013452D02*
G01X0041181Y-013433D01*
G01X0041181Y-013433D02*
G01X0041219Y-013414D01*
G01X0041219Y-013414D02*
G01X0041295Y-013414D01*
G01X0041295Y-013414D02*
G01X0041333Y-013433D01*
G01X0041524Y-013681D02*
G01X0041524Y-013414D01*
G01X0041524Y-013281D02*
G01X0041505Y-013300D01*
G01X0041505Y-013300D02*
G01X0041524Y-013319D01*
G01X0041524Y-013319D02*
G01X0041543Y-013300D01*
G01X0041543Y-013300D02*
G01X0041524Y-013281D01*
G01X0041524Y-013281D02*
G01X0041524Y-013319D01*
G01X0041771Y-013681D02*
G01X0041733Y-013662D01*
G01X0041733Y-013662D02*
G01X0041714Y-013643D01*
G01X0041714Y-013643D02*
G01X0041695Y-013605D01*
G01X0041695Y-013605D02*
G01X0041695Y-013490D01*
G01X0041695Y-013490D02*
G01X0041714Y-013452D01*
G01X0041714Y-013452D02*
G01X0041733Y-013433D01*
G01X0041733Y-013433D02*
G01X0041771Y-013414D01*
G01X0041771Y-013414D02*
G01X0041829Y-013414D01*
G01X0041829Y-013414D02*
G01X0041867Y-013433D01*
G01X0041867Y-013433D02*
G01X0041886Y-013452D01*
G01X0041886Y-013452D02*
G01X0041905Y-013490D01*
G01X0041905Y-013490D02*
G01X0041905Y-013605D01*
G01X0041905Y-013605D02*
G01X0041886Y-013643D01*
G01X0041886Y-013643D02*
G01X0041867Y-013662D01*
G01X0041867Y-013662D02*
G01X0041829Y-013681D01*
G01X0041829Y-013681D02*
G01X0041771Y-013681D01*
G01X0042610Y-013681D02*
G01X0042476Y-013490D01*
G01X0042381Y-013681D02*
G01X0042381Y-013281D01*
G01X0042381Y-013281D02*
G01X0042533Y-013281D01*
G01X0042533Y-013281D02*
G01X0042571Y-013300D01*
G01X0042571Y-013300D02*
G01X0042590Y-013319D01*
G01X0042590Y-013319D02*
G01X0042610Y-013357D01*
G01X0042610Y-013357D02*
G01X0042610Y-013414D01*
G01X0042610Y-013414D02*
G01X0042590Y-013452D01*
G01X0042590Y-013452D02*
G01X0042571Y-013471D01*
G01X0042571Y-013471D02*
G01X0042533Y-013490D01*
G01X0042533Y-013490D02*
G01X0042381Y-013490D01*
G01X0042933Y-013662D02*
G01X0042895Y-013681D01*
G01X0042895Y-013681D02*
G01X0042819Y-013681D01*
G01X0042819Y-013681D02*
G01X0042781Y-013662D01*
G01X0042781Y-013662D02*
G01X0042762Y-013624D01*
G01X0042762Y-013624D02*
G01X0042762Y-013471D01*
G01X0042762Y-013471D02*
G01X0042781Y-013433D01*
G01X0042781Y-013433D02*
G01X0042819Y-013414D01*
G01X0042819Y-013414D02*
G01X0042895Y-013414D01*
G01X0042895Y-013414D02*
G01X0042933Y-013433D01*
G01X0042933Y-013433D02*
G01X0042952Y-013471D01*
G01X0042952Y-013471D02*
G01X0042952Y-013510D01*
G01X0042952Y-013510D02*
G01X0042762Y-013548D01*
G01X0043295Y-013662D02*
G01X0043257Y-013681D01*
G01X0043257Y-013681D02*
G01X0043181Y-013681D01*
G01X0043181Y-013681D02*
G01X0043143Y-013662D01*
G01X0043143Y-013662D02*
G01X0043124Y-013643D01*
G01X0043124Y-013643D02*
G01X0043105Y-013605D01*
G01X0043105Y-013605D02*
G01X0043105Y-013490D01*
G01X0043105Y-013490D02*
G01X0043124Y-013452D01*
G01X0043124Y-013452D02*
G01X0043143Y-013433D01*
G01X0043143Y-013433D02*
G01X0043181Y-013414D01*
G01X0043181Y-013414D02*
G01X0043257Y-013414D01*
G01X0043257Y-013414D02*
G01X0043295Y-013433D01*
G01X0043619Y-013662D02*
G01X0043581Y-013681D01*
G01X0043581Y-013681D02*
G01X0043505Y-013681D01*
G01X0043505Y-013681D02*
G01X0043467Y-013662D01*
G01X0043467Y-013662D02*
G01X0043448Y-013624D01*
G01X0043448Y-013624D02*
G01X0043448Y-013471D01*
G01X0043448Y-013471D02*
G01X0043467Y-013433D01*
G01X0043467Y-013433D02*
G01X0043505Y-013414D01*
G01X0043505Y-013414D02*
G01X0043581Y-013414D01*
G01X0043581Y-013414D02*
G01X0043619Y-013433D01*
G01X0043619Y-013433D02*
G01X0043638Y-013471D01*
G01X0043638Y-013471D02*
G01X0043638Y-013510D01*
G01X0043638Y-013510D02*
G01X0043448Y-013548D01*
G01X0043810Y-013681D02*
G01X0043810Y-013414D01*
G01X0043810Y-013281D02*
G01X0043790Y-013300D01*
G01X0043790Y-013300D02*
G01X0043810Y-013319D01*
G01X0043810Y-013319D02*
G01X0043829Y-013300D01*
G01X0043829Y-013300D02*
G01X0043810Y-013281D01*
G01X0043810Y-013281D02*
G01X0043810Y-013319D01*
G01X0043962Y-013414D02*
G01X0044057Y-013681D01*
G01X0044057Y-013681D02*
G01X0044152Y-013414D01*
G01X0044457Y-013662D02*
G01X0044419Y-013681D01*
G01X0044419Y-013681D02*
G01X0044343Y-013681D01*
G01X0044343Y-013681D02*
G01X0044305Y-013662D01*
G01X0044305Y-013662D02*
G01X0044286Y-013624D01*
G01X0044286Y-013624D02*
G01X0044286Y-013471D01*
G01X0044286Y-013471D02*
G01X0044305Y-013433D01*
G01X0044305Y-013433D02*
G01X0044343Y-013414D01*
G01X0044343Y-013414D02*
G01X0044419Y-013414D01*
G01X0044419Y-013414D02*
G01X0044457Y-013433D01*
G01X0044457Y-013433D02*
G01X0044476Y-013471D01*
G01X0044476Y-013471D02*
G01X0044476Y-013510D01*
G01X0044476Y-013510D02*
G01X0044286Y-013548D01*
G01X0044648Y-013681D02*
G01X0044648Y-013414D01*
G01X0044648Y-013490D02*
G01X0044667Y-013452D01*
G01X0044667Y-013452D02*
G01X0044686Y-013433D01*
G01X0044686Y-013433D02*
G01X0044724Y-013414D01*
G01X0044724Y-013414D02*
G01X0044762Y-013414D01*
G01X0023000Y-015000D02*
G01X0045000Y-015000D01*
G01X0023000Y-047000D02*
G01X0023000Y-015000D01*
G01X0045000Y-047000D02*
G01X0023000Y-047000D01*
G01X0045000Y-015000D02*
G01X0045000Y-047000D01*
G54D12*
G01X0037879Y-043389D02*
G01X0037879Y-042209D01*
G01X0037889Y-045249D02*
G75*
G03X0037879Y-043389I-000010J0000930D01*
G01X0037889Y-048609D02*
G01X0037889Y-045249D01*
G54D13*
G01X0038589Y-044300D02*
G75*
G03X0038589Y-044300I-000769J0000000D01*
G01X0036719Y-045463D02*
G75*
G03X0036719Y-045463I-000769J0000000D01*
G01X0036700Y-043099D02*
G75*
G03X0036700Y-043099I-000750J0000000D01*
G01X0034079Y-042214D02*
G01X0034079Y-048609D01*
G01X0037899Y-042209D02*
G01X0034079Y-042214D01*
G01X0034079Y-048609D02*
G01X0037889Y-048609D01*
G54D12*
G01X0028230Y-043429D02*
G01X0029410Y-043429D01*
G01X0026370Y-043439D02*
G75*
G03X0028230Y-043429I0000930J0000010D01*
G01X0023010Y-043439D02*
G01X0026370Y-043439D01*
G54D13*
G01X0028088Y-043370D02*
G75*
G03X0028088Y-043370I-000769J0000000D01*
G01X0026925Y-041500D02*
G75*
G03X0026925Y-041500I-000769J0000000D01*
G01X0029269Y-041500D02*
G75*
G03X0029269Y-041500I-000750J0000000D01*
G01X0029405Y-039629D02*
G01X0023010Y-039629D01*
G01X0029410Y-043449D02*
G01X0029405Y-039629D01*
G01X0023010Y-039629D02*
G01X0023010Y-043439D01*
G01X0032327Y-015227D02*
G01X0035673Y-015227D01*
G01X0035673Y-015227D02*
G01X0035673Y-018573D01*
G01X0035673Y-018573D02*
G01X0032327Y-018573D01*
G01X0032327Y-018573D02*
G01X0032327Y-015227D01*
G54D14*
G01X0044953Y-040550D02*
G01X0044953Y-046850D01*
G01X0039047Y-040550D02*
G01X0044953Y-040550D01*
G01X0039047Y-046850D02*
G01X0039047Y-040550D01*
G01X0044953Y-046850D02*
G01X0039047Y-046850D01*
G01X0044943Y-015057D02*
G01X0044943Y-021357D01*
G01X0039037Y-015057D02*
G01X0044943Y-015057D01*
G01X0039037Y-021357D02*
G01X0039037Y-015057D01*
G01X0044943Y-021357D02*
G01X0039037Y-021357D01*
G01X0044953Y-033850D02*
G01X0044953Y-040150D01*
G01X0039047Y-033850D02*
G01X0044953Y-033850D01*
G01X0039047Y-040150D02*
G01X0039047Y-033850D01*
G01X0044953Y-040150D02*
G01X0039047Y-040150D01*
G54D13*
G01X0023241Y-033716D02*
G01X0026391Y-033716D01*
G01X0023241Y-035684D02*
G01X0023241Y-033716D01*
G01X0026391Y-035684D02*
G01X0023241Y-035684D01*
G01X0026391Y-033716D02*
G01X0026391Y-035684D01*
G01X0026759Y-019984D02*
G01X0023609Y-019984D01*
G01X0026759Y-018016D02*
G01X0026759Y-019984D01*
G01X0023609Y-018016D02*
G01X0026759Y-018016D01*
G01X0023609Y-019984D02*
G01X0023609Y-018016D01*
G01X0023716Y-026991D02*
G01X0023716Y-023841D01*
G01X0025684Y-026991D02*
G01X0023716Y-026991D01*
G01X0025684Y-023841D02*
G01X0025684Y-026991D01*
G01X0023716Y-023841D02*
G01X0025684Y-023841D01*
G01X0032191Y-029661D02*
G01X0032191Y-031354D01*
G01X0031009Y-029661D02*
G01X0032191Y-029661D01*
G01X0031009Y-031354D02*
G01X0031009Y-029661D01*
G01X0032191Y-031354D02*
G01X0031009Y-031354D01*
G01X0036391Y-034446D02*
G01X0036391Y-036139D01*
G01X0035209Y-034446D02*
G01X0036391Y-034446D01*
G01X0035209Y-036139D02*
G01X0035209Y-034446D01*
G01X0036391Y-036139D02*
G01X0035209Y-036139D01*
G01X0041354Y-028991D02*
G01X0039661Y-028991D01*
G01X0041354Y-027809D02*
G01X0041354Y-028991D01*
G01X0039661Y-027809D02*
G01X0041354Y-027809D01*
G01X0039661Y-028991D02*
G01X0039661Y-027809D01*
G01X0041584Y-029541D02*
G01X0041584Y-032691D01*
G01X0039616Y-029541D02*
G01X0041584Y-029541D01*
G01X0039616Y-032691D02*
G01X0039616Y-029541D01*
G01X0041584Y-032691D02*
G01X0039616Y-032691D01*
G01X0023946Y-028209D02*
G01X0025639Y-028209D01*
G01X0023946Y-029391D02*
G01X0023946Y-028209D01*
G01X0025639Y-029391D02*
G01X0023946Y-029391D01*
G01X0025639Y-028209D02*
G01X0025639Y-029391D01*
G01X0038216Y-025159D02*
G01X0038216Y-022009D01*
G01X0040184Y-025159D02*
G01X0038216Y-025159D01*
G01X0040184Y-022009D02*
G01X0040184Y-025159D01*
G01X0038216Y-022009D02*
G01X0040184Y-022009D01*
G01X0038246Y-025609D02*
G01X0039939Y-025609D01*
G01X0038246Y-026791D02*
G01X0038246Y-025609D01*
G01X0039939Y-026791D02*
G01X0038246Y-026791D01*
G01X0039939Y-025609D02*
G01X0039939Y-026791D01*
G01X0035209Y-039039D02*
G01X0035209Y-037346D01*
G01X0036391Y-039039D02*
G01X0035209Y-039039D01*
G01X0036391Y-037346D02*
G01X0036391Y-039039D01*
G01X0035209Y-037346D02*
G01X0036391Y-037346D01*
G01X0025884Y-030041D02*
G01X0025884Y-033191D01*
G01X0023916Y-030041D02*
G01X0025884Y-030041D01*
G01X0023916Y-033191D02*
G01X0023916Y-030041D01*
G01X0025884Y-033191D02*
G01X0023916Y-033191D01*
G01X0036939Y-025391D02*
G01X0035246Y-025391D01*
G01X0036939Y-024209D02*
G01X0036939Y-025391D01*
G01X0035246Y-024209D02*
G01X0036939Y-024209D01*
G01X0035246Y-025391D02*
G01X0035246Y-024209D01*
G01X0026316Y-039159D02*
G01X0026316Y-036009D01*
G01X0028284Y-039159D02*
G01X0026316Y-039159D01*
G01X0028284Y-036009D02*
G01X0028284Y-039159D01*
G01X0026316Y-036009D02*
G01X0028284Y-036009D01*
G54D14*
G01X0033688Y-041409D02*
G01X0033590Y-041409D01*
G01X0033688Y-046626D02*
G01X0033688Y-041409D01*
G01X0032310Y-046626D02*
G01X0033688Y-046626D01*
G01X0032310Y-046528D02*
G01X0032310Y-046626D01*
G01X0032310Y-041409D02*
G01X0032310Y-046528D01*
G01X0033590Y-041409D02*
G01X0032310Y-041409D01*
G01X0033688Y-041803D02*
G01X0032310Y-041803D01*
G01X0037010Y-038991D02*
G01X0037108Y-038991D01*
G01X0037010Y-033774D02*
G01X0037010Y-038991D01*
G01X0038388Y-033774D02*
G01X0037010Y-033774D01*
G01X0038388Y-033872D02*
G01X0038388Y-033774D01*
G01X0038388Y-038991D02*
G01X0038388Y-033872D01*
G01X0037108Y-038991D02*
G01X0038388Y-038991D01*
G01X0037010Y-038597D02*
G01X0038388Y-038597D01*
G54D13*
G01X0031309Y-044401D02*
G01X0031309Y-046999D01*
G01X0031309Y-044401D02*
G01X0028907Y-044401D01*
G01X0031309Y-046999D02*
G01X0028907Y-046999D01*
G01X0028907Y-044401D02*
G01X0028907Y-046999D01*
G01X0025699Y-039009D02*
G01X0023101Y-039009D01*
G01X0025699Y-039009D02*
G01X0025699Y-036607D01*
G01X0023101Y-039009D02*
G01X0023101Y-036607D01*
G01X0025699Y-036607D02*
G01X0023101Y-036607D01*
G01X0036327Y-019489D02*
G01X0038689Y-019489D01*
G01X0036327Y-019489D02*
G01X0036327Y-018111D01*
G01X0038689Y-018111D02*
G01X0036327Y-018111D01*
G01X0038689Y-019489D02*
G01X0038689Y-018111D01*
G54D12*
G01X0032975Y-036535D02*
G75*
G03X0032970Y-037870I-000675J-000665D01*
G01X0032970Y-037870D02*
G01X0032970Y-036540D01*
G01X0024435Y-021025D02*
G75*
G03X0025770Y-021030I0000665J-000675D01*
G01X0025770Y-021030D02*
G01X0024440Y-021030D01*
G54D14*
G01X0027496Y-021291D02*
G01X0031512Y-021291D01*
G01X0027496Y-020109D02*
G01X0027496Y-021291D01*
G01X0027535Y-020109D02*
G01X0027496Y-020109D01*
G01X0031512Y-020109D02*
G01X0027535Y-020109D01*
G01X0031512Y-021291D02*
G01X0031512Y-020109D01*
G01X0037004Y-026109D02*
G01X0032988Y-026109D01*
G01X0037004Y-027291D02*
G01X0037004Y-026109D01*
G01X0036965Y-027291D02*
G01X0037004Y-027291D01*
G01X0032988Y-027291D02*
G01X0036965Y-027291D01*
G01X0032988Y-026109D02*
G01X0032988Y-027291D01*
G01X0029891Y-033304D02*
G01X0029891Y-029288D01*
G01X0028709Y-033304D02*
G01X0029891Y-033304D01*
G01X0028709Y-033265D02*
G01X0028709Y-033304D01*
G01X0028709Y-029288D02*
G01X0028709Y-033265D01*
G01X0029891Y-029288D02*
G01X0028709Y-029288D01*
G01X0031504Y-015509D02*
G01X0027488Y-015509D01*
G01X0031504Y-016691D02*
G01X0031504Y-015509D01*
G01X0031465Y-016691D02*
G01X0031504Y-016691D01*
G01X0027488Y-016691D02*
G01X0031465Y-016691D01*
G01X0027488Y-015509D02*
G01X0027488Y-016691D01*
G01X0031896Y-020291D02*
G01X0035912Y-020291D01*
G01X0031896Y-019109D02*
G01X0031896Y-020291D01*
G01X0031935Y-019109D02*
G01X0031896Y-019109D01*
G01X0035912Y-019109D02*
G01X0031935Y-019109D01*
G01X0035912Y-020291D02*
G01X0035912Y-019109D01*
G01X0037004Y-022609D02*
G01X0032988Y-022609D01*
G01X0037004Y-023791D02*
G01X0037004Y-022609D01*
G01X0036965Y-023791D02*
G01X0037004Y-023791D01*
G01X0032988Y-023791D02*
G01X0036965Y-023791D01*
G01X0032988Y-022609D02*
G01X0032988Y-023791D01*
G01X0038991Y-032104D02*
G01X0038991Y-028088D01*
G01X0037809Y-032104D02*
G01X0038991Y-032104D01*
G01X0037809Y-032065D02*
G01X0037809Y-032104D01*
G01X0037809Y-028088D02*
G01X0037809Y-032065D01*
G01X0038991Y-028088D02*
G01X0037809Y-028088D01*
G01X0032996Y-022091D02*
G01X0037012Y-022091D01*
G01X0032996Y-020909D02*
G01X0032996Y-022091D01*
G01X0033035Y-020909D02*
G01X0032996Y-020909D01*
G01X0037012Y-020909D02*
G01X0033035Y-020909D01*
G01X0037012Y-022091D02*
G01X0037012Y-020909D01*
G54D12*
G01X0046760Y-029290D02*
G01X0044790Y-029290D01*
G54D15*
G01X0044088Y-028500D02*
G75*
G03X0044088Y-028500I-000088J0000000D01*
G54D14*
G01X0043291Y-033224D02*
G01X0044709Y-033224D01*
G01X0043291Y-027791D02*
G01X0043291Y-033224D01*
G01X0044709Y-027791D02*
G01X0043291Y-027791D01*
G54D12*
G01X0044780Y-031660D02*
G01X0046760Y-031660D01*
G01X0044710Y-033220D02*
G01X0044710Y-031660D01*
G01X0044710Y-031660D02*
G01X0044790Y-031660D01*
G01X0044710Y-027790D02*
G01X0044710Y-029290D01*
G01X0044710Y-029290D02*
G01X0044790Y-029290D01*
G01X0046760Y-031660D02*
G01X0046760Y-030490D01*
G01X0046760Y-030490D02*
G01X0046760Y-029290D01*
G54D14*
G01X0033309Y-035096D02*
G01X0033309Y-039112D01*
G01X0034491Y-035096D02*
G01X0033309Y-035096D01*
G01X0034491Y-035135D02*
G01X0034491Y-035096D01*
G01X0034491Y-039112D02*
G01X0034491Y-035135D01*
G01X0033309Y-039112D02*
G01X0034491Y-039112D01*
G01X0031091Y-038304D02*
G01X0031091Y-034288D01*
G01X0029909Y-038304D02*
G01X0031091Y-038304D01*
G01X0029909Y-038265D02*
G01X0029909Y-038304D01*
G01X0029909Y-034288D02*
G01X0029909Y-038265D01*
G01X0031091Y-034288D02*
G01X0029909Y-034288D01*
G01X0029691Y-038304D02*
G01X0029691Y-034288D01*
G01X0028509Y-038304D02*
G01X0029691Y-038304D01*
G01X0028509Y-038265D02*
G01X0028509Y-038304D01*
G01X0028509Y-034288D02*
G01X0028509Y-038265D01*
G01X0029691Y-034288D02*
G01X0028509Y-034288D01*
G01X0026809Y-029196D02*
G01X0026809Y-033212D01*
G01X0027991Y-029196D02*
G01X0026809Y-029196D01*
G01X0027991Y-029235D02*
G01X0027991Y-029196D01*
G01X0027991Y-033212D02*
G01X0027991Y-029235D01*
G01X0026809Y-033212D02*
G01X0027991Y-033212D01*
G54D13*
G01X0034822Y-040213D02*
G01X0034035Y-040213D01*
G01X0035609Y-040213D02*
G01X0035609Y-039720D01*
G01X0035806Y-040213D02*
G01X0035609Y-040213D01*
G01X0036889Y-040213D02*
G01X0036889Y-039720D01*
G01X0036889Y-040213D02*
G01X0036495Y-040213D01*
G01X0038365Y-040213D02*
G01X0037480Y-040213D01*
G01X0038365Y-039819D02*
G01X0038365Y-039720D01*
G01X0038365Y-039720D02*
G01X0034035Y-039720D01*
G01X0034035Y-041787D02*
G01X0034035Y-039720D01*
G01X0038365Y-041787D02*
G01X0034035Y-041787D01*
G01X0038365Y-041689D02*
G01X0038365Y-041787D01*
G01X0038365Y-039819D02*
G01X0038365Y-041689D01*
G54D12*
G01X0032975Y-034035D02*
G75*
G03X0032970Y-035370I-000675J-000665D01*
G01X0032970Y-035370D02*
G01X0032970Y-034040D01*
G54D14*
G01X0027358Y-027884D02*
G01X0031591Y-027884D01*
G01X0027358Y-022865D02*
G01X0027358Y-027884D01*
G01X0027457Y-022865D02*
G01X0027358Y-022865D01*
G01X0031591Y-022865D02*
G01X0027457Y-022865D01*
G01X0031591Y-027884D02*
G01X0031591Y-022865D01*
G54D15*
G01X0031139Y-026900D02*
G75*
G03X0031139Y-026900I-000139J0000000D01*
G54D14*
G01X0037242Y-028216D02*
G01X0033009Y-028216D01*
G01X0037242Y-033235D02*
G01X0037242Y-028216D01*
G01X0037143Y-033235D02*
G01X0037242Y-033235D01*
G01X0033009Y-033235D02*
G01X0037143Y-033235D01*
G01X0033009Y-028216D02*
G01X0033009Y-033235D01*
G54D15*
G01X0033739Y-029200D02*
G75*
G03X0033739Y-029200I-000139J0000000D01*
G54D14*
G01X0027496Y-018191D02*
G01X0031512Y-018191D01*
G01X0027496Y-017009D02*
G01X0027496Y-018191D01*
G01X0027535Y-017009D02*
G01X0027496Y-017009D01*
G01X0031512Y-017009D02*
G01X0027535Y-017009D01*
G01X0031512Y-018191D02*
G01X0031512Y-017009D01*
G54D12*
G01X0026118Y-016500D02*
G75*
G03X0026118Y-016500I-001118J0000000D01*
G01X0026118Y-045000D02*
G75*
G03X0026118Y-045000I-001118J0000000D01*
G01X0038618Y-016500D02*
G75*
G03X0038618Y-016500I-001118J0000000D01*
G01X0040600Y-027000D02*
G01X0044600Y-027000D01*
G01X0040600Y-022000D02*
G01X0040600Y-027000D01*
G01X0044600Y-022000D02*
G01X0040600Y-022000D01*
G01X0044600Y-022000D02*
G01X0044600Y-027000D01*
G54D14*
G01X0031504Y-018509D02*
G01X0027488Y-018509D01*
G01X0031504Y-019691D02*
G01X0031504Y-018509D01*
G01X0031465Y-019691D02*
G01X0031504Y-019691D01*
G01X0027488Y-019691D02*
G01X0031465Y-019691D01*
G01X0027488Y-018509D02*
G01X0027488Y-019691D01*
G54D13*
G01X0029841Y-038916D02*
G01X0032991Y-038916D01*
G01X0029841Y-040884D02*
G01X0029841Y-038916D01*
G01X0032991Y-040884D02*
G01X0029841Y-040884D01*
G01X0032991Y-038916D02*
G01X0032991Y-040884D01*
G01X0031990Y-043411D02*
G75*
G02X0031991Y-042190I-001102J0000611D01*
G01X0031991Y-043410D02*
G01X0031991Y-042190D01*
G54D16*
G01X0035769Y-044134D02*
G01X0035769Y-044416D01*
G01X0035769Y-044416D02*
G01X0035750Y-044472D01*
G01X0035750Y-044472D02*
G01X0035713Y-044509D01*
G01X0035713Y-044509D02*
G01X0035656Y-044528D01*
G01X0035656Y-044528D02*
G01X0035619Y-044528D01*
G01X0036125Y-044266D02*
G01X0036125Y-044528D01*
G01X0036031Y-044116D02*
G01X0035937Y-044397D01*
G01X0035937Y-044397D02*
G01X0036181Y-044397D01*
G01X0024119Y-041284D02*
G01X0024119Y-041566D01*
G01X0024119Y-041566D02*
G01X0024100Y-041622D01*
G01X0024100Y-041622D02*
G01X0024063Y-041659D01*
G01X0024063Y-041659D02*
G01X0024006Y-041678D01*
G01X0024006Y-041678D02*
G01X0023969Y-041678D01*
G01X0024512Y-041678D02*
G01X0024287Y-041678D01*
G01X0024400Y-041678D02*
G01X0024400Y-041284D01*
G01X0024400Y-041284D02*
G01X0024362Y-041341D01*
G01X0024362Y-041341D02*
G01X0024325Y-041378D01*
G01X0024325Y-041378D02*
G01X0024287Y-041397D01*
G54D17*
G01X0033295Y-017062D02*
G01X0033352Y-017081D01*
G01X0033352Y-017081D02*
G01X0033448Y-017081D01*
G01X0033448Y-017081D02*
G01X0033486Y-017062D01*
G01X0033486Y-017062D02*
G01X0033505Y-017043D01*
G01X0033505Y-017043D02*
G01X0033524Y-017005D01*
G01X0033524Y-017005D02*
G01X0033524Y-016967D01*
G01X0033524Y-016967D02*
G01X0033505Y-016929D01*
G01X0033505Y-016929D02*
G01X0033486Y-016910D01*
G01X0033486Y-016910D02*
G01X0033448Y-016890D01*
G01X0033448Y-016890D02*
G01X0033371Y-016871D01*
G01X0033371Y-016871D02*
G01X0033333Y-016852D01*
G01X0033333Y-016852D02*
G01X0033314Y-016833D01*
G01X0033314Y-016833D02*
G01X0033295Y-016795D01*
G01X0033295Y-016795D02*
G01X0033295Y-016757D01*
G01X0033295Y-016757D02*
G01X0033314Y-016719D01*
G01X0033314Y-016719D02*
G01X0033333Y-016700D01*
G01X0033333Y-016700D02*
G01X0033371Y-016681D01*
G01X0033371Y-016681D02*
G01X0033467Y-016681D01*
G01X0033467Y-016681D02*
G01X0033524Y-016700D01*
G01X0033695Y-017081D02*
G01X0033695Y-016681D01*
G01X0033695Y-016681D02*
G01X0033829Y-016967D01*
G01X0033829Y-016967D02*
G01X0033962Y-016681D01*
G01X0033962Y-016681D02*
G01X0033962Y-017081D01*
G01X0034133Y-016967D02*
G01X0034324Y-016967D01*
G01X0034095Y-017081D02*
G01X0034229Y-016681D01*
G01X0034229Y-016681D02*
G01X0034362Y-017081D01*
G01X0034705Y-017081D02*
G01X0034476Y-017081D01*
G01X0034590Y-017081D02*
G01X0034590Y-016681D01*
G01X0034590Y-016681D02*
G01X0034552Y-016738D01*
G01X0034552Y-016738D02*
G01X0034514Y-016776D01*
G01X0034514Y-016776D02*
G01X0034476Y-016795D01*
G54D11*
G01X0042137Y-043790D02*
G01X0042194Y-043809D01*
G01X0042194Y-043809D02*
G01X0042213Y-043828D01*
G01X0042213Y-043828D02*
G01X0042232Y-043866D01*
G01X0042232Y-043866D02*
G01X0042232Y-043923D01*
G01X0042232Y-043923D02*
G01X0042213Y-043961D01*
G01X0042213Y-043961D02*
G01X0042194Y-043980D01*
G01X0042194Y-043980D02*
G01X0042156Y-043999D01*
G01X0042156Y-043999D02*
G01X0042004Y-043999D01*
G01X0042004Y-043999D02*
G01X0042004Y-043599D01*
G01X0042004Y-043599D02*
G01X0042137Y-043599D01*
G01X0042137Y-043599D02*
G01X0042175Y-043618D01*
G01X0042175Y-043618D02*
G01X0042194Y-043637D01*
G01X0042194Y-043637D02*
G01X0042213Y-043675D01*
G01X0042213Y-043675D02*
G01X0042213Y-043713D01*
G01X0042213Y-043713D02*
G01X0042194Y-043751D01*
G01X0042194Y-043751D02*
G01X0042175Y-043770D01*
G01X0042175Y-043770D02*
G01X0042137Y-043790D01*
G01X0042137Y-043790D02*
G01X0042004Y-043790D01*
G01X0042404Y-043999D02*
G01X0042404Y-043599D01*
G01X0042404Y-043599D02*
G01X0042632Y-043999D01*
G01X0042632Y-043999D02*
G01X0042632Y-043599D01*
G01X0043052Y-043961D02*
G01X0043032Y-043980D01*
G01X0043032Y-043980D02*
G01X0042975Y-043999D01*
G01X0042975Y-043999D02*
G01X0042937Y-043999D01*
G01X0042937Y-043999D02*
G01X0042880Y-043980D01*
G01X0042880Y-043980D02*
G01X0042842Y-043942D01*
G01X0042842Y-043942D02*
G01X0042823Y-043904D01*
G01X0042823Y-043904D02*
G01X0042804Y-043828D01*
G01X0042804Y-043828D02*
G01X0042804Y-043770D01*
G01X0042804Y-043770D02*
G01X0042823Y-043694D01*
G01X0042823Y-043694D02*
G01X0042842Y-043656D01*
G01X0042842Y-043656D02*
G01X0042880Y-043618D01*
G01X0042880Y-043618D02*
G01X0042937Y-043599D01*
G01X0042937Y-043599D02*
G01X0042975Y-043599D01*
G01X0042975Y-043599D02*
G01X0043032Y-043618D01*
G01X0043032Y-043618D02*
G01X0043052Y-043637D01*
G01X0043432Y-043999D02*
G01X0043204Y-043999D01*
G01X0043318Y-043999D02*
G01X0043318Y-043599D01*
G01X0043318Y-043599D02*
G01X0043280Y-043656D01*
G01X0043280Y-043656D02*
G01X0043242Y-043694D01*
G01X0043242Y-043694D02*
G01X0043204Y-043713D01*
G01X0042127Y-018297D02*
G01X0042184Y-018316D01*
G01X0042184Y-018316D02*
G01X0042203Y-018335D01*
G01X0042203Y-018335D02*
G01X0042222Y-018373D01*
G01X0042222Y-018373D02*
G01X0042222Y-018430D01*
G01X0042222Y-018430D02*
G01X0042203Y-018468D01*
G01X0042203Y-018468D02*
G01X0042184Y-018487D01*
G01X0042184Y-018487D02*
G01X0042146Y-018506D01*
G01X0042146Y-018506D02*
G01X0041994Y-018506D01*
G01X0041994Y-018506D02*
G01X0041994Y-018106D01*
G01X0041994Y-018106D02*
G01X0042127Y-018106D01*
G01X0042127Y-018106D02*
G01X0042165Y-018125D01*
G01X0042165Y-018125D02*
G01X0042184Y-018144D01*
G01X0042184Y-018144D02*
G01X0042203Y-018182D01*
G01X0042203Y-018182D02*
G01X0042203Y-018220D01*
G01X0042203Y-018220D02*
G01X0042184Y-018258D01*
G01X0042184Y-018258D02*
G01X0042165Y-018277D01*
G01X0042165Y-018277D02*
G01X0042127Y-018297D01*
G01X0042127Y-018297D02*
G01X0041994Y-018297D01*
G01X0042394Y-018506D02*
G01X0042394Y-018106D01*
G01X0042394Y-018106D02*
G01X0042622Y-018506D01*
G01X0042622Y-018506D02*
G01X0042622Y-018106D01*
G01X0043042Y-018468D02*
G01X0043022Y-018487D01*
G01X0043022Y-018487D02*
G01X0042965Y-018506D01*
G01X0042965Y-018506D02*
G01X0042927Y-018506D01*
G01X0042927Y-018506D02*
G01X0042870Y-018487D01*
G01X0042870Y-018487D02*
G01X0042832Y-018449D01*
G01X0042832Y-018449D02*
G01X0042813Y-018411D01*
G01X0042813Y-018411D02*
G01X0042794Y-018335D01*
G01X0042794Y-018335D02*
G01X0042794Y-018277D01*
G01X0042794Y-018277D02*
G01X0042813Y-018201D01*
G01X0042813Y-018201D02*
G01X0042832Y-018163D01*
G01X0042832Y-018163D02*
G01X0042870Y-018125D01*
G01X0042870Y-018125D02*
G01X0042927Y-018106D01*
G01X0042927Y-018106D02*
G01X0042965Y-018106D01*
G01X0042965Y-018106D02*
G01X0043022Y-018125D01*
G01X0043022Y-018125D02*
G01X0043042Y-018144D01*
G01X0043194Y-018144D02*
G01X0043213Y-018125D01*
G01X0043213Y-018125D02*
G01X0043251Y-018106D01*
G01X0043251Y-018106D02*
G01X0043346Y-018106D01*
G01X0043346Y-018106D02*
G01X0043384Y-018125D01*
G01X0043384Y-018125D02*
G01X0043403Y-018144D01*
G01X0043403Y-018144D02*
G01X0043422Y-018182D01*
G01X0043422Y-018182D02*
G01X0043422Y-018220D01*
G01X0043422Y-018220D02*
G01X0043403Y-018277D01*
G01X0043403Y-018277D02*
G01X0043175Y-018506D01*
G01X0043175Y-018506D02*
G01X0043422Y-018506D01*
G01X0042137Y-037090D02*
G01X0042194Y-037109D01*
G01X0042194Y-037109D02*
G01X0042213Y-037128D01*
G01X0042213Y-037128D02*
G01X0042232Y-037166D01*
G01X0042232Y-037166D02*
G01X0042232Y-037223D01*
G01X0042232Y-037223D02*
G01X0042213Y-037261D01*
G01X0042213Y-037261D02*
G01X0042194Y-037280D01*
G01X0042194Y-037280D02*
G01X0042156Y-037299D01*
G01X0042156Y-037299D02*
G01X0042004Y-037299D01*
G01X0042004Y-037299D02*
G01X0042004Y-036899D01*
G01X0042004Y-036899D02*
G01X0042137Y-036899D01*
G01X0042137Y-036899D02*
G01X0042175Y-036918D01*
G01X0042175Y-036918D02*
G01X0042194Y-036937D01*
G01X0042194Y-036937D02*
G01X0042213Y-036975D01*
G01X0042213Y-036975D02*
G01X0042213Y-037013D01*
G01X0042213Y-037013D02*
G01X0042194Y-037051D01*
G01X0042194Y-037051D02*
G01X0042175Y-037070D01*
G01X0042175Y-037070D02*
G01X0042137Y-037090D01*
G01X0042137Y-037090D02*
G01X0042004Y-037090D01*
G01X0042404Y-037299D02*
G01X0042404Y-036899D01*
G01X0042404Y-036899D02*
G01X0042632Y-037299D01*
G01X0042632Y-037299D02*
G01X0042632Y-036899D01*
G01X0043052Y-037261D02*
G01X0043032Y-037280D01*
G01X0043032Y-037280D02*
G01X0042975Y-037299D01*
G01X0042975Y-037299D02*
G01X0042937Y-037299D01*
G01X0042937Y-037299D02*
G01X0042880Y-037280D01*
G01X0042880Y-037280D02*
G01X0042842Y-037242D01*
G01X0042842Y-037242D02*
G01X0042823Y-037204D01*
G01X0042823Y-037204D02*
G01X0042804Y-037128D01*
G01X0042804Y-037128D02*
G01X0042804Y-037070D01*
G01X0042804Y-037070D02*
G01X0042823Y-036994D01*
G01X0042823Y-036994D02*
G01X0042842Y-036956D01*
G01X0042842Y-036956D02*
G01X0042880Y-036918D01*
G01X0042880Y-036918D02*
G01X0042937Y-036899D01*
G01X0042937Y-036899D02*
G01X0042975Y-036899D01*
G01X0042975Y-036899D02*
G01X0043032Y-036918D01*
G01X0043032Y-036918D02*
G01X0043052Y-036937D01*
G01X0043185Y-036899D02*
G01X0043432Y-036899D01*
G01X0043432Y-036899D02*
G01X0043299Y-037051D01*
G01X0043299Y-037051D02*
G01X0043356Y-037051D01*
G01X0043356Y-037051D02*
G01X0043394Y-037070D01*
G01X0043394Y-037070D02*
G01X0043413Y-037090D01*
G01X0043413Y-037090D02*
G01X0043432Y-037128D01*
G01X0043432Y-037128D02*
G01X0043432Y-037223D01*
G01X0043432Y-037223D02*
G01X0043413Y-037261D01*
G01X0043413Y-037261D02*
G01X0043394Y-037280D01*
G01X0043394Y-037280D02*
G01X0043356Y-037299D01*
G01X0043356Y-037299D02*
G01X0043242Y-037299D01*
G01X0043242Y-037299D02*
G01X0043204Y-037280D01*
G01X0043204Y-037280D02*
G01X0043185Y-037261D01*
G54D16*
G01X0024730Y-034841D02*
G01X0024712Y-034859D01*
G01X0024712Y-034859D02*
G01X0024655Y-034878D01*
G01X0024655Y-034878D02*
G01X0024618Y-034878D01*
G01X0024618Y-034878D02*
G01X0024562Y-034859D01*
G01X0024562Y-034859D02*
G01X0024524Y-034822D01*
G01X0024524Y-034822D02*
G01X0024505Y-034784D01*
G01X0024505Y-034784D02*
G01X0024487Y-034709D01*
G01X0024487Y-034709D02*
G01X0024487Y-034653D01*
G01X0024487Y-034653D02*
G01X0024505Y-034578D01*
G01X0024505Y-034578D02*
G01X0024524Y-034541D01*
G01X0024524Y-034541D02*
G01X0024562Y-034503D01*
G01X0024562Y-034503D02*
G01X0024618Y-034484D01*
G01X0024618Y-034484D02*
G01X0024655Y-034484D01*
G01X0024655Y-034484D02*
G01X0024712Y-034503D01*
G01X0024712Y-034503D02*
G01X0024730Y-034522D01*
G01X0025105Y-034878D02*
G01X0024880Y-034878D01*
G01X0024993Y-034878D02*
G01X0024993Y-034484D01*
G01X0024993Y-034484D02*
G01X0024955Y-034541D01*
G01X0024955Y-034541D02*
G01X0024918Y-034578D01*
G01X0024918Y-034578D02*
G01X0024880Y-034597D01*
G01X0025138Y-019141D02*
G01X0025120Y-019159D01*
G01X0025120Y-019159D02*
G01X0025063Y-019178D01*
G01X0025063Y-019178D02*
G01X0025026Y-019178D01*
G01X0025026Y-019178D02*
G01X0024970Y-019159D01*
G01X0024970Y-019159D02*
G01X0024932Y-019122D01*
G01X0024932Y-019122D02*
G01X0024913Y-019084D01*
G01X0024913Y-019084D02*
G01X0024895Y-019009D01*
G01X0024895Y-019009D02*
G01X0024895Y-018953D01*
G01X0024895Y-018953D02*
G01X0024913Y-018878D01*
G01X0024913Y-018878D02*
G01X0024932Y-018841D01*
G01X0024932Y-018841D02*
G01X0024970Y-018803D01*
G01X0024970Y-018803D02*
G01X0025026Y-018784D01*
G01X0025026Y-018784D02*
G01X0025063Y-018784D01*
G01X0025063Y-018784D02*
G01X0025120Y-018803D01*
G01X0025120Y-018803D02*
G01X0025138Y-018822D01*
G01X0025288Y-018822D02*
G01X0025307Y-018803D01*
G01X0025307Y-018803D02*
G01X0025345Y-018784D01*
G01X0025345Y-018784D02*
G01X0025438Y-018784D01*
G01X0025438Y-018784D02*
G01X0025476Y-018803D01*
G01X0025476Y-018803D02*
G01X0025495Y-018822D01*
G01X0025495Y-018822D02*
G01X0025513Y-018859D01*
G01X0025513Y-018859D02*
G01X0025513Y-018897D01*
G01X0025513Y-018897D02*
G01X0025495Y-018953D01*
G01X0025495Y-018953D02*
G01X0025270Y-019178D01*
G01X0025270Y-019178D02*
G01X0025513Y-019178D01*
G01X0024634Y-025576D02*
G01X0024616Y-025595D01*
G01X0024616Y-025595D02*
G01X0024559Y-025614D01*
G01X0024559Y-025614D02*
G01X0024522Y-025614D01*
G01X0024522Y-025614D02*
G01X0024466Y-025595D01*
G01X0024466Y-025595D02*
G01X0024428Y-025557D01*
G01X0024428Y-025557D02*
G01X0024409Y-025520D01*
G01X0024409Y-025520D02*
G01X0024391Y-025445D01*
G01X0024391Y-025445D02*
G01X0024391Y-025389D01*
G01X0024391Y-025389D02*
G01X0024409Y-025314D01*
G01X0024409Y-025314D02*
G01X0024428Y-025276D01*
G01X0024428Y-025276D02*
G01X0024466Y-025239D01*
G01X0024466Y-025239D02*
G01X0024522Y-025220D01*
G01X0024522Y-025220D02*
G01X0024559Y-025220D01*
G01X0024559Y-025220D02*
G01X0024616Y-025239D01*
G01X0024616Y-025239D02*
G01X0024634Y-025257D01*
G01X0024766Y-025220D02*
G01X0025009Y-025220D01*
G01X0025009Y-025220D02*
G01X0024878Y-025370D01*
G01X0024878Y-025370D02*
G01X0024934Y-025370D01*
G01X0024934Y-025370D02*
G01X0024972Y-025389D01*
G01X0024972Y-025389D02*
G01X0024991Y-025407D01*
G01X0024991Y-025407D02*
G01X0025009Y-025445D01*
G01X0025009Y-025445D02*
G01X0025009Y-025539D01*
G01X0025009Y-025539D02*
G01X0024991Y-025576D01*
G01X0024991Y-025576D02*
G01X0024972Y-025595D01*
G01X0024972Y-025595D02*
G01X0024934Y-025614D01*
G01X0024934Y-025614D02*
G01X0024822Y-025614D01*
G01X0024822Y-025614D02*
G01X0024784Y-025595D01*
G01X0024784Y-025595D02*
G01X0024766Y-025576D01*
G01X0031534Y-030648D02*
G01X0031516Y-030667D01*
G01X0031516Y-030667D02*
G01X0031459Y-030686D01*
G01X0031459Y-030686D02*
G01X0031422Y-030686D01*
G01X0031422Y-030686D02*
G01X0031366Y-030667D01*
G01X0031366Y-030667D02*
G01X0031328Y-030630D01*
G01X0031328Y-030630D02*
G01X0031309Y-030592D01*
G01X0031309Y-030592D02*
G01X0031291Y-030517D01*
G01X0031291Y-030517D02*
G01X0031291Y-030461D01*
G01X0031291Y-030461D02*
G01X0031309Y-030386D01*
G01X0031309Y-030386D02*
G01X0031328Y-030349D01*
G01X0031328Y-030349D02*
G01X0031366Y-030311D01*
G01X0031366Y-030311D02*
G01X0031422Y-030292D01*
G01X0031422Y-030292D02*
G01X0031459Y-030292D01*
G01X0031459Y-030292D02*
G01X0031516Y-030311D01*
G01X0031516Y-030311D02*
G01X0031534Y-030330D01*
G01X0031872Y-030424D02*
G01X0031872Y-030686D01*
G01X0031778Y-030274D02*
G01X0031684Y-030555D01*
G01X0031684Y-030555D02*
G01X0031928Y-030555D01*
G01X0035734Y-035433D02*
G01X0035716Y-035451D01*
G01X0035716Y-035451D02*
G01X0035659Y-035470D01*
G01X0035659Y-035470D02*
G01X0035622Y-035470D01*
G01X0035622Y-035470D02*
G01X0035566Y-035451D01*
G01X0035566Y-035451D02*
G01X0035528Y-035414D01*
G01X0035528Y-035414D02*
G01X0035509Y-035376D01*
G01X0035509Y-035376D02*
G01X0035491Y-035301D01*
G01X0035491Y-035301D02*
G01X0035491Y-035245D01*
G01X0035491Y-035245D02*
G01X0035509Y-035170D01*
G01X0035509Y-035170D02*
G01X0035528Y-035133D01*
G01X0035528Y-035133D02*
G01X0035566Y-035095D01*
G01X0035566Y-035095D02*
G01X0035622Y-035077D01*
G01X0035622Y-035077D02*
G01X0035659Y-035077D01*
G01X0035659Y-035077D02*
G01X0035716Y-035095D01*
G01X0035716Y-035095D02*
G01X0035734Y-035114D01*
G01X0036091Y-035077D02*
G01X0035903Y-035077D01*
G01X0035903Y-035077D02*
G01X0035884Y-035264D01*
G01X0035884Y-035264D02*
G01X0035903Y-035245D01*
G01X0035903Y-035245D02*
G01X0035941Y-035227D01*
G01X0035941Y-035227D02*
G01X0036034Y-035227D01*
G01X0036034Y-035227D02*
G01X0036072Y-035245D01*
G01X0036072Y-035245D02*
G01X0036091Y-035264D01*
G01X0036091Y-035264D02*
G01X0036109Y-035301D01*
G01X0036109Y-035301D02*
G01X0036109Y-035395D01*
G01X0036109Y-035395D02*
G01X0036091Y-035433D01*
G01X0036091Y-035433D02*
G01X0036072Y-035451D01*
G01X0036072Y-035451D02*
G01X0036034Y-035470D01*
G01X0036034Y-035470D02*
G01X0035941Y-035470D01*
G01X0035941Y-035470D02*
G01X0035903Y-035451D01*
G01X0035903Y-035451D02*
G01X0035884Y-035433D01*
G01X0040442Y-028541D02*
G01X0040424Y-028559D01*
G01X0040424Y-028559D02*
G01X0040367Y-028578D01*
G01X0040367Y-028578D02*
G01X0040330Y-028578D01*
G01X0040330Y-028578D02*
G01X0040274Y-028559D01*
G01X0040274Y-028559D02*
G01X0040236Y-028522D01*
G01X0040236Y-028522D02*
G01X0040217Y-028484D01*
G01X0040217Y-028484D02*
G01X0040199Y-028409D01*
G01X0040199Y-028409D02*
G01X0040199Y-028353D01*
G01X0040199Y-028353D02*
G01X0040217Y-028278D01*
G01X0040217Y-028278D02*
G01X0040236Y-028241D01*
G01X0040236Y-028241D02*
G01X0040274Y-028203D01*
G01X0040274Y-028203D02*
G01X0040330Y-028184D01*
G01X0040330Y-028184D02*
G01X0040367Y-028184D01*
G01X0040367Y-028184D02*
G01X0040424Y-028203D01*
G01X0040424Y-028203D02*
G01X0040442Y-028222D01*
G01X0040780Y-028184D02*
G01X0040705Y-028184D01*
G01X0040705Y-028184D02*
G01X0040667Y-028203D01*
G01X0040667Y-028203D02*
G01X0040648Y-028222D01*
G01X0040648Y-028222D02*
G01X0040611Y-028278D01*
G01X0040611Y-028278D02*
G01X0040592Y-028353D01*
G01X0040592Y-028353D02*
G01X0040592Y-028503D01*
G01X0040592Y-028503D02*
G01X0040611Y-028541D01*
G01X0040611Y-028541D02*
G01X0040630Y-028559D01*
G01X0040630Y-028559D02*
G01X0040667Y-028578D01*
G01X0040667Y-028578D02*
G01X0040742Y-028578D01*
G01X0040742Y-028578D02*
G01X0040780Y-028559D01*
G01X0040780Y-028559D02*
G01X0040798Y-028541D01*
G01X0040798Y-028541D02*
G01X0040817Y-028503D01*
G01X0040817Y-028503D02*
G01X0040817Y-028409D01*
G01X0040817Y-028409D02*
G01X0040798Y-028372D01*
G01X0040798Y-028372D02*
G01X0040780Y-028353D01*
G01X0040780Y-028353D02*
G01X0040742Y-028334D01*
G01X0040742Y-028334D02*
G01X0040667Y-028334D01*
G01X0040667Y-028334D02*
G01X0040630Y-028353D01*
G01X0040630Y-028353D02*
G01X0040611Y-028372D01*
G01X0040611Y-028372D02*
G01X0040592Y-028409D01*
G01X0040534Y-031237D02*
G01X0040516Y-031255D01*
G01X0040516Y-031255D02*
G01X0040459Y-031274D01*
G01X0040459Y-031274D02*
G01X0040422Y-031274D01*
G01X0040422Y-031274D02*
G01X0040366Y-031255D01*
G01X0040366Y-031255D02*
G01X0040328Y-031218D01*
G01X0040328Y-031218D02*
G01X0040309Y-031180D01*
G01X0040309Y-031180D02*
G01X0040291Y-031105D01*
G01X0040291Y-031105D02*
G01X0040291Y-031049D01*
G01X0040291Y-031049D02*
G01X0040309Y-030974D01*
G01X0040309Y-030974D02*
G01X0040328Y-030937D01*
G01X0040328Y-030937D02*
G01X0040366Y-030899D01*
G01X0040366Y-030899D02*
G01X0040422Y-030880D01*
G01X0040422Y-030880D02*
G01X0040459Y-030880D01*
G01X0040459Y-030880D02*
G01X0040516Y-030899D01*
G01X0040516Y-030899D02*
G01X0040534Y-030918D01*
G01X0040666Y-030880D02*
G01X0040928Y-030880D01*
G01X0040928Y-030880D02*
G01X0040759Y-031274D01*
G01X0024727Y-028941D02*
G01X0024708Y-028959D01*
G01X0024708Y-028959D02*
G01X0024652Y-028978D01*
G01X0024652Y-028978D02*
G01X0024614Y-028978D01*
G01X0024614Y-028978D02*
G01X0024558Y-028959D01*
G01X0024558Y-028959D02*
G01X0024520Y-028922D01*
G01X0024520Y-028922D02*
G01X0024502Y-028884D01*
G01X0024502Y-028884D02*
G01X0024483Y-028809D01*
G01X0024483Y-028809D02*
G01X0024483Y-028753D01*
G01X0024483Y-028753D02*
G01X0024502Y-028678D01*
G01X0024502Y-028678D02*
G01X0024520Y-028641D01*
G01X0024520Y-028641D02*
G01X0024558Y-028603D01*
G01X0024558Y-028603D02*
G01X0024614Y-028584D01*
G01X0024614Y-028584D02*
G01X0024652Y-028584D01*
G01X0024652Y-028584D02*
G01X0024708Y-028603D01*
G01X0024708Y-028603D02*
G01X0024727Y-028622D01*
G01X0024951Y-028753D02*
G01X0024914Y-028734D01*
G01X0024914Y-028734D02*
G01X0024895Y-028716D01*
G01X0024895Y-028716D02*
G01X0024876Y-028678D01*
G01X0024876Y-028678D02*
G01X0024876Y-028659D01*
G01X0024876Y-028659D02*
G01X0024895Y-028622D01*
G01X0024895Y-028622D02*
G01X0024914Y-028603D01*
G01X0024914Y-028603D02*
G01X0024951Y-028584D01*
G01X0024951Y-028584D02*
G01X0025026Y-028584D01*
G01X0025026Y-028584D02*
G01X0025064Y-028603D01*
G01X0025064Y-028603D02*
G01X0025083Y-028622D01*
G01X0025083Y-028622D02*
G01X0025101Y-028659D01*
G01X0025101Y-028659D02*
G01X0025101Y-028678D01*
G01X0025101Y-028678D02*
G01X0025083Y-028716D01*
G01X0025083Y-028716D02*
G01X0025064Y-028734D01*
G01X0025064Y-028734D02*
G01X0025026Y-028753D01*
G01X0025026Y-028753D02*
G01X0024951Y-028753D01*
G01X0024951Y-028753D02*
G01X0024914Y-028772D01*
G01X0024914Y-028772D02*
G01X0024895Y-028791D01*
G01X0024895Y-028791D02*
G01X0024876Y-028828D01*
G01X0024876Y-028828D02*
G01X0024876Y-028903D01*
G01X0024876Y-028903D02*
G01X0024895Y-028941D01*
G01X0024895Y-028941D02*
G01X0024914Y-028959D01*
G01X0024914Y-028959D02*
G01X0024951Y-028978D01*
G01X0024951Y-028978D02*
G01X0025026Y-028978D01*
G01X0025026Y-028978D02*
G01X0025064Y-028959D01*
G01X0025064Y-028959D02*
G01X0025083Y-028941D01*
G01X0025083Y-028941D02*
G01X0025101Y-028903D01*
G01X0025101Y-028903D02*
G01X0025101Y-028828D01*
G01X0025101Y-028828D02*
G01X0025083Y-028791D01*
G01X0025083Y-028791D02*
G01X0025064Y-028772D01*
G01X0025064Y-028772D02*
G01X0025026Y-028753D01*
G01X0039134Y-023745D02*
G01X0039116Y-023763D01*
G01X0039116Y-023763D02*
G01X0039059Y-023782D01*
G01X0039059Y-023782D02*
G01X0039022Y-023782D01*
G01X0039022Y-023782D02*
G01X0038966Y-023763D01*
G01X0038966Y-023763D02*
G01X0038928Y-023726D01*
G01X0038928Y-023726D02*
G01X0038909Y-023688D01*
G01X0038909Y-023688D02*
G01X0038891Y-023613D01*
G01X0038891Y-023613D02*
G01X0038891Y-023557D01*
G01X0038891Y-023557D02*
G01X0038909Y-023482D01*
G01X0038909Y-023482D02*
G01X0038928Y-023445D01*
G01X0038928Y-023445D02*
G01X0038966Y-023407D01*
G01X0038966Y-023407D02*
G01X0039022Y-023388D01*
G01X0039022Y-023388D02*
G01X0039059Y-023388D01*
G01X0039059Y-023388D02*
G01X0039116Y-023407D01*
G01X0039116Y-023407D02*
G01X0039134Y-023426D01*
G01X0039322Y-023782D02*
G01X0039397Y-023782D01*
G01X0039397Y-023782D02*
G01X0039434Y-023763D01*
G01X0039434Y-023763D02*
G01X0039453Y-023745D01*
G01X0039453Y-023745D02*
G01X0039491Y-023688D01*
G01X0039491Y-023688D02*
G01X0039509Y-023613D01*
G01X0039509Y-023613D02*
G01X0039509Y-023463D01*
G01X0039509Y-023463D02*
G01X0039491Y-023426D01*
G01X0039491Y-023426D02*
G01X0039472Y-023407D01*
G01X0039472Y-023407D02*
G01X0039434Y-023388D01*
G01X0039434Y-023388D02*
G01X0039359Y-023388D01*
G01X0039359Y-023388D02*
G01X0039322Y-023407D01*
G01X0039322Y-023407D02*
G01X0039303Y-023426D01*
G01X0039303Y-023426D02*
G01X0039284Y-023463D01*
G01X0039284Y-023463D02*
G01X0039284Y-023557D01*
G01X0039284Y-023557D02*
G01X0039303Y-023595D01*
G01X0039303Y-023595D02*
G01X0039322Y-023613D01*
G01X0039322Y-023613D02*
G01X0039359Y-023632D01*
G01X0039359Y-023632D02*
G01X0039434Y-023632D01*
G01X0039434Y-023632D02*
G01X0039472Y-023613D01*
G01X0039472Y-023613D02*
G01X0039491Y-023595D01*
G01X0039491Y-023595D02*
G01X0039509Y-023557D01*
G01X0038839Y-026341D02*
G01X0038820Y-026359D01*
G01X0038820Y-026359D02*
G01X0038764Y-026378D01*
G01X0038764Y-026378D02*
G01X0038727Y-026378D01*
G01X0038727Y-026378D02*
G01X0038670Y-026359D01*
G01X0038670Y-026359D02*
G01X0038633Y-026322D01*
G01X0038633Y-026322D02*
G01X0038614Y-026284D01*
G01X0038614Y-026284D02*
G01X0038595Y-026209D01*
G01X0038595Y-026209D02*
G01X0038595Y-026153D01*
G01X0038595Y-026153D02*
G01X0038614Y-026078D01*
G01X0038614Y-026078D02*
G01X0038633Y-026041D01*
G01X0038633Y-026041D02*
G01X0038670Y-026003D01*
G01X0038670Y-026003D02*
G01X0038727Y-025984D01*
G01X0038727Y-025984D02*
G01X0038764Y-025984D01*
G01X0038764Y-025984D02*
G01X0038820Y-026003D01*
G01X0038820Y-026003D02*
G01X0038839Y-026022D01*
G01X0039214Y-026378D02*
G01X0038989Y-026378D01*
G01X0039101Y-026378D02*
G01X0039101Y-025984D01*
G01X0039101Y-025984D02*
G01X0039064Y-026041D01*
G01X0039064Y-026041D02*
G01X0039027Y-026078D01*
G01X0039027Y-026078D02*
G01X0038989Y-026097D01*
G01X0039458Y-025984D02*
G01X0039495Y-025984D01*
G01X0039495Y-025984D02*
G01X0039533Y-026003D01*
G01X0039533Y-026003D02*
G01X0039551Y-026022D01*
G01X0039551Y-026022D02*
G01X0039570Y-026059D01*
G01X0039570Y-026059D02*
G01X0039589Y-026134D01*
G01X0039589Y-026134D02*
G01X0039589Y-026228D01*
G01X0039589Y-026228D02*
G01X0039570Y-026303D01*
G01X0039570Y-026303D02*
G01X0039551Y-026341D01*
G01X0039551Y-026341D02*
G01X0039533Y-026359D01*
G01X0039533Y-026359D02*
G01X0039495Y-026378D01*
G01X0039495Y-026378D02*
G01X0039458Y-026378D01*
G01X0039458Y-026378D02*
G01X0039420Y-026359D01*
G01X0039420Y-026359D02*
G01X0039401Y-026341D01*
G01X0039401Y-026341D02*
G01X0039383Y-026303D01*
G01X0039383Y-026303D02*
G01X0039364Y-026228D01*
G01X0039364Y-026228D02*
G01X0039364Y-026134D01*
G01X0039364Y-026134D02*
G01X0039383Y-026059D01*
G01X0039383Y-026059D02*
G01X0039401Y-026022D01*
G01X0039401Y-026022D02*
G01X0039420Y-026003D01*
G01X0039420Y-026003D02*
G01X0039458Y-025984D01*
G01X0035547Y-038333D02*
G01X0035528Y-038351D01*
G01X0035528Y-038351D02*
G01X0035472Y-038370D01*
G01X0035472Y-038370D02*
G01X0035434Y-038370D01*
G01X0035434Y-038370D02*
G01X0035378Y-038351D01*
G01X0035378Y-038351D02*
G01X0035341Y-038314D01*
G01X0035341Y-038314D02*
G01X0035322Y-038276D01*
G01X0035322Y-038276D02*
G01X0035303Y-038201D01*
G01X0035303Y-038201D02*
G01X0035303Y-038145D01*
G01X0035303Y-038145D02*
G01X0035322Y-038070D01*
G01X0035322Y-038070D02*
G01X0035341Y-038033D01*
G01X0035341Y-038033D02*
G01X0035378Y-037995D01*
G01X0035378Y-037995D02*
G01X0035434Y-037977D01*
G01X0035434Y-037977D02*
G01X0035472Y-037977D01*
G01X0035472Y-037977D02*
G01X0035528Y-037995D01*
G01X0035528Y-037995D02*
G01X0035547Y-038014D01*
G01X0035922Y-038370D02*
G01X0035697Y-038370D01*
G01X0035809Y-038370D02*
G01X0035809Y-037977D01*
G01X0035809Y-037977D02*
G01X0035772Y-038033D01*
G01X0035772Y-038033D02*
G01X0035734Y-038070D01*
G01X0035734Y-038070D02*
G01X0035697Y-038089D01*
G01X0036072Y-038014D02*
G01X0036091Y-037995D01*
G01X0036091Y-037995D02*
G01X0036128Y-037977D01*
G01X0036128Y-037977D02*
G01X0036222Y-037977D01*
G01X0036222Y-037977D02*
G01X0036259Y-037995D01*
G01X0036259Y-037995D02*
G01X0036278Y-038014D01*
G01X0036278Y-038014D02*
G01X0036297Y-038052D01*
G01X0036297Y-038052D02*
G01X0036297Y-038089D01*
G01X0036297Y-038089D02*
G01X0036278Y-038145D01*
G01X0036278Y-038145D02*
G01X0036053Y-038370D01*
G01X0036053Y-038370D02*
G01X0036297Y-038370D01*
G01X0024647Y-031737D02*
G01X0024628Y-031755D01*
G01X0024628Y-031755D02*
G01X0024572Y-031774D01*
G01X0024572Y-031774D02*
G01X0024534Y-031774D01*
G01X0024534Y-031774D02*
G01X0024478Y-031755D01*
G01X0024478Y-031755D02*
G01X0024441Y-031718D01*
G01X0024441Y-031718D02*
G01X0024422Y-031680D01*
G01X0024422Y-031680D02*
G01X0024403Y-031605D01*
G01X0024403Y-031605D02*
G01X0024403Y-031549D01*
G01X0024403Y-031549D02*
G01X0024422Y-031474D01*
G01X0024422Y-031474D02*
G01X0024441Y-031437D01*
G01X0024441Y-031437D02*
G01X0024478Y-031399D01*
G01X0024478Y-031399D02*
G01X0024534Y-031380D01*
G01X0024534Y-031380D02*
G01X0024572Y-031380D01*
G01X0024572Y-031380D02*
G01X0024628Y-031399D01*
G01X0024628Y-031399D02*
G01X0024647Y-031418D01*
G01X0025022Y-031774D02*
G01X0024797Y-031774D01*
G01X0024909Y-031774D02*
G01X0024909Y-031380D01*
G01X0024909Y-031380D02*
G01X0024872Y-031437D01*
G01X0024872Y-031437D02*
G01X0024834Y-031474D01*
G01X0024834Y-031474D02*
G01X0024797Y-031493D01*
G01X0025153Y-031380D02*
G01X0025397Y-031380D01*
G01X0025397Y-031380D02*
G01X0025266Y-031530D01*
G01X0025266Y-031530D02*
G01X0025322Y-031530D01*
G01X0025322Y-031530D02*
G01X0025359Y-031549D01*
G01X0025359Y-031549D02*
G01X0025378Y-031568D01*
G01X0025378Y-031568D02*
G01X0025397Y-031605D01*
G01X0025397Y-031605D02*
G01X0025397Y-031699D01*
G01X0025397Y-031699D02*
G01X0025378Y-031737D01*
G01X0025378Y-031737D02*
G01X0025359Y-031755D01*
G01X0025359Y-031755D02*
G01X0025322Y-031774D01*
G01X0025322Y-031774D02*
G01X0025209Y-031774D01*
G01X0025209Y-031774D02*
G01X0025172Y-031755D01*
G01X0025172Y-031755D02*
G01X0025153Y-031737D01*
G01X0035839Y-024941D02*
G01X0035820Y-024959D01*
G01X0035820Y-024959D02*
G01X0035764Y-024978D01*
G01X0035764Y-024978D02*
G01X0035727Y-024978D01*
G01X0035727Y-024978D02*
G01X0035670Y-024959D01*
G01X0035670Y-024959D02*
G01X0035633Y-024922D01*
G01X0035633Y-024922D02*
G01X0035614Y-024884D01*
G01X0035614Y-024884D02*
G01X0035595Y-024809D01*
G01X0035595Y-024809D02*
G01X0035595Y-024753D01*
G01X0035595Y-024753D02*
G01X0035614Y-024678D01*
G01X0035614Y-024678D02*
G01X0035633Y-024641D01*
G01X0035633Y-024641D02*
G01X0035670Y-024603D01*
G01X0035670Y-024603D02*
G01X0035727Y-024584D01*
G01X0035727Y-024584D02*
G01X0035764Y-024584D01*
G01X0035764Y-024584D02*
G01X0035820Y-024603D01*
G01X0035820Y-024603D02*
G01X0035839Y-024622D01*
G01X0036214Y-024978D02*
G01X0035989Y-024978D01*
G01X0036101Y-024978D02*
G01X0036101Y-024584D01*
G01X0036101Y-024584D02*
G01X0036064Y-024641D01*
G01X0036064Y-024641D02*
G01X0036027Y-024678D01*
G01X0036027Y-024678D02*
G01X0035989Y-024697D01*
G01X0036570Y-024584D02*
G01X0036383Y-024584D01*
G01X0036383Y-024584D02*
G01X0036364Y-024772D01*
G01X0036364Y-024772D02*
G01X0036383Y-024753D01*
G01X0036383Y-024753D02*
G01X0036420Y-024734D01*
G01X0036420Y-024734D02*
G01X0036514Y-024734D01*
G01X0036514Y-024734D02*
G01X0036551Y-024753D01*
G01X0036551Y-024753D02*
G01X0036570Y-024772D01*
G01X0036570Y-024772D02*
G01X0036589Y-024809D01*
G01X0036589Y-024809D02*
G01X0036589Y-024903D01*
G01X0036589Y-024903D02*
G01X0036570Y-024941D01*
G01X0036570Y-024941D02*
G01X0036551Y-024959D01*
G01X0036551Y-024959D02*
G01X0036514Y-024978D01*
G01X0036514Y-024978D02*
G01X0036420Y-024978D01*
G01X0036420Y-024978D02*
G01X0036383Y-024959D01*
G01X0036383Y-024959D02*
G01X0036364Y-024941D01*
G01X0027047Y-037745D02*
G01X0027028Y-037763D01*
G01X0027028Y-037763D02*
G01X0026972Y-037782D01*
G01X0026972Y-037782D02*
G01X0026934Y-037782D01*
G01X0026934Y-037782D02*
G01X0026878Y-037763D01*
G01X0026878Y-037763D02*
G01X0026841Y-037726D01*
G01X0026841Y-037726D02*
G01X0026822Y-037688D01*
G01X0026822Y-037688D02*
G01X0026803Y-037613D01*
G01X0026803Y-037613D02*
G01X0026803Y-037557D01*
G01X0026803Y-037557D02*
G01X0026822Y-037482D01*
G01X0026822Y-037482D02*
G01X0026841Y-037445D01*
G01X0026841Y-037445D02*
G01X0026878Y-037407D01*
G01X0026878Y-037407D02*
G01X0026934Y-037388D01*
G01X0026934Y-037388D02*
G01X0026972Y-037388D01*
G01X0026972Y-037388D02*
G01X0027028Y-037407D01*
G01X0027028Y-037407D02*
G01X0027047Y-037426D01*
G01X0027422Y-037782D02*
G01X0027197Y-037782D01*
G01X0027309Y-037782D02*
G01X0027309Y-037388D01*
G01X0027309Y-037388D02*
G01X0027272Y-037445D01*
G01X0027272Y-037445D02*
G01X0027234Y-037482D01*
G01X0027234Y-037482D02*
G01X0027197Y-037501D01*
G01X0027759Y-037388D02*
G01X0027684Y-037388D01*
G01X0027684Y-037388D02*
G01X0027647Y-037407D01*
G01X0027647Y-037407D02*
G01X0027628Y-037426D01*
G01X0027628Y-037426D02*
G01X0027591Y-037482D01*
G01X0027591Y-037482D02*
G01X0027572Y-037557D01*
G01X0027572Y-037557D02*
G01X0027572Y-037707D01*
G01X0027572Y-037707D02*
G01X0027591Y-037745D01*
G01X0027591Y-037745D02*
G01X0027609Y-037763D01*
G01X0027609Y-037763D02*
G01X0027647Y-037782D01*
G01X0027647Y-037782D02*
G01X0027722Y-037782D01*
G01X0027722Y-037782D02*
G01X0027759Y-037763D01*
G01X0027759Y-037763D02*
G01X0027778Y-037745D01*
G01X0027778Y-037745D02*
G01X0027797Y-037707D01*
G01X0027797Y-037707D02*
G01X0027797Y-037613D01*
G01X0027797Y-037613D02*
G01X0027778Y-037576D01*
G01X0027778Y-037576D02*
G01X0027759Y-037557D01*
G01X0027759Y-037557D02*
G01X0027722Y-037538D01*
G01X0027722Y-037538D02*
G01X0027647Y-037538D01*
G01X0027647Y-037538D02*
G01X0027609Y-037557D01*
G01X0027609Y-037557D02*
G01X0027591Y-037576D01*
G01X0027591Y-037576D02*
G01X0027572Y-037613D01*
G54D11*
G01X0032704Y-044248D02*
G01X0032704Y-043848D01*
G01X0032704Y-043848D02*
G01X0032799Y-043848D01*
G01X0032799Y-043848D02*
G01X0032856Y-043867D01*
G01X0032856Y-043867D02*
G01X0032894Y-043905D01*
G01X0032894Y-043905D02*
G01X0032913Y-043943D01*
G01X0032913Y-043943D02*
G01X0032932Y-044019D01*
G01X0032932Y-044019D02*
G01X0032932Y-044076D01*
G01X0032932Y-044076D02*
G01X0032913Y-044153D01*
G01X0032913Y-044153D02*
G01X0032894Y-044191D01*
G01X0032894Y-044191D02*
G01X0032856Y-044229D01*
G01X0032856Y-044229D02*
G01X0032799Y-044248D01*
G01X0032799Y-044248D02*
G01X0032704Y-044248D01*
G01X0033313Y-044248D02*
G01X0033085Y-044248D01*
G01X0033199Y-044248D02*
G01X0033199Y-043848D01*
G01X0033199Y-043848D02*
G01X0033161Y-043905D01*
G01X0033161Y-043905D02*
G01X0033123Y-043943D01*
G01X0033123Y-043943D02*
G01X0033085Y-043962D01*
G01X0037404Y-036514D02*
G01X0037404Y-036114D01*
G01X0037404Y-036114D02*
G01X0037499Y-036114D01*
G01X0037499Y-036114D02*
G01X0037556Y-036133D01*
G01X0037556Y-036133D02*
G01X0037594Y-036171D01*
G01X0037594Y-036171D02*
G01X0037613Y-036209D01*
G01X0037613Y-036209D02*
G01X0037632Y-036285D01*
G01X0037632Y-036285D02*
G01X0037632Y-036343D01*
G01X0037632Y-036343D02*
G01X0037613Y-036419D01*
G01X0037613Y-036419D02*
G01X0037594Y-036457D01*
G01X0037594Y-036457D02*
G01X0037556Y-036495D01*
G01X0037556Y-036495D02*
G01X0037499Y-036514D01*
G01X0037499Y-036514D02*
G01X0037404Y-036514D01*
G01X0037785Y-036152D02*
G01X0037804Y-036133D01*
G01X0037804Y-036133D02*
G01X0037842Y-036114D01*
G01X0037842Y-036114D02*
G01X0037937Y-036114D01*
G01X0037937Y-036114D02*
G01X0037975Y-036133D01*
G01X0037975Y-036133D02*
G01X0037994Y-036152D01*
G01X0037994Y-036152D02*
G01X0038013Y-036190D01*
G01X0038013Y-036190D02*
G01X0038013Y-036228D01*
G01X0038013Y-036228D02*
G01X0037994Y-036285D01*
G01X0037994Y-036285D02*
G01X0037766Y-036514D01*
G01X0037766Y-036514D02*
G01X0038013Y-036514D01*
G01X0029967Y-045481D02*
G01X0029967Y-045767D01*
G01X0029967Y-045767D02*
G01X0029948Y-045824D01*
G01X0029948Y-045824D02*
G01X0029910Y-045862D01*
G01X0029910Y-045862D02*
G01X0029852Y-045881D01*
G01X0029852Y-045881D02*
G01X0029814Y-045881D01*
G01X0030138Y-045519D02*
G01X0030157Y-045500D01*
G01X0030157Y-045500D02*
G01X0030195Y-045481D01*
G01X0030195Y-045481D02*
G01X0030290Y-045481D01*
G01X0030290Y-045481D02*
G01X0030329Y-045500D01*
G01X0030329Y-045500D02*
G01X0030348Y-045519D01*
G01X0030348Y-045519D02*
G01X0030367Y-045557D01*
G01X0030367Y-045557D02*
G01X0030367Y-045595D01*
G01X0030367Y-045595D02*
G01X0030348Y-045652D01*
G01X0030348Y-045652D02*
G01X0030119Y-045881D01*
G01X0030119Y-045881D02*
G01X0030367Y-045881D01*
G01X0024267Y-037581D02*
G01X0024267Y-037867D01*
G01X0024267Y-037867D02*
G01X0024248Y-037924D01*
G01X0024248Y-037924D02*
G01X0024210Y-037962D01*
G01X0024210Y-037962D02*
G01X0024152Y-037981D01*
G01X0024152Y-037981D02*
G01X0024114Y-037981D01*
G01X0024648Y-037581D02*
G01X0024457Y-037581D01*
G01X0024457Y-037581D02*
G01X0024438Y-037771D01*
G01X0024438Y-037771D02*
G01X0024457Y-037752D01*
G01X0024457Y-037752D02*
G01X0024495Y-037733D01*
G01X0024495Y-037733D02*
G01X0024590Y-037733D01*
G01X0024590Y-037733D02*
G01X0024629Y-037752D01*
G01X0024629Y-037752D02*
G01X0024648Y-037771D01*
G01X0024648Y-037771D02*
G01X0024667Y-037810D01*
G01X0024667Y-037810D02*
G01X0024667Y-037905D01*
G01X0024667Y-037905D02*
G01X0024648Y-037943D01*
G01X0024648Y-037943D02*
G01X0024629Y-037962D01*
G01X0024629Y-037962D02*
G01X0024590Y-037981D01*
G01X0024590Y-037981D02*
G01X0024495Y-037981D01*
G01X0024495Y-037981D02*
G01X0024457Y-037962D01*
G01X0024457Y-037962D02*
G01X0024438Y-037943D01*
G01X0036841Y-018981D02*
G01X0036651Y-018981D01*
G01X0036651Y-018981D02*
G01X0036651Y-018581D01*
G01X0036955Y-018867D02*
G01X0037146Y-018867D01*
G01X0036917Y-018981D02*
G01X0037051Y-018581D01*
G01X0037051Y-018581D02*
G01X0037184Y-018981D01*
G01X0037317Y-018981D02*
G01X0037317Y-018581D01*
G01X0037317Y-018581D02*
G01X0037451Y-018867D01*
G01X0037451Y-018867D02*
G01X0037584Y-018581D01*
G01X0037584Y-018581D02*
G01X0037584Y-018981D01*
G01X0037775Y-018981D02*
G01X0037775Y-018581D01*
G01X0037775Y-018581D02*
G01X0037927Y-018581D01*
G01X0037927Y-018581D02*
G01X0037965Y-018600D01*
G01X0037965Y-018600D02*
G01X0037984Y-018619D01*
G01X0037984Y-018619D02*
G01X0038003Y-018657D01*
G01X0038003Y-018657D02*
G01X0038003Y-018714D01*
G01X0038003Y-018714D02*
G01X0037984Y-018752D01*
G01X0037984Y-018752D02*
G01X0037965Y-018771D01*
G01X0037965Y-018771D02*
G01X0037927Y-018790D01*
G01X0037927Y-018790D02*
G01X0037775Y-018790D01*
G01X0038384Y-018981D02*
G01X0038155Y-018981D01*
G01X0038270Y-018981D02*
G01X0038270Y-018581D01*
G01X0038270Y-018581D02*
G01X0038232Y-018638D01*
G01X0038232Y-018638D02*
G01X0038194Y-018676D01*
G01X0038194Y-018676D02*
G01X0038155Y-018695D01*
G54D16*
G01X0032263Y-037443D02*
G01X0032225Y-037424D01*
G01X0032225Y-037424D02*
G01X0032188Y-037387D01*
G01X0032188Y-037387D02*
G01X0032131Y-037331D01*
G01X0032131Y-037331D02*
G01X0032094Y-037312D01*
G01X0032094Y-037312D02*
G01X0032056Y-037312D01*
G01X0032075Y-037406D02*
G01X0032038Y-037387D01*
G01X0032038Y-037387D02*
G01X0032000Y-037349D01*
G01X0032000Y-037349D02*
G01X0031981Y-037274D01*
G01X0031981Y-037274D02*
G01X0031981Y-037143D01*
G01X0031981Y-037143D02*
G01X0032000Y-037068D01*
G01X0032000Y-037068D02*
G01X0032038Y-037031D01*
G01X0032038Y-037031D02*
G01X0032075Y-037012D01*
G01X0032075Y-037012D02*
G01X0032150Y-037012D01*
G01X0032150Y-037012D02*
G01X0032188Y-037031D01*
G01X0032188Y-037031D02*
G01X0032225Y-037068D01*
G01X0032225Y-037068D02*
G01X0032244Y-037143D01*
G01X0032244Y-037143D02*
G01X0032244Y-037274D01*
G01X0032244Y-037274D02*
G01X0032225Y-037349D01*
G01X0032225Y-037349D02*
G01X0032188Y-037387D01*
G01X0032188Y-037387D02*
G01X0032150Y-037406D01*
G01X0032150Y-037406D02*
G01X0032075Y-037406D01*
G01X0032619Y-037406D02*
G01X0032394Y-037406D01*
G01X0032506Y-037406D02*
G01X0032506Y-037012D01*
G01X0032506Y-037012D02*
G01X0032469Y-037068D01*
G01X0032469Y-037068D02*
G01X0032431Y-037106D01*
G01X0032431Y-037106D02*
G01X0032394Y-037124D01*
G01X0025090Y-021916D02*
G01X0025053Y-021897D01*
G01X0025053Y-021897D02*
G01X0025015Y-021859D01*
G01X0025015Y-021859D02*
G01X0024959Y-021803D01*
G01X0024959Y-021803D02*
G01X0024921Y-021784D01*
G01X0024921Y-021784D02*
G01X0024884Y-021784D01*
G01X0024903Y-021878D02*
G01X0024865Y-021859D01*
G01X0024865Y-021859D02*
G01X0024828Y-021822D01*
G01X0024828Y-021822D02*
G01X0024809Y-021747D01*
G01X0024809Y-021747D02*
G01X0024809Y-021616D01*
G01X0024809Y-021616D02*
G01X0024828Y-021541D01*
G01X0024828Y-021541D02*
G01X0024865Y-021503D01*
G01X0024865Y-021503D02*
G01X0024903Y-021484D01*
G01X0024903Y-021484D02*
G01X0024978Y-021484D01*
G01X0024978Y-021484D02*
G01X0025015Y-021503D01*
G01X0025015Y-021503D02*
G01X0025053Y-021541D01*
G01X0025053Y-021541D02*
G01X0025071Y-021616D01*
G01X0025071Y-021616D02*
G01X0025071Y-021747D01*
G01X0025071Y-021747D02*
G01X0025053Y-021822D01*
G01X0025053Y-021822D02*
G01X0025015Y-021859D01*
G01X0025015Y-021859D02*
G01X0024978Y-021878D01*
G01X0024978Y-021878D02*
G01X0024903Y-021878D01*
G01X0025221Y-021522D02*
G01X0025240Y-021503D01*
G01X0025240Y-021503D02*
G01X0025278Y-021484D01*
G01X0025278Y-021484D02*
G01X0025371Y-021484D01*
G01X0025371Y-021484D02*
G01X0025409Y-021503D01*
G01X0025409Y-021503D02*
G01X0025428Y-021522D01*
G01X0025428Y-021522D02*
G01X0025446Y-021559D01*
G01X0025446Y-021559D02*
G01X0025446Y-021597D01*
G01X0025446Y-021597D02*
G01X0025428Y-021653D01*
G01X0025428Y-021653D02*
G01X0025203Y-021878D01*
G01X0025203Y-021878D02*
G01X0025446Y-021878D01*
G01X0029438Y-020878D02*
G01X0029307Y-020691D01*
G01X0029213Y-020878D02*
G01X0029213Y-020484D01*
G01X0029213Y-020484D02*
G01X0029363Y-020484D01*
G01X0029363Y-020484D02*
G01X0029401Y-020503D01*
G01X0029401Y-020503D02*
G01X0029420Y-020522D01*
G01X0029420Y-020522D02*
G01X0029438Y-020559D01*
G01X0029438Y-020559D02*
G01X0029438Y-020616D01*
G01X0029438Y-020616D02*
G01X0029420Y-020653D01*
G01X0029420Y-020653D02*
G01X0029401Y-020672D01*
G01X0029401Y-020672D02*
G01X0029363Y-020691D01*
G01X0029363Y-020691D02*
G01X0029213Y-020691D01*
G01X0029813Y-020878D02*
G01X0029588Y-020878D01*
G01X0029701Y-020878D02*
G01X0029701Y-020484D01*
G01X0029701Y-020484D02*
G01X0029663Y-020541D01*
G01X0029663Y-020541D02*
G01X0029626Y-020578D01*
G01X0029626Y-020578D02*
G01X0029588Y-020597D01*
G01X0034930Y-026878D02*
G01X0034799Y-026691D01*
G01X0034705Y-026878D02*
G01X0034705Y-026484D01*
G01X0034705Y-026484D02*
G01X0034855Y-026484D01*
G01X0034855Y-026484D02*
G01X0034893Y-026503D01*
G01X0034893Y-026503D02*
G01X0034912Y-026522D01*
G01X0034912Y-026522D02*
G01X0034930Y-026559D01*
G01X0034930Y-026559D02*
G01X0034930Y-026616D01*
G01X0034930Y-026616D02*
G01X0034912Y-026653D01*
G01X0034912Y-026653D02*
G01X0034893Y-026672D01*
G01X0034893Y-026672D02*
G01X0034855Y-026691D01*
G01X0034855Y-026691D02*
G01X0034705Y-026691D01*
G01X0035062Y-026484D02*
G01X0035305Y-026484D01*
G01X0035305Y-026484D02*
G01X0035174Y-026634D01*
G01X0035174Y-026634D02*
G01X0035230Y-026634D01*
G01X0035230Y-026634D02*
G01X0035268Y-026653D01*
G01X0035268Y-026653D02*
G01X0035287Y-026672D01*
G01X0035287Y-026672D02*
G01X0035305Y-026709D01*
G01X0035305Y-026709D02*
G01X0035305Y-026803D01*
G01X0035305Y-026803D02*
G01X0035287Y-026841D01*
G01X0035287Y-026841D02*
G01X0035268Y-026859D01*
G01X0035268Y-026859D02*
G01X0035230Y-026878D01*
G01X0035230Y-026878D02*
G01X0035118Y-026878D01*
G01X0035118Y-026878D02*
G01X0035080Y-026859D01*
G01X0035080Y-026859D02*
G01X0035062Y-026841D01*
G01X0029234Y-031474D02*
G01X0029103Y-031287D01*
G01X0029009Y-031474D02*
G01X0029009Y-031080D01*
G01X0029009Y-031080D02*
G01X0029159Y-031080D01*
G01X0029159Y-031080D02*
G01X0029197Y-031099D01*
G01X0029197Y-031099D02*
G01X0029216Y-031118D01*
G01X0029216Y-031118D02*
G01X0029234Y-031155D01*
G01X0029234Y-031155D02*
G01X0029234Y-031212D01*
G01X0029234Y-031212D02*
G01X0029216Y-031249D01*
G01X0029216Y-031249D02*
G01X0029197Y-031268D01*
G01X0029197Y-031268D02*
G01X0029159Y-031287D01*
G01X0029159Y-031287D02*
G01X0029009Y-031287D01*
G01X0029572Y-031212D02*
G01X0029572Y-031474D01*
G01X0029478Y-031062D02*
G01X0029384Y-031343D01*
G01X0029384Y-031343D02*
G01X0029628Y-031343D01*
G01X0029430Y-016278D02*
G01X0029299Y-016091D01*
G01X0029205Y-016278D02*
G01X0029205Y-015884D01*
G01X0029205Y-015884D02*
G01X0029355Y-015884D01*
G01X0029355Y-015884D02*
G01X0029393Y-015903D01*
G01X0029393Y-015903D02*
G01X0029412Y-015922D01*
G01X0029412Y-015922D02*
G01X0029430Y-015959D01*
G01X0029430Y-015959D02*
G01X0029430Y-016016D01*
G01X0029430Y-016016D02*
G01X0029412Y-016053D01*
G01X0029412Y-016053D02*
G01X0029393Y-016072D01*
G01X0029393Y-016072D02*
G01X0029355Y-016091D01*
G01X0029355Y-016091D02*
G01X0029205Y-016091D01*
G01X0029787Y-015884D02*
G01X0029599Y-015884D01*
G01X0029599Y-015884D02*
G01X0029580Y-016072D01*
G01X0029580Y-016072D02*
G01X0029599Y-016053D01*
G01X0029599Y-016053D02*
G01X0029637Y-016034D01*
G01X0029637Y-016034D02*
G01X0029730Y-016034D01*
G01X0029730Y-016034D02*
G01X0029768Y-016053D01*
G01X0029768Y-016053D02*
G01X0029787Y-016072D01*
G01X0029787Y-016072D02*
G01X0029805Y-016109D01*
G01X0029805Y-016109D02*
G01X0029805Y-016203D01*
G01X0029805Y-016203D02*
G01X0029787Y-016241D01*
G01X0029787Y-016241D02*
G01X0029768Y-016259D01*
G01X0029768Y-016259D02*
G01X0029730Y-016278D01*
G01X0029730Y-016278D02*
G01X0029637Y-016278D01*
G01X0029637Y-016278D02*
G01X0029599Y-016259D01*
G01X0029599Y-016259D02*
G01X0029580Y-016241D01*
G01X0033838Y-019878D02*
G01X0033707Y-019691D01*
G01X0033613Y-019878D02*
G01X0033613Y-019484D01*
G01X0033613Y-019484D02*
G01X0033763Y-019484D01*
G01X0033763Y-019484D02*
G01X0033801Y-019503D01*
G01X0033801Y-019503D02*
G01X0033820Y-019522D01*
G01X0033820Y-019522D02*
G01X0033838Y-019559D01*
G01X0033838Y-019559D02*
G01X0033838Y-019616D01*
G01X0033838Y-019616D02*
G01X0033820Y-019653D01*
G01X0033820Y-019653D02*
G01X0033801Y-019672D01*
G01X0033801Y-019672D02*
G01X0033763Y-019691D01*
G01X0033763Y-019691D02*
G01X0033613Y-019691D01*
G01X0034176Y-019484D02*
G01X0034101Y-019484D01*
G01X0034101Y-019484D02*
G01X0034063Y-019503D01*
G01X0034063Y-019503D02*
G01X0034045Y-019522D01*
G01X0034045Y-019522D02*
G01X0034007Y-019578D01*
G01X0034007Y-019578D02*
G01X0033988Y-019653D01*
G01X0033988Y-019653D02*
G01X0033988Y-019803D01*
G01X0033988Y-019803D02*
G01X0034007Y-019841D01*
G01X0034007Y-019841D02*
G01X0034026Y-019859D01*
G01X0034026Y-019859D02*
G01X0034063Y-019878D01*
G01X0034063Y-019878D02*
G01X0034138Y-019878D01*
G01X0034138Y-019878D02*
G01X0034176Y-019859D01*
G01X0034176Y-019859D02*
G01X0034195Y-019841D01*
G01X0034195Y-019841D02*
G01X0034213Y-019803D01*
G01X0034213Y-019803D02*
G01X0034213Y-019709D01*
G01X0034213Y-019709D02*
G01X0034195Y-019672D01*
G01X0034195Y-019672D02*
G01X0034176Y-019653D01*
G01X0034176Y-019653D02*
G01X0034138Y-019634D01*
G01X0034138Y-019634D02*
G01X0034063Y-019634D01*
G01X0034063Y-019634D02*
G01X0034026Y-019653D01*
G01X0034026Y-019653D02*
G01X0034007Y-019672D01*
G01X0034007Y-019672D02*
G01X0033988Y-019709D01*
G01X0034930Y-023378D02*
G01X0034799Y-023191D01*
G01X0034705Y-023378D02*
G01X0034705Y-022984D01*
G01X0034705Y-022984D02*
G01X0034855Y-022984D01*
G01X0034855Y-022984D02*
G01X0034893Y-023003D01*
G01X0034893Y-023003D02*
G01X0034912Y-023022D01*
G01X0034912Y-023022D02*
G01X0034930Y-023059D01*
G01X0034930Y-023059D02*
G01X0034930Y-023116D01*
G01X0034930Y-023116D02*
G01X0034912Y-023153D01*
G01X0034912Y-023153D02*
G01X0034893Y-023172D01*
G01X0034893Y-023172D02*
G01X0034855Y-023191D01*
G01X0034855Y-023191D02*
G01X0034705Y-023191D01*
G01X0035062Y-022984D02*
G01X0035324Y-022984D01*
G01X0035324Y-022984D02*
G01X0035155Y-023378D01*
G01X0038334Y-030274D02*
G01X0038203Y-030087D01*
G01X0038109Y-030274D02*
G01X0038109Y-029880D01*
G01X0038109Y-029880D02*
G01X0038259Y-029880D01*
G01X0038259Y-029880D02*
G01X0038297Y-029899D01*
G01X0038297Y-029899D02*
G01X0038316Y-029918D01*
G01X0038316Y-029918D02*
G01X0038334Y-029955D01*
G01X0038334Y-029955D02*
G01X0038334Y-030012D01*
G01X0038334Y-030012D02*
G01X0038316Y-030049D01*
G01X0038316Y-030049D02*
G01X0038297Y-030068D01*
G01X0038297Y-030068D02*
G01X0038259Y-030087D01*
G01X0038259Y-030087D02*
G01X0038109Y-030087D01*
G01X0038559Y-030049D02*
G01X0038522Y-030030D01*
G01X0038522Y-030030D02*
G01X0038503Y-030012D01*
G01X0038503Y-030012D02*
G01X0038484Y-029974D01*
G01X0038484Y-029974D02*
G01X0038484Y-029955D01*
G01X0038484Y-029955D02*
G01X0038503Y-029918D01*
G01X0038503Y-029918D02*
G01X0038522Y-029899D01*
G01X0038522Y-029899D02*
G01X0038559Y-029880D01*
G01X0038559Y-029880D02*
G01X0038634Y-029880D01*
G01X0038634Y-029880D02*
G01X0038672Y-029899D01*
G01X0038672Y-029899D02*
G01X0038691Y-029918D01*
G01X0038691Y-029918D02*
G01X0038709Y-029955D01*
G01X0038709Y-029955D02*
G01X0038709Y-029974D01*
G01X0038709Y-029974D02*
G01X0038691Y-030012D01*
G01X0038691Y-030012D02*
G01X0038672Y-030030D01*
G01X0038672Y-030030D02*
G01X0038634Y-030049D01*
G01X0038634Y-030049D02*
G01X0038559Y-030049D01*
G01X0038559Y-030049D02*
G01X0038522Y-030068D01*
G01X0038522Y-030068D02*
G01X0038503Y-030087D01*
G01X0038503Y-030087D02*
G01X0038484Y-030124D01*
G01X0038484Y-030124D02*
G01X0038484Y-030199D01*
G01X0038484Y-030199D02*
G01X0038503Y-030237D01*
G01X0038503Y-030237D02*
G01X0038522Y-030255D01*
G01X0038522Y-030255D02*
G01X0038559Y-030274D01*
G01X0038559Y-030274D02*
G01X0038634Y-030274D01*
G01X0038634Y-030274D02*
G01X0038672Y-030255D01*
G01X0038672Y-030255D02*
G01X0038691Y-030237D01*
G01X0038691Y-030237D02*
G01X0038709Y-030199D01*
G01X0038709Y-030199D02*
G01X0038709Y-030124D01*
G01X0038709Y-030124D02*
G01X0038691Y-030087D01*
G01X0038691Y-030087D02*
G01X0038672Y-030068D01*
G01X0038672Y-030068D02*
G01X0038634Y-030049D01*
G01X0034938Y-021678D02*
G01X0034807Y-021491D01*
G01X0034713Y-021678D02*
G01X0034713Y-021284D01*
G01X0034713Y-021284D02*
G01X0034863Y-021284D01*
G01X0034863Y-021284D02*
G01X0034901Y-021303D01*
G01X0034901Y-021303D02*
G01X0034920Y-021322D01*
G01X0034920Y-021322D02*
G01X0034938Y-021359D01*
G01X0034938Y-021359D02*
G01X0034938Y-021416D01*
G01X0034938Y-021416D02*
G01X0034920Y-021453D01*
G01X0034920Y-021453D02*
G01X0034901Y-021472D01*
G01X0034901Y-021472D02*
G01X0034863Y-021491D01*
G01X0034863Y-021491D02*
G01X0034713Y-021491D01*
G01X0035126Y-021678D02*
G01X0035201Y-021678D01*
G01X0035201Y-021678D02*
G01X0035238Y-021659D01*
G01X0035238Y-021659D02*
G01X0035257Y-021641D01*
G01X0035257Y-021641D02*
G01X0035295Y-021584D01*
G01X0035295Y-021584D02*
G01X0035313Y-021509D01*
G01X0035313Y-021509D02*
G01X0035313Y-021359D01*
G01X0035313Y-021359D02*
G01X0035295Y-021322D01*
G01X0035295Y-021322D02*
G01X0035276Y-021303D01*
G01X0035276Y-021303D02*
G01X0035238Y-021284D01*
G01X0035238Y-021284D02*
G01X0035163Y-021284D01*
G01X0035163Y-021284D02*
G01X0035126Y-021303D01*
G01X0035126Y-021303D02*
G01X0035107Y-021322D01*
G01X0035107Y-021322D02*
G01X0035088Y-021359D01*
G01X0035088Y-021359D02*
G01X0035088Y-021453D01*
G01X0035088Y-021453D02*
G01X0035107Y-021491D01*
G01X0035107Y-021491D02*
G01X0035126Y-021509D01*
G01X0035126Y-021509D02*
G01X0035163Y-021528D01*
G01X0035163Y-021528D02*
G01X0035238Y-021528D01*
G01X0035238Y-021528D02*
G01X0035276Y-021509D01*
G01X0035276Y-021509D02*
G01X0035295Y-021491D01*
G01X0035295Y-021491D02*
G01X0035313Y-021453D01*
G01X0043747Y-030528D02*
G01X0043616Y-030341D01*
G01X0043522Y-030528D02*
G01X0043522Y-030135D01*
G01X0043522Y-030135D02*
G01X0043672Y-030135D01*
G01X0043672Y-030135D02*
G01X0043709Y-030154D01*
G01X0043709Y-030154D02*
G01X0043728Y-030172D01*
G01X0043728Y-030172D02*
G01X0043747Y-030210D01*
G01X0043747Y-030210D02*
G01X0043747Y-030266D01*
G01X0043747Y-030266D02*
G01X0043728Y-030304D01*
G01X0043728Y-030304D02*
G01X0043709Y-030322D01*
G01X0043709Y-030322D02*
G01X0043672Y-030341D01*
G01X0043672Y-030341D02*
G01X0043522Y-030341D01*
G01X0044122Y-030528D02*
G01X0043897Y-030528D01*
G01X0044009Y-030528D02*
G01X0044009Y-030135D01*
G01X0044009Y-030135D02*
G01X0043972Y-030191D01*
G01X0043972Y-030191D02*
G01X0043934Y-030229D01*
G01X0043934Y-030229D02*
G01X0043897Y-030247D01*
G01X0044366Y-030135D02*
G01X0044403Y-030135D01*
G01X0044403Y-030135D02*
G01X0044441Y-030154D01*
G01X0044441Y-030154D02*
G01X0044459Y-030172D01*
G01X0044459Y-030172D02*
G01X0044478Y-030210D01*
G01X0044478Y-030210D02*
G01X0044497Y-030285D01*
G01X0044497Y-030285D02*
G01X0044497Y-030379D01*
G01X0044497Y-030379D02*
G01X0044478Y-030454D01*
G01X0044478Y-030454D02*
G01X0044459Y-030491D01*
G01X0044459Y-030491D02*
G01X0044441Y-030510D01*
G01X0044441Y-030510D02*
G01X0044403Y-030528D01*
G01X0044403Y-030528D02*
G01X0044366Y-030528D01*
G01X0044366Y-030528D02*
G01X0044328Y-030510D01*
G01X0044328Y-030510D02*
G01X0044309Y-030491D01*
G01X0044309Y-030491D02*
G01X0044291Y-030454D01*
G01X0044291Y-030454D02*
G01X0044272Y-030379D01*
G01X0044272Y-030379D02*
G01X0044272Y-030285D01*
G01X0044272Y-030285D02*
G01X0044291Y-030210D01*
G01X0044291Y-030210D02*
G01X0044309Y-030172D01*
G01X0044309Y-030172D02*
G01X0044328Y-030154D01*
G01X0044328Y-030154D02*
G01X0044366Y-030135D01*
G01X0034078Y-037357D02*
G01X0033891Y-037488D01*
G01X0034078Y-037582D02*
G01X0033684Y-037582D01*
G01X0033684Y-037582D02*
G01X0033684Y-037432D01*
G01X0033684Y-037432D02*
G01X0033703Y-037395D01*
G01X0033703Y-037395D02*
G01X0033722Y-037376D01*
G01X0033722Y-037376D02*
G01X0033759Y-037357D01*
G01X0033759Y-037357D02*
G01X0033816Y-037357D01*
G01X0033816Y-037357D02*
G01X0033853Y-037376D01*
G01X0033853Y-037376D02*
G01X0033872Y-037395D01*
G01X0033872Y-037395D02*
G01X0033891Y-037432D01*
G01X0033891Y-037432D02*
G01X0033891Y-037582D01*
G01X0034078Y-036982D02*
G01X0034078Y-037207D01*
G01X0034078Y-037095D02*
G01X0033684Y-037095D01*
G01X0033684Y-037095D02*
G01X0033741Y-037132D01*
G01X0033741Y-037132D02*
G01X0033778Y-037170D01*
G01X0033778Y-037170D02*
G01X0033797Y-037207D01*
G01X0034078Y-036607D02*
G01X0034078Y-036832D01*
G01X0034078Y-036720D02*
G01X0033684Y-036720D01*
G01X0033684Y-036720D02*
G01X0033741Y-036757D01*
G01X0033741Y-036757D02*
G01X0033778Y-036795D01*
G01X0033778Y-036795D02*
G01X0033797Y-036832D01*
G01X0030678Y-036549D02*
G01X0030491Y-036680D01*
G01X0030678Y-036774D02*
G01X0030284Y-036774D01*
G01X0030284Y-036774D02*
G01X0030284Y-036624D01*
G01X0030284Y-036624D02*
G01X0030303Y-036587D01*
G01X0030303Y-036587D02*
G01X0030322Y-036568D01*
G01X0030322Y-036568D02*
G01X0030359Y-036549D01*
G01X0030359Y-036549D02*
G01X0030416Y-036549D01*
G01X0030416Y-036549D02*
G01X0030453Y-036568D01*
G01X0030453Y-036568D02*
G01X0030472Y-036587D01*
G01X0030472Y-036587D02*
G01X0030491Y-036624D01*
G01X0030491Y-036624D02*
G01X0030491Y-036774D01*
G01X0030678Y-036174D02*
G01X0030678Y-036399D01*
G01X0030678Y-036287D02*
G01X0030284Y-036287D01*
G01X0030284Y-036287D02*
G01X0030341Y-036324D01*
G01X0030341Y-036324D02*
G01X0030378Y-036362D01*
G01X0030378Y-036362D02*
G01X0030397Y-036399D01*
G01X0030322Y-036024D02*
G01X0030303Y-036005D01*
G01X0030303Y-036005D02*
G01X0030284Y-035968D01*
G01X0030284Y-035968D02*
G01X0030284Y-035874D01*
G01X0030284Y-035874D02*
G01X0030303Y-035837D01*
G01X0030303Y-035837D02*
G01X0030322Y-035818D01*
G01X0030322Y-035818D02*
G01X0030359Y-035799D01*
G01X0030359Y-035799D02*
G01X0030397Y-035799D01*
G01X0030397Y-035799D02*
G01X0030453Y-035818D01*
G01X0030453Y-035818D02*
G01X0030678Y-036043D01*
G01X0030678Y-036043D02*
G01X0030678Y-035799D01*
G01X0029278Y-036549D02*
G01X0029091Y-036680D01*
G01X0029278Y-036774D02*
G01X0028884Y-036774D01*
G01X0028884Y-036774D02*
G01X0028884Y-036624D01*
G01X0028884Y-036624D02*
G01X0028903Y-036587D01*
G01X0028903Y-036587D02*
G01X0028922Y-036568D01*
G01X0028922Y-036568D02*
G01X0028959Y-036549D01*
G01X0028959Y-036549D02*
G01X0029016Y-036549D01*
G01X0029016Y-036549D02*
G01X0029053Y-036568D01*
G01X0029053Y-036568D02*
G01X0029072Y-036587D01*
G01X0029072Y-036587D02*
G01X0029091Y-036624D01*
G01X0029091Y-036624D02*
G01X0029091Y-036774D01*
G01X0029278Y-036174D02*
G01X0029278Y-036399D01*
G01X0029278Y-036287D02*
G01X0028884Y-036287D01*
G01X0028884Y-036287D02*
G01X0028941Y-036324D01*
G01X0028941Y-036324D02*
G01X0028978Y-036362D01*
G01X0028978Y-036362D02*
G01X0028997Y-036399D01*
G01X0028884Y-036043D02*
G01X0028884Y-035799D01*
G01X0028884Y-035799D02*
G01X0029034Y-035930D01*
G01X0029034Y-035930D02*
G01X0029034Y-035874D01*
G01X0029034Y-035874D02*
G01X0029053Y-035837D01*
G01X0029053Y-035837D02*
G01X0029072Y-035818D01*
G01X0029072Y-035818D02*
G01X0029109Y-035799D01*
G01X0029109Y-035799D02*
G01X0029203Y-035799D01*
G01X0029203Y-035799D02*
G01X0029241Y-035818D01*
G01X0029241Y-035818D02*
G01X0029259Y-035837D01*
G01X0029259Y-035837D02*
G01X0029278Y-035874D01*
G01X0029278Y-035874D02*
G01X0029278Y-035987D01*
G01X0029278Y-035987D02*
G01X0029259Y-036024D01*
G01X0029259Y-036024D02*
G01X0029241Y-036043D01*
G01X0027578Y-031457D02*
G01X0027391Y-031588D01*
G01X0027578Y-031682D02*
G01X0027184Y-031682D01*
G01X0027184Y-031682D02*
G01X0027184Y-031532D01*
G01X0027184Y-031532D02*
G01X0027203Y-031495D01*
G01X0027203Y-031495D02*
G01X0027222Y-031476D01*
G01X0027222Y-031476D02*
G01X0027259Y-031457D01*
G01X0027259Y-031457D02*
G01X0027316Y-031457D01*
G01X0027316Y-031457D02*
G01X0027353Y-031476D01*
G01X0027353Y-031476D02*
G01X0027372Y-031495D01*
G01X0027372Y-031495D02*
G01X0027391Y-031532D01*
G01X0027391Y-031532D02*
G01X0027391Y-031682D01*
G01X0027578Y-031082D02*
G01X0027578Y-031307D01*
G01X0027578Y-031195D02*
G01X0027184Y-031195D01*
G01X0027184Y-031195D02*
G01X0027241Y-031232D01*
G01X0027241Y-031232D02*
G01X0027278Y-031270D01*
G01X0027278Y-031270D02*
G01X0027297Y-031307D01*
G01X0027184Y-030951D02*
G01X0027184Y-030688D01*
G01X0027184Y-030688D02*
G01X0027578Y-030857D01*
G01X0035900Y-040784D02*
G01X0035900Y-041103D01*
G01X0035900Y-041103D02*
G01X0035919Y-041141D01*
G01X0035919Y-041141D02*
G01X0035938Y-041159D01*
G01X0035938Y-041159D02*
G01X0035975Y-041178D01*
G01X0035975Y-041178D02*
G01X0036050Y-041178D01*
G01X0036050Y-041178D02*
G01X0036088Y-041159D01*
G01X0036088Y-041159D02*
G01X0036106Y-041141D01*
G01X0036106Y-041141D02*
G01X0036125Y-041103D01*
G01X0036125Y-041103D02*
G01X0036125Y-040784D01*
G01X0036519Y-041178D02*
G01X0036294Y-041178D01*
G01X0036406Y-041178D02*
G01X0036406Y-040784D01*
G01X0036406Y-040784D02*
G01X0036369Y-040841D01*
G01X0036369Y-040841D02*
G01X0036331Y-040878D01*
G01X0036331Y-040878D02*
G01X0036294Y-040897D01*
G01X0032000Y-034512D02*
G01X0032000Y-034831D01*
G01X0032000Y-034831D02*
G01X0032019Y-034868D01*
G01X0032019Y-034868D02*
G01X0032038Y-034887D01*
G01X0032038Y-034887D02*
G01X0032075Y-034906D01*
G01X0032075Y-034906D02*
G01X0032150Y-034906D01*
G01X0032150Y-034906D02*
G01X0032188Y-034887D01*
G01X0032188Y-034887D02*
G01X0032206Y-034868D01*
G01X0032206Y-034868D02*
G01X0032225Y-034831D01*
G01X0032225Y-034831D02*
G01X0032225Y-034512D01*
G01X0032394Y-034549D02*
G01X0032412Y-034531D01*
G01X0032412Y-034531D02*
G01X0032450Y-034512D01*
G01X0032450Y-034512D02*
G01X0032544Y-034512D01*
G01X0032544Y-034512D02*
G01X0032581Y-034531D01*
G01X0032581Y-034531D02*
G01X0032600Y-034549D01*
G01X0032600Y-034549D02*
G01X0032619Y-034587D01*
G01X0032619Y-034587D02*
G01X0032619Y-034624D01*
G01X0032619Y-034624D02*
G01X0032600Y-034681D01*
G01X0032600Y-034681D02*
G01X0032375Y-034906D01*
G01X0032375Y-034906D02*
G01X0032619Y-034906D01*
G54D11*
G01X0029305Y-025630D02*
G01X0029628Y-025630D01*
G01X0029628Y-025630D02*
G01X0029666Y-025611D01*
G01X0029666Y-025611D02*
G01X0029686Y-025592D01*
G01X0029686Y-025592D02*
G01X0029705Y-025554D01*
G01X0029705Y-025554D02*
G01X0029705Y-025478D01*
G01X0029705Y-025478D02*
G01X0029686Y-025439D01*
G01X0029686Y-025439D02*
G01X0029666Y-025420D01*
G01X0029666Y-025420D02*
G01X0029628Y-025401D01*
G01X0029628Y-025401D02*
G01X0029305Y-025401D01*
G01X0029305Y-025249D02*
G01X0029305Y-025001D01*
G01X0029305Y-025001D02*
G01X0029457Y-025135D01*
G01X0029457Y-025135D02*
G01X0029457Y-025078D01*
G01X0029457Y-025078D02*
G01X0029476Y-025039D01*
G01X0029476Y-025039D02*
G01X0029495Y-025020D01*
G01X0029495Y-025020D02*
G01X0029533Y-025001D01*
G01X0029533Y-025001D02*
G01X0029628Y-025001D01*
G01X0029628Y-025001D02*
G01X0029666Y-025020D01*
G01X0029666Y-025020D02*
G01X0029686Y-025039D01*
G01X0029686Y-025039D02*
G01X0029705Y-025078D01*
G01X0029705Y-025078D02*
G01X0029705Y-025192D01*
G01X0029705Y-025192D02*
G01X0029686Y-025230D01*
G01X0029686Y-025230D02*
G01X0029666Y-025249D01*
G01X0034772Y-030556D02*
G01X0034772Y-030880D01*
G01X0034772Y-030880D02*
G01X0034791Y-030918D01*
G01X0034791Y-030918D02*
G01X0034810Y-030937D01*
G01X0034810Y-030937D02*
G01X0034848Y-030956D01*
G01X0034848Y-030956D02*
G01X0034924Y-030956D01*
G01X0034924Y-030956D02*
G01X0034962Y-030937D01*
G01X0034962Y-030937D02*
G01X0034981Y-030918D01*
G01X0034981Y-030918D02*
G01X0035000Y-030880D01*
G01X0035000Y-030880D02*
G01X0035000Y-030556D01*
G01X0035362Y-030689D02*
G01X0035362Y-030956D01*
G01X0035267Y-030537D02*
G01X0035172Y-030822D01*
G01X0035172Y-030822D02*
G01X0035419Y-030822D01*
G54D16*
G01X0029438Y-017778D02*
G01X0029251Y-017778D01*
G01X0029251Y-017778D02*
G01X0029251Y-017384D01*
G01X0029776Y-017778D02*
G01X0029551Y-017778D01*
G01X0029663Y-017778D02*
G01X0029663Y-017384D01*
G01X0029663Y-017384D02*
G01X0029626Y-017441D01*
G01X0029626Y-017441D02*
G01X0029588Y-017478D01*
G01X0029588Y-017478D02*
G01X0029551Y-017497D01*
G01X0024700Y-016678D02*
G01X0024700Y-016284D01*
G01X0024700Y-016472D02*
G01X0024925Y-016472D01*
G01X0024925Y-016678D02*
G01X0024925Y-016284D01*
G01X0025094Y-016322D02*
G01X0025112Y-016303D01*
G01X0025112Y-016303D02*
G01X0025150Y-016284D01*
G01X0025150Y-016284D02*
G01X0025244Y-016284D01*
G01X0025244Y-016284D02*
G01X0025281Y-016303D01*
G01X0025281Y-016303D02*
G01X0025300Y-016322D01*
G01X0025300Y-016322D02*
G01X0025319Y-016359D01*
G01X0025319Y-016359D02*
G01X0025319Y-016397D01*
G01X0025319Y-016397D02*
G01X0025300Y-016453D01*
G01X0025300Y-016453D02*
G01X0025075Y-016678D01*
G01X0025075Y-016678D02*
G01X0025319Y-016678D01*
G01X0024700Y-045178D02*
G01X0024700Y-044784D01*
G01X0024700Y-044972D02*
G01X0024925Y-044972D01*
G01X0024925Y-045178D02*
G01X0024925Y-044784D01*
G01X0025075Y-044784D02*
G01X0025319Y-044784D01*
G01X0025319Y-044784D02*
G01X0025187Y-044934D01*
G01X0025187Y-044934D02*
G01X0025244Y-044934D01*
G01X0025244Y-044934D02*
G01X0025281Y-044953D01*
G01X0025281Y-044953D02*
G01X0025300Y-044972D01*
G01X0025300Y-044972D02*
G01X0025319Y-045009D01*
G01X0025319Y-045009D02*
G01X0025319Y-045103D01*
G01X0025319Y-045103D02*
G01X0025300Y-045141D01*
G01X0025300Y-045141D02*
G01X0025281Y-045159D01*
G01X0025281Y-045159D02*
G01X0025244Y-045178D01*
G01X0025244Y-045178D02*
G01X0025131Y-045178D01*
G01X0025131Y-045178D02*
G01X0025094Y-045159D01*
G01X0025094Y-045159D02*
G01X0025075Y-045141D01*
G01X0037200Y-016678D02*
G01X0037200Y-016284D01*
G01X0037200Y-016472D02*
G01X0037425Y-016472D01*
G01X0037425Y-016678D02*
G01X0037425Y-016284D01*
G01X0037819Y-016678D02*
G01X0037594Y-016678D01*
G01X0037706Y-016678D02*
G01X0037706Y-016284D01*
G01X0037706Y-016284D02*
G01X0037669Y-016341D01*
G01X0037669Y-016341D02*
G01X0037631Y-016378D01*
G01X0037631Y-016378D02*
G01X0037594Y-016397D01*
G01X0042469Y-024334D02*
G01X0042469Y-024616D01*
G01X0042469Y-024616D02*
G01X0042450Y-024672D01*
G01X0042450Y-024672D02*
G01X0042413Y-024709D01*
G01X0042413Y-024709D02*
G01X0042356Y-024728D01*
G01X0042356Y-024728D02*
G01X0042319Y-024728D01*
G01X0042619Y-024334D02*
G01X0042862Y-024334D01*
G01X0042862Y-024334D02*
G01X0042731Y-024484D01*
G01X0042731Y-024484D02*
G01X0042787Y-024484D01*
G01X0042787Y-024484D02*
G01X0042825Y-024503D01*
G01X0042825Y-024503D02*
G01X0042844Y-024522D01*
G01X0042844Y-024522D02*
G01X0042862Y-024559D01*
G01X0042862Y-024559D02*
G01X0042862Y-024653D01*
G01X0042862Y-024653D02*
G01X0042844Y-024691D01*
G01X0042844Y-024691D02*
G01X0042825Y-024709D01*
G01X0042825Y-024709D02*
G01X0042787Y-024728D01*
G01X0042787Y-024728D02*
G01X0042675Y-024728D01*
G01X0042675Y-024728D02*
G01X0042637Y-024709D01*
G01X0042637Y-024709D02*
G01X0042619Y-024691D01*
G01X0029430Y-019278D02*
G01X0029299Y-019091D01*
G01X0029205Y-019278D02*
G01X0029205Y-018884D01*
G01X0029205Y-018884D02*
G01X0029355Y-018884D01*
G01X0029355Y-018884D02*
G01X0029393Y-018903D01*
G01X0029393Y-018903D02*
G01X0029412Y-018922D01*
G01X0029412Y-018922D02*
G01X0029430Y-018959D01*
G01X0029430Y-018959D02*
G01X0029430Y-019016D01*
G01X0029430Y-019016D02*
G01X0029412Y-019053D01*
G01X0029412Y-019053D02*
G01X0029393Y-019072D01*
G01X0029393Y-019072D02*
G01X0029355Y-019091D01*
G01X0029355Y-019091D02*
G01X0029205Y-019091D01*
G01X0029580Y-018922D02*
G01X0029599Y-018903D01*
G01X0029599Y-018903D02*
G01X0029637Y-018884D01*
G01X0029637Y-018884D02*
G01X0029730Y-018884D01*
G01X0029730Y-018884D02*
G01X0029768Y-018903D01*
G01X0029768Y-018903D02*
G01X0029787Y-018922D01*
G01X0029787Y-018922D02*
G01X0029805Y-018959D01*
G01X0029805Y-018959D02*
G01X0029805Y-018997D01*
G01X0029805Y-018997D02*
G01X0029787Y-019053D01*
G01X0029787Y-019053D02*
G01X0029562Y-019278D01*
G01X0029562Y-019278D02*
G01X0029805Y-019278D01*
G01X0031143Y-040041D02*
G01X0031124Y-040059D01*
G01X0031124Y-040059D02*
G01X0031068Y-040078D01*
G01X0031068Y-040078D02*
G01X0031030Y-040078D01*
G01X0031030Y-040078D02*
G01X0030974Y-040059D01*
G01X0030974Y-040059D02*
G01X0030937Y-040022D01*
G01X0030937Y-040022D02*
G01X0030918Y-039984D01*
G01X0030918Y-039984D02*
G01X0030899Y-039909D01*
G01X0030899Y-039909D02*
G01X0030899Y-039853D01*
G01X0030899Y-039853D02*
G01X0030918Y-039778D01*
G01X0030918Y-039778D02*
G01X0030937Y-039741D01*
G01X0030937Y-039741D02*
G01X0030974Y-039703D01*
G01X0030974Y-039703D02*
G01X0031030Y-039684D01*
G01X0031030Y-039684D02*
G01X0031068Y-039684D01*
G01X0031068Y-039684D02*
G01X0031124Y-039703D01*
G01X0031124Y-039703D02*
G01X0031143Y-039722D01*
G01X0031518Y-040078D02*
G01X0031293Y-040078D01*
G01X0031405Y-040078D02*
G01X0031405Y-039684D01*
G01X0031405Y-039684D02*
G01X0031368Y-039741D01*
G01X0031368Y-039741D02*
G01X0031330Y-039778D01*
G01X0031330Y-039778D02*
G01X0031293Y-039797D01*
G01X0031893Y-040078D02*
G01X0031668Y-040078D01*
G01X0031780Y-040078D02*
G01X0031780Y-039684D01*
G01X0031780Y-039684D02*
G01X0031743Y-039741D01*
G01X0031743Y-039741D02*
G01X0031705Y-039778D01*
G01X0031705Y-039778D02*
G01X0031668Y-039797D01*
G01X0030617Y-042978D02*
G01X0030617Y-042584D01*
G01X0030617Y-042584D02*
G01X0030711Y-042584D01*
G01X0030711Y-042584D02*
G01X0030767Y-042603D01*
G01X0030767Y-042603D02*
G01X0030805Y-042641D01*
G01X0030805Y-042641D02*
G01X0030824Y-042678D01*
G01X0030824Y-042678D02*
G01X0030842Y-042753D01*
G01X0030842Y-042753D02*
G01X0030842Y-042809D01*
G01X0030842Y-042809D02*
G01X0030824Y-042884D01*
G01X0030824Y-042884D02*
G01X0030805Y-042922D01*
G01X0030805Y-042922D02*
G01X0030767Y-042959D01*
G01X0030767Y-042959D02*
G01X0030711Y-042978D01*
G01X0030711Y-042978D02*
G01X0030617Y-042978D01*
G01X0030973Y-042584D02*
G01X0031217Y-042584D01*
G01X0031217Y-042584D02*
G01X0031086Y-042734D01*
G01X0031086Y-042734D02*
G01X0031142Y-042734D01*
G01X0031142Y-042734D02*
G01X0031180Y-042753D01*
G01X0031180Y-042753D02*
G01X0031198Y-042772D01*
G01X0031198Y-042772D02*
G01X0031217Y-042809D01*
G01X0031217Y-042809D02*
G01X0031217Y-042903D01*
G01X0031217Y-042903D02*
G01X0031198Y-042941D01*
G01X0031198Y-042941D02*
G01X0031180Y-042959D01*
G01X0031180Y-042959D02*
G01X0031142Y-042978D01*
G01X0031142Y-042978D02*
G01X0031030Y-042978D01*
G01X0031030Y-042978D02*
G01X0030992Y-042959D01*
G01X0030992Y-042959D02*
G01X0030973Y-042941D01*
M02*
