M48
INCH,TZ
T10C0.020
T11C0.024
T12C0.031
T13C0.031
T14C0.035
T15C0.039
T16C0.040
T17C0.047
T18C0.050
T19C0.051
T20C0.060
T21C0.067
T22C0.087
T23C0.118
T24C0.126
T25C0.051
%
T10
X026300Y-27400
X027000Y-25400
X029800Y-36500
X031600Y-32300
X031600Y-37200
X033200Y-34300
X033200Y-36200
X034200Y-34100
X035400Y-34100
T11
X024600Y-21700
X025100Y-21700
X025600Y-21700
X032300Y-34200
X032300Y-34700
X032300Y-35200
X032300Y-36700
X032300Y-37200
X032300Y-37700
T12
X024300Y-28800
X028000Y-23900
X028000Y-24900
X028000Y-25900
X028000Y-26900
X031000Y-23900
X031000Y-24900
X031000Y-25900
X031000Y-26900
X031600Y-30016
X033600Y-29200
X033600Y-30200
X033600Y-31200
X033600Y-32200
X035800Y-34800
X035800Y-38684
X036584Y-24800
X036600Y-29200
X036600Y-30200
X036600Y-31200
X036600Y-32200
X038600Y-26200
X041000Y-28400
T13
X025284Y-28800
X031600Y-31000
X035600Y-24800
X035800Y-35784
X035800Y-37700
X039584Y-26200
X040016Y-28400
T14
X023831Y-34700
X024200Y-19000
X024700Y-24431
X024700Y-26400
X024900Y-30631
X024900Y-32600
X025800Y-34700
X026169Y-19000
X027300Y-36600
X027300Y-38569
X030431Y-39900
X032400Y-39900
X039200Y-22600
X039200Y-24569
X040600Y-30131
X040600Y-32100
T15
X027400Y-29700
X027400Y-32700
X028000Y-16100
X028000Y-17600
X028000Y-19100
X028000Y-20700
X029100Y-34800
X029100Y-37800
X029300Y-29800
X029300Y-32800
X030400Y-42800
X030500Y-34800
X030500Y-37800
X031000Y-16100
X031000Y-17600
X031000Y-19100
X031000Y-20700
X031400Y-42800
X032400Y-19700
X033000Y-42000
X033500Y-21500
X033500Y-23200
X033500Y-26700
X033900Y-35600
X033900Y-38600
X035200Y-41000
X035400Y-19700
X036200Y-41000
X036500Y-21500
X036500Y-23200
X036500Y-26700
X037200Y-41000
X037698Y-38400
X038400Y-28600
X038400Y-31600
X040021Y-17223
X040021Y-18207
X040031Y-36016
X040031Y-37000
X040031Y-42716
X040031Y-43700
T16
X024400Y-37300
X024400Y-38300
X029600Y-45700
X030600Y-45700
X037000Y-18800
X038000Y-18800
T17
X034000Y-16900
T18
X033000Y-46000
X037698Y-34400
T19
X042100Y-24500
X044100Y-22500
X044100Y-23500
X044100Y-25500
X044100Y-26500
T20
X044000Y-28500
X044000Y-30500
X044000Y-32500
T21
X033000Y-15900
X033000Y-17900
X035000Y-15900
X035000Y-17900
T22
X041700Y-16200
X041700Y-20215
X041710Y-34993
X041710Y-39008
X041710Y-41693
X041710Y-45708
T23
X026138Y-41500
X027319Y-43350
X028500Y-41500
X035950Y-43119
X035950Y-45481
X037800Y-44300
T24
X025000Y-16500
X025000Y-45000
X037500Y-16500
T25
X041100Y-22500
X041100Y-26500
X042100Y-22500
X042100Y-26500
X044100Y-24500
M30

