G04 #@! TF.FileFunction,Copper,L1,Top,Signal*
%FSLAX46Y46*%
G04 Gerber Fmt 4.6, Leading zero omitted, Abs format (unit mm)*
G04 Created by KiCad (PCBNEW 4.0.1-3.201512221402+6198~38~ubuntu14.04.1-stable) date Mon 09 May 2016 07:42:58 PM PDT*
%MOMM*%
G01*
G04 APERTURE LIST*
%ADD10C,0.100000*%
%ADD11R,2.032000X2.032000*%
%ADD12O,2.032000X2.032000*%
%ADD13C,3.500120*%
%ADD14O,3.500120X1.699260*%
%ADD15R,1.000000X1.250000*%
%ADD16R,1.000000X2.500000*%
%ADD17R,3.657600X2.032000*%
%ADD18R,1.016000X2.032000*%
%ADD19C,0.685800*%
%ADD20C,0.762000*%
%ADD21C,0.254000*%
G04 APERTURE END LIST*
D10*
D11*
X106680000Y-101600000D03*
D12*
X104140000Y-101600000D03*
D11*
X116840000Y-101600000D03*
D12*
X114300000Y-101600000D03*
D11*
X127000000Y-101600000D03*
D12*
X124460000Y-101600000D03*
D11*
X137160000Y-101600000D03*
D12*
X134620000Y-101600000D03*
D13*
X111663480Y-91186000D03*
X105664000Y-91186000D03*
X108663740Y-95885000D03*
D14*
X118364000Y-91948000D03*
X118364000Y-89408000D03*
X118364000Y-94488000D03*
D15*
X127238000Y-88900000D03*
X125238000Y-88900000D03*
D16*
X127484000Y-92710000D03*
X124484000Y-92710000D03*
D17*
X134620000Y-94996000D03*
D18*
X134620000Y-88392000D03*
X132334000Y-88392000D03*
X136906000Y-88392000D03*
D19*
X138430000Y-88900000D03*
X130810000Y-97790000D03*
X137414000Y-91440000D03*
X128270000Y-88900000D03*
X134620000Y-91440000D03*
D20*
X136906000Y-88138000D02*
X137668000Y-88138000D01*
X137668000Y-88138000D02*
X138430000Y-88900000D01*
X130810000Y-97790000D02*
X130810000Y-93980000D01*
X134786855Y-92710000D02*
X135890000Y-91606855D01*
X130810000Y-93980000D02*
X132080000Y-92710000D01*
X132080000Y-92710000D02*
X134786855Y-92710000D01*
X135890000Y-91606855D02*
X135890000Y-90932000D01*
X135890000Y-90932000D02*
X136906000Y-89916000D01*
X136906000Y-89916000D02*
X136906000Y-88138000D01*
X125238000Y-88900000D02*
X125238000Y-91440000D01*
X125238000Y-91440000D02*
X125238000Y-92710000D01*
X118618000Y-91948000D02*
X124730000Y-91948000D01*
X124730000Y-91948000D02*
X125238000Y-91440000D01*
X105664000Y-91186000D02*
X105664000Y-92885260D01*
X105664000Y-92885260D02*
X108663740Y-95885000D01*
X104140000Y-101600000D02*
X104140000Y-100163160D01*
X104140000Y-100163160D02*
X108418160Y-95885000D01*
X108418160Y-95885000D02*
X108663740Y-95885000D01*
X127238000Y-92710000D02*
X127762000Y-92710000D01*
X127762000Y-92710000D02*
X132334000Y-88138000D01*
X124968000Y-97790000D02*
X127238000Y-95520000D01*
X127238000Y-95520000D02*
X127238000Y-92710000D01*
X123931680Y-97790000D02*
X124968000Y-97790000D01*
X124968000Y-97790000D02*
X127000000Y-99822000D01*
X127000000Y-99822000D02*
X127000000Y-101600000D01*
X118618000Y-94488000D02*
X120629680Y-94488000D01*
X120629680Y-94488000D02*
X123931680Y-97790000D01*
X134620000Y-94996000D02*
X138176000Y-94996000D01*
X138176000Y-94996000D02*
X138430000Y-94742000D01*
X138430000Y-97790000D02*
X138430000Y-94742000D01*
X138430000Y-94742000D02*
X138430000Y-92456000D01*
X127238000Y-88900000D02*
X128270000Y-88900000D01*
X134620000Y-88138000D02*
X134620000Y-91440000D01*
X137160000Y-101600000D02*
X137160000Y-99060000D01*
X137160000Y-99060000D02*
X138430000Y-97790000D01*
X138430000Y-92456000D02*
X137414000Y-91440000D01*
X118618000Y-89408000D02*
X113441480Y-89408000D01*
X113441480Y-89408000D02*
X111663480Y-91186000D01*
X116840000Y-101600000D02*
X116840000Y-99822000D01*
X116840000Y-99822000D02*
X115412520Y-98394520D01*
X115412520Y-98394520D02*
X111663480Y-98394520D01*
X106680000Y-101600000D02*
X108458000Y-101600000D01*
X108458000Y-101600000D02*
X111663480Y-98394520D01*
X111663480Y-98394520D02*
X111663480Y-93664550D01*
X111663480Y-93664550D02*
X111663480Y-91186000D01*
D21*
G36*
X131229569Y-87124110D02*
X131178560Y-87376000D01*
X131178560Y-87856599D01*
X128182419Y-90852741D01*
X127984000Y-90812560D01*
X126984000Y-90812560D01*
X126748683Y-90856838D01*
X126532559Y-90995910D01*
X126387569Y-91208110D01*
X126336560Y-91460000D01*
X126336560Y-92265488D01*
X126299338Y-92321194D01*
X126222000Y-92710000D01*
X126222000Y-95099159D01*
X124547160Y-96774000D01*
X124352521Y-96774000D01*
X121348100Y-93769580D01*
X121018487Y-93549338D01*
X120914022Y-93528559D01*
X120629680Y-93472000D01*
X120383527Y-93472000D01*
X120360948Y-93438208D01*
X120023127Y-93212484D01*
X120294242Y-92995750D01*
X123349000Y-92995750D01*
X123349000Y-94086310D01*
X123445673Y-94319699D01*
X123624302Y-94498327D01*
X123857691Y-94595000D01*
X124198250Y-94595000D01*
X124357000Y-94436250D01*
X124357000Y-92837000D01*
X124611000Y-92837000D01*
X124611000Y-94436250D01*
X124769750Y-94595000D01*
X125110309Y-94595000D01*
X125343698Y-94498327D01*
X125522327Y-94319699D01*
X125619000Y-94086310D01*
X125619000Y-92995750D01*
X125460250Y-92837000D01*
X124611000Y-92837000D01*
X124357000Y-92837000D01*
X123507750Y-92837000D01*
X123349000Y-92995750D01*
X120294242Y-92995750D01*
X120404024Y-92907989D01*
X120684649Y-92398810D01*
X120705540Y-92304832D01*
X120584214Y-92075000D01*
X118491000Y-92075000D01*
X118491000Y-92095000D01*
X118237000Y-92095000D01*
X118237000Y-92075000D01*
X116143786Y-92075000D01*
X116022460Y-92304832D01*
X116043351Y-92398810D01*
X116323976Y-92907989D01*
X116704873Y-93212484D01*
X116367052Y-93438208D01*
X116045225Y-93919857D01*
X115932214Y-94488000D01*
X116045225Y-95056143D01*
X116367052Y-95537792D01*
X116848701Y-95859619D01*
X117416844Y-95972630D01*
X119311156Y-95972630D01*
X119879299Y-95859619D01*
X120290023Y-95585183D01*
X123213259Y-98508420D01*
X123433501Y-98655581D01*
X123542874Y-98728662D01*
X123931680Y-98806000D01*
X124547160Y-98806000D01*
X125732446Y-99991286D01*
X125532559Y-100119910D01*
X125421160Y-100282948D01*
X125324818Y-100193615D01*
X124842944Y-99994025D01*
X124587000Y-100113164D01*
X124587000Y-101473000D01*
X124607000Y-101473000D01*
X124607000Y-101727000D01*
X124587000Y-101727000D01*
X124587000Y-103086836D01*
X124842944Y-103205975D01*
X125324818Y-103006385D01*
X125422398Y-102915903D01*
X125519910Y-103067441D01*
X125732110Y-103212431D01*
X125984000Y-103263440D01*
X128016000Y-103263440D01*
X128251317Y-103219162D01*
X128467441Y-103080090D01*
X128612431Y-102867890D01*
X128663440Y-102616000D01*
X128663440Y-101982946D01*
X133014017Y-101982946D01*
X133282812Y-102568379D01*
X133755182Y-103006385D01*
X134237056Y-103205975D01*
X134493000Y-103086836D01*
X134493000Y-101727000D01*
X133132633Y-101727000D01*
X133014017Y-101982946D01*
X128663440Y-101982946D01*
X128663440Y-101217054D01*
X133014017Y-101217054D01*
X133132633Y-101473000D01*
X134493000Y-101473000D01*
X134493000Y-100113164D01*
X134237056Y-99994025D01*
X133755182Y-100193615D01*
X133282812Y-100631621D01*
X133014017Y-101217054D01*
X128663440Y-101217054D01*
X128663440Y-100584000D01*
X128619162Y-100348683D01*
X128480090Y-100132559D01*
X128267890Y-99987569D01*
X128016000Y-99936560D01*
X128016000Y-99822000D01*
X127938662Y-99433194D01*
X127938662Y-99433193D01*
X127718421Y-99103580D01*
X126404840Y-97790000D01*
X127956421Y-96238420D01*
X128176662Y-95908807D01*
X128206659Y-95758000D01*
X128254000Y-95520000D01*
X128254000Y-94540844D01*
X128435441Y-94424090D01*
X128580431Y-94211890D01*
X128631440Y-93960000D01*
X128631440Y-93277400D01*
X131853401Y-90055440D01*
X132842000Y-90055440D01*
X133077317Y-90011162D01*
X133293441Y-89872090D01*
X133438431Y-89659890D01*
X133476543Y-89471686D01*
X133508838Y-89643317D01*
X133604000Y-89791203D01*
X133604000Y-91440000D01*
X133641934Y-91630706D01*
X133641931Y-91633663D01*
X133643070Y-91636420D01*
X133681338Y-91828806D01*
X133789362Y-91990474D01*
X133790493Y-91993212D01*
X133792604Y-91995327D01*
X133901580Y-92158420D01*
X134063249Y-92266444D01*
X134065341Y-92268540D01*
X134068100Y-92269686D01*
X134231194Y-92378662D01*
X134421896Y-92416595D01*
X134424630Y-92417730D01*
X134427616Y-92417733D01*
X134620000Y-92456000D01*
X134810706Y-92418066D01*
X134813663Y-92418069D01*
X134816420Y-92416930D01*
X135008806Y-92378662D01*
X135170474Y-92270638D01*
X135173212Y-92269507D01*
X135175327Y-92267396D01*
X135338420Y-92158420D01*
X135446444Y-91996751D01*
X135448540Y-91994659D01*
X135449686Y-91991900D01*
X135558662Y-91828806D01*
X135596595Y-91638104D01*
X135597730Y-91635370D01*
X135597733Y-91632384D01*
X135636000Y-91440000D01*
X135636000Y-89789313D01*
X135724431Y-89659890D01*
X135763000Y-89469431D01*
X135763000Y-89534310D01*
X135859673Y-89767699D01*
X136038302Y-89946327D01*
X136271691Y-90043000D01*
X136620250Y-90043000D01*
X136779000Y-89884250D01*
X136779000Y-88519000D01*
X137033000Y-88519000D01*
X137033000Y-89884250D01*
X137191750Y-90043000D01*
X137540309Y-90043000D01*
X137773698Y-89946327D01*
X137952327Y-89767699D01*
X138049000Y-89534310D01*
X138049000Y-88677750D01*
X137890250Y-88519000D01*
X137033000Y-88519000D01*
X136779000Y-88519000D01*
X136759000Y-88519000D01*
X136759000Y-88265000D01*
X136779000Y-88265000D01*
X136779000Y-88245000D01*
X137033000Y-88245000D01*
X137033000Y-88265000D01*
X137890250Y-88265000D01*
X138049000Y-88106250D01*
X138049000Y-87249690D01*
X137974570Y-87070000D01*
X138990000Y-87070000D01*
X138990000Y-91579159D01*
X138132420Y-90721580D01*
X137970750Y-90613555D01*
X137968659Y-90611460D01*
X137965901Y-90610315D01*
X137802807Y-90501338D01*
X137612105Y-90463406D01*
X137609370Y-90462270D01*
X137606382Y-90462267D01*
X137414000Y-90424001D01*
X137223296Y-90461934D01*
X137220337Y-90461931D01*
X137217578Y-90463071D01*
X137025193Y-90501338D01*
X136863524Y-90609362D01*
X136860788Y-90610493D01*
X136858674Y-90612603D01*
X136695580Y-90721580D01*
X136587555Y-90883250D01*
X136585460Y-90885341D01*
X136584315Y-90888099D01*
X136475338Y-91051193D01*
X136437406Y-91241895D01*
X136436270Y-91244630D01*
X136436267Y-91247618D01*
X136398001Y-91440000D01*
X136435934Y-91630704D01*
X136435931Y-91633663D01*
X136437071Y-91636422D01*
X136475338Y-91828807D01*
X136583362Y-91990476D01*
X136584493Y-91993212D01*
X136586603Y-91995326D01*
X136695580Y-92158420D01*
X137414000Y-92876841D01*
X137414000Y-93980000D01*
X137096240Y-93980000D01*
X137051962Y-93744683D01*
X136912890Y-93528559D01*
X136700690Y-93383569D01*
X136448800Y-93332560D01*
X132791200Y-93332560D01*
X132555883Y-93376838D01*
X132339759Y-93515910D01*
X132194769Y-93728110D01*
X132143760Y-93980000D01*
X132143760Y-96012000D01*
X132188038Y-96247317D01*
X132327110Y-96463441D01*
X132539310Y-96608431D01*
X132791200Y-96659440D01*
X136448800Y-96659440D01*
X136684117Y-96615162D01*
X136900241Y-96476090D01*
X137045231Y-96263890D01*
X137096240Y-96012000D01*
X137414000Y-96012000D01*
X137414000Y-97369159D01*
X136441580Y-98341580D01*
X136221338Y-98671193D01*
X136221338Y-98671194D01*
X136144000Y-99060000D01*
X136144000Y-99936560D01*
X135908683Y-99980838D01*
X135692559Y-100119910D01*
X135581160Y-100282948D01*
X135484818Y-100193615D01*
X135002944Y-99994025D01*
X134747000Y-100113164D01*
X134747000Y-101473000D01*
X134767000Y-101473000D01*
X134767000Y-101727000D01*
X134747000Y-101727000D01*
X134747000Y-103086836D01*
X135002944Y-103205975D01*
X135484818Y-103006385D01*
X135582398Y-102915903D01*
X135679910Y-103067441D01*
X135892110Y-103212431D01*
X136144000Y-103263440D01*
X138176000Y-103263440D01*
X138411317Y-103219162D01*
X138627441Y-103080090D01*
X138772431Y-102867890D01*
X138823440Y-102616000D01*
X138823440Y-100584000D01*
X138779162Y-100348683D01*
X138640090Y-100132559D01*
X138427890Y-99987569D01*
X138176000Y-99936560D01*
X138176000Y-99480840D01*
X138990000Y-98666841D01*
X138990000Y-103430000D01*
X98500000Y-103430000D01*
X98500000Y-101982946D01*
X102534017Y-101982946D01*
X102802812Y-102568379D01*
X103275182Y-103006385D01*
X103757056Y-103205975D01*
X104013000Y-103086836D01*
X104013000Y-101727000D01*
X102652633Y-101727000D01*
X102534017Y-101982946D01*
X98500000Y-101982946D01*
X98500000Y-101217054D01*
X102534017Y-101217054D01*
X102652633Y-101473000D01*
X104013000Y-101473000D01*
X104013000Y-100113164D01*
X104267000Y-100113164D01*
X104267000Y-101473000D01*
X104287000Y-101473000D01*
X104287000Y-101727000D01*
X104267000Y-101727000D01*
X104267000Y-103086836D01*
X104522944Y-103205975D01*
X105004818Y-103006385D01*
X105102398Y-102915903D01*
X105199910Y-103067441D01*
X105412110Y-103212431D01*
X105664000Y-103263440D01*
X107696000Y-103263440D01*
X107931317Y-103219162D01*
X108147441Y-103080090D01*
X108292431Y-102867890D01*
X108343440Y-102616000D01*
X108458000Y-102616000D01*
X108782300Y-102551493D01*
X108846807Y-102538662D01*
X109176420Y-102318420D01*
X109511894Y-101982946D01*
X112694017Y-101982946D01*
X112962812Y-102568379D01*
X113435182Y-103006385D01*
X113917056Y-103205975D01*
X114173000Y-103086836D01*
X114173000Y-101727000D01*
X112812633Y-101727000D01*
X112694017Y-101982946D01*
X109511894Y-101982946D01*
X110277786Y-101217054D01*
X112694017Y-101217054D01*
X112812633Y-101473000D01*
X114173000Y-101473000D01*
X114173000Y-100113164D01*
X113917056Y-99994025D01*
X113435182Y-100193615D01*
X112962812Y-100631621D01*
X112694017Y-101217054D01*
X110277786Y-101217054D01*
X112084321Y-99410520D01*
X114991680Y-99410520D01*
X115572446Y-99991286D01*
X115372559Y-100119910D01*
X115261160Y-100282948D01*
X115164818Y-100193615D01*
X114682944Y-99994025D01*
X114427000Y-100113164D01*
X114427000Y-101473000D01*
X114447000Y-101473000D01*
X114447000Y-101727000D01*
X114427000Y-101727000D01*
X114427000Y-103086836D01*
X114682944Y-103205975D01*
X115164818Y-103006385D01*
X115262398Y-102915903D01*
X115359910Y-103067441D01*
X115572110Y-103212431D01*
X115824000Y-103263440D01*
X117856000Y-103263440D01*
X118091317Y-103219162D01*
X118307441Y-103080090D01*
X118452431Y-102867890D01*
X118503440Y-102616000D01*
X118503440Y-101982946D01*
X122854017Y-101982946D01*
X123122812Y-102568379D01*
X123595182Y-103006385D01*
X124077056Y-103205975D01*
X124333000Y-103086836D01*
X124333000Y-101727000D01*
X122972633Y-101727000D01*
X122854017Y-101982946D01*
X118503440Y-101982946D01*
X118503440Y-101217054D01*
X122854017Y-101217054D01*
X122972633Y-101473000D01*
X124333000Y-101473000D01*
X124333000Y-100113164D01*
X124077056Y-99994025D01*
X123595182Y-100193615D01*
X123122812Y-100631621D01*
X122854017Y-101217054D01*
X118503440Y-101217054D01*
X118503440Y-100584000D01*
X118459162Y-100348683D01*
X118320090Y-100132559D01*
X118107890Y-99987569D01*
X117856000Y-99936560D01*
X117856000Y-99822000D01*
X117778662Y-99433194D01*
X117778662Y-99433193D01*
X117558421Y-99103580D01*
X116130940Y-97676100D01*
X115801327Y-97455858D01*
X115736820Y-97443027D01*
X115412520Y-97378520D01*
X112679480Y-97378520D01*
X112679480Y-93346836D01*
X113012743Y-93209134D01*
X113684256Y-92538792D01*
X114048125Y-91662499D01*
X114048953Y-90713664D01*
X113929266Y-90424000D01*
X116344473Y-90424000D01*
X116367052Y-90457792D01*
X116704873Y-90683516D01*
X116323976Y-90988011D01*
X116043351Y-91497190D01*
X116022460Y-91591168D01*
X116143786Y-91821000D01*
X118237000Y-91821000D01*
X118237000Y-91801000D01*
X118491000Y-91801000D01*
X118491000Y-91821000D01*
X120584214Y-91821000D01*
X120705540Y-91591168D01*
X120684649Y-91497190D01*
X120594539Y-91333690D01*
X123349000Y-91333690D01*
X123349000Y-92424250D01*
X123507750Y-92583000D01*
X124357000Y-92583000D01*
X124357000Y-90983750D01*
X124611000Y-90983750D01*
X124611000Y-92583000D01*
X125460250Y-92583000D01*
X125619000Y-92424250D01*
X125619000Y-91333690D01*
X125522327Y-91100301D01*
X125343698Y-90921673D01*
X125110309Y-90825000D01*
X124769750Y-90825000D01*
X124611000Y-90983750D01*
X124357000Y-90983750D01*
X124198250Y-90825000D01*
X123857691Y-90825000D01*
X123624302Y-90921673D01*
X123445673Y-91100301D01*
X123349000Y-91333690D01*
X120594539Y-91333690D01*
X120404024Y-90988011D01*
X120023127Y-90683516D01*
X120360948Y-90457792D01*
X120682775Y-89976143D01*
X120795786Y-89408000D01*
X120751578Y-89185750D01*
X124103000Y-89185750D01*
X124103000Y-89651310D01*
X124199673Y-89884699D01*
X124378302Y-90063327D01*
X124611691Y-90160000D01*
X124952250Y-90160000D01*
X125111000Y-90001250D01*
X125111000Y-89027000D01*
X124261750Y-89027000D01*
X124103000Y-89185750D01*
X120751578Y-89185750D01*
X120682775Y-88839857D01*
X120360948Y-88358208D01*
X120047382Y-88148690D01*
X124103000Y-88148690D01*
X124103000Y-88614250D01*
X124261750Y-88773000D01*
X125111000Y-88773000D01*
X125111000Y-87798750D01*
X125365000Y-87798750D01*
X125365000Y-88773000D01*
X125385000Y-88773000D01*
X125385000Y-89027000D01*
X125365000Y-89027000D01*
X125365000Y-90001250D01*
X125523750Y-90160000D01*
X125864309Y-90160000D01*
X126097698Y-90063327D01*
X126238936Y-89922090D01*
X126273910Y-89976441D01*
X126486110Y-90121431D01*
X126738000Y-90172440D01*
X127738000Y-90172440D01*
X127973317Y-90128162D01*
X128189441Y-89989090D01*
X128239381Y-89916000D01*
X128270000Y-89916000D01*
X128460706Y-89878066D01*
X128463663Y-89878069D01*
X128466420Y-89876930D01*
X128658806Y-89838662D01*
X128820474Y-89730638D01*
X128823212Y-89729507D01*
X128825327Y-89727396D01*
X128988420Y-89618420D01*
X129096444Y-89456751D01*
X129098540Y-89454659D01*
X129099686Y-89451900D01*
X129208662Y-89288806D01*
X129246595Y-89098104D01*
X129247730Y-89095370D01*
X129247733Y-89092384D01*
X129286000Y-88900000D01*
X129248066Y-88709294D01*
X129248069Y-88706337D01*
X129246930Y-88703580D01*
X129208662Y-88511194D01*
X129100638Y-88349526D01*
X129099507Y-88346788D01*
X129097396Y-88344673D01*
X128988420Y-88181580D01*
X128826751Y-88073556D01*
X128824659Y-88071460D01*
X128821900Y-88070314D01*
X128658806Y-87961338D01*
X128468104Y-87923405D01*
X128465370Y-87922270D01*
X128462384Y-87922267D01*
X128270000Y-87884000D01*
X128240983Y-87884000D01*
X128202090Y-87823559D01*
X127989890Y-87678569D01*
X127738000Y-87627560D01*
X126738000Y-87627560D01*
X126502683Y-87671838D01*
X126286559Y-87810910D01*
X126240031Y-87879006D01*
X126097698Y-87736673D01*
X125864309Y-87640000D01*
X125523750Y-87640000D01*
X125365000Y-87798750D01*
X125111000Y-87798750D01*
X124952250Y-87640000D01*
X124611691Y-87640000D01*
X124378302Y-87736673D01*
X124199673Y-87915301D01*
X124103000Y-88148690D01*
X120047382Y-88148690D01*
X119879299Y-88036381D01*
X119311156Y-87923370D01*
X117416844Y-87923370D01*
X116848701Y-88036381D01*
X116367052Y-88358208D01*
X116344473Y-88392000D01*
X113441480Y-88392000D01*
X113052673Y-88469338D01*
X112723060Y-88689579D01*
X112473001Y-88939638D01*
X112139979Y-88801355D01*
X111191144Y-88800527D01*
X110314217Y-89162866D01*
X109642704Y-89833208D01*
X109278835Y-90709501D01*
X109278007Y-91658336D01*
X109640346Y-92535263D01*
X110310688Y-93206776D01*
X110647480Y-93346624D01*
X110647480Y-94529650D01*
X110358311Y-94370034D01*
X108843345Y-95885000D01*
X110358311Y-97399966D01*
X110647480Y-97240350D01*
X110647480Y-97973679D01*
X108288714Y-100332446D01*
X108160090Y-100132559D01*
X107947890Y-99987569D01*
X107696000Y-99936560D01*
X105664000Y-99936560D01*
X105428683Y-99980838D01*
X105212559Y-100119910D01*
X105101160Y-100282948D01*
X105004818Y-100193615D01*
X104522944Y-99994025D01*
X104267000Y-100113164D01*
X104013000Y-100113164D01*
X103757056Y-99994025D01*
X103275182Y-100193615D01*
X102802812Y-100631621D01*
X102534017Y-101217054D01*
X98500000Y-101217054D01*
X98500000Y-97579571D01*
X107148774Y-97579571D01*
X107339068Y-97924319D01*
X108220316Y-98276015D01*
X109169072Y-98263701D01*
X109988412Y-97924319D01*
X110178706Y-97579571D01*
X108663740Y-96064605D01*
X107148774Y-97579571D01*
X98500000Y-97579571D01*
X98500000Y-95441576D01*
X106272725Y-95441576D01*
X106285039Y-96390332D01*
X106624421Y-97209672D01*
X106969169Y-97399966D01*
X108484135Y-95885000D01*
X106969169Y-94370034D01*
X106624421Y-94560328D01*
X106272725Y-95441576D01*
X98500000Y-95441576D01*
X98500000Y-94190429D01*
X107148774Y-94190429D01*
X108663740Y-95705395D01*
X110178706Y-94190429D01*
X109988412Y-93845681D01*
X109107164Y-93493985D01*
X108158408Y-93506299D01*
X107339068Y-93845681D01*
X107148774Y-94190429D01*
X98500000Y-94190429D01*
X98500000Y-92880571D01*
X104149034Y-92880571D01*
X104339328Y-93225319D01*
X105220576Y-93577015D01*
X106169332Y-93564701D01*
X106988672Y-93225319D01*
X107178966Y-92880571D01*
X105664000Y-91365605D01*
X104149034Y-92880571D01*
X98500000Y-92880571D01*
X98500000Y-90742576D01*
X103272985Y-90742576D01*
X103285299Y-91691332D01*
X103624681Y-92510672D01*
X103969429Y-92700966D01*
X105484395Y-91186000D01*
X105843605Y-91186000D01*
X107358571Y-92700966D01*
X107703319Y-92510672D01*
X108055015Y-91629424D01*
X108042701Y-90680668D01*
X107703319Y-89861328D01*
X107358571Y-89671034D01*
X105843605Y-91186000D01*
X105484395Y-91186000D01*
X103969429Y-89671034D01*
X103624681Y-89861328D01*
X103272985Y-90742576D01*
X98500000Y-90742576D01*
X98500000Y-89491429D01*
X104149034Y-89491429D01*
X105664000Y-91006395D01*
X107178966Y-89491429D01*
X106988672Y-89146681D01*
X106107424Y-88794985D01*
X105158668Y-88807299D01*
X104339328Y-89146681D01*
X104149034Y-89491429D01*
X98500000Y-89491429D01*
X98500000Y-87070000D01*
X131266541Y-87070000D01*
X131229569Y-87124110D01*
X131229569Y-87124110D01*
G37*
X131229569Y-87124110D02*
X131178560Y-87376000D01*
X131178560Y-87856599D01*
X128182419Y-90852741D01*
X127984000Y-90812560D01*
X126984000Y-90812560D01*
X126748683Y-90856838D01*
X126532559Y-90995910D01*
X126387569Y-91208110D01*
X126336560Y-91460000D01*
X126336560Y-92265488D01*
X126299338Y-92321194D01*
X126222000Y-92710000D01*
X126222000Y-95099159D01*
X124547160Y-96774000D01*
X124352521Y-96774000D01*
X121348100Y-93769580D01*
X121018487Y-93549338D01*
X120914022Y-93528559D01*
X120629680Y-93472000D01*
X120383527Y-93472000D01*
X120360948Y-93438208D01*
X120023127Y-93212484D01*
X120294242Y-92995750D01*
X123349000Y-92995750D01*
X123349000Y-94086310D01*
X123445673Y-94319699D01*
X123624302Y-94498327D01*
X123857691Y-94595000D01*
X124198250Y-94595000D01*
X124357000Y-94436250D01*
X124357000Y-92837000D01*
X124611000Y-92837000D01*
X124611000Y-94436250D01*
X124769750Y-94595000D01*
X125110309Y-94595000D01*
X125343698Y-94498327D01*
X125522327Y-94319699D01*
X125619000Y-94086310D01*
X125619000Y-92995750D01*
X125460250Y-92837000D01*
X124611000Y-92837000D01*
X124357000Y-92837000D01*
X123507750Y-92837000D01*
X123349000Y-92995750D01*
X120294242Y-92995750D01*
X120404024Y-92907989D01*
X120684649Y-92398810D01*
X120705540Y-92304832D01*
X120584214Y-92075000D01*
X118491000Y-92075000D01*
X118491000Y-92095000D01*
X118237000Y-92095000D01*
X118237000Y-92075000D01*
X116143786Y-92075000D01*
X116022460Y-92304832D01*
X116043351Y-92398810D01*
X116323976Y-92907989D01*
X116704873Y-93212484D01*
X116367052Y-93438208D01*
X116045225Y-93919857D01*
X115932214Y-94488000D01*
X116045225Y-95056143D01*
X116367052Y-95537792D01*
X116848701Y-95859619D01*
X117416844Y-95972630D01*
X119311156Y-95972630D01*
X119879299Y-95859619D01*
X120290023Y-95585183D01*
X123213259Y-98508420D01*
X123433501Y-98655581D01*
X123542874Y-98728662D01*
X123931680Y-98806000D01*
X124547160Y-98806000D01*
X125732446Y-99991286D01*
X125532559Y-100119910D01*
X125421160Y-100282948D01*
X125324818Y-100193615D01*
X124842944Y-99994025D01*
X124587000Y-100113164D01*
X124587000Y-101473000D01*
X124607000Y-101473000D01*
X124607000Y-101727000D01*
X124587000Y-101727000D01*
X124587000Y-103086836D01*
X124842944Y-103205975D01*
X125324818Y-103006385D01*
X125422398Y-102915903D01*
X125519910Y-103067441D01*
X125732110Y-103212431D01*
X125984000Y-103263440D01*
X128016000Y-103263440D01*
X128251317Y-103219162D01*
X128467441Y-103080090D01*
X128612431Y-102867890D01*
X128663440Y-102616000D01*
X128663440Y-101982946D01*
X133014017Y-101982946D01*
X133282812Y-102568379D01*
X133755182Y-103006385D01*
X134237056Y-103205975D01*
X134493000Y-103086836D01*
X134493000Y-101727000D01*
X133132633Y-101727000D01*
X133014017Y-101982946D01*
X128663440Y-101982946D01*
X128663440Y-101217054D01*
X133014017Y-101217054D01*
X133132633Y-101473000D01*
X134493000Y-101473000D01*
X134493000Y-100113164D01*
X134237056Y-99994025D01*
X133755182Y-100193615D01*
X133282812Y-100631621D01*
X133014017Y-101217054D01*
X128663440Y-101217054D01*
X128663440Y-100584000D01*
X128619162Y-100348683D01*
X128480090Y-100132559D01*
X128267890Y-99987569D01*
X128016000Y-99936560D01*
X128016000Y-99822000D01*
X127938662Y-99433194D01*
X127938662Y-99433193D01*
X127718421Y-99103580D01*
X126404840Y-97790000D01*
X127956421Y-96238420D01*
X128176662Y-95908807D01*
X128206659Y-95758000D01*
X128254000Y-95520000D01*
X128254000Y-94540844D01*
X128435441Y-94424090D01*
X128580431Y-94211890D01*
X128631440Y-93960000D01*
X128631440Y-93277400D01*
X131853401Y-90055440D01*
X132842000Y-90055440D01*
X133077317Y-90011162D01*
X133293441Y-89872090D01*
X133438431Y-89659890D01*
X133476543Y-89471686D01*
X133508838Y-89643317D01*
X133604000Y-89791203D01*
X133604000Y-91440000D01*
X133641934Y-91630706D01*
X133641931Y-91633663D01*
X133643070Y-91636420D01*
X133681338Y-91828806D01*
X133789362Y-91990474D01*
X133790493Y-91993212D01*
X133792604Y-91995327D01*
X133901580Y-92158420D01*
X134063249Y-92266444D01*
X134065341Y-92268540D01*
X134068100Y-92269686D01*
X134231194Y-92378662D01*
X134421896Y-92416595D01*
X134424630Y-92417730D01*
X134427616Y-92417733D01*
X134620000Y-92456000D01*
X134810706Y-92418066D01*
X134813663Y-92418069D01*
X134816420Y-92416930D01*
X135008806Y-92378662D01*
X135170474Y-92270638D01*
X135173212Y-92269507D01*
X135175327Y-92267396D01*
X135338420Y-92158420D01*
X135446444Y-91996751D01*
X135448540Y-91994659D01*
X135449686Y-91991900D01*
X135558662Y-91828806D01*
X135596595Y-91638104D01*
X135597730Y-91635370D01*
X135597733Y-91632384D01*
X135636000Y-91440000D01*
X135636000Y-89789313D01*
X135724431Y-89659890D01*
X135763000Y-89469431D01*
X135763000Y-89534310D01*
X135859673Y-89767699D01*
X136038302Y-89946327D01*
X136271691Y-90043000D01*
X136620250Y-90043000D01*
X136779000Y-89884250D01*
X136779000Y-88519000D01*
X137033000Y-88519000D01*
X137033000Y-89884250D01*
X137191750Y-90043000D01*
X137540309Y-90043000D01*
X137773698Y-89946327D01*
X137952327Y-89767699D01*
X138049000Y-89534310D01*
X138049000Y-88677750D01*
X137890250Y-88519000D01*
X137033000Y-88519000D01*
X136779000Y-88519000D01*
X136759000Y-88519000D01*
X136759000Y-88265000D01*
X136779000Y-88265000D01*
X136779000Y-88245000D01*
X137033000Y-88245000D01*
X137033000Y-88265000D01*
X137890250Y-88265000D01*
X138049000Y-88106250D01*
X138049000Y-87249690D01*
X137974570Y-87070000D01*
X138990000Y-87070000D01*
X138990000Y-91579159D01*
X138132420Y-90721580D01*
X137970750Y-90613555D01*
X137968659Y-90611460D01*
X137965901Y-90610315D01*
X137802807Y-90501338D01*
X137612105Y-90463406D01*
X137609370Y-90462270D01*
X137606382Y-90462267D01*
X137414000Y-90424001D01*
X137223296Y-90461934D01*
X137220337Y-90461931D01*
X137217578Y-90463071D01*
X137025193Y-90501338D01*
X136863524Y-90609362D01*
X136860788Y-90610493D01*
X136858674Y-90612603D01*
X136695580Y-90721580D01*
X136587555Y-90883250D01*
X136585460Y-90885341D01*
X136584315Y-90888099D01*
X136475338Y-91051193D01*
X136437406Y-91241895D01*
X136436270Y-91244630D01*
X136436267Y-91247618D01*
X136398001Y-91440000D01*
X136435934Y-91630704D01*
X136435931Y-91633663D01*
X136437071Y-91636422D01*
X136475338Y-91828807D01*
X136583362Y-91990476D01*
X136584493Y-91993212D01*
X136586603Y-91995326D01*
X136695580Y-92158420D01*
X137414000Y-92876841D01*
X137414000Y-93980000D01*
X137096240Y-93980000D01*
X137051962Y-93744683D01*
X136912890Y-93528559D01*
X136700690Y-93383569D01*
X136448800Y-93332560D01*
X132791200Y-93332560D01*
X132555883Y-93376838D01*
X132339759Y-93515910D01*
X132194769Y-93728110D01*
X132143760Y-93980000D01*
X132143760Y-96012000D01*
X132188038Y-96247317D01*
X132327110Y-96463441D01*
X132539310Y-96608431D01*
X132791200Y-96659440D01*
X136448800Y-96659440D01*
X136684117Y-96615162D01*
X136900241Y-96476090D01*
X137045231Y-96263890D01*
X137096240Y-96012000D01*
X137414000Y-96012000D01*
X137414000Y-97369159D01*
X136441580Y-98341580D01*
X136221338Y-98671193D01*
X136221338Y-98671194D01*
X136144000Y-99060000D01*
X136144000Y-99936560D01*
X135908683Y-99980838D01*
X135692559Y-100119910D01*
X135581160Y-100282948D01*
X135484818Y-100193615D01*
X135002944Y-99994025D01*
X134747000Y-100113164D01*
X134747000Y-101473000D01*
X134767000Y-101473000D01*
X134767000Y-101727000D01*
X134747000Y-101727000D01*
X134747000Y-103086836D01*
X135002944Y-103205975D01*
X135484818Y-103006385D01*
X135582398Y-102915903D01*
X135679910Y-103067441D01*
X135892110Y-103212431D01*
X136144000Y-103263440D01*
X138176000Y-103263440D01*
X138411317Y-103219162D01*
X138627441Y-103080090D01*
X138772431Y-102867890D01*
X138823440Y-102616000D01*
X138823440Y-100584000D01*
X138779162Y-100348683D01*
X138640090Y-100132559D01*
X138427890Y-99987569D01*
X138176000Y-99936560D01*
X138176000Y-99480840D01*
X138990000Y-98666841D01*
X138990000Y-103430000D01*
X98500000Y-103430000D01*
X98500000Y-101982946D01*
X102534017Y-101982946D01*
X102802812Y-102568379D01*
X103275182Y-103006385D01*
X103757056Y-103205975D01*
X104013000Y-103086836D01*
X104013000Y-101727000D01*
X102652633Y-101727000D01*
X102534017Y-101982946D01*
X98500000Y-101982946D01*
X98500000Y-101217054D01*
X102534017Y-101217054D01*
X102652633Y-101473000D01*
X104013000Y-101473000D01*
X104013000Y-100113164D01*
X104267000Y-100113164D01*
X104267000Y-101473000D01*
X104287000Y-101473000D01*
X104287000Y-101727000D01*
X104267000Y-101727000D01*
X104267000Y-103086836D01*
X104522944Y-103205975D01*
X105004818Y-103006385D01*
X105102398Y-102915903D01*
X105199910Y-103067441D01*
X105412110Y-103212431D01*
X105664000Y-103263440D01*
X107696000Y-103263440D01*
X107931317Y-103219162D01*
X108147441Y-103080090D01*
X108292431Y-102867890D01*
X108343440Y-102616000D01*
X108458000Y-102616000D01*
X108782300Y-102551493D01*
X108846807Y-102538662D01*
X109176420Y-102318420D01*
X109511894Y-101982946D01*
X112694017Y-101982946D01*
X112962812Y-102568379D01*
X113435182Y-103006385D01*
X113917056Y-103205975D01*
X114173000Y-103086836D01*
X114173000Y-101727000D01*
X112812633Y-101727000D01*
X112694017Y-101982946D01*
X109511894Y-101982946D01*
X110277786Y-101217054D01*
X112694017Y-101217054D01*
X112812633Y-101473000D01*
X114173000Y-101473000D01*
X114173000Y-100113164D01*
X113917056Y-99994025D01*
X113435182Y-100193615D01*
X112962812Y-100631621D01*
X112694017Y-101217054D01*
X110277786Y-101217054D01*
X112084321Y-99410520D01*
X114991680Y-99410520D01*
X115572446Y-99991286D01*
X115372559Y-100119910D01*
X115261160Y-100282948D01*
X115164818Y-100193615D01*
X114682944Y-99994025D01*
X114427000Y-100113164D01*
X114427000Y-101473000D01*
X114447000Y-101473000D01*
X114447000Y-101727000D01*
X114427000Y-101727000D01*
X114427000Y-103086836D01*
X114682944Y-103205975D01*
X115164818Y-103006385D01*
X115262398Y-102915903D01*
X115359910Y-103067441D01*
X115572110Y-103212431D01*
X115824000Y-103263440D01*
X117856000Y-103263440D01*
X118091317Y-103219162D01*
X118307441Y-103080090D01*
X118452431Y-102867890D01*
X118503440Y-102616000D01*
X118503440Y-101982946D01*
X122854017Y-101982946D01*
X123122812Y-102568379D01*
X123595182Y-103006385D01*
X124077056Y-103205975D01*
X124333000Y-103086836D01*
X124333000Y-101727000D01*
X122972633Y-101727000D01*
X122854017Y-101982946D01*
X118503440Y-101982946D01*
X118503440Y-101217054D01*
X122854017Y-101217054D01*
X122972633Y-101473000D01*
X124333000Y-101473000D01*
X124333000Y-100113164D01*
X124077056Y-99994025D01*
X123595182Y-100193615D01*
X123122812Y-100631621D01*
X122854017Y-101217054D01*
X118503440Y-101217054D01*
X118503440Y-100584000D01*
X118459162Y-100348683D01*
X118320090Y-100132559D01*
X118107890Y-99987569D01*
X117856000Y-99936560D01*
X117856000Y-99822000D01*
X117778662Y-99433194D01*
X117778662Y-99433193D01*
X117558421Y-99103580D01*
X116130940Y-97676100D01*
X115801327Y-97455858D01*
X115736820Y-97443027D01*
X115412520Y-97378520D01*
X112679480Y-97378520D01*
X112679480Y-93346836D01*
X113012743Y-93209134D01*
X113684256Y-92538792D01*
X114048125Y-91662499D01*
X114048953Y-90713664D01*
X113929266Y-90424000D01*
X116344473Y-90424000D01*
X116367052Y-90457792D01*
X116704873Y-90683516D01*
X116323976Y-90988011D01*
X116043351Y-91497190D01*
X116022460Y-91591168D01*
X116143786Y-91821000D01*
X118237000Y-91821000D01*
X118237000Y-91801000D01*
X118491000Y-91801000D01*
X118491000Y-91821000D01*
X120584214Y-91821000D01*
X120705540Y-91591168D01*
X120684649Y-91497190D01*
X120594539Y-91333690D01*
X123349000Y-91333690D01*
X123349000Y-92424250D01*
X123507750Y-92583000D01*
X124357000Y-92583000D01*
X124357000Y-90983750D01*
X124611000Y-90983750D01*
X124611000Y-92583000D01*
X125460250Y-92583000D01*
X125619000Y-92424250D01*
X125619000Y-91333690D01*
X125522327Y-91100301D01*
X125343698Y-90921673D01*
X125110309Y-90825000D01*
X124769750Y-90825000D01*
X124611000Y-90983750D01*
X124357000Y-90983750D01*
X124198250Y-90825000D01*
X123857691Y-90825000D01*
X123624302Y-90921673D01*
X123445673Y-91100301D01*
X123349000Y-91333690D01*
X120594539Y-91333690D01*
X120404024Y-90988011D01*
X120023127Y-90683516D01*
X120360948Y-90457792D01*
X120682775Y-89976143D01*
X120795786Y-89408000D01*
X120751578Y-89185750D01*
X124103000Y-89185750D01*
X124103000Y-89651310D01*
X124199673Y-89884699D01*
X124378302Y-90063327D01*
X124611691Y-90160000D01*
X124952250Y-90160000D01*
X125111000Y-90001250D01*
X125111000Y-89027000D01*
X124261750Y-89027000D01*
X124103000Y-89185750D01*
X120751578Y-89185750D01*
X120682775Y-88839857D01*
X120360948Y-88358208D01*
X120047382Y-88148690D01*
X124103000Y-88148690D01*
X124103000Y-88614250D01*
X124261750Y-88773000D01*
X125111000Y-88773000D01*
X125111000Y-87798750D01*
X125365000Y-87798750D01*
X125365000Y-88773000D01*
X125385000Y-88773000D01*
X125385000Y-89027000D01*
X125365000Y-89027000D01*
X125365000Y-90001250D01*
X125523750Y-90160000D01*
X125864309Y-90160000D01*
X126097698Y-90063327D01*
X126238936Y-89922090D01*
X126273910Y-89976441D01*
X126486110Y-90121431D01*
X126738000Y-90172440D01*
X127738000Y-90172440D01*
X127973317Y-90128162D01*
X128189441Y-89989090D01*
X128239381Y-89916000D01*
X128270000Y-89916000D01*
X128460706Y-89878066D01*
X128463663Y-89878069D01*
X128466420Y-89876930D01*
X128658806Y-89838662D01*
X128820474Y-89730638D01*
X128823212Y-89729507D01*
X128825327Y-89727396D01*
X128988420Y-89618420D01*
X129096444Y-89456751D01*
X129098540Y-89454659D01*
X129099686Y-89451900D01*
X129208662Y-89288806D01*
X129246595Y-89098104D01*
X129247730Y-89095370D01*
X129247733Y-89092384D01*
X129286000Y-88900000D01*
X129248066Y-88709294D01*
X129248069Y-88706337D01*
X129246930Y-88703580D01*
X129208662Y-88511194D01*
X129100638Y-88349526D01*
X129099507Y-88346788D01*
X129097396Y-88344673D01*
X128988420Y-88181580D01*
X128826751Y-88073556D01*
X128824659Y-88071460D01*
X128821900Y-88070314D01*
X128658806Y-87961338D01*
X128468104Y-87923405D01*
X128465370Y-87922270D01*
X128462384Y-87922267D01*
X128270000Y-87884000D01*
X128240983Y-87884000D01*
X128202090Y-87823559D01*
X127989890Y-87678569D01*
X127738000Y-87627560D01*
X126738000Y-87627560D01*
X126502683Y-87671838D01*
X126286559Y-87810910D01*
X126240031Y-87879006D01*
X126097698Y-87736673D01*
X125864309Y-87640000D01*
X125523750Y-87640000D01*
X125365000Y-87798750D01*
X125111000Y-87798750D01*
X124952250Y-87640000D01*
X124611691Y-87640000D01*
X124378302Y-87736673D01*
X124199673Y-87915301D01*
X124103000Y-88148690D01*
X120047382Y-88148690D01*
X119879299Y-88036381D01*
X119311156Y-87923370D01*
X117416844Y-87923370D01*
X116848701Y-88036381D01*
X116367052Y-88358208D01*
X116344473Y-88392000D01*
X113441480Y-88392000D01*
X113052673Y-88469338D01*
X112723060Y-88689579D01*
X112473001Y-88939638D01*
X112139979Y-88801355D01*
X111191144Y-88800527D01*
X110314217Y-89162866D01*
X109642704Y-89833208D01*
X109278835Y-90709501D01*
X109278007Y-91658336D01*
X109640346Y-92535263D01*
X110310688Y-93206776D01*
X110647480Y-93346624D01*
X110647480Y-94529650D01*
X110358311Y-94370034D01*
X108843345Y-95885000D01*
X110358311Y-97399966D01*
X110647480Y-97240350D01*
X110647480Y-97973679D01*
X108288714Y-100332446D01*
X108160090Y-100132559D01*
X107947890Y-99987569D01*
X107696000Y-99936560D01*
X105664000Y-99936560D01*
X105428683Y-99980838D01*
X105212559Y-100119910D01*
X105101160Y-100282948D01*
X105004818Y-100193615D01*
X104522944Y-99994025D01*
X104267000Y-100113164D01*
X104013000Y-100113164D01*
X103757056Y-99994025D01*
X103275182Y-100193615D01*
X102802812Y-100631621D01*
X102534017Y-101217054D01*
X98500000Y-101217054D01*
X98500000Y-97579571D01*
X107148774Y-97579571D01*
X107339068Y-97924319D01*
X108220316Y-98276015D01*
X109169072Y-98263701D01*
X109988412Y-97924319D01*
X110178706Y-97579571D01*
X108663740Y-96064605D01*
X107148774Y-97579571D01*
X98500000Y-97579571D01*
X98500000Y-95441576D01*
X106272725Y-95441576D01*
X106285039Y-96390332D01*
X106624421Y-97209672D01*
X106969169Y-97399966D01*
X108484135Y-95885000D01*
X106969169Y-94370034D01*
X106624421Y-94560328D01*
X106272725Y-95441576D01*
X98500000Y-95441576D01*
X98500000Y-94190429D01*
X107148774Y-94190429D01*
X108663740Y-95705395D01*
X110178706Y-94190429D01*
X109988412Y-93845681D01*
X109107164Y-93493985D01*
X108158408Y-93506299D01*
X107339068Y-93845681D01*
X107148774Y-94190429D01*
X98500000Y-94190429D01*
X98500000Y-92880571D01*
X104149034Y-92880571D01*
X104339328Y-93225319D01*
X105220576Y-93577015D01*
X106169332Y-93564701D01*
X106988672Y-93225319D01*
X107178966Y-92880571D01*
X105664000Y-91365605D01*
X104149034Y-92880571D01*
X98500000Y-92880571D01*
X98500000Y-90742576D01*
X103272985Y-90742576D01*
X103285299Y-91691332D01*
X103624681Y-92510672D01*
X103969429Y-92700966D01*
X105484395Y-91186000D01*
X105843605Y-91186000D01*
X107358571Y-92700966D01*
X107703319Y-92510672D01*
X108055015Y-91629424D01*
X108042701Y-90680668D01*
X107703319Y-89861328D01*
X107358571Y-89671034D01*
X105843605Y-91186000D01*
X105484395Y-91186000D01*
X103969429Y-89671034D01*
X103624681Y-89861328D01*
X103272985Y-90742576D01*
X98500000Y-90742576D01*
X98500000Y-89491429D01*
X104149034Y-89491429D01*
X105664000Y-91006395D01*
X107178966Y-89491429D01*
X106988672Y-89146681D01*
X106107424Y-88794985D01*
X105158668Y-88807299D01*
X104339328Y-89146681D01*
X104149034Y-89491429D01*
X98500000Y-89491429D01*
X98500000Y-87070000D01*
X131266541Y-87070000D01*
X131229569Y-87124110D01*
M02*
