G04 #@! TF.FileFunction,Legend,Top*
%FSLAX46Y46*%
G04 Gerber Fmt 4.6, Leading zero omitted, Abs format (unit mm)*
G04 Created by KiCad (PCBNEW 4.0.1-3.201512221402+6198~38~ubuntu14.04.1-stable) date Mon 09 May 2016 07:42:58 PM PDT*
%MOMM*%
G01*
G04 APERTURE LIST*
%ADD10C,0.100000*%
%ADD11C,0.203200*%
%ADD12C,0.150000*%
G04 APERTURE END LIST*
D10*
D11*
X136168191Y-98503619D02*
X136797143Y-98503619D01*
X136458477Y-98890667D01*
X136603619Y-98890667D01*
X136700381Y-98939048D01*
X136748762Y-98987429D01*
X136797143Y-99084190D01*
X136797143Y-99326095D01*
X136748762Y-99422857D01*
X136700381Y-99471238D01*
X136603619Y-99519619D01*
X136313334Y-99519619D01*
X136216572Y-99471238D01*
X136168191Y-99422857D01*
X137232572Y-99422857D02*
X137280953Y-99471238D01*
X137232572Y-99519619D01*
X137184191Y-99471238D01*
X137232572Y-99422857D01*
X137232572Y-99519619D01*
X137619620Y-98503619D02*
X138248572Y-98503619D01*
X137909906Y-98890667D01*
X138055048Y-98890667D01*
X138151810Y-98939048D01*
X138200191Y-98987429D01*
X138248572Y-99084190D01*
X138248572Y-99326095D01*
X138200191Y-99422857D01*
X138151810Y-99471238D01*
X138055048Y-99519619D01*
X137764763Y-99519619D01*
X137668001Y-99471238D01*
X137619620Y-99422857D01*
X138538858Y-98503619D02*
X138877525Y-99519619D01*
X139216191Y-98503619D01*
X126806476Y-98503619D02*
X126322667Y-98503619D01*
X126274286Y-98987429D01*
X126322667Y-98939048D01*
X126419429Y-98890667D01*
X126661333Y-98890667D01*
X126758095Y-98939048D01*
X126806476Y-98987429D01*
X126854857Y-99084190D01*
X126854857Y-99326095D01*
X126806476Y-99422857D01*
X126758095Y-99471238D01*
X126661333Y-99519619D01*
X126419429Y-99519619D01*
X126322667Y-99471238D01*
X126274286Y-99422857D01*
X127145143Y-98503619D02*
X127483810Y-99519619D01*
X127822476Y-98503619D01*
X134112000Y-98818095D02*
X134063619Y-98914857D01*
X134063619Y-99060000D01*
X134112000Y-99205142D01*
X134208762Y-99301904D01*
X134305524Y-99350285D01*
X134499048Y-99398666D01*
X134644190Y-99398666D01*
X134837714Y-99350285D01*
X134934476Y-99301904D01*
X135031238Y-99205142D01*
X135079619Y-99060000D01*
X135079619Y-98963238D01*
X135031238Y-98818095D01*
X134982857Y-98769714D01*
X134644190Y-98769714D01*
X134644190Y-98963238D01*
X135079619Y-98334285D02*
X134063619Y-98334285D01*
X135079619Y-97753714D01*
X134063619Y-97753714D01*
X135079619Y-97269904D02*
X134063619Y-97269904D01*
X134063619Y-97027999D01*
X134112000Y-96882857D01*
X134208762Y-96786095D01*
X134305524Y-96737714D01*
X134499048Y-96689333D01*
X134644190Y-96689333D01*
X134837714Y-96737714D01*
X134934476Y-96786095D01*
X135031238Y-96882857D01*
X135079619Y-97027999D01*
X135079619Y-97269904D01*
X123952000Y-98818095D02*
X123903619Y-98914857D01*
X123903619Y-99060000D01*
X123952000Y-99205142D01*
X124048762Y-99301904D01*
X124145524Y-99350285D01*
X124339048Y-99398666D01*
X124484190Y-99398666D01*
X124677714Y-99350285D01*
X124774476Y-99301904D01*
X124871238Y-99205142D01*
X124919619Y-99060000D01*
X124919619Y-98963238D01*
X124871238Y-98818095D01*
X124822857Y-98769714D01*
X124484190Y-98769714D01*
X124484190Y-98963238D01*
X124919619Y-98334285D02*
X123903619Y-98334285D01*
X124919619Y-97753714D01*
X123903619Y-97753714D01*
X124919619Y-97269904D02*
X123903619Y-97269904D01*
X123903619Y-97027999D01*
X123952000Y-96882857D01*
X124048762Y-96786095D01*
X124145524Y-96737714D01*
X124339048Y-96689333D01*
X124484190Y-96689333D01*
X124677714Y-96737714D01*
X124774476Y-96786095D01*
X124871238Y-96882857D01*
X124919619Y-97027999D01*
X124919619Y-97269904D01*
X116211048Y-99519619D02*
X116404572Y-99519619D01*
X116501333Y-99471238D01*
X116549714Y-99422857D01*
X116646476Y-99277714D01*
X116694857Y-99084190D01*
X116694857Y-98697143D01*
X116646476Y-98600381D01*
X116598095Y-98552000D01*
X116501333Y-98503619D01*
X116307810Y-98503619D01*
X116211048Y-98552000D01*
X116162667Y-98600381D01*
X116114286Y-98697143D01*
X116114286Y-98939048D01*
X116162667Y-99035810D01*
X116211048Y-99084190D01*
X116307810Y-99132571D01*
X116501333Y-99132571D01*
X116598095Y-99084190D01*
X116646476Y-99035810D01*
X116694857Y-98939048D01*
X116985143Y-98503619D02*
X117323810Y-99519619D01*
X117662476Y-98503619D01*
X113538000Y-98818095D02*
X113489619Y-98914857D01*
X113489619Y-99060000D01*
X113538000Y-99205142D01*
X113634762Y-99301904D01*
X113731524Y-99350285D01*
X113925048Y-99398666D01*
X114070190Y-99398666D01*
X114263714Y-99350285D01*
X114360476Y-99301904D01*
X114457238Y-99205142D01*
X114505619Y-99060000D01*
X114505619Y-98963238D01*
X114457238Y-98818095D01*
X114408857Y-98769714D01*
X114070190Y-98769714D01*
X114070190Y-98963238D01*
X114505619Y-98334285D02*
X113489619Y-98334285D01*
X114505619Y-97753714D01*
X113489619Y-97753714D01*
X114505619Y-97269904D02*
X113489619Y-97269904D01*
X113489619Y-97027999D01*
X113538000Y-96882857D01*
X113634762Y-96786095D01*
X113731524Y-96737714D01*
X113925048Y-96689333D01*
X114070190Y-96689333D01*
X114263714Y-96737714D01*
X114360476Y-96786095D01*
X114457238Y-96882857D01*
X114505619Y-97027999D01*
X114505619Y-97269904D01*
X103632000Y-99072095D02*
X103583619Y-99168857D01*
X103583619Y-99314000D01*
X103632000Y-99459142D01*
X103728762Y-99555904D01*
X103825524Y-99604285D01*
X104019048Y-99652666D01*
X104164190Y-99652666D01*
X104357714Y-99604285D01*
X104454476Y-99555904D01*
X104551238Y-99459142D01*
X104599619Y-99314000D01*
X104599619Y-99217238D01*
X104551238Y-99072095D01*
X104502857Y-99023714D01*
X104164190Y-99023714D01*
X104164190Y-99217238D01*
X104599619Y-98588285D02*
X103583619Y-98588285D01*
X104599619Y-98007714D01*
X103583619Y-98007714D01*
X104599619Y-97523904D02*
X103583619Y-97523904D01*
X103583619Y-97281999D01*
X103632000Y-97136857D01*
X103728762Y-97040095D01*
X103825524Y-96991714D01*
X104019048Y-96943333D01*
X104164190Y-96943333D01*
X104357714Y-96991714D01*
X104454476Y-97040095D01*
X104551238Y-97136857D01*
X104599619Y-97281999D01*
X104599619Y-97523904D01*
X106051048Y-99519619D02*
X106244572Y-99519619D01*
X106341333Y-99471238D01*
X106389714Y-99422857D01*
X106486476Y-99277714D01*
X106534857Y-99084190D01*
X106534857Y-98697143D01*
X106486476Y-98600381D01*
X106438095Y-98552000D01*
X106341333Y-98503619D01*
X106147810Y-98503619D01*
X106051048Y-98552000D01*
X106002667Y-98600381D01*
X105954286Y-98697143D01*
X105954286Y-98939048D01*
X106002667Y-99035810D01*
X106051048Y-99084190D01*
X106147810Y-99132571D01*
X106341333Y-99132571D01*
X106438095Y-99084190D01*
X106486476Y-99035810D01*
X106534857Y-98939048D01*
X106825143Y-98503619D02*
X107163810Y-99519619D01*
X107502476Y-98503619D01*
D12*
X105410000Y-102870000D02*
X102870000Y-102870000D01*
X108230000Y-103150000D02*
X106680000Y-103150000D01*
X105410000Y-102870000D02*
X105410000Y-100330000D01*
X106680000Y-100050000D02*
X108230000Y-100050000D01*
X108230000Y-100050000D02*
X108230000Y-103150000D01*
X105410000Y-100330000D02*
X102870000Y-100330000D01*
X102870000Y-100330000D02*
X102870000Y-102870000D01*
X115570000Y-102870000D02*
X113030000Y-102870000D01*
X118390000Y-103150000D02*
X116840000Y-103150000D01*
X115570000Y-102870000D02*
X115570000Y-100330000D01*
X116840000Y-100050000D02*
X118390000Y-100050000D01*
X118390000Y-100050000D02*
X118390000Y-103150000D01*
X115570000Y-100330000D02*
X113030000Y-100330000D01*
X113030000Y-100330000D02*
X113030000Y-102870000D01*
X125730000Y-102870000D02*
X123190000Y-102870000D01*
X128550000Y-103150000D02*
X127000000Y-103150000D01*
X125730000Y-102870000D02*
X125730000Y-100330000D01*
X127000000Y-100050000D02*
X128550000Y-100050000D01*
X128550000Y-100050000D02*
X128550000Y-103150000D01*
X125730000Y-100330000D02*
X123190000Y-100330000D01*
X123190000Y-100330000D02*
X123190000Y-102870000D01*
X135890000Y-102870000D02*
X133350000Y-102870000D01*
X138710000Y-103150000D02*
X137160000Y-103150000D01*
X135890000Y-102870000D02*
X135890000Y-100330000D01*
X137160000Y-100050000D02*
X138710000Y-100050000D01*
X138710000Y-100050000D02*
X138710000Y-103150000D01*
X135890000Y-100330000D02*
X133350000Y-100330000D01*
X133350000Y-100330000D02*
X133350000Y-102870000D01*
X101462840Y-86685120D02*
X101462840Y-95686880D01*
X97962720Y-86685120D02*
X97962720Y-95686880D01*
X97962720Y-95686880D02*
X112463580Y-95686880D01*
X112463580Y-95686880D02*
X112463580Y-86685120D01*
X112463580Y-86685120D02*
X97962720Y-86685120D01*
X120269000Y-97282000D02*
X120269000Y-95377000D01*
X120269000Y-92837000D02*
X120269000Y-93599000D01*
X120269000Y-90424000D02*
X120269000Y-90297000D01*
X120269000Y-90424000D02*
X120269000Y-91059000D01*
X120269000Y-86614000D02*
X120269000Y-88392000D01*
X116586000Y-86614000D02*
X116586000Y-88265000D01*
X116459000Y-90932000D02*
X116459000Y-90297000D01*
X116459000Y-93472000D02*
X116459000Y-92837000D01*
X116586000Y-97282000D02*
X116586000Y-95631000D01*
X121412000Y-90424000D02*
X120269000Y-90424000D01*
X121412000Y-93472000D02*
X120269000Y-93472000D01*
X120269000Y-97282000D02*
X116586000Y-97282000D01*
X116586000Y-86614000D02*
X120269000Y-86614000D01*
X121412000Y-97282000D02*
X120269000Y-97282000D01*
X120269000Y-86614000D02*
X121412000Y-86614000D01*
X121412000Y-91948000D02*
X121412000Y-86614000D01*
X121412000Y-91948000D02*
X121412000Y-97282000D01*
X125738000Y-89750000D02*
X126738000Y-89750000D01*
X126738000Y-88050000D02*
X125738000Y-88050000D01*
X124984000Y-94185000D02*
X126984000Y-94185000D01*
X126984000Y-91235000D02*
X124984000Y-91235000D01*
X138176000Y-90170000D02*
X138176000Y-87122000D01*
X138176000Y-87122000D02*
X131064000Y-87122000D01*
X131064000Y-87122000D02*
X131064000Y-90170000D01*
X138176000Y-93218000D02*
X138176000Y-93980000D01*
X138176000Y-93980000D02*
X136652000Y-96266000D01*
X136652000Y-96266000D02*
X132588000Y-96266000D01*
X132588000Y-96266000D02*
X131064000Y-93980000D01*
X131064000Y-93980000D02*
X131064000Y-93218000D01*
X99234667Y-94194381D02*
X99234667Y-94908667D01*
X99187047Y-95051524D01*
X99091809Y-95146762D01*
X98948952Y-95194381D01*
X98853714Y-95194381D01*
X100187048Y-94194381D02*
X99710857Y-94194381D01*
X99663238Y-94670571D01*
X99710857Y-94622952D01*
X99806095Y-94575333D01*
X100044191Y-94575333D01*
X100139429Y-94622952D01*
X100187048Y-94670571D01*
X100234667Y-94765810D01*
X100234667Y-95003905D01*
X100187048Y-95099143D01*
X100139429Y-95146762D01*
X100044191Y-95194381D01*
X99806095Y-95194381D01*
X99710857Y-95146762D01*
X99663238Y-95099143D01*
X117602095Y-95972381D02*
X117602095Y-96781905D01*
X117649714Y-96877143D01*
X117697333Y-96924762D01*
X117792571Y-96972381D01*
X117983048Y-96972381D01*
X118078286Y-96924762D01*
X118125905Y-96877143D01*
X118173524Y-96781905D01*
X118173524Y-95972381D01*
X119173524Y-96972381D02*
X118602095Y-96972381D01*
X118887809Y-96972381D02*
X118887809Y-95972381D01*
X118792571Y-96115238D01*
X118697333Y-96210476D01*
X118602095Y-96258095D01*
X123801143Y-89066666D02*
X123848762Y-89114285D01*
X123896381Y-89257142D01*
X123896381Y-89352380D01*
X123848762Y-89495238D01*
X123753524Y-89590476D01*
X123658286Y-89638095D01*
X123467810Y-89685714D01*
X123324952Y-89685714D01*
X123134476Y-89638095D01*
X123039238Y-89590476D01*
X122944000Y-89495238D01*
X122896381Y-89352380D01*
X122896381Y-89257142D01*
X122944000Y-89114285D01*
X122991619Y-89066666D01*
X122991619Y-88685714D02*
X122944000Y-88638095D01*
X122896381Y-88542857D01*
X122896381Y-88304761D01*
X122944000Y-88209523D01*
X122991619Y-88161904D01*
X123086857Y-88114285D01*
X123182095Y-88114285D01*
X123324952Y-88161904D01*
X123896381Y-88733333D01*
X123896381Y-88114285D01*
X129389143Y-92876666D02*
X129436762Y-92924285D01*
X129484381Y-93067142D01*
X129484381Y-93162380D01*
X129436762Y-93305238D01*
X129341524Y-93400476D01*
X129246286Y-93448095D01*
X129055810Y-93495714D01*
X128912952Y-93495714D01*
X128722476Y-93448095D01*
X128627238Y-93400476D01*
X128532000Y-93305238D01*
X128484381Y-93162380D01*
X128484381Y-93067142D01*
X128532000Y-92924285D01*
X128579619Y-92876666D01*
X129484381Y-91924285D02*
X129484381Y-92495714D01*
X129484381Y-92210000D02*
X128484381Y-92210000D01*
X128627238Y-92305238D01*
X128722476Y-92400476D01*
X128770095Y-92495714D01*
X129754381Y-88899905D02*
X130563905Y-88899905D01*
X130659143Y-88852286D01*
X130706762Y-88804667D01*
X130754381Y-88709429D01*
X130754381Y-88518952D01*
X130706762Y-88423714D01*
X130659143Y-88376095D01*
X130563905Y-88328476D01*
X129754381Y-88328476D01*
X129849619Y-87899905D02*
X129802000Y-87852286D01*
X129754381Y-87757048D01*
X129754381Y-87518952D01*
X129802000Y-87423714D01*
X129849619Y-87376095D01*
X129944857Y-87328476D01*
X130040095Y-87328476D01*
X130182952Y-87376095D01*
X130754381Y-87947524D01*
X130754381Y-87328476D01*
M02*
