G04 #@! TF.FileFunction,Copper,L2,Bot,Signal*
%FSLAX46Y46*%
G04 Gerber Fmt 4.6, Leading zero omitted, Abs format (unit mm)*
G04 Created by KiCad (PCBNEW 4.0.1-3.201512221402+6198~38~ubuntu14.04.1-stable) date Mon 09 May 2016 07:42:58 PM PDT*
%MOMM*%
G01*
G04 APERTURE LIST*
%ADD10C,0.100000*%
%ADD11R,2.032000X2.032000*%
%ADD12O,2.032000X2.032000*%
%ADD13C,3.500120*%
%ADD14O,3.500120X1.699260*%
%ADD15C,0.685800*%
%ADD16C,0.762000*%
%ADD17C,0.254000*%
G04 APERTURE END LIST*
D10*
D11*
X106680000Y-101600000D03*
D12*
X104140000Y-101600000D03*
D11*
X116840000Y-101600000D03*
D12*
X114300000Y-101600000D03*
D11*
X127000000Y-101600000D03*
D12*
X124460000Y-101600000D03*
D11*
X137160000Y-101600000D03*
D12*
X134620000Y-101600000D03*
D13*
X111663480Y-91186000D03*
X105664000Y-91186000D03*
X108663740Y-95885000D03*
D14*
X118364000Y-91948000D03*
X118364000Y-89408000D03*
X118364000Y-94488000D03*
D15*
X138430000Y-88900000D03*
X130810000Y-97790000D03*
X137414000Y-91440000D03*
X128270000Y-88900000D03*
X134620000Y-91440000D03*
D16*
X122808999Y-97790000D02*
X122808999Y-95639889D01*
X122808999Y-99948999D02*
X122808999Y-97790000D01*
X122808999Y-97790000D02*
X130810000Y-97790000D01*
X130810000Y-97790000D02*
X134620000Y-101600000D01*
X124460000Y-101600000D02*
X122808999Y-99948999D01*
X122808999Y-95639889D02*
X119117110Y-91948000D01*
X119117110Y-91948000D02*
X118618000Y-91948000D01*
X114300000Y-101600000D02*
X111760000Y-99060000D01*
X111760000Y-99060000D02*
X108663740Y-95963740D01*
X118618000Y-91948000D02*
X118118890Y-91948000D01*
X111760000Y-98306890D02*
X111760000Y-99060000D01*
X108663740Y-95963740D02*
X108663740Y-95885000D01*
X137160000Y-91440000D02*
X137414000Y-91440000D01*
X134620000Y-91440000D02*
X137160000Y-91440000D01*
X134620000Y-91440000D02*
X130810000Y-91440000D01*
X130810000Y-91440000D02*
X128270000Y-88900000D01*
D17*
G36*
X138990000Y-103430000D02*
X98500000Y-103430000D01*
X98500000Y-101982946D01*
X102534017Y-101982946D01*
X102802812Y-102568379D01*
X103275182Y-103006385D01*
X103757056Y-103205975D01*
X104013000Y-103086836D01*
X104013000Y-101727000D01*
X102652633Y-101727000D01*
X102534017Y-101982946D01*
X98500000Y-101982946D01*
X98500000Y-101217054D01*
X102534017Y-101217054D01*
X102652633Y-101473000D01*
X104013000Y-101473000D01*
X104013000Y-100113164D01*
X104267000Y-100113164D01*
X104267000Y-101473000D01*
X104287000Y-101473000D01*
X104287000Y-101727000D01*
X104267000Y-101727000D01*
X104267000Y-103086836D01*
X104522944Y-103205975D01*
X105004818Y-103006385D01*
X105102398Y-102915903D01*
X105199910Y-103067441D01*
X105412110Y-103212431D01*
X105664000Y-103263440D01*
X107696000Y-103263440D01*
X107931317Y-103219162D01*
X108147441Y-103080090D01*
X108292431Y-102867890D01*
X108343440Y-102616000D01*
X108343440Y-101982946D01*
X112694017Y-101982946D01*
X112962812Y-102568379D01*
X113435182Y-103006385D01*
X113917056Y-103205975D01*
X114173000Y-103086836D01*
X114173000Y-101727000D01*
X112812633Y-101727000D01*
X112694017Y-101982946D01*
X108343440Y-101982946D01*
X108343440Y-101217054D01*
X112694017Y-101217054D01*
X112812633Y-101473000D01*
X114173000Y-101473000D01*
X114173000Y-100113164D01*
X114427000Y-100113164D01*
X114427000Y-101473000D01*
X114447000Y-101473000D01*
X114447000Y-101727000D01*
X114427000Y-101727000D01*
X114427000Y-103086836D01*
X114682944Y-103205975D01*
X115164818Y-103006385D01*
X115262398Y-102915903D01*
X115359910Y-103067441D01*
X115572110Y-103212431D01*
X115824000Y-103263440D01*
X117856000Y-103263440D01*
X118091317Y-103219162D01*
X118307441Y-103080090D01*
X118452431Y-102867890D01*
X118503440Y-102616000D01*
X118503440Y-101982946D01*
X122854017Y-101982946D01*
X123122812Y-102568379D01*
X123595182Y-103006385D01*
X124077056Y-103205975D01*
X124333000Y-103086836D01*
X124333000Y-101727000D01*
X122972633Y-101727000D01*
X122854017Y-101982946D01*
X118503440Y-101982946D01*
X118503440Y-101217054D01*
X122854017Y-101217054D01*
X122972633Y-101473000D01*
X124333000Y-101473000D01*
X124333000Y-100113164D01*
X124587000Y-100113164D01*
X124587000Y-101473000D01*
X124607000Y-101473000D01*
X124607000Y-101727000D01*
X124587000Y-101727000D01*
X124587000Y-103086836D01*
X124842944Y-103205975D01*
X125324818Y-103006385D01*
X125422398Y-102915903D01*
X125519910Y-103067441D01*
X125732110Y-103212431D01*
X125984000Y-103263440D01*
X128016000Y-103263440D01*
X128251317Y-103219162D01*
X128467441Y-103080090D01*
X128612431Y-102867890D01*
X128663440Y-102616000D01*
X128663440Y-101982946D01*
X133014017Y-101982946D01*
X133282812Y-102568379D01*
X133755182Y-103006385D01*
X134237056Y-103205975D01*
X134493000Y-103086836D01*
X134493000Y-101727000D01*
X133132633Y-101727000D01*
X133014017Y-101982946D01*
X128663440Y-101982946D01*
X128663440Y-101217054D01*
X133014017Y-101217054D01*
X133132633Y-101473000D01*
X134493000Y-101473000D01*
X134493000Y-100113164D01*
X134747000Y-100113164D01*
X134747000Y-101473000D01*
X134767000Y-101473000D01*
X134767000Y-101727000D01*
X134747000Y-101727000D01*
X134747000Y-103086836D01*
X135002944Y-103205975D01*
X135484818Y-103006385D01*
X135582398Y-102915903D01*
X135679910Y-103067441D01*
X135892110Y-103212431D01*
X136144000Y-103263440D01*
X138176000Y-103263440D01*
X138411317Y-103219162D01*
X138627441Y-103080090D01*
X138772431Y-102867890D01*
X138823440Y-102616000D01*
X138823440Y-100584000D01*
X138779162Y-100348683D01*
X138640090Y-100132559D01*
X138427890Y-99987569D01*
X138176000Y-99936560D01*
X136144000Y-99936560D01*
X135908683Y-99980838D01*
X135692559Y-100119910D01*
X135581160Y-100282948D01*
X135484818Y-100193615D01*
X135002944Y-99994025D01*
X134747000Y-100113164D01*
X134493000Y-100113164D01*
X134237056Y-99994025D01*
X133755182Y-100193615D01*
X133282812Y-100631621D01*
X133014017Y-101217054D01*
X128663440Y-101217054D01*
X128663440Y-100584000D01*
X128619162Y-100348683D01*
X128480090Y-100132559D01*
X128267890Y-99987569D01*
X128016000Y-99936560D01*
X125984000Y-99936560D01*
X125748683Y-99980838D01*
X125532559Y-100119910D01*
X125421160Y-100282948D01*
X125324818Y-100193615D01*
X124842944Y-99994025D01*
X124587000Y-100113164D01*
X124333000Y-100113164D01*
X124077056Y-99994025D01*
X123595182Y-100193615D01*
X123122812Y-100631621D01*
X122854017Y-101217054D01*
X118503440Y-101217054D01*
X118503440Y-100584000D01*
X118459162Y-100348683D01*
X118320090Y-100132559D01*
X118107890Y-99987569D01*
X117856000Y-99936560D01*
X115824000Y-99936560D01*
X115588683Y-99980838D01*
X115372559Y-100119910D01*
X115261160Y-100282948D01*
X115164818Y-100193615D01*
X114682944Y-99994025D01*
X114427000Y-100113164D01*
X114173000Y-100113164D01*
X113917056Y-99994025D01*
X113435182Y-100193615D01*
X112962812Y-100631621D01*
X112694017Y-101217054D01*
X108343440Y-101217054D01*
X108343440Y-100584000D01*
X108299162Y-100348683D01*
X108160090Y-100132559D01*
X107947890Y-99987569D01*
X107696000Y-99936560D01*
X105664000Y-99936560D01*
X105428683Y-99980838D01*
X105212559Y-100119910D01*
X105101160Y-100282948D01*
X105004818Y-100193615D01*
X104522944Y-99994025D01*
X104267000Y-100113164D01*
X104013000Y-100113164D01*
X103757056Y-99994025D01*
X103275182Y-100193615D01*
X102802812Y-100631621D01*
X102534017Y-101217054D01*
X98500000Y-101217054D01*
X98500000Y-97579571D01*
X107148774Y-97579571D01*
X107339068Y-97924319D01*
X108220316Y-98276015D01*
X109169072Y-98263701D01*
X109988412Y-97924319D01*
X110178706Y-97579571D01*
X108663740Y-96064605D01*
X107148774Y-97579571D01*
X98500000Y-97579571D01*
X98500000Y-95441576D01*
X106272725Y-95441576D01*
X106285039Y-96390332D01*
X106624421Y-97209672D01*
X106969169Y-97399966D01*
X108484135Y-95885000D01*
X108843345Y-95885000D01*
X110358311Y-97399966D01*
X110703059Y-97209672D01*
X111054755Y-96328424D01*
X111042441Y-95379668D01*
X110703059Y-94560328D01*
X110572026Y-94488000D01*
X115932214Y-94488000D01*
X116045225Y-95056143D01*
X116367052Y-95537792D01*
X116848701Y-95859619D01*
X117416844Y-95972630D01*
X119311156Y-95972630D01*
X119879299Y-95859619D01*
X120360948Y-95537792D01*
X120682775Y-95056143D01*
X120795786Y-94488000D01*
X120682775Y-93919857D01*
X120360948Y-93438208D01*
X120023127Y-93212484D01*
X120404024Y-92907989D01*
X120684649Y-92398810D01*
X120705540Y-92304832D01*
X120584214Y-92075000D01*
X118491000Y-92075000D01*
X118491000Y-92095000D01*
X118237000Y-92095000D01*
X118237000Y-92075000D01*
X116143786Y-92075000D01*
X116022460Y-92304832D01*
X116043351Y-92398810D01*
X116323976Y-92907989D01*
X116704873Y-93212484D01*
X116367052Y-93438208D01*
X116045225Y-93919857D01*
X115932214Y-94488000D01*
X110572026Y-94488000D01*
X110358311Y-94370034D01*
X108843345Y-95885000D01*
X108484135Y-95885000D01*
X106969169Y-94370034D01*
X106624421Y-94560328D01*
X106272725Y-95441576D01*
X98500000Y-95441576D01*
X98500000Y-94190429D01*
X107148774Y-94190429D01*
X108663740Y-95705395D01*
X110178706Y-94190429D01*
X109988412Y-93845681D01*
X109107164Y-93493985D01*
X108158408Y-93506299D01*
X107339068Y-93845681D01*
X107148774Y-94190429D01*
X98500000Y-94190429D01*
X98500000Y-92880571D01*
X104149034Y-92880571D01*
X104339328Y-93225319D01*
X105220576Y-93577015D01*
X106169332Y-93564701D01*
X106988672Y-93225319D01*
X107178966Y-92880571D01*
X105664000Y-91365605D01*
X104149034Y-92880571D01*
X98500000Y-92880571D01*
X98500000Y-90742576D01*
X103272985Y-90742576D01*
X103285299Y-91691332D01*
X103624681Y-92510672D01*
X103969429Y-92700966D01*
X105484395Y-91186000D01*
X105843605Y-91186000D01*
X107358571Y-92700966D01*
X107703319Y-92510672D01*
X108043476Y-91658336D01*
X109278007Y-91658336D01*
X109640346Y-92535263D01*
X110310688Y-93206776D01*
X111186981Y-93570645D01*
X112135816Y-93571473D01*
X113012743Y-93209134D01*
X113684256Y-92538792D01*
X114048125Y-91662499D01*
X114048953Y-90713664D01*
X113686614Y-89836737D01*
X113258625Y-89408000D01*
X115932214Y-89408000D01*
X116045225Y-89976143D01*
X116367052Y-90457792D01*
X116704873Y-90683516D01*
X116323976Y-90988011D01*
X116043351Y-91497190D01*
X116022460Y-91591168D01*
X116143786Y-91821000D01*
X118237000Y-91821000D01*
X118237000Y-91801000D01*
X118491000Y-91801000D01*
X118491000Y-91821000D01*
X120584214Y-91821000D01*
X120705540Y-91591168D01*
X120684649Y-91497190D01*
X120404024Y-90988011D01*
X120023127Y-90683516D01*
X120360948Y-90457792D01*
X120682775Y-89976143D01*
X120795786Y-89408000D01*
X120694739Y-88900000D01*
X127254001Y-88900000D01*
X127291934Y-89090704D01*
X127291931Y-89093663D01*
X127293071Y-89096422D01*
X127331338Y-89288807D01*
X127439362Y-89450476D01*
X127440493Y-89453212D01*
X127442603Y-89455326D01*
X127551580Y-89618420D01*
X130091579Y-92158420D01*
X130310700Y-92304832D01*
X130421194Y-92378662D01*
X130810000Y-92456000D01*
X137414000Y-92456000D01*
X137604706Y-92418066D01*
X137607663Y-92418069D01*
X137610420Y-92416930D01*
X137802806Y-92378662D01*
X137964474Y-92270638D01*
X137967212Y-92269507D01*
X137969327Y-92267396D01*
X138132420Y-92158420D01*
X138240444Y-91996751D01*
X138242540Y-91994659D01*
X138243686Y-91991900D01*
X138352662Y-91828806D01*
X138390595Y-91638104D01*
X138391730Y-91635370D01*
X138391733Y-91632384D01*
X138430000Y-91440000D01*
X138392066Y-91249294D01*
X138392069Y-91246337D01*
X138390930Y-91243580D01*
X138352662Y-91051194D01*
X138244638Y-90889526D01*
X138243507Y-90886788D01*
X138241396Y-90884673D01*
X138132420Y-90721580D01*
X137970751Y-90613556D01*
X137968659Y-90611460D01*
X137965900Y-90610314D01*
X137802806Y-90501338D01*
X137612104Y-90463405D01*
X137609370Y-90462270D01*
X137606384Y-90462267D01*
X137414000Y-90424000D01*
X131230841Y-90424000D01*
X128988420Y-88181580D01*
X128826750Y-88073555D01*
X128824659Y-88071460D01*
X128821901Y-88070315D01*
X128658807Y-87961338D01*
X128468105Y-87923406D01*
X128465370Y-87922270D01*
X128462382Y-87922267D01*
X128270000Y-87884001D01*
X128079296Y-87921934D01*
X128076337Y-87921931D01*
X128073578Y-87923071D01*
X127881193Y-87961338D01*
X127719524Y-88069362D01*
X127716788Y-88070493D01*
X127714674Y-88072603D01*
X127551580Y-88181580D01*
X127443555Y-88343250D01*
X127441460Y-88345341D01*
X127440315Y-88348099D01*
X127331338Y-88511193D01*
X127293406Y-88701895D01*
X127292270Y-88704630D01*
X127292267Y-88707618D01*
X127254001Y-88900000D01*
X120694739Y-88900000D01*
X120682775Y-88839857D01*
X120360948Y-88358208D01*
X119879299Y-88036381D01*
X119311156Y-87923370D01*
X117416844Y-87923370D01*
X116848701Y-88036381D01*
X116367052Y-88358208D01*
X116045225Y-88839857D01*
X115932214Y-89408000D01*
X113258625Y-89408000D01*
X113016272Y-89165224D01*
X112139979Y-88801355D01*
X111191144Y-88800527D01*
X110314217Y-89162866D01*
X109642704Y-89833208D01*
X109278835Y-90709501D01*
X109278007Y-91658336D01*
X108043476Y-91658336D01*
X108055015Y-91629424D01*
X108042701Y-90680668D01*
X107703319Y-89861328D01*
X107358571Y-89671034D01*
X105843605Y-91186000D01*
X105484395Y-91186000D01*
X103969429Y-89671034D01*
X103624681Y-89861328D01*
X103272985Y-90742576D01*
X98500000Y-90742576D01*
X98500000Y-89491429D01*
X104149034Y-89491429D01*
X105664000Y-91006395D01*
X107178966Y-89491429D01*
X106988672Y-89146681D01*
X106107424Y-88794985D01*
X105158668Y-88807299D01*
X104339328Y-89146681D01*
X104149034Y-89491429D01*
X98500000Y-89491429D01*
X98500000Y-87070000D01*
X138990000Y-87070000D01*
X138990000Y-103430000D01*
X138990000Y-103430000D01*
G37*
X138990000Y-103430000D02*
X98500000Y-103430000D01*
X98500000Y-101982946D01*
X102534017Y-101982946D01*
X102802812Y-102568379D01*
X103275182Y-103006385D01*
X103757056Y-103205975D01*
X104013000Y-103086836D01*
X104013000Y-101727000D01*
X102652633Y-101727000D01*
X102534017Y-101982946D01*
X98500000Y-101982946D01*
X98500000Y-101217054D01*
X102534017Y-101217054D01*
X102652633Y-101473000D01*
X104013000Y-101473000D01*
X104013000Y-100113164D01*
X104267000Y-100113164D01*
X104267000Y-101473000D01*
X104287000Y-101473000D01*
X104287000Y-101727000D01*
X104267000Y-101727000D01*
X104267000Y-103086836D01*
X104522944Y-103205975D01*
X105004818Y-103006385D01*
X105102398Y-102915903D01*
X105199910Y-103067441D01*
X105412110Y-103212431D01*
X105664000Y-103263440D01*
X107696000Y-103263440D01*
X107931317Y-103219162D01*
X108147441Y-103080090D01*
X108292431Y-102867890D01*
X108343440Y-102616000D01*
X108343440Y-101982946D01*
X112694017Y-101982946D01*
X112962812Y-102568379D01*
X113435182Y-103006385D01*
X113917056Y-103205975D01*
X114173000Y-103086836D01*
X114173000Y-101727000D01*
X112812633Y-101727000D01*
X112694017Y-101982946D01*
X108343440Y-101982946D01*
X108343440Y-101217054D01*
X112694017Y-101217054D01*
X112812633Y-101473000D01*
X114173000Y-101473000D01*
X114173000Y-100113164D01*
X114427000Y-100113164D01*
X114427000Y-101473000D01*
X114447000Y-101473000D01*
X114447000Y-101727000D01*
X114427000Y-101727000D01*
X114427000Y-103086836D01*
X114682944Y-103205975D01*
X115164818Y-103006385D01*
X115262398Y-102915903D01*
X115359910Y-103067441D01*
X115572110Y-103212431D01*
X115824000Y-103263440D01*
X117856000Y-103263440D01*
X118091317Y-103219162D01*
X118307441Y-103080090D01*
X118452431Y-102867890D01*
X118503440Y-102616000D01*
X118503440Y-101982946D01*
X122854017Y-101982946D01*
X123122812Y-102568379D01*
X123595182Y-103006385D01*
X124077056Y-103205975D01*
X124333000Y-103086836D01*
X124333000Y-101727000D01*
X122972633Y-101727000D01*
X122854017Y-101982946D01*
X118503440Y-101982946D01*
X118503440Y-101217054D01*
X122854017Y-101217054D01*
X122972633Y-101473000D01*
X124333000Y-101473000D01*
X124333000Y-100113164D01*
X124587000Y-100113164D01*
X124587000Y-101473000D01*
X124607000Y-101473000D01*
X124607000Y-101727000D01*
X124587000Y-101727000D01*
X124587000Y-103086836D01*
X124842944Y-103205975D01*
X125324818Y-103006385D01*
X125422398Y-102915903D01*
X125519910Y-103067441D01*
X125732110Y-103212431D01*
X125984000Y-103263440D01*
X128016000Y-103263440D01*
X128251317Y-103219162D01*
X128467441Y-103080090D01*
X128612431Y-102867890D01*
X128663440Y-102616000D01*
X128663440Y-101982946D01*
X133014017Y-101982946D01*
X133282812Y-102568379D01*
X133755182Y-103006385D01*
X134237056Y-103205975D01*
X134493000Y-103086836D01*
X134493000Y-101727000D01*
X133132633Y-101727000D01*
X133014017Y-101982946D01*
X128663440Y-101982946D01*
X128663440Y-101217054D01*
X133014017Y-101217054D01*
X133132633Y-101473000D01*
X134493000Y-101473000D01*
X134493000Y-100113164D01*
X134747000Y-100113164D01*
X134747000Y-101473000D01*
X134767000Y-101473000D01*
X134767000Y-101727000D01*
X134747000Y-101727000D01*
X134747000Y-103086836D01*
X135002944Y-103205975D01*
X135484818Y-103006385D01*
X135582398Y-102915903D01*
X135679910Y-103067441D01*
X135892110Y-103212431D01*
X136144000Y-103263440D01*
X138176000Y-103263440D01*
X138411317Y-103219162D01*
X138627441Y-103080090D01*
X138772431Y-102867890D01*
X138823440Y-102616000D01*
X138823440Y-100584000D01*
X138779162Y-100348683D01*
X138640090Y-100132559D01*
X138427890Y-99987569D01*
X138176000Y-99936560D01*
X136144000Y-99936560D01*
X135908683Y-99980838D01*
X135692559Y-100119910D01*
X135581160Y-100282948D01*
X135484818Y-100193615D01*
X135002944Y-99994025D01*
X134747000Y-100113164D01*
X134493000Y-100113164D01*
X134237056Y-99994025D01*
X133755182Y-100193615D01*
X133282812Y-100631621D01*
X133014017Y-101217054D01*
X128663440Y-101217054D01*
X128663440Y-100584000D01*
X128619162Y-100348683D01*
X128480090Y-100132559D01*
X128267890Y-99987569D01*
X128016000Y-99936560D01*
X125984000Y-99936560D01*
X125748683Y-99980838D01*
X125532559Y-100119910D01*
X125421160Y-100282948D01*
X125324818Y-100193615D01*
X124842944Y-99994025D01*
X124587000Y-100113164D01*
X124333000Y-100113164D01*
X124077056Y-99994025D01*
X123595182Y-100193615D01*
X123122812Y-100631621D01*
X122854017Y-101217054D01*
X118503440Y-101217054D01*
X118503440Y-100584000D01*
X118459162Y-100348683D01*
X118320090Y-100132559D01*
X118107890Y-99987569D01*
X117856000Y-99936560D01*
X115824000Y-99936560D01*
X115588683Y-99980838D01*
X115372559Y-100119910D01*
X115261160Y-100282948D01*
X115164818Y-100193615D01*
X114682944Y-99994025D01*
X114427000Y-100113164D01*
X114173000Y-100113164D01*
X113917056Y-99994025D01*
X113435182Y-100193615D01*
X112962812Y-100631621D01*
X112694017Y-101217054D01*
X108343440Y-101217054D01*
X108343440Y-100584000D01*
X108299162Y-100348683D01*
X108160090Y-100132559D01*
X107947890Y-99987569D01*
X107696000Y-99936560D01*
X105664000Y-99936560D01*
X105428683Y-99980838D01*
X105212559Y-100119910D01*
X105101160Y-100282948D01*
X105004818Y-100193615D01*
X104522944Y-99994025D01*
X104267000Y-100113164D01*
X104013000Y-100113164D01*
X103757056Y-99994025D01*
X103275182Y-100193615D01*
X102802812Y-100631621D01*
X102534017Y-101217054D01*
X98500000Y-101217054D01*
X98500000Y-97579571D01*
X107148774Y-97579571D01*
X107339068Y-97924319D01*
X108220316Y-98276015D01*
X109169072Y-98263701D01*
X109988412Y-97924319D01*
X110178706Y-97579571D01*
X108663740Y-96064605D01*
X107148774Y-97579571D01*
X98500000Y-97579571D01*
X98500000Y-95441576D01*
X106272725Y-95441576D01*
X106285039Y-96390332D01*
X106624421Y-97209672D01*
X106969169Y-97399966D01*
X108484135Y-95885000D01*
X108843345Y-95885000D01*
X110358311Y-97399966D01*
X110703059Y-97209672D01*
X111054755Y-96328424D01*
X111042441Y-95379668D01*
X110703059Y-94560328D01*
X110572026Y-94488000D01*
X115932214Y-94488000D01*
X116045225Y-95056143D01*
X116367052Y-95537792D01*
X116848701Y-95859619D01*
X117416844Y-95972630D01*
X119311156Y-95972630D01*
X119879299Y-95859619D01*
X120360948Y-95537792D01*
X120682775Y-95056143D01*
X120795786Y-94488000D01*
X120682775Y-93919857D01*
X120360948Y-93438208D01*
X120023127Y-93212484D01*
X120404024Y-92907989D01*
X120684649Y-92398810D01*
X120705540Y-92304832D01*
X120584214Y-92075000D01*
X118491000Y-92075000D01*
X118491000Y-92095000D01*
X118237000Y-92095000D01*
X118237000Y-92075000D01*
X116143786Y-92075000D01*
X116022460Y-92304832D01*
X116043351Y-92398810D01*
X116323976Y-92907989D01*
X116704873Y-93212484D01*
X116367052Y-93438208D01*
X116045225Y-93919857D01*
X115932214Y-94488000D01*
X110572026Y-94488000D01*
X110358311Y-94370034D01*
X108843345Y-95885000D01*
X108484135Y-95885000D01*
X106969169Y-94370034D01*
X106624421Y-94560328D01*
X106272725Y-95441576D01*
X98500000Y-95441576D01*
X98500000Y-94190429D01*
X107148774Y-94190429D01*
X108663740Y-95705395D01*
X110178706Y-94190429D01*
X109988412Y-93845681D01*
X109107164Y-93493985D01*
X108158408Y-93506299D01*
X107339068Y-93845681D01*
X107148774Y-94190429D01*
X98500000Y-94190429D01*
X98500000Y-92880571D01*
X104149034Y-92880571D01*
X104339328Y-93225319D01*
X105220576Y-93577015D01*
X106169332Y-93564701D01*
X106988672Y-93225319D01*
X107178966Y-92880571D01*
X105664000Y-91365605D01*
X104149034Y-92880571D01*
X98500000Y-92880571D01*
X98500000Y-90742576D01*
X103272985Y-90742576D01*
X103285299Y-91691332D01*
X103624681Y-92510672D01*
X103969429Y-92700966D01*
X105484395Y-91186000D01*
X105843605Y-91186000D01*
X107358571Y-92700966D01*
X107703319Y-92510672D01*
X108043476Y-91658336D01*
X109278007Y-91658336D01*
X109640346Y-92535263D01*
X110310688Y-93206776D01*
X111186981Y-93570645D01*
X112135816Y-93571473D01*
X113012743Y-93209134D01*
X113684256Y-92538792D01*
X114048125Y-91662499D01*
X114048953Y-90713664D01*
X113686614Y-89836737D01*
X113258625Y-89408000D01*
X115932214Y-89408000D01*
X116045225Y-89976143D01*
X116367052Y-90457792D01*
X116704873Y-90683516D01*
X116323976Y-90988011D01*
X116043351Y-91497190D01*
X116022460Y-91591168D01*
X116143786Y-91821000D01*
X118237000Y-91821000D01*
X118237000Y-91801000D01*
X118491000Y-91801000D01*
X118491000Y-91821000D01*
X120584214Y-91821000D01*
X120705540Y-91591168D01*
X120684649Y-91497190D01*
X120404024Y-90988011D01*
X120023127Y-90683516D01*
X120360948Y-90457792D01*
X120682775Y-89976143D01*
X120795786Y-89408000D01*
X120694739Y-88900000D01*
X127254001Y-88900000D01*
X127291934Y-89090704D01*
X127291931Y-89093663D01*
X127293071Y-89096422D01*
X127331338Y-89288807D01*
X127439362Y-89450476D01*
X127440493Y-89453212D01*
X127442603Y-89455326D01*
X127551580Y-89618420D01*
X130091579Y-92158420D01*
X130310700Y-92304832D01*
X130421194Y-92378662D01*
X130810000Y-92456000D01*
X137414000Y-92456000D01*
X137604706Y-92418066D01*
X137607663Y-92418069D01*
X137610420Y-92416930D01*
X137802806Y-92378662D01*
X137964474Y-92270638D01*
X137967212Y-92269507D01*
X137969327Y-92267396D01*
X138132420Y-92158420D01*
X138240444Y-91996751D01*
X138242540Y-91994659D01*
X138243686Y-91991900D01*
X138352662Y-91828806D01*
X138390595Y-91638104D01*
X138391730Y-91635370D01*
X138391733Y-91632384D01*
X138430000Y-91440000D01*
X138392066Y-91249294D01*
X138392069Y-91246337D01*
X138390930Y-91243580D01*
X138352662Y-91051194D01*
X138244638Y-90889526D01*
X138243507Y-90886788D01*
X138241396Y-90884673D01*
X138132420Y-90721580D01*
X137970751Y-90613556D01*
X137968659Y-90611460D01*
X137965900Y-90610314D01*
X137802806Y-90501338D01*
X137612104Y-90463405D01*
X137609370Y-90462270D01*
X137606384Y-90462267D01*
X137414000Y-90424000D01*
X131230841Y-90424000D01*
X128988420Y-88181580D01*
X128826750Y-88073555D01*
X128824659Y-88071460D01*
X128821901Y-88070315D01*
X128658807Y-87961338D01*
X128468105Y-87923406D01*
X128465370Y-87922270D01*
X128462382Y-87922267D01*
X128270000Y-87884001D01*
X128079296Y-87921934D01*
X128076337Y-87921931D01*
X128073578Y-87923071D01*
X127881193Y-87961338D01*
X127719524Y-88069362D01*
X127716788Y-88070493D01*
X127714674Y-88072603D01*
X127551580Y-88181580D01*
X127443555Y-88343250D01*
X127441460Y-88345341D01*
X127440315Y-88348099D01*
X127331338Y-88511193D01*
X127293406Y-88701895D01*
X127292270Y-88704630D01*
X127292267Y-88707618D01*
X127254001Y-88900000D01*
X120694739Y-88900000D01*
X120682775Y-88839857D01*
X120360948Y-88358208D01*
X119879299Y-88036381D01*
X119311156Y-87923370D01*
X117416844Y-87923370D01*
X116848701Y-88036381D01*
X116367052Y-88358208D01*
X116045225Y-88839857D01*
X115932214Y-89408000D01*
X113258625Y-89408000D01*
X113016272Y-89165224D01*
X112139979Y-88801355D01*
X111191144Y-88800527D01*
X110314217Y-89162866D01*
X109642704Y-89833208D01*
X109278835Y-90709501D01*
X109278007Y-91658336D01*
X108043476Y-91658336D01*
X108055015Y-91629424D01*
X108042701Y-90680668D01*
X107703319Y-89861328D01*
X107358571Y-89671034D01*
X105843605Y-91186000D01*
X105484395Y-91186000D01*
X103969429Y-89671034D01*
X103624681Y-89861328D01*
X103272985Y-90742576D01*
X98500000Y-90742576D01*
X98500000Y-89491429D01*
X104149034Y-89491429D01*
X105664000Y-91006395D01*
X107178966Y-89491429D01*
X106988672Y-89146681D01*
X106107424Y-88794985D01*
X105158668Y-88807299D01*
X104339328Y-89146681D01*
X104149034Y-89491429D01*
X98500000Y-89491429D01*
X98500000Y-87070000D01*
X138990000Y-87070000D01*
X138990000Y-103430000D01*
M02*
